<svg xmlns="http://www.w3.org/2000/svg" viewBox="0 0 148.52879 62.9995"><defs><style>.cls-1{fill:#fff;}</style></defs><title>Asset 1</title><g id="Layer_2" data-name="Layer 2"><g id="Laag_1" data-name="Laag 1"><path class="cls-1" d="M27.1079.3999C12.3808.3999.3989,14.3535.3989,31.4995c0,17.1485,11.9819,31.0996,26.709,31.0996S53.81741,48.648,53.81741,31.4995C53.81741,14.3535,41.8349.3999,27.1079.3999Z"/><path d="M11.9643,16.7485c.31111-.0556.7012-.1289,1.0293-.2172v2.187c0,.2715.00781.2851.334.3188v.1621H11.998v-.1621c.3267-.0337.336-.0473.336-.3188V17.1177c0-.1743-.0161-.1992-.1514-.21l-.2183-.0127Zm26.6079-.1679c-.02579.1821-.0502.3886-.1035.7656h.1875c.0918-.2393.1094-.2583.3863-.2583h.8632c-.3725.6885-.81,1.3989-1.2666,2.0957l.0337.0649.5987-.0503c.3525-.8461.73391-1.7236,1.14991-2.5615l-.04741-.0561Zm2.2896-.002-.1729,1.3745a1.621,1.621,0,0,1,.4151-.0703.55022.55022,0,0,1,.5708.61181c0,.3365-.1206.4912-.3013.4912-.1816,0-.4228-.2221-.5195-.2998a.12392.12392,0,0,0-.1611.0054.38791.38791,0,0,0-.1539.2129.16215.16215,0,0,0,.0562.1841,1.08268,1.08268,0,0,0,.5571.1601,1.391,1.391,0,0,0,.7232-.2587.91293.91293,0,0,0,.4233-.7525.77888.77888,0,0,0-.82225-.733q-.025.00142-.04985.00447a1.14673,1.14673,0,0,0-.479.1211l.087-.5664h1.07171l.084-.4849Zm-26.8213,0-.1738,1.3745a1.6375,1.6375,0,0,1,.417-.0703.54876.54876,0,0,1,.5688.6118c0,.3365-.1206.4912-.3012.4912s-.42189-.2221-.5196-.2998a.12254.12254,0,0,0-.1601.0054.38248.38248,0,0,0-.1538.2129.16421.16421,0,0,0,.0561.1841,1.07335,1.07335,0,0,0,.5571.1601,1.391,1.391,0,0,0,.7232-.2587.91355.91355,0,0,0,.4238-.7525.77933.77933,0,0,0-.82311-.73294q-.02477.00144-.04939.00444a1.15082,1.15082,0,0,0-.48.1211l.08691-.5664h1.0727l.083-.4849ZM53.81741,31.4995c0,17.1485-11.98251,31.0996-26.70951,31.0996S.3989,48.648.3989,31.4995C.3989,14.3535,12.3808.3999,27.1079.3999S53.81741,14.3535,53.81741,31.4995Zm.39938,0C54.2168,14.1318,42.0552,0,27.10789,0,12.1577,0,0,14.1318,0,31.4995c0,17.3692,12.1577,31.5,27.1079,31.5C42.0552,62.9995,54.2168,48.8687,54.2168,31.4995ZM26.168,12.5083a.39924.39924,0,0,0,.415.1587.62992.62992,0,0,0,.3813-.3286,1.37254,1.37254,0,0,0-.33789.02c-.09271.0137-.081.1006-.18751.0684-.1147-.0352-.1621.0146-.2709.0815m.0888-.5815c-.0918.0088-.1596.1006-.0757.1635.0581.043.0581-.0898.169-.0312a.14812.14812,0,0,0,.1655-.0142.16432.16432,0,0,1,.165-.0332c.0625.0235.11581-.1367-.0185-.1484a.25308.25308,0,0,0-.1816.0474c-.0694.0542-.0518.0278-.1167.0239a.32655.32655,0,0,0-.107-.0078m.4527-.8706h0l-.002.0009Zm.6894-.3589a1.93093,1.93093,0,0,0-.8379.2304.09819.09819,0,1,0,.14783.12927l.00067-.00077c.00191-.0039-.0298.0136.0493-.0425a.29828.29828,0,0,0-.002.0508.1792.1792,0,1,0,.2705-.1753,1.59931,1.59931,0,0,1,.3775-.0606c.0542-.0019.09861-.0224.09661-.0781-.00391-.0532-.04631-.0552-.10252-.0532m-1.17329-.0523a3.09836,3.09836,0,0,1,1.6089-.4858.63328.63328,0,0,1,.6923.4409c.20661-.2139.085-.769-.6303-.7563a2.01279,2.01279,0,0,0-1.6709.8012m.79681,15.2032c-1.19091-.1485-1.31831-.9307-1.32471-1.2706-.0048-.2793.2828-.1503-.21529-.4179a1.95328,1.95328,0,0,0-1.71921-.1426l.1255.124a1.64851,1.64851,0,0,1,1.1376.3389c-.1464,2.0947,1.275,1.958,1.275,1.958a1.19114,1.19114,0,0,0,.9443.5693c.1157-.0381.2617-.0859.4419-.1396a1.21235,1.21235,0,0,1-.66509-1.0195m3.45019.36911c.0069-.0303.57281-.1758.5782-.208a.67955.67955,0,0,1,.4018-.4942.21723.21723,0,0,0,.15581-.1933.7027.7027,0,0,0-.20711-.6748,4.07847,4.07847,0,0,1-.75189-1.8311c-.03861-.1152-.09771.0196-.09771.0196s.36971,1.8496-.2905,1.9277a.99878.99878,0,0,1-.8169,1.0908c-.0976.0186-.1577.0772-.1557.1553a1.25651,1.25651,0,0,1-.1573.4922,8.05736,8.05736,0,0,1,1.3955-.1885.59159.59159,0,0,0-.0542-.0957m.0791-4.18461a1.91462,1.91462,0,0,1,.68071-.123.66608.66608,0,0,1,.54789.2724l.1347.3916s.3902.1924.5313-.0078c.1245-.1738.05911-.3496-.1006-.542a.98176.98176,0,0,0-.94629-.4072,1.47654,1.47654,0,0,0-.87351.3242l.0258.0918m-9.1088-2.64059a2.458,2.458,0,0,0-.62549,2.0996c.05029,1.4238.75089,1.5742,1.34859.8252.4639-.5811.6528-1.2095.5488-1.1758-.3178.105-.8979.1499-1.1465-.1748a1.46624,1.46624,0,0,1,.0484-1.4985l-.17381-.0757M29.98482,42.603a7.41717,7.41717,0,0,1-1.8627-1.9736c-1.4009-2.251-1.6011-4.1357-1.5884-9.2861,0-.208.0039-.4034.0058-.6016l-.7505-.0732s-.164,5.4072-.164,6.0039c0,.8154.228,1.5752.3555.0478.062-.7597-.1148-3.2011.08691-3.2011.28169,0,.34369,9.205.03949,9.205a15.10043,15.10043,0,0,0-1.6899-.1045,1.50591,1.50591,0,0,0-1.2989-.2656,2.25186,2.25186,0,0,0,.6202.3252l-9.75689,2.5293-.59471-.3516L9.3823,46.5327l4.4439-.4336.23921-.6718,9.92479-2.6368c.4336.1905.8701.3731.8921.3965.1162.1094,1.3569-.0918,1.3232.3985-.0175.2597-.3613.4648-.7197.6093-.3408.1387-.8232.0137-.8042.0918a1.704,1.704,0,0,0,1.1397.0957,5.51636,5.51636,0,0,0,1.8559-1.0605s2.1377-.1524,2.4263-.5899a1.58216,1.58216,0,0,1-.1187-.1289M13.5942,45.7241l-2.6382.4073,2.7657-.7627Zm.7388-17.0449s1.2622.1895,1.3452-.5107c.0396-.3369-.1699-.4473-.3486-.419-.1621.0274-.3033.1621-.1529.3946.07871.1259.2378.373-.8437.5351m-1.0352-.6211a.14684.14684,0,1,0,.29061,0,.193.193,0,0,0-.023-.0879l.11179.0069a.0759.0759,0,0,0,.0689-.0801.07709.07709,0,0,0-.0811-.0694l-.51759.0235c-.041.0039-.06781.0117-.06591.0547.003.041.0327.0449.0733.041l.1748.0098a.17751.17751,0,0,0-.0318.10149m3.83451,4.9815a.62972.62972,0,0,1,1.03711.1367,1.63251,1.63251,0,0,0-.61031.0693s.6279.2197.4751.6133a.82571.82571,0,0,0-.51079-.2891s.169.5801-.17191.7315c0,0-.0673-.5127-.4067-.4951a.35563.35563,0,0,0-.32787.38138l.00367.03072s-.2056-.1211-.2056-.5459a.24924.24924,0,0,0-.2031-.2744,3.5247,3.5247,0,0,1-1.8057-1.1426,4.035,4.035,0,0,1-1.3779.4082s-.1738.1992.1016.2226a2.12611,2.12611,0,0,1,1.8203.9727c.103.1523.2905.291.78321.291,0,0,0,.5625-.96971.5811,0,0,.5869.4345.9751.7724.16061.1358.2358.0518.3544-.0351.1343-.1026.8433-.5674,1.0816.1377,0,0-.4141-.0791-.5708.0332a1.018,1.018,0,0,1,.3169.8193s-.2696-.3555-.5-.2637c-.1133.0469.1919.4102-.2031.5801,0,0,.0454-.499-.4327-.4863,0,0,.0689.3164-.3398.3838,0,0,.2417-.626-.188-.751-.1191-.0313-2.0268-.2549-2.2812-1.0547a3.73043,3.73043,0,0,1,.52731-.2051S12.397,33.8589,12.227,33.2925c0,0-.228-.0576-.1362.0713.085.1201.3062.2715.1875,1.3974a.73635.73635,0,0,0,.4082.7696,1.14294,1.14294,0,0,1-1.2602-.4785s-.025,1.5117.8344,1.5527c.3418.0176,1.0215.0332,1.0034.8887,0,0-.34569-.4121-.5996-.3262,0,0,.2442.291.1416.5469,0,0-.3222-.4082-.4922-.3418,0,0,.1333.291.0162.4629,0,0-.2798-.6426-.4331-.625-.1519.0175-.2998.2988-.26659.5898a.33459.33459,0,0,1-.22221-.5303c.103-.1884.1846-.1611.2568-.2734.06941-.1025-2.1958-.9365-1.9072-2.6084,0,0,.3633.3154.6304.0664.22121-.2051.1025-.748-.3745-1.1416,0,0,.4199-.1572.59571-.2236.13619-.0498.06-.2442.12839-.3965a1.27389,1.27389,0,0,1-.9556-.3242,1.00481,1.00481,0,0,1-.1684-.9532,5.0927,5.0927,0,0,1,.8452-1.4257c.0986-.1348.1909-.2598.2588-.3614.1879-.2744.4189-.8144.2558-1.0937a.49048.49048,0,0,0-.416-.2178,1.35936,1.35936,0,0,0-.2427.0176c.168.3506-.1206.8447-.5327,1.1006-.6489.4033-.54879.8838-.54879.8838a4.56284,4.56284,0,0,1-.083-1.7002c.13329-.5196.56489-1.1016,1.04879-.6329,0,0,.2363-.0175.32521-.0175a.83494.83494,0,0,1,.74169.3925c.333.5625-.2412,1.4249-.2676,1.461-.0713.1035-.166.2324-.2646.3711a5.03512,5.03512,0,0,0-.7886,1.2988c-.06689.292-.0591.5332.0889.6484a1.13445,1.13445,0,0,0,.8247.1993,6.21987,6.21987,0,0,1,1.5678-1.0235c.2715-.0898.3023-.3593.1006-.3183-.16989.0351-1.0093.1582-1.2822-.3389,0,0,.9424-.2627.9858-.7646a.82228.82228,0,0,1-.8828.0566s.7764-.5625.61231-1.0586c-.05711-.1689-.20651-.7813.002-.9287.08489-.0586-.18751-.2725-.34861-.2559a.5221.5221,0,0,1,.7338-.0068c.0415.043.1621.0264.2369.0068a2.97217,2.97217,0,0,1,.642-.1728c.2334,0,.3526-.1162.6148.2187a3.10823,3.10823,0,0,0,.4204.1934c.0972.0342.0693.1699.0518.3662-.0083.0947-.0557.0576-.6026.1562-.1484.0264-.3598.6163-.269.6319.0952.0176.6499-.207.7617-.1563a.28167.28167,0,0,1,.0503.375c-.0591.0938-.2134.0166-.3672.0498-.1987.0479-.4409.2627-.0942.5655.1967.1699.8686.4433,1.4482-.666a1.18869,1.18869,0,0,1,.1362.8017l1.482-1.2285s-.1367-.8184.4751-1.126c0,0-.2007.3496-.1167.5371a1.30388,1.30388,0,0,1,.645-.2988s-.4063.4697-.3882.5547c0,0,.5601-.1602.69531-.043,0,0-.57911.2559-.57911.4102,0,.1367.4082.1709.5967.1211,0,0-.0859.4082-.7661.3388a6.311,6.311,0,0,1-1.5332,1.4864c-.23929.1533.0415.498.562.3232a1.03574,1.03574,0,0,0,.4424-.3232s.477,1.0224-1.14069,1.0752a15.97226,15.97226,0,0,1,1.10749,1.2109c.1362.20409.2202.03119.27341-.06931M43.6816,37.5757c-.0166.084-.0303.1914-.1045.2148a.465.465,0,0,0-.2094.1016c-.0938.0732-.07429.1074.0463.1084.2056.0078.42-.3154.4336-.375.0152-.0654.1871-.1709.26081-.2041.104-.0488.00489-.1582.00489-.1582l-.1905-.043a.43.43,0,0,0-.059-.3476,1.23587,1.23587,0,0,0,.7851-.2041c.0483-.0557.1826-.1573.169-.2295a.39754.39754,0,0,0-.1089-.1983,1.07145,1.07145,0,0,0-.7032-.0341c-.3823.1308-.5839-.0196-.62939-.0782-.02141-.0254-.01361-.0761.01619-.1445.06881.0557.25481.0078.33981-.0293.11719-.0547.14009-.2031.02149-.2305-.3438-.0791-.417.1299-.417.1299-.0928.1553-.1084.2686-.0493.3447a.7643.7643,0,0,0,.7529.1133.94991.94991,0,0,1,.6123.0254c.0278.0176,0,.1475,0,.1524.0078.039-.0615.0761-.0869.1054-.1343.1563-.647.1699-.8516.166a.85265.85265,0,0,0-.7465.1602c-.1602.1172-.2706.1621-.3555.123-.166-.0791.1973-.4541.2466-.5107.06051-.0732.04151-.1338-.0572-.0986-.3515.1172-.3696-.0996-.416-.1719-.06-.0977-.0708-.0391-.1094.0215-.0595.0908.0792.5215-.249.5957a.662.662,0,0,1-.7968-.3906l-.0962.0312a.78266.78266,0,0,0,.395.4619c.1562.0889.1523.1387.16111.211l.14939.1425c-.0141.0479-.12739.2823-.12739.2823-.01611.1084-.42381.4453-.42381.4453-.1206-.0059-.3658.0713-.3179.1328.1382.1904.456.0166.456.0166a3.34094,3.34094,0,0,1,.6719-.6279s.6026-.1729.7832-.2413c.1631-.0683.1177.0264.1177.0264a5.25614,5.25614,0,0,0-.334.6182c-.1699.0293-.3667.1572-.2964.2217.15531.1377.4131-.1211.4131-.1211-.0337-.0616.1538-.2637.1538-.2637l.251-.5518.249-.1123a.45372.45372,0,0,0,.2153.2705c.1626.0791.0303.1436.0303.1436m.2661-9.834.1983-.4121-.4859.2363-.0493-.375-.2617.3125-.3252-.3515.0127.4004Zm-6.476.1875c-.5411-.082-.462-.2041-.4214-.2646.0747-.1202.0049-.1895-.0762-.2012-.0908-.0117-.1948.042-.1758.2109.0425.34961.6734.25491.6734.2549m-.9341-1.13669h-.2481v.5254h.2481Zm2.9453.0498h-.249v.5244h.249Zm-3.5972,2.0068h-.249v.5244h.249Zm-.2212,2.6201h-.249v.5245h.249Zm1.8223.6612h-.249v.5254h.249Zm-6.0938.5117c.0298-.1299.0191-.4219-.225-.4355-.1954-.0108-.4307.0332-.46,1.1445a1.86914,1.86914,0,0,1,.60641-.0215,6.28506,6.28506,0,0,1,.07859-.6875m.37161-4.6787c-.249-.0127-.417.2158-.47019.5703-.05911.3896-.09861.7061-.12251.9131a1.15461,1.15461,0,0,1,.1938.0156,2.23684,2.23684,0,0,1,.563-.9687.19516.19516,0,0,1-.0078-.0508c.0434-.3252-.06149-.4746-.1563-.4795m-1.19919,1.5322a1.24312,1.24312,0,0,1,.15429-.0273,4.3444,4.3444,0,0,0-.0791-1.0352c-.0928-.3867-.2637-.5078-.4106-.5449-.1177.1162-.2788.0644-.4585.3691a3.74083,3.74083,0,0,1,.7627,1.2422l.03121-.0039m2.90429,1.9668c.0039-.4062.0088-.8135.0088-1.2168-.0513.1777-.1099.3613-.1865.5586.0503.1992.10841.416.1777.6582m-2.189,4.3438a.14289.14289,0,0,1,.0669.1035.72283.72283,0,0,1,.1011.1601,3.6624,3.6624,0,0,1,.0215,1.6778,2.45174,2.45174,0,0,0,.3145-1.9473,1.71263,1.71263,0,0,0-.2017-.3613s-.3535.3261-.3023.3672m.732-4.8643a.78124.78124,0,0,0-.2066-.9521,1.53094,1.53094,0,0,1-.0166-.1944,1.49057,1.49057,0,0,1,.7495-1.081c.1089-.0547.2725-.125.3565-.0235a1.34546,1.34546,0,0,1,.1396,1.0703,3.484,3.484,0,0,0-.1455-.415.36.36,0,0,0-.6606.2861,22.48746,22.48746,0,0,1,.707,2.1543l.1333.4434a5.826,5.826,0,0,1-.5517,3.0742,12.32607,12.32607,0,0,0-.5743,4.4434,22.77,22.77,0,0,1,1.0899-4.4903,9.98966,9.98966,0,0,0,.36521-.9492,30.41943,30.41943,0,0,1-.86421,6.3613,5.13859,5.13859,0,0,1-.8702,1.7813,3.87694,3.87694,0,0,1-.5107.5684l-.0376-.0215-.0107-.0078c-.0162-.0088-.0318-.0186-.0513-.0284l-.0049-.0048a8.2354,8.2354,0,0,1-1.874-1.6485,7.15973,7.15973,0,0,1-.7163-1.0176c-.9697-1.6816-1.2593-2.9804-1.3628-5.9082-.023-.6396-.0366-1.3486-.0484-2.1601-.00289-.2735-.0068-.5537-.0097-.8467a22.1504,22.1504,0,0,1,.207-3.7852,14.18966,14.18966,0,0,1,1.7842-.4716,7.26528,7.26528,0,0,1,2.1885-.1739.14715.14715,0,0,0,.019.1739.96812.96812,0,0,0,.2974.248,1.555,1.555,0,0,0-.5157.4629,1.02954,1.02954,0,0,0-.642-.5615c-.3912-.0938-.7984-.0088-1.1065.6338a1.175,1.175,0,0,0-1.13674.09077c-.5147.4209-.644,1.5439.1519,2.9912-.0728.209-.1431.4102-.1944.583-.6343,2.1172.2725,3.2949.8643,4.4404a33.91626,33.91626,0,0,1,1.29781,3.8418,11.28212,11.28212,0,0,0-.76271-4.1679c-.4258-.8799-1.25529-2.2364-.769-3.7676.1894-.5977.5303-1.3574.6831-2.0742.0181-.4102-.5015-.8692-.6577-.3672-.0435.2148-.1065.4336-.1739.6582-.33979-.7881-.3891-1.416-.1245-1.6348a.74924.74924,0,0,1,.7095.0449,2.37117,2.37117,0,0,1,.7149,1.0606h-.004a1.44157,1.44157,0,0,1-.01169.875c-.14841.5117-.35151.7178-.019,1.0215a2.38595,2.38595,0,0,0,.54639.3291s-1.0283,2.1787.5,2.4287c.3335.0537.7148-.085.7148-.3281a1.807,1.807,0,0,1,.1861-1.1221c.0966-.1895.4262-.8369.2841-1.0986a1.62712,1.62712,0,0,1-.1025-.5977M30.937,35.9448c.12841-.2031.5205-.664.5205-.664.4692-.4903.8691-.6709,1.0518-1.3008.1718-.5879.1748-.6367.3242-1.2617.1582-.6582-.2744-1.3789-.4346-.8379-.188.6269-.1699,1.3525-.3506,1.8623a2.39277,2.39277,0,0,1-.83689,1.1006c-.05131.0508-.09371.1054-.144.1552a1.50567,1.50567,0,0,0-.13821-.0752c-.9009-.3964-1.2544-.5839-1.3877-1.416-.1543-.9472.1103-1.0644-.2642-1.9785-.0888-.1533-.2387.1494-.3227.3653a1.35884,1.35884,0,0,0-.0269.4921,8.49943,8.49943,0,0,0,.13771,1.6582c.26759.7676.83639,1.0332,1.667,1.3868a2.2744,2.2744,0,0,0-.31881.7617,2.57691,2.57691,0,0,0,.4472,1.6562,2.80278,2.80278,0,0,1,.0762-1.9043m2.36959-7.624c.0196.0205.0357.044.0542.0654-.0117-.0771-.0176-.1601-.0327-.2343a1.24253,1.24253,0,0,0-.5552-.7266.92486.92486,0,0,1-.51949.125,1.55205,1.55205,0,0,1,.23439.6182.86363.86363,0,0,1,.8188.1523M30.8125,31.1753a.31353.31353,0,0,0-.065-.1992,1.03331,1.03331,0,0,0,.23491-.1494.09417.09417,0,0,0,.01169-.1231.07363.07363,0,0,0-.1022-.02l-.00809.00631a2.11,2.11,0,0,1-.8042.3194.08692.08692,0,0,0-.064.0996.08157.08157,0,0,0,.08821.07436l.00169-.00016a3.88577,3.88577,0,0,0,.4184-.1142.31588.31588,0,0,0-.0166.1064c0,.1367.0693.248.1509.248.08489,0,.15429-.11131.15429-.248m1.2012-.2334a3.97538,3.97538,0,0,1-.6954-.252.07427.07427,0,0,0-.09964.03324l-.00436.01076a.088.088,0,0,0,.0386.1133,1.82655,1.82655,0,0,0,.2153.0947.24314.24314,0,0,0-.0966.2119c0,.125.061.2256.1391.2256.0762,0,.1382-.1006.1382-.2256a.32121.32121,0,0,0-.0371-.1543,3.50431,3.50431,0,0,0,.3545.1094m-.7983,1.0977c-.1954-.0108-.4307.0332-.46,1.1445a1.86914,1.86914,0,0,1,.60641-.0215,6.28237,6.28237,0,0,1,.07859-.6875c.0298-.1309.0201-.4219-.225-.4355m-.0591-.461a.39273.39273,0,0,0-.105-.0234c-.0908-.0078-.1719.0801-.0977.164.0503.0567.0694-.0879.1709-.0009a.1373.1373,0,0,0,.1621.0107.15428.15428,0,0,1,.17-.0059c.0571.0372.13421-.1298.0039-.1679a.21787.21787,0,0,0-.1856.0215c-.0762.0488-.0566.0195-.1186.0019M16.7627,42.2066l.0151.0058h.0205a.09924.09924,0,0,1-.0356-.0058m-6.5318.0058h.0196l.0151-.0058a.10959.10959,0,0,1-.0347.0058M21.7983,52.9419a5.29227,5.29227,0,0,0,10.5845.02944q0-.01472,0-.02944V45.6441H21.7983V52.9419m22.7735-5.76762c-3.3789,5.4131-8.4571,9.21-14.2769,10.2383a5.461,5.461,0,0,1-6.41849-.0088C18.0747,56.3648,13.0132,52.5757,9.644,47.1743H21.5967V45.4409H32.58541v1.7334H44.5718M30.7041,53.1597c.0371-.2149.0698-.7276-.4092-.8242-.5869-.1172-.9106.6093-.9243.6406a.30468.30468,0,0,1-.19.1504c-.0678.0078-.8159.1347-.8491.7343-.0268.4883.4761.586.6934.6036a1.84719,1.84719,0,0,0,.793-.1211c.1157-.0371.2734-.0313.4121-.0616.061-.124.0937-.2783.1587-.3837a1.83709,1.83709,0,0,0,.3154-.7383m.40481,1.082a.251.251,0,1,1-.0987.4922,1.778,1.778,0,0,0-.4643-.041,1.87858,1.87858,0,0,0-.0791.4619.2494.2494,0,0,1-.49814-.02554l0-.00085a2.662,2.662,0,0,1,.0376-.3222.25518.25518,0,0,1-.0395.0117,2.29042,2.29042,0,0,1-.98339.1445c-.73291-.0625-1.18361-.5039-1.15091-1.1289a1.20309,1.20309,0,0,1,.9214-1.0518l-1.7207-2.2138L25.3159,52.7817a1.20006,1.20006,0,0,1,.9194,1.0518c.0337.625-.416,1.0664-1.14989,1.1289a2.29289,2.29289,0,0,1-.98391-.1445.24183.24183,0,0,1-.03709-.0117,2.58519,2.58519,0,0,1,.03519.3222.25163.25163,0,0,1-.2358.2637.255.255,0,0,1-.2637-.2373,1.80646,1.80646,0,0,0-.0762-.4619,1.79154,1.79154,0,0,0-.4663.041.2509.2509,0,0,1-.0977-.4922h0a3.06449,3.06449,0,0,1,.3179-.043.33084.33084,0,0,0-.0215-.0351,2.35557,2.35557,0,0,1-.3833-.9199,1.09435,1.09435,0,0,1,.71484-1.37265q.04371-.01377.08846-.02385a1.16131,1.16131,0,0,1,1.24411.6318l1.79689-2.3174-1.043-1.3447h0l-1.7881,1.3916-.3467-.4492.8941-.6953-.3477-.4473-.894.6973-.6944-.8955.4488-.3487.3457.4493.4463-.3516-.3477-.4453.4463-.3477.6934.8936.4487-.3467-.6943-.8965.394-.3057,2.3545,3.0342,2.3579-3.0342.3931.3057-.6944.8965.4463.3467.6948-.8936.4473.3477-.3477.4453.4483.3516.3457-.4493.4468.3487-.6958.8955-.8926-.6973-.3457.4473.8916.6953-.3467.4492-1.7876-1.3916h0l-1.0439,1.3447,1.7973,2.3174a1.16169,1.16169,0,0,1,1.2447-.6318,1.09535,1.09535,0,0,1,.8265,1.31013q-.00989.04364-.0233.08636a2.34681,2.34681,0,0,1-.3833.9199c-.0069.0117-.0137.0234-.0215.0351a3.03135,3.03135,0,0,1,.31791.043m-5.37161-.3809c-.0332-.5996-.7803-.7265-.8491-.7343a.31384.31384,0,0,1-.191-.1504c-.0126-.0313-.3369-.7578-.9233-.6406-.48.0966-.4453.6093-.4092.8242a1.84305,1.84305,0,0,0,.3155.7383c.0659.1054.0986.2597.1606.3837.1367.0303.2944.0245.4102.0616a1.854,1.854,0,0,0,.7929.1211c.2173-.0176.7202-.1153.69341-.6036M23.88041,60.1069a.84737.84737,0,0,0-.29011-.1162c-.1738-.0283-.58589-.0058-.6865.5928a.5618.5618,0,0,0,.49561.68359c.26949.0488.27879.04.314-.1758Zm.12149-.72359c.0801-.4697.0464-.5088-.3979-.6103l.0298-.1797,1.5898.2695-.0303.1797c-.4023-.0401-.4458-.0156-.5244.4531l-.2451,1.4512c-.081.4746-.04739.5058.3218.5937l-.0313.1797-1.5805-.2676c-.6363-.1074-1.0313-.4521-.9375-1.0107.0898-.5391.5678-.7539,1.1133-.7402a1.85258,1.85258,0,0,1,.2905.0341l.3169.1524Zm-3.7929-.2002-.1963-.0732a.82334.82334,0,0,0-.4268-.0596.58219.58219,0,0,0-.4267.4121.56827.56827,0,0,0,.36321.7793c.251.0908.26659.0899.32819-.082Zm.25-.6855c.1631-.4473.1382-.4903-.231-.6524l.061-.1719,1.4541.5333-.0634.1699c-.3931-.1172-.4405-.1006-.6045.3467l-.5054,1.3818c-.166.4512-.1387.4922.2173.6484l-.0615.1719-1.5249-.5605a1.43405,1.43405,0,0,1-.6382-.3946.70382.70382,0,0,1-.0928-.6865.78614.78614,0,0,1,.8442-.4795c-.0244-.1553-.1132-.5195-.1738-.7519a2.456,2.456,0,0,0-.1865-.5323,1.06012,1.06012,0,0,0-.2388-.2861l.0767-.1543.2441.0898c.5406.2071.649.42.7339.6993.0742.25.1226.6074.1631.8173.0264.1553.0669.1983.25.2637l.0977.0352Zm-3.6035-1.1094-.628-.3691-.1592.9746.01711.0117Zm-.1402-1.2393-.1123-.0527c-.168-.0732-.2173-.0518-.2651.2471l-.063.4121.7666.4541c.0591-.0459.2251-.1895.373-.3242.1504-.1368.1416-.2032-.0048-.3135l-.1236-.086.09431-.1591,1.01219.6006-.0928.1562c-.252-.1094-.35739-.1582-.7319.1191l-1.9854,1.4659-.2339-.0772.3721-2.5683a.514.514,0,0,0-.2754-.6231l.0918-.1582,1.271.752Zm-2.5078-1.0498c.3062-.3691.3525-.375.708-.1123l.1157-.1396L13.08641,53.231c-.11031.0713-.5.3877-.63231.499l.1387.1406a1.16871,1.16871,0,0,1,.4502-.2021.79722.79722,0,0,1,.5078.2441,1.08522,1.08522,0,0,1,.3139.335c.0396.0957-.0298.2314-.1914.4238l-.4111.498-.3301-.2734c-.29-.2422-.2881-.2646-.1162-.5527l-.14549-.1211-.61721.7461.1465.122c.2505-.2236.2773-.2373.5669.0039l.3306.2764-.5562.6709c-.1025.126-.1084.1211-.2485.0039l-.19-.1572c-.2387-.1992-.3169-.3301-.3257-.4102a.83966.83966,0,0,1,.148-.4453l-.1519-.1113c-.1928.2725-.3716.5195-.4467.6191l1.82121,1.5137.11669-.1416c-.2924-.2685-.2963-.3144.0098-.6846Zm-2.5669-1.9668c.1895-.2549.4253-.5586.4707-.6513a1.58719,1.58719,0,0,0-.397-.7842c-.478-.5235-1.0815-.6524-1.5024-.2656a1.04718,1.04718,0,0,0-.0977,1.2714l.0664.1602a.54425.54425,0,0,1-.05119.6484.4282.4282,0,0,1-.60493-.02781L9.5097,53.4663a.76022.76022,0,0,1,.023-.9355l-.15429-.1309c-.20951.2529-.35941.4258-.47221.5645a2.82069,2.82069,0,0,0,.3697.5957c.5034.5527,1.0634.5879,1.458.2265.3237-.3008.2173-.747.0717-1.125l-.0708-.1748a.639.639,0,0,1,.1075-.7607.45022.45022,0,0,1,.63417.05675l.01963.02525a1.08462,1.08462,0,0,1-.002,1.1836ZM7.8847,50.562c-.3867.2852-.4316.2676-.6904-.041l-.147.1074.9278,1.2657.147-.1075c-.2183-.3418-.2212-.3867.1679-.6728l1.1822-.8692c.3833-.2841.4316-.2705.6914.0401l.1474-.1074-.9267-1.2657-.147.1075c.2173.3398.2143.3906-.167.6728ZM7.624,47.4409c.3242-.1816.3882-.2773.2373-.5488a1.05228,1.05228,0,0,0-1.5962-.3301c-.727.4043-.8574.9297-.5254,1.5283.1006.1817.1499.2432.1856.2549.0356.0098.1089-.0176.2182-.0771Zm-2.1313.6748a2.00652,2.00652,0,0,1-.3101-1.3642,1.25478,1.25478,0,0,1,.626-.8008c.9643-.5371,1.7959-.0039,2.3076.918l.6797,1.2226-.1602.0899c-.2231-.3516-.2705-.3711-.6855-.1387l-1.2822.7148c-.4205.2334-.4239.2793-.2637.6241l-.1592.0869Zm-1.146-4.0752c-.4454.1817-.4829.1543-.6597-.2089l-.168.0703.5928,1.4521.168-.0674c-.1285-.3847-.1197-.4297.3247-.6152l1.3603-.5576c.4385-.1787.4839-.1553.6597.207l.168-.0693-.5938-1.4512-.1689.0703c.1284.3828.1147.4297-.3238.6113ZM3.0932,42.8208l.1739-.0508c-.0899-.4101-.0689-.4502.3935-.583l.9439-.2715a1.23132,1.23132,0,0,0,.8891-.622,1.43878,1.43878,0,0,0-.0088-.9248,1.3254,1.3254,0,0,0-.5791-.8164,1.47368,1.47368,0,0,0-1.1289-.0264l-.3325.0967a4.78094,4.78094,0,0,1-.7876.1738c-.1587.0176-.2656-.0947-.3388-.3281l-.1758.0478.3515,1.2217.1763-.0508c-.0713-.29-.0488-.4472.0947-.5176a4.5037,4.5037,0,0,1,.7583-.2705l.2827-.083c.6617-.1914,1.1773-.1113,1.3345.4336.1431.502-.20069.8574-.8823,1.0547l-.7852.2285c-.4614.1309-.5048.1035-.6391-.2734l-.1748.0527Zm-1.60979-7.415,2.01219.6035L1.7173,37.1675l.1445,1.0762.1787-.0235c-.0327-.4492-.0308-.4883.5137-.5205l.9629-.0654a5.70755,5.70755,0,0,1,.7436-.0215c.1729.0176.2559.0986.30571.3613l.17869-.0234L4.584,36.7358l-.1807.0254c.0225.3184-.02489.4502-.19089.4864a6.75429,6.75429,0,0,1-.81791.1074l-.9717.0918-.0009-.0137L4.4575,36.187l-.0215-.166-2.4658-.7402-.0029-.0196,1.709-.2558c.4394-.0645.4614-.041.5463.4004l.1797-.0235-.2114-1.5937-.1816.0234c.03511.4551.0166.4707-.418.542l-1.542.2461c-.4346.0713-.459.0479-.54389-.4023l-.18121.0263ZM2.5849,31.4839a.71576.71576,0,1,0,.00179-.00006l-.00179.00006M3.06,29.48l.0542-.7285-.9462.2881v.0195Zm1.0479-.6719-.0029-.123c-.0049-.1836-.0484-.2188-.337-.1309l-.3999.127-.0683.8877c.0703.0341.2715.1201.4565.1923.1875.0733.2427.0381.2764-.1425l.0249-.1475.1807.0127-.08889,1.1758L3.9687,30.647c-.0122-.2774-.0161-.3936-.4306-.6084L1.352,28.898l-.0337-.2442,2.4644-.7969c.3686-.123.3911-.2509.438-.5214l.1806.0117-.1118,1.4765Zm-1.1509-4.957c-.32859-.0137-.5542-.0342-.7998-.0606a3.86689,3.86689,0,0,0-.2974.8985,1.65239,1.65239,0,0,0,1.10295,2.06017q.05544.01677.11195.02964a1.51761,1.51761,0,0,0,1.77-1.4394,4.41,4.41,0,0,0,.0415-.9795,7.37085,7.37085,0,0,0-.79-.3916l-.0454.1855c.4482.332.6587.6289.5805,1.0508-.1093.6045-.7031.9531-1.521.8008-.7036-.1289-1.14789-.584-1.0273-1.2422a.82225.82225,0,0,1,.85941-.7217ZM4.2641,22.3589l.2129-.6973-.9853.0733-.00729.0185Zm1.1705-.42381.0224-.1231c.0337-.1797,0-.2256-.2983-.2012l-.4185.0372-.25879.8515c.05909.0469.23879.1758.40089.2871.168.1123.231.0908.3023-.0781l.0551-.1406.1739.0556-.3428,1.127-.1748-.0527c.0493-.2725.0713-.3877-.2862-.6905L2.7251,21.418l.0195-.2451,2.5801-.2398a.51089.51089,0,0,0,.5395-.4116l.1748.0522-.43159,1.4121Zm.6015-3.1675c.3374.1543.4531.1474.5825-.1367.2876-.6411,0-1.1719-.6875-1.4825-.7583-.3403-1.2583-.1323-1.541.4922-.0849.189-.1045.2637-.0918.2998.0152.0357.07811.0782.1919.1294ZM4.2256,17.457a1.983,1.983,0,0,1,.90481-1.061,1.24573,1.24573,0,0,1,1.01509.0225c1.0063.4546,1.0757,1.4423.6421,2.4047l-.5728,1.275-.167-.0748c.149-.3906.1343-.4394-.2973-.6342l-1.3384-.6035c-.4385-.2002-.478-.1753-.65769.1577l-.16511-.0743Zm3.2319-1.6049c.4106.247.4214.2924.2163.6865l.1558.0942,1.3081-2.1665c-.085-.0991-.4575-.4399-.585-.5542l-.1186.1568a1.17864,1.17864,0,0,1,.2636.4199.79759.79759,0,0,1-.1645.5376,1.11472,1.11472,0,0,1-.2857.3603c-.0869.0542-.2319.0059-.4472-.1269l-.5503-.3345.2222-.3672c.1943-.3218.21721-.3237.5273-.1968l.0977-.1626-.8277-.5005-.0976.1602c.2568.2153.2714.2412.0761.5659l-.2212.3667-.7441-.4511c-.1392-.0835-.13529-.0894-.0415-.2461l.1274-.2115c.1612-.2671.27881-.3628.3599-.3823a.80114.80114,0,0,1,.459.0796l.08691-.1665c-.29641-.1514-.56891-.293-.67721-.3521L5.374,15.0899l.1563.0952c.2202-.3311.2666-.3413.6777-.0913Zm0,0c.4106.247.4214.2924.2163.6865l.1558.0942,1.3081-2.1665c-.085-.0991-.4575-.4399-.585-.5542l-.1186.1568a1.17864,1.17864,0,0,1,.2636.4199.79759.79759,0,0,1-.1645.5376,1.11472,1.11472,0,0,1-.2857.3603c-.0869.0542-.2319.0059-.4472-.1269l-.5503-.3345.2222-.3672c.1943-.3218.21721-.3237.5273-.1968l.0977-.1626-.8277-.5005-.0976.1602c.2568.2153.2714.2412.0761.5659l-.2212.3667-.7441-.4511c-.1392-.0835-.13529-.0894-.0415-.2461l.1274-.2115c.1612-.2671.27881-.3628.3599-.3823a.80114.80114,0,0,1,.459.0796l.08691-.1665c-.29641-.1514-.56891-.293-.67721-.3521L5.374,15.0899l.1563.0952c.2202-.3311.2666-.3413.6777-.0913Zm1.7212-6.1602.917,1.894-2.0547-.5327-.6953.836.1401.1162c.3081-.3262.3369-.3535.731.0268l.6953.6685a5.209,5.209,0,0,1,.5195.5342c.105.1386.1011.2563-.06.4712l.1401.1142.7832-.9399-.1401-.1172c-.2193.2319-.3487.2881-.4859.1875a5.62679,5.62679,0,0,1-.6342-.5298l-.7232-.6548.0093-.0107,2.2915.6626.1084-.1309L9.5996,9.96628l.0122-.0151,1.3442,1.0903c.3428.2793.3409.3125.0728.6734l.14061.1157,1.02879-1.2324-.1411-.1177c-.312.3315-.334.3296-.6816.0561l-1.2207-.9717c-.3487-.2734-.3477-.3046-.0752-.6713l-.13919-.1162Zm2.87839-1.853c-.32369-.3584-.312-.4029-.03169-.6929l-.12211-.1353-1.1616,1.0518.1225.1348c.3179-.252.3633-.2598.6851.0986l.9849,1.0933c.3173.352.31.4023.0307.6924l.1206.1347,1.1617-1.0522-.1207-.1358c-.3178.2515-.3676.2534-.6875-.0986Zm2.3765-.6289.5967-.4151-.81989-.5542-.01561.0108Zm1.1816.3911L15.708,7.52c.1382-.1206.1382-.1762-.1099-.3427l-.3525-.231-.731.5078c.0201.0747.0791.2857.1392.4756.0644.1919.1255.2129.28561.125l.13039-.0737.1035.1489-.9648.6719-.1035-.149c.205-.185.292-.2597.1982-.7172l-.4995-2.419.168-.1797,2.1748,1.4097a.50623.50623,0,0,0,.6777.0093l.1045.1504-1.21.8447ZM17.896,4.648a.72071.72071,0,0,0-.9634-.3243.7329.7329,0,0,0-.3003.9795A.71189.71189,0,1,0,17.91,4.67506L17.896,4.648m4.0288.1518c-.0195-.1777-.0791-.6328-.1167-.8608l-.1914.0454a1.41783,1.41783,0,0,1-.07329.5625c-.05321.1284-.19531.2114-.43551.2949a.77409.77409,0,0,1-.3901.0635c-.1026-.0181-.1778-.1392-.2608-.377l-.4702-1.373c-.1553-.4561-.1265-.4942.2764-.6592l-.0581-.1724-1.5132.5201.06.1713c.3892-.1064.4327-.0952.5899.3609l.4731,1.3862c.1582.4546.1372.4981-.2724.6651l.06.1709Zm-.1401-2.9853.0322.1767c.4131-.0415.4497-.0137.5298.4624l.163.9678a1.21511,1.21511,0,0,0,.5142.957,1.45912,1.45912,0,0,0,.9199.0982,1.32232,1.32232,0,0,0,.8731-.4829,1.481,1.481,0,0,0,.1553-1.1211l-.0567-.3404a4.52866,4.52866,0,0,1-.081-.8051c0-.1597.1225-.2525.3657-.3003l-.02979-.1797-1.24951.2099.0298.1802c.2954-.0381.4492.0039.5.1524a4.74252,4.74252,0,0,1,.1845.788l.0464.2896c.11481.6797-.0268,1.1851-.584,1.2778-.5117.0874-.8256-.2968-.9443-.9966l-.1333-.809c-.07759-.4751-.0454-.5142.3408-.6045l-.0303-.1802Zm7.1215.3305c-.0307-.4101-.0454-.6714-.0615-.8222a3.80979,3.80979,0,0,0-.939-.1568,1.65985,1.65985,0,0,0-1.883,1.40158q-.009.06139-.01339.12333c-.0181.898.70411,1.5117,1.7954,1.5337a4.59214,4.59214,0,0,0,1.1015-.1587,1.614,1.614,0,0,1-.0317-.4038l.00591-.3144c.00779-.3169.04049-.3286.28759-.3575l.0019-.1816-1.5054-.0298-.0039.1807c.5264.042.5445.0752.5381.375l-.0078.3769c-.0039.2535-.2002.2832-.3379.2813-.771-.0171-1.0884-.6929-1.0742-1.3716.01561-.853.4868-1.2314,1.0327-1.2217a.84605.84605,0,0,1,.89891.7544Zm2.0977,1.6548c-.0806.3609-.0532.4736.251.541.68451.1533,1.146-.2363,1.309-.9736.1807-.8135-.1254-1.2627-.79049-1.4106-.20211-.0455-.28221-.0508-.313-.0303-.03171.0195-.061.0928-.08791.2148Zm.915-2.0434a1.97636,1.97636,0,0,1,1.2198.6723,1.25711,1.25711,0,0,1,.1835,1.0015c-.2397,1.0805-1.19179,1.3481-2.2202,1.1177l-1.3632-.3057.0405-.1773c.41111.0665.4565.0425.56-.4208l.3189-1.4371c.105-.4692.0713-.5029-.2891-.6098l.0396-.1787Zm2.5918.6704-.0732.1674c.3725.1885.3891.2325.1997.6739l-.3892.9028a1.23348,1.23348,0,0,0-.081,1.0855,1.432,1.432,0,0,0,.7212.5771,1.29241,1.29241,0,0,0,.9956.0674,1.4634,1.4634,0,0,0,.7368-.8569l.1352-.3169a4.77408,4.77408,0,0,1,.3643-.7227c.0859-.1328.2402-.1426.4692-.0513l.0723-.1689-1.1626-.5-.0723.1665c.2686.1299.3755.248.336.3994a4.23175,4.23175,0,0,1-.2705.7642l-.11479.269c-.27241.6333-.66161.9819-1.18111.7603-.4781-.2056-.5357-.6997-.25489-1.3526l.32369-.7519c.19-.4434.23731-.4585.61131-.3257l.07229-.1651ZM40.293,6.96a5.97577,5.97577,0,0,1,.4975-.6768c.10891-.1172.2608-.1001.4922.0459l.0996-.1533L40.30659,5.46l-.1006.1518c.2637.19.3467.3228.2803.4673a5.62688,5.62688,0,0,1-.4297.7227l-.374.5639-.01219-.0078-.39211-2.5835-.8384-.5576-.1006.1499c.3526.2681.3848.4077.0967.8403l-.45259.6846a6.33568,6.33568,0,0,1-.49171.6714c-.1089.1152-.2647.1055-.4951-.0415l-.1026.1528,1.0718.7129.10061-.1504c-.26271-.1919-.34281-.3325-.27251-.4731a6.23972,6.23972,0,0,1,.4278-.7134l.4838-.7266.004.003.396,2.8589.2597.1738Zm1.4155,1.3222c-.5405.5801-.6807,1.251-.2818,1.6255.3033.2847.8101.3047,1.4009-.3261.4751-.5079.71881-1.2339.292-1.6363-.314-.2929-.89059-.2192-1.4111.3369M43.3213,7.8149a1.49656,1.49656,0,0,1,.23561,2.10331q-.03468.04342-.0725.08419a1.53066,1.53066,0,0,1-2.16062.1323q-.04695-.04154-.09038-.0868A1.51093,1.51093,0,0,1,40.999,7.924q.02343-.02925.04831-.05732a1.56092,1.56092,0,0,1,2.2043-.1184q.03589.0322.06971.0666m1.8403,4.0645a.71306.71306,0,1,0-1.0127-.0845.72527.72527,0,0,0,1.0127.0845m1.186,1.52.1363.2061a.50763.50763,0,1,0,.8506-.5406c-.1402-.2124-.1573-.2163-.2876-.1298Zm-.18261.1221-.59759.3945c-.36141.2412-.33011.4077-.19441.6133a.5409.5409,0,0,0,.7901.1465.64758.64758,0,0,0,.1157-.9815Zm.2588-.9619c.396-.2627.396-.3086.20661-.6431l.15279-.1011.8999,1.3623c.31831.4839.3696.9161-.0254,1.1788a.72721.72721,0,0,1-.8735-.1783l-.00979.0069a.79744.79744,0,0,1-.18361,1.0903c-.5698.3784-1.1035-.1587-1.4292-.6528l-.8091-1.2271.15091-.1006c.24709.3277.29639.3413.69139.0806Zm1.2544,4.0249.32321.6533.66749-.731-.0097-.018Zm-.56009,1.1118.0674.1074c.0977.1548.1538.1626.3555-.0605l.2793-.315-.395-.7983c-.0762.0088-.2945.0376-.4888.0669-.2007.0342-.229.0932-.167.2651l.0562.1411-.1641.0816-.5215-1.0576.1612-.0801c.1513.2309.2143.3296.6806.3017l2.46051-.1386.15429.1919-1.712,1.9482a.51416.51416,0,0,0-.1127.6719l-.1597.0801-.6563-1.3228Zm3.59819,2.1382.0884.2392a.68875.68875,0,0,1,.0659.4932c-.0405.0938-.1323.1831-.36619.3252l.07959.1719c.2285-.1133.5996-.2852.813-.3643l-.0367-.0991c-.1035-.0376-.1372-.0513-.1914-.1987l-.7021-1.899c-.0547-.145-.0615-.1982.0058-.2998l-.0376-.0966c-.2143.0712-.5244.1547-.8652.2583l.063.1709a.9678.9678,0,0,1,.4624.0161c.0967.0395.1997.1406.332.5019l.0523.1406-1.8335.6817c-.4453.1665-.4888.1406-.66459-.2588l-.17181.0644.5756,1.5464.1709-.062c-.1342-.4345-.1172-.4829.3262-.6484Zm-.68021,2.7861.1826.707.8033-.5791-.0054-.0166Zm-.77639.9746.0455.1172c.0629.1699.11421.1924.3584.0137l.33881-.249-.22311-.8623c-.0752-.0098-.2945-.0254-.4922-.0352-.2031-.0078-.24269.0439-.2153.2246l.0239.1484-.1758.044-.2944-1.1397.1767-.0449c.0996.2559.14021.3653.6006.4356l2.438.3711.1094.2226L49.876,24.3921a.51283.51283,0,0,0-.2471.6348l-.1758.0449-.3691-1.4307Zm.35651,2.8936c.9551.2226,2.249.583,2.3677.624.4326.1484.5254.2051.6103.5273l.1797-.0253-.18749-1.1846-.17871.0264.0049.125c.0117.2304-.0635.2558-.3023.207-.2314-.0479-1.2783-.249-1.6123-.336l1.4405-.9072c.1923-.124.2636-.1299.31291.0488l.04249.1573.1807-.0293-.2358-1.4785-.1797.0293a.503.503,0,0,1-.2964.5878L49.5776,26.2417Zm1.49268,2.1631.0473.7265.8965-.4199-.0019-.0195Zm-.94339.8144.0215.1211c.0327.1787.0801.21.3506.0791l.3794-.1807-.0601-.8925c-.0742-.0176-.2856-.0762-.477-.1221-.1978-.0449-.2481-.002-.2549.1807l-.002.1504-.18159.0136-.08111-1.1758.1836-.0136c.0503.2705.0703.3867.5117.539l2.3272.8155.0669.2363-2.3252,1.1416a.51492.51492,0,0,0-.3574.581l-.1826.0108-.0997-1.4746Zm1.4487,3.4707a.71625.71625,0,1,0-.00619-.00007l.00619.00007M49.73,36.2573c.1699.0557.60741.1944.8276.2559l.0425-.1895a1.44791,1.44791,0,0,1-.479-.3066.66129.66129,0,0,1-.0811-.5205.76536.76536,0,0,1,.10741-.3799c.06059-.085.19879-.1035.45269-.0752l1.4389.1543c.4771.0518.5.0928.4781.5283l.1816.0196.1699-1.5938-.1806-.0176c-.0689.3985-.0977.4336-.5777.3828l-1.4521-.1572c-.478-.0498-.5069-.0849-.4859-.5283l-.1806-.0205Zm1.6831,2.791c.4702.0997.4878.1446.4287.5411l.1797.04.3227-1.5342-.1767-.039c-.1104.3896-.14409.4238-.6143.3222l-1.4341-.3066c-.4643-.0967-.4892-.1426-.4316-.541l-.1768-.0391-.3261,1.5342.1796.0381c.1099-.3887.1475-.4199.6123-.3203ZM50.0737,41.978l-.0801.2344a.50785.50785,0,1,0,.9483.34281c.0801-.2422.0727-.2588-.0762-.3086Zm-.2095-.0703-.6777-.2295c-.41309-.1396-.5244-.0117-.6035.2198a.54662.54662,0,0,0,.32082.70332q.02354.00879.04778.01538c.4385.1484.7159-.1289.8453-.5127Zm.9165-.3838c.4483.1514.4869.1231.6343-.2324l.1719.0576-.52149,1.5508c-.186.5488-.49411.8555-.94431.7031a.73255.73255,0,0,1-.395-.8007l-.0142-.002a.79484.79484,0,0,1-.9697.5215c-.647-.2207-.5513-.9697-.36179-1.5332l.47019-1.3916.17181.0556c-.10641.3985-.08881.4454.36189.5997Zm-2.94141,3.585c-.4306-.2109-.4448-.2559-.2705-.665l-.1621-.0811-1.1299,2.2666c.0918.0869.4898.3955.626.501l.1035-.1641a1.25619,1.25619,0,0,1-.2968-.3965.80124.80124,0,0,1,.124-.5498,1.07565,1.07565,0,0,1,.25491-.3818c.081-.0625.23139-.0234.45649.0908l.5747.2881-.1924.3828c-.167.3379-.1909.3418-.5107.2412l-.084.167.8652.4336.085-.168c-.2725-.1953-.2905-.2187-.1206-.5566l.1899-.3838.7793.3916c.146.0723.14211.0762.06111.2402l-.1104.22269c-.14059.2793-.251.3809-.3281.4082a.80484.80484,0,0,1-.4663-.042l-.0733.1748c.3096.125.5918.2422.7037.291l1.0585-2.1172-.1616-.081c-.1958.3447-.2392.3603-.6679.1445Zm-1.708,4.46-.1196.1709a.85658.85658,0,0,0-.1675.3994.58975.58975,0,0,0,.2901.5185.56661.56661,0,0,0,.8457-.15229c.1508-.2207.1528-.2363.0039-.3379Zm-.5957-.418c-.38819-.2725-.4365-.2588-.6914.0576l-.147-.1055.8858-1.2685.14841.1045c-.21341.3506-.20851.4004.17969.6738l1.2031.8428c.3941.2763.4385.2578.6836-.0479l.148.1055-.9302,1.334a1.43748,1.43748,0,0,1-.5425.5176.696.696,0,0,1-.6875-.086.79078.79078,0,0,1-.2451-.9414c-.1567-.0117-.5312-.0215-.769-.0215a2.7358,2.7358,0,0,0-.563.041,1.18138,1.18138,0,0,0-.3408.1602l-.1275-.1152.1499-.211c.3369-.4717.5708-.5215.86331-.5322.25779-.0078.61769.0361.82959.0508.1562.0146.2075-.0147.3183-.1748l.06111-.0869ZM43.9365,54.1987l-.1738.1836c-.1709.1778-.2974.2735-.4175.2754a.84189.84189,0,0,1-.4507-.1875l-.1206.1465c.2007.1563.52051.416.6856.5723l.0712-.0762a.24139.24139,0,0,1,.0948-.2568l1.3965-1.4639c.1079-.1152.1523-.1436.2729-.127l.0718-.0761c-.1607-.1621-.3682-.4053-.61329-.666l-.12551.1298a1.04209,1.04209,0,0,1,.19.4229c.0039.1055-.04249.2422-.3052.5195l-.105.1094-1.4146-1.3545c-.3413-.3291-.3374-.3799-.0571-.7139l-.1304-.123L41.666,52.7066l.13041.1269c.33249-.3105.38419-.3174.726.0117Zm-3.1655.875-.5728.4473.84721.5107.01609-.0117Zm-1.1983-.3281-.0898.086c-.1333.1269-.1304.1826.1304.3378l.3593.211.7046-.5469c-.0219-.0703-.0957-.2803-.1631-.4658-.0732-.1885-.1362-.207-.2905-.1104l-.1284.0821-.1094-.1455.9282-.7198.1109.1426c-.1948.1934-.2788.2754-.1602.7285l.6245,2.3887-.1582.1894-2.2441-1.2949a.507.507,0,0,0-.6807.0254l-.1093-.1474,1.16451-.9053Zm-2.1147,4.291-.2251.1172c-.2163.1162-.3657.168-.4819.1319-.0972-.0274-.1968-.1045-.3687-.3165l-.1592.1006c.1426.2119.3638.5567.4722.7588l.0913-.0498c.0225-.1094.0332-.1426.1719-.2178l1.7798-.9541c.1362-.0742.1894-.0878.3003-.0351l.09081-.0498c-.10311-.2022-.22321-.501-.37551-.8252l-.1602.0879a.96111.96111,0,0,1,.0479.4609c-.0259.1016-.1128.2149-.4507.3945l-.1323.0743-.9214-1.7305c-.2256-.416-.2066-.4648.167-.6943l-.0869-.1612-1.4541.7813.0849.1601c.4126-.1924.4619-.1816.6866.2364Zm-3.7139,1.0196c.15331.457.1226.4931-.25.6474l.0586.1719,1.4834-.5029-.0581-.17c-.3901.1036-.4355.0918-.5869-.3662l-.4712-1.3935c-.1509-.4492-.12449-.4932.249-.6446l-.05949-.1748-1.48151.502.0571.1709c.3892-.1055.4371-.085.5899.3662Zm-2.2934-.6446a7.97235,7.97235,0,0,0-.2867-.7509,1.53918,1.53918,0,0,0-.871-.0948c-.6983.1123-1.1338.5459-1.044,1.1114.0918.5136.5283.6933,1.0103.7812l.1679.0293c.2666.0488.4741.1602.5147.3984a.4337.4337,0,0,1-.36189.49521l-.0136.00189a.76578.76578,0,0,1-.77151-.5342l-.1943.0586c.0976.3125.1591.5322.2143.7022a2.851,2.851,0,0,0,.6992.0185c.7388-.1201,1.0728-.5693.9878-1.0976-.0713-.4336-.5058-.5889-.8999-.6758l-.1845-.0381c-.3477-.0752-.5332-.248-.5728-.5049a.45471.45471,0,0,1,.39745-.50551l.02495-.00229a1.08765,1.08765,0,0,1,.9878.6543Zm-5.05329,1.0801a.711.711,0,1,0,.70709-.7305.721.721,0,0,0-.70709.7305M19.0493,26.5874h0m27.4326-3.0752a.76692.76692,0,0,1,.6631-.2139.30963.30963,0,0,0-.03859-.0468.62714.62714,0,0,0-.88521.8886.501.501,0,0,0,.0464.0372.7689.7689,0,0,1,.21429-.6651m-3.14309-9.5327a29.21536,29.21536,0,0,1,5.6109,17.52,30.56033,30.56033,0,0,1-1.8809,10.6426c-.0405.1045-.083.2139-.1225.3184l-2.35889.0039a.97124.97124,0,0,1,.40619.7246c0,.5156-.3476.5176-.9809.5234l-.249.002H37.043c-.4307.0039-.7701.0039-.9522-.1739a.47058.47058,0,0,1-.125-.3515.97559.97559,0,0,1,.41161-.7383H31.979a6.16868,6.16868,0,0,0,.789-1.7129c.9068-3.1035.8262-6.5195.8643-9.2715.023-1.625.0249-1.4863-.0493-3.0371,0,0,.31441-.1143.1118-.7383a1.45843,1.45843,0,0,0-.5947-.7812.42793.42793,0,0,0-.1323-.3926l-.2056-.1836a.86918.86918,0,0,0-.0176-.0918,2.58215,2.58215,0,0,1-.13819-.7305,11.572,11.572,0,0,0-.63421-2.7705.64111.64111,0,0,0,.3593.0196c.4326-.0704.3535-.5909.1284-.877-.1142-.1435-.4116-.5923-.5629-.8184a9.10688,9.10688,0,0,1-.4483-1.123,14.83764,14.83764,0,0,1-.0117-2.0591c.1758-3.1821-1.2822-3.3833-1.7803-3.6206a1.595,1.595,0,0,1-.48-.3047c-.0288.5894-.8789.9737-1.7719.9737-.9107,0-1.773-.354-1.773-.9605,0-.0361-.0307-.0806.0762-.1875l-.4365.0625c-.5493.1377-.6768.0859-.8882.1607a1.49934,1.49934,0,0,0-.9087,1.0615c-.2817.6513-.5444,1.3965-.5444,1.3965-.0679.1577-.1539.4541-.1539.4541s-.18789-.2256-.2788-.334c-.1787-.2197-1.26609-1.2095-1.4516-1.3955-.0781-.0816-.7847.1338-.7847.1338a13.80888,13.80888,0,0,1,2.6514,2.7944c.083.1714.02981.1099-.0938.0532a7.58924,7.58924,0,0,0-3.5205-.4678l-.4511.6304c2.082-.2026,3.6909.021,4.0971.5986a.47435.47435,0,0,0,.4839.1822.36641.36641,0,0,0,.2861-.3677.58793.58793,0,0,1,.0664-.2861,7.28708,7.28708,0,0,1,3.6656-3.0576l1.06,3.3061a4.29706,4.29706,0,0,1,.773.1426c-.0786-.1924-.5152-.5762-.3828-.8008.0371-.0586.4965.0088.7168-.1328.2529-.1655.6479-.5176.2807-1.4756-.0654-.1724-.1523-.3804-.1787-.4619l.1807-.061c.0195.0639.0888.2417.1738.4516.5117,1.2593-.0762,1.6113-.3242,1.8413a.8093.8093,0,0,0-.1123.1211.61681.61681,0,0,0,.0679.6362c.21821.0796.21821.1646.21821.1646l-.00581.7026a11.96489,11.96489,0,0,0-2.7735-.4057c.1045-.0181.44831-.1807.333-.2969-.0464-.0454-.34269.0342-.5.0459-.1294.0117-.1225-.0796-.0483-.1289a1.55024,1.55024,0,0,0,.2549-.1358,1.42015,1.42015,0,0,0,.57271-.6147c.05029-.1475-.13431-.168-.13431-.168.0215-.1367-.1044-.2016-.26069-.1323a5.49488,5.49488,0,0,1-.80611.333c-.1006.0171-.17189-.082-.1065-.1474a3.219,3.219,0,0,0,.5034-.6587c.2276-.3306-.1045-.315-.2231-.1963a5.98329,5.98329,0,0,1-1.2041.9385c-.1655.0727-.2222.0454-.1963-.0855a1.15522,1.15522,0,0,0,0-.4873c-.0108-.1558-.3262-.2993-.3262-.1025a.8797.8797,0,0,1-.1836.6142c-.2251.2949-.1264.6787-.229.7573a2.3123,2.3123,0,0,1-2.0469.5025,1.057,1.057,0,0,0-1.3627-.2359c-1.1065,1.0088-.6285,3.2774-.5611,3.4493.4868,1.2734,1.26221.6113,1.3985.4707a4.93462,4.93462,0,0,0,1.1782-2.1099,3.54224,3.54224,0,0,0,1.145-.5503,4.19291,4.19291,0,0,1,.9736-.5918c.2334,0,.585-.1763.7154-.1348v.1514a9.27786,9.27786,0,0,0-1.48149,1.0498c-.11471.6504-1.72071,2.8467-1.10451,3.2891.2744.1943.107.5625.0059,1.0293a38.70894,38.70894,0,0,0-.6362,4.0312s-.1827.7022.1474.917a4.47758,4.47758,0,0,0,1.7471.1846c.1841-.0195.5434.1875.7016.1758,0,0-.0517,1.1406-.2275,1.1191-.2041-.0244-.17479-.8144-.2041-.7363-.03369.084-.1572-.1055-.2236-.0938a4.42054,4.42054,0,0,1-1.3067-.0478.31536.31536,0,0,0-.3217.2099,11.266,11.266,0,0,0-.0928,1.4122c-.021.3544-.0772.5996-.1167,1.0214-.022.1973-.022,1.583-.0591,2.1748-.07909,1.1993-.2153,4.3506-.249,5.418-2.0816.0518-4.0952-.2275-3.315-1.0332.1343-.1387.2744-.2412.4307-.3838.5937-.5449.624-.0469,1.2603-1.0254a10.19337,10.19337,0,0,0,1.0468-2.9912c.1968-.6943-.06489-.9775-.5757-.042a6.7557,6.7557,0,0,1-.4838.918,1.97284,1.97284,0,0,1-.7066.6309c-.6025.248-1.0469-.8711-.209-1.8487.313-.3681.6783-.29.7188-.0937a.1621.1621,0,0,0,.3003.0136,4.98248,4.98248,0,0,0,.2885-.5244,8.51761,8.51761,0,0,0,1.1924-3.6406c.002-.1797-.0092-.332-.0112-.4629-.0029-.8105-.4985-1.0918-.6904-.5508-.1587.4492-.5147.335-.4117-.249a29.06249,29.06249,0,0,1,1.5113-4.7275c.0908-.2715-.1177-.335-.187-.3926-.0996-.0879-.1665-.1192-.1182-.3545a14.95747,14.95747,0,0,1,1.2188-2.9307c.1508-.2163-.0503-.3286-.21639-.0649-2.19671,3.4321-3.10641,9.1997-3.09471,9.5669.0425,1.5039.9238.7168.9238.7168a5.251,5.251,0,0,1-1.05709,1.9961c-1.935,2.8398-1.14061,4.1504-1.14061,4.1504.3013.5781.8345,1.0703-.3467,1.9902-.3804.2959-1.6035,1.1836-.2353,2.1211.4238.291.7251.4736.9384.5918h-2.019a.9807.9807,0,0,1,.4131.7383c0,.5156-.3477.5176-.981.5234l-6.9717-.0078c-.4296,0-.7714.0137-.95019-.1641A.46823.46823,0,0,1,8.999,43.189a.98583.98583,0,0,1,.4063-.7344l-2.108.0059c-.0405-.1045-.08389-.2139-.1235-.3184A30.56018,30.56018,0,0,1,5.293,31.4995a29.21963,29.21963,0,0,1,5.6113-17.52c.0132-.0161.0239-.0342.0376-.0518V23.146a.62141.62141,0,0,0-.7237.1143c-.0151.0156-.02579.0322-.0395.0468a.75655.75655,0,0,1,.6636.2139.76917.76917,0,0,1,.2153.6426.86132.86132,0,0,1-.1157.0859v.2529a1.34943,1.34943,0,0,0,1.2514.7002,1.20141,1.20141,0,0,0,1.1914-1.1728.3583.3583,0,0,0-.2006-.1533.62707.62707,0,1,1,.0229-.209c.0811.0098.2666-.0039.2905-.3604a.626.626,0,1,1,.20119,0c.023.3565.2105.3702.2905.3604a.62288.62288,0,1,1,.022.209.349.349,0,0,0-.1977.1533,1.20019,1.20019,0,0,0,1.1914,1.1728,1.34515,1.34515,0,0,0,1.3423-.9101.62626.62626,0,0,1-.4083-.5869.59872.59872,0,0,1,.14651-.3955.75513.75513,0,0,1,.648.2129.77452.77452,0,0,1,.21239.665c.01561-.0147.0322-.0244.0483-.0381a.63153.63153,0,0,0,0-.8887.61941.61941,0,0,0-.59569-.1621V12.9795s-.86421-7.4551,10.48489-7.603c10.8159-.0733,10.6826,7.6289,10.6826,7.6289V23.063a.61431.61431,0,0,0-.5156.1787.62475.62475,0,0,0-.00317.88353l.00317.00317a.53389.53389,0,0,0,.0483.0371.75476.75476,0,0,1,.2124-.665.76738.76738,0,0,1,.6587-.2139.61341.61341,0,0,1,.1553.4073.63007.63007,0,0,1-.4082.5908,1.35,1.35,0,0,0,1.3452.9101A1.20159,1.20159,0,0,0,40.2514,24.021a.36608.36608,0,0,0-.19871-.1553.63129.63129,0,1,1,.021-.208c.083.0117.2686-.0019.291-.3594a.62575.62575,0,1,1,.20271,0c.02289.3575.20849.3711.28849.3594a.62655.62655,0,1,1,.02251.208.352.352,0,0,0-.19631.1553,1.20023,1.20023,0,0,0,1.187,1.1738,1.355,1.355,0,0,0,1.3467-.9101.65933.65933,0,0,1-.1919-.1192.7653.7653,0,0,1,.8784-.8789c-.0132-.0146-.02389-.0312-.0385-.0449a.6179.6179,0,0,0-.563-.1738V13.9277c.01273.0176.02442.0357.038.0518M16.498,24.4439a1.08017,1.08017,0,0,0,1.12405,1.03445l.00785-.00035a1.10441,1.10441,0,0,0,.6313-.2373,1.07639,1.07639,0,0,1-.4473.1182,1.01687,1.01687,0,0,1-1.10049-.8525,1.42391,1.42391,0,0,1-.03181-.1827Zm-8.1753-.6954a.53051.53051,0,0,0-.0395.0479.763.763,0,0,1,.8779.8779.43055.43055,0,0,0,.0474-.04.62636.62636,0,0,0-.8858-.8858m-.4882.4014a.62738.62738,0,0,0-.8858-.8887.42987.42987,0,0,0-.0376.0489.7617.7617,0,0,1,.876.8779c.0161-.01471.0327-.02441.0474-.03811m.3657.668a1.2399,1.2399,0,0,0,.9995.6601.9973.9973,0,0,0,.7251-.2129,1.05632,1.05632,0,0,1-.5405.0938,1.2377,1.2377,0,0,1-1.0015-.6582ZM17.8286,43.189a.95805.95805,0,0,0-.55519-.7383,2.87521,2.87521,0,0,0-.49561-.2383h.01861a.10437.10437,0,0,1-.03371-.0058l.0151.0058H10.2505l.0151-.0058a.10969.10969,0,0,1-.0347.0058h.0196a2.98361,2.98361,0,0,0-.5015.2402.96024.96024,0,0,0-.5503.7364.38407.38407,0,0,0,.0156.1172h8.6055a.67869.67869,0,0,0,.0088-.1172m1.5102-19.9151a.4475.4475,0,0,0-.0395.0469.76254.76254,0,0,1,.8779.87789.53711.53711,0,0,0,.0489-.039.62689.62689,0,0,0-.88377-.88933l-.00353.00354m.1304,1.2354c-.2666.1191-.6411.4873-.6074,1.6152.0088.2754.0107.3828.0088.4629H8.272v7.3965a5.39188,5.39188,0,0,0,7.353,5.0342,5.36667,5.36667,0,0,1-2.6709.7099,5.423,5.423,0,0,1-2.0122-.3886v2.6738h5.45651V38.6441a5.4096,5.4096,0,0,0,2.66019-4.6602V26.5874h-.0093a4.56459,4.56459,0,0,0-.00289-.582,1.81171,1.81171,0,0,1,.42279-1.4961m-.59179-.7481a.62715.62715,0,0,0-.88571,0,.52.52,0,0,0-.0386.0479.75951.75951,0,0,1,.6626.2119.7698.7698,0,0,1,.2144.666c.0151-.0127.0317-.0224.04731-.0381a.62941.62941,0,0,0,0-.8877M30.8345,8.0327c.0136-.4702-.0269-1.0996-.9424-1.0996.2568,0-.6538-.0664-.6538.3794a.6982.6982,0,0,1-.732.7354c.0108,0-1.06389-.3199-.5117-.5308a.82047.82047,0,0,0,.46157-1.06455q-.00936-.02369-.02017-.04675a.79125.79125,0,0,0-1.2563-.1187c-.1187.1187-.0396.4707-.2647.4707-.28559,0-.2749-.2744-.2749-.4419,0-.1943-.0888-.4824-.5796-.4824a.54537.54537,0,0,0-.61357.4673l-.00363.0356a.41969.41969,0,0,0,.2466.4595c.1719.0986.085.459-.2212.2529-.0986-.062-1.1499-1.0346-2.1591-.3857-.4576.2969-.4366.6968-.13819.8926.12249.0791.16109.2158.00489.3149a.94482.94482,0,0,0,.1469,1.3081.88005.88005,0,0,0,1.374-.2373,2.25511,2.25511,0,0,0,.1177-1.0039c-.0097-.1265.0899-.5298.6568-.4204.2539.0493.2876.2187.1474.3638a2.20473,2.20473,0,0,0-.8564,1.7788.94906.94906,0,0,1-.4971.8257c-.2368.1596-.8711.5542-.30219,1.1938.31539.356.37939.4605-.33991,1.1397-.1152.1093-.397.2617.11091.3134a13.50968,13.50968,0,0,0,2.07419-.1211l-.1431-.2714a8.45846,8.45846,0,0,1-1.604.0502,1.11189,1.11189,0,0,0,.49269-1.49328q-.01929-.0383-.0415-.075c-.2744-.3545-.0337-.6416.4956-.7066a1.81312,1.81312,0,0,1,1.2397.1783s-.7832-.0913-1.0854.1601l.0127.0694c.0049.0337.0268.1186.0508.207a5.52255,5.52255,0,0,1,.8828-.1812.09939.09939,0,0,1,.03851.1348.10061.10061,0,0,1-.13331.0396.49971.49971,0,0,1-.2251.0258c.0059.0147.1343.0786.1382.0967a.18071.18071,0,0,1-.1303.2178.17872.17872,0,0,1-.218-.12787l-.00027-.001a.17455.17455,0,0,1,.0322-.1529,1.69141,1.69141,0,0,0-.3515.0708c.0058.0259.0122.0484.018.0684a1.07729,1.07729,0,0,0,.0445.1069,1.14321,1.14321,0,0,1,.1215.4356.76921.76921,0,0,0,.0572.2383c.0224.0449.0473.0981.0732.1572.1914.4419.478,1.103,1.3193.897a.08779.08779,0,0,1,.10692.06308L27,13.2192a.09713.09713,0,0,1-.0635.1045c-.0435.0196-.1177.0479-.16209.066a.68611.68611,0,0,1-.46781.0434c.0371.1255.063.2373.063.2373s-.314.0454-.4365.0752c-.02.0601-.0269.0225-.0269.0864,0,.5245.6729.9493,1.4986.9493s1.4975-.4248,1.4975-.9493a.53062.53062,0,0,0-.0161-.1259l-.00579-.0079c-.05131-.0708-.09671-.1435-.13821-.2109-.3794-.6445-.312-.8144-.312-.8144.0395-.0923-.0162-.0913.0483-.0953a13.50087,13.50087,0,0,0,1.9595-.2392c.1416-.0288.31341-.1636.1513-.2598-.1303-.0781-1.2387-.1953-1.2338-.8569.00291-.4995.1494-1.148-.81109-1.4448-.07661-.022-.09281-.0645-.07861-.1685a1.54906,1.54906,0,0,0-.2983-.9419c-.1612-.1841-.3892-.3989-.3628-.4761l.1362-.0449a1.43037,1.43037,0,0,1,.60351.5586c.14259.2612.37839.4844,1.17779.4844A1.1472,1.1472,0,0,0,30.8345,8.0327m14.0258,15.708a.63141.63141,0,0,0,0,.8877c.0157.0137.0313.0225.0474.0381a.768.768,0,0,1,.2134-.666.76.76,0,0,1,.6645-.2148.49471.49471,0,0,0-.0385-.045.62487.62487,0,0,0-.8837-.00311l-.00311.00311m-.1797,1.6104a1.09758,1.09758,0,0,1-.5415-.0938,1.00548,1.00548,0,0,0,.7261.2119,1.25,1.25,0,0,0,1.0005-.6591l-.1846-.1211a1.24013,1.24013,0,0,1-1.0005.6621m-3.977,6.0361h.6235v-.4639c0-.2587-.19669-.2724-.4355-.288v-.1114h1.2246v.1114c-.2192.0156-.4561.0293-.4561.288v.4639h.28231v.6455a.62332.62332,0,0,0,.22309.0391c.3555,0,.5327-.2168.5376-.625a2.54155,2.54155,0,0,0-.0268-.374h.1967a2.94133,2.94133,0,0,0-.0268.4785v-.0938a.71267.71267,0,0,1-.2173.5752.86931.86931,0,0,1-.5503.1797.94071.94071,0,0,1-.13619-.0146v.6884H43.1753v-3H40.7036Zm2.67091-3.3389c.00191-.0087-.0068-.0146-.0088-.0224.0049-.002.01071,0,.01471-.0039a.02991.02991,0,0,0-.01192-.04058L43.3677,27.981l-.2481-.1182a.03017.03017,0,0,0-.02539.0547l.1065.0508a.0624.0624,0,0,0-.0337.0361c-.0088.0381.0317.0772.0869.0928.05959.0097.11179-.0117.12059-.0489m-.063.294a.24035.24035,0,0,0-.2749.1553c.3862-.1592.42481.1386.42481.1386.0112-.0605.11179-.2363-.14991-.2939m.1255-.2979c.0019.0039.0088.0039.0127.0118-.0059.0058-.0137.0078-.0156.0156-.0083.0371.0312.0781.0888.0908.0591.0127.1104-.0107.1182-.0488a.065.065,0,0,0-.0176-.0479l.1187-.0019a.0322.0322,0,0,0,.0273-.0332c-.001-.0176-.0117-.0313-.0293-.0293l-.2749.0097a.03371.03371,0,0,0-.0283.0332m.1787,1.93949a2.21981,2.21981,0,0,1-.2412-.041v.2051a.54928.54928,0,0,1,.18991-.0538c.13629-.0117.05129-.11029.05129-.1103m-.7549,4.74021a2.57589,2.57589,0,0,0,.3145-1.2383v-.3984H41.94241v.1338a1.33944,1.33944,0,0,1-.03761.3135Zm-1.9043-.1914a1.201,1.201,0,0,1-.2529.0449v1.5059a2.57334,2.57334,0,0,0,1.207-.3672Zm-.7998-2.2011v-.7442h-.7441v.7442h.7441v.8427h-.7441v.0469a1.16811,1.16811,0,0,0,.7441,1.0869V33.1743h.8423v1.1338a1.16261,1.16261,0,0,0,.7358-.9785.6619.6619,0,0,0,.0069-.1084v-.0469H40.999v-.8427Zm.8423,0h.7427v-.7442H40.999ZM37.9062,27.648c0,.0039-.0039.0039-.0039.0117a.07418.07418,0,1,0,.1465,0c0-.0078-.0058-.0117-.0078-.0215l.10641-.0059c.022,0,.03569,0,.03859-.0224.001-.0196-.0127-.0254-.0347-.0254l-.1738-.0078-.0019-.002-.002.002-.083-.0039a.0377.0377,0,0,0-.0039.0752Zm.0743,3.1972v2.041h1.2338v-.5127Zm2.18791.542h.336v-1.501H38.9595ZM37.9805,33.0874v.3984a2.59964,2.59964,0,0,0,2.52391,2.5977v-1.5a1.40169,1.40169,0,0,1-.27591-.043c-.001.0352-.002.0713-.002.1114v-.0938a.70833.70833,0,0,1-.2163.5723.85376.85376,0,0,1-.5512.1806.95807.95807,0,0,1-.5293-.1279.59335.59335,0,0,1-.2242-.5576V34.023c0-.2569-.1967-.2715-.4355-.2862v-.1123h1.00441a1.39091,1.39091,0,0,1-.06011-.4033v-.1338Zm1.3403.666c-.1538.0235-.2813.0801-.2813.2696v.5546c0,.3809.1538.5928.5044.5928.357,0,.5337-.2138.5376-.6221v-.0556a1.36868,1.36868,0,0,1-.7607-.7393m-1.9693-9.2578a1.01956,1.01956,0,0,1-1.1005.8555,1.1,1.1,0,0,1-.4483-.1211,1.08446,1.08446,0,0,0,1.7642-.7969l-.1841-.1201a1.12852,1.12852,0,0,1-.0313.1826m-2.1733-.7432a.62984.62984,0,0,0,0,.8858c.0161.0146.0317.0264.0474.04a.76908.76908,0,0,1,.2133-.667.76091.76091,0,0,1,.6641-.2119.2795.2795,0,0,0-.03859-.0469.62434.62434,0,0,0-.88294-.00327l-.00327.00327m-1.0981-.2402a.76629.76629,0,0,1,.6626-.2139.30812.30812,0,0,0-.0376-.0468.62735.62735,0,1,0-.88915.88525l.00335.00335a.53529.53529,0,0,0,.0474.0372.765.765,0,0,1,.2134-.6651m.66741,1.001a1.812,1.812,0,0,1,.42091,1.4941c-.01071.3848-.00781.5176-.00391.5616l.002.0185v6.2988h2.6157v-1.457a4.07388,4.07388,0,0,1-.7036.1397c-.2153.0615-.0757.4257-.0757.4257-.2046-.0341-.185-.2607-.185-.2607-.2388-.0059-.2002.3125-.2002.3125-.1988-.0859-.0181-.3047-.0762-.3242-.1138-.0498-.2769.165-.2769.165a.50835.50835,0,0,1,.1602-.4092c-.0801-.0566-.21139.0215-.21139.0215.12059-.3515.39689-.1582.46629-.1054.0581.0429.09571.0839.1758.0156a3.25094,3.25094,0,0,1,.5571-.3428c-.2036.0322-.3218-.2344-.3218-.2344.24661,0,.2734-.0732.3247-.1474a1.54992,1.54992,0,0,1,.3667-.4102v-.4004a3.18451,3.18451,0,0,1-.3911-.1914,3.43388,3.43388,0,0,1-.7705.6738.12564.12564,0,0,0-.103.1368c0,.2129-.1026.2734-.1026.2734a.1745.1745,0,0,0-.14314-.201l-.018-.00207c-.1699-.0098-.2046.2451-.2046.2451-.17089-.0752-.0303-.3623-.0303-.3623a.64725.64725,0,0,0-.3091.1416c-.0791-.1973.233-.3076.233-.3076a.88559.88559,0,0,0-.3023-.0332.31752.31752,0,0,1,.5195-.07031c.0279.0527.0674.1367.13531.0371.083-.126.581-.6075.67189-.6983-.0703-.0283-.3233.0264-.4673-.1172a.86046.86046,0,0,0,.5146-.1631.169.169,0,0,0-.08-.1035,5.9,5.9,0,0,1-.9185-.8037c-.3408.0322-.3853-.1728-.3853-.1728.0957.0273.3003.0107.3003-.0576,0-.0762-.2905-.2071-.2905-.2071.0693-.0595.3281.0147.3281.0147.0078-.041-.1738-.2676-.1738-.2676.144,0,.3101.1816.3101.1816.04341-.0947-.0474-.3027-.0474-.3027.3071.1533.23781.5625.23781.5625l.93259.6641a.47325.47325,0,0,0,.6231-.086.18054.18054,0,0,0-.0689-.3125c-.0259-.0029-.1543.0215-.1831-.0263-.0444-.0694-.0225-.167.0259-.1866a1.58018,1.58018,0,0,1,.3188.0039c.0474-.0097.085-.0879.0161-.1142-.2768-.1231-.3862-.1592-.392-.2061-.0074-.0996-.0249-.1777.0263-.1836.1323-.0097.1543-.0312.1543-.0312.1314-.1651.2173-.169.2627-.1778a1.52326,1.52326,0,0,1,.4209.0899c.0386.0098.0996.0166.1201-.0039a.25846.25846,0,0,1,.3655.00359l.0003.00031c-.0811-.0098-.2173.0967-.1749.1269.1045.0752-.0268.3555-.0551.4395-.0821.249.1758.4941.1758.4941a.37868.37868,0,0,1-.4258-.0429c0,.4394.6655.457.6655.457-.1362.25-.55709.1875-.64209.1719-.09961-.0215-.084.1113.04979.1562a2.38762,2.38762,0,0,1,.6113.3711h.6133a.38571.38571,0,0,0,.01561-.2793,2.49264,2.49264,0,0,0-.393-.6543c-.05131-.0683-.09771-.1289-.13331-.1836-.0108-.0185-.314-.459-.1314-.7295a.42931.42931,0,0,1,.5396-.1709c.1738-.2021.4658-.1328.5864.1856.1362.3652-.2251.4121-.0127.9629a.78168.78168,0,0,1-.60143-.92754q.00654-.03068.01553-.06076a1.2038,1.2038,0,0,0-.1748-.0117.2402.2402,0,0,0-.2066.1094c-.084.1386.03371.4091.1265.5468.0337.0518.0801.1114.1284.1797a2.52394,2.52394,0,0,1,.42381.711.61716.61716,0,0,1-.00091.3222h.58691V26.5874H35.4136l-.0684-.0185c-.001-.0752,0-.1885.0068-.4415.0357-1.1259-.3388-1.4951-.60449-1.6142m.419,9.4707a5.55,5.55,0,0,0,.081.9287h2.9278a2.76411,2.76411,0,0,1-.3931-1.4268v-.3984H35.1665v.8965m1.0083,3.1465a5.46677,5.46677,0,0,0,1.3838,1.3457l-.0078,3.5371h5.7465l.0054-2.6846a5.37207,5.37207,0,0,1-4.7016-.3105,5.39274,5.39274,0,0,0,1.90331.3711V37.1304H36.1748m8.6201,6.0586c0-.3662-.3931-.7324-1.0518-.9766H37.2148c-.6577.2442-1.0508.6104-1.0508.9766a.4695.4695,0,0,0,.0157.1191h8.6045a.59411.59411,0,0,0,.0107-.1191m1.1587-10.1016H43.3745v.3984a2.75736,2.75736,0,0,1-.1025.7481,2.15937,2.15937,0,0,0,.4887-.0215s.3902-.0225.5908-.0098a1.23427,1.23427,0,0,1,.2618.0469c.1894-.039.5483-.1504.624-.291.01411-.0293.0635-.0723.0498-.1016-.002-.0058-.0039-.1191-.03169-.1259a.78762.78762,0,0,0-.50691.0986.63807.63807,0,0,1-.63909.0537c-.066-.0498-.07471-.1465-.02931-.2939,0,0,.0195-.1836.3178-.1836.1026-.0039.1148.123.0269.1894-.0625.0479-.2046.125-.272.0938-.0117.0615-.0068.1035.0132.1191a.48229.48229,0,0,0,.5342-.0576.88364.88364,0,0,1,.583-.1113c.0561.0185.11721.1162.1279.1416.0259.0566-.0649.166-.0918.2226-.082.1543-.37989.2598-.5757.3135a.25818.25818,0,0,1,.1065.1221.92408.92408,0,0,1,.0498.1523c.0493.252.375.1231.375.1231a2.50141,2.50141,0,0,1-.1382.5507c-.0337.1026-.249.0508-.3369.0508-.1133,0,0-.0625.03761-.0888.03859-.0254.17379.0263.17379.0263l.07421-.3261a.59519.59519,0,0,1-.59761-.3291,2.94052,2.94052,0,0,1-.67139.6826.235.235,0,0,1-.26421,0c-.0503-.0537.07521-.0655.07521-.0655.249-.0888.62359-.6377.62359-.6377s.0756-.1855-.4488.0645a1.61223,1.61223,0,0,1-.7812.1973c-.0078.0156-.01659.0312-.0259.0488a2.84208,2.84208,0,0,1-.957.9844,2.81224,2.81224,0,0,1-1.3345.4121v3.1025a5.36764,5.36764,0,0,0,2.981-.9971v-.0019a5.39817,5.39817,0,0,0,2.269-4.4043Zm0-6.5h-5.25V29.687h1.4619c.0288-.0283.0493-.0498.0654-.0664a.95472.95472,0,0,1-.3281-.2305.87664.87664,0,0,0,.5137-.1601.173.173,0,0,0-.08009-.1065,5.79553,5.79553,0,0,1-.91751-.8046c-.3418.0361-.3842-.169-.3842-.169.09371.0254.2983.0059.2983-.0605,0-.0782-.28959-.2041-.28959-.2041.06939-.0616.32819.0117.32819.0117a1.2785,1.2785,0,0,0-.1748-.2686c.145,0,.31.1836.31.1836.0425-.0947-.04639-.3027-.04639-.3027a.55727.55727,0,0,1,.23879.5644l.7383.5411c.2143.1093.39891.1718.4502-.127a.59579.59579,0,0,1-.3252-.2021.59487.59487,0,0,0,.2983-.0987c.1524-.0976,0-.4746.2007-.5127l.8247.1748a1.10109,1.10109,0,0,1-.0771.5117s.0268.2754.1504.3262c0,0-.2749.0488-.3243-.0254l-.0493.1133a.59541.59541,0,0,0,.3281.5332,3.10829,3.10829,0,0,1,.7842.5137.54725.54725,0,0,0,.4131-.1016.34424.34424,0,0,0,.0435-.3232,2.59385,2.59385,0,0,0-.3936-.6514c-.0503-.0664-.0976-.1308-.1323-.1816-.0117-.0196-.314-.461-.1343-.7344a.43477.43477,0,0,1,.5415-.1699c.1748-.1992.4644-.1299.5845.1875.1406.3652-.2251.4121-.0108.9629a.78331.78331,0,0,1-.60275-.92944q.00633-.02971.015-.05886a1.10238,1.10238,0,0,0-.1739-.0127.24366.24366,0,0,0-.206.1103c-.083.1387.0332.4092.1274.5469.0332.0488.0786.1113.1284.1797a2.43719,2.43719,0,0,1,.4224.7129.51384.51384,0,0,1-.083.4795.64336.64336,0,0,1-.478.1592c.0337.0752.0376.1308.0625.2002a.42433.42433,0,0,0,.1538.2002c-.2378.1972-.1538.3789-.0415.4804.1357.125.3154-.0332.3154-.0332.144.835-.9878,1.2539-.95309,1.3047.03609.0547.07569.043.12739.1367a.16587.16587,0,0,1-.1099.2637c.0157-.1445-.0473-.2539-.1254-.2617-.0752-.0098-.22509.2773-.22509.2773-.05911-.084.06489-.3183.06489-.3183-.08689-.0332-.3042.2607-.3042.2607-.0503-.1279.105-.3086.105-.3086-.1284-.042-.334.1963-.334.1963-.0088-.4248.332-.4404.502-.4424.6499-.0127.4521-.6953.4521-.6953-.3179.2666-.5449.1533-.5449.1533a.37338.37338,0,0,0,.209-.3877c-.0572-.5615-.0728-.6308-.0313-.6904.04741-.0644-.0674-.0352-.0674-.0352-.0849.2833-.63819.6817-.63819.6817a2.06592,2.06592,0,0,1,.26369.1025.48711.48711,0,0,1-.2656.2608v1.5429h2.5791Z"/><path d="M72.7817,12.8071c-1.0849.0762-1.5625.3995-1.65329,1.1109a21.31256,21.31256,0,0,0-.13671,2.8388v.9439c0,2.1162-.3457,3.7173-1.4219,4.8398a4.55413,4.55413,0,0,1-3.4473,1.3438,5.0907,5.0907,0,0,1-3.1499-.9297c-1.0976-.8516-1.6093-2.252-1.6093-4.4556V14.7232c0-1.7188-.17-1.7833-1.60989-1.9161v-.625h5.24319v.625c-1.4287.1075-1.5923.19-1.5923,1.9161v3.3872c0,2.9375,1.102,4.6254,3.3003,4.6254,2.4746,0,3.333-1.9907,3.333-5.1264v-.8526a17.40689,17.40689,0,0,0-.1787-2.8427c-.10449-.6909-.5147-1.0127-1.8164-1.107v-.625h4.7392Zm12.2783.8911a1.13925,1.13925,0,0,0,1.1407-1.1308,1.127,1.127,0,0,0-1.10038-1.153l-.02072-.00029a1.1421,1.1421,0,0,0-.0196,2.2841Zm2.4961,9.9224v-.5459c-1.17769-.126-1.4062-.2373-1.4062-1.5185V15.1035a27.35185,27.35185,0,0,1-3.3164.711v.5004c1.0195.1583,1.3887.2393,1.3887,1.4312v3.8101c0,1.3105-.2471,1.4052-1.38679,1.5185v.5459Zm11.07031-5.3418c.12309-1.3779.84179-2.4487,1.79889-2.4487.914,0,1.414.9643,1.41011,2.043-.00091.2963-.11521.4057-.42871.4057Zm4.71679.6284a.45807.45807,0,0,0,.5069-.5185,3.00911,3.00911,0,0,0-3.2071-3.1875,3.64693,3.64693,0,0,0-2.7158,1.1899,4.98887,4.98887,0,0,0-1.3525,3.4336,3.83491,3.83491,0,0,0,3.6419,4.01866q.133.00654.2663.00384a4.35652,4.35652,0,0,0,3.2832-1.9395l-.3135-.4399a3.16172,3.16172,0,0,1-2.15819.8852c-1.35551,0-2.72851-.7851-2.72851-3.2788Zm28.38091-.6284c.12109-1.3779.8418-2.4487,1.7988-2.4487.91209,0,1.41209.9643,1.4102,2.043-.002.2963-.1152.4057-.42969.4057Zm4.7148.6284a.45714.45714,0,0,0,.5079-.5185,3.00911,3.00911,0,0,0-3.20709-3.1875,3.64638,3.64638,0,0,0-2.7148,1.1899,4.97916,4.97916,0,0,0-1.35159,3.4336,3.83388,3.83388,0,0,0,3.63983,4.01859q.13312.00659.26646.00391a4.35375,4.35375,0,0,0,3.2832-1.9395l-.31059-.4399a3.16973,3.16973,0,0,1-2.1601.8852c-1.3555,0-2.7285-.7851-2.7285-3.2788Zm-28.5937-1.7129V15.0859a14.29113,14.29113,0,0,1-3.0195.7403v.4751c.9824.1767,1.1328.2529,1.1328,1.3623v4c0,1.1972-.20609,1.2978-1.2949,1.4111v.5459h4.8066v-.5459c-1.4473-.1133-1.583-.2139-1.583-1.4111V18.1914c.36821-.9155.876-1.3042,1.3105-1.3042a1.87664,1.87664,0,0,1,.9971.461.32624.32624,0,0,0,.416.0151,1.82648,1.82648,0,0,0,.7364-1.354c0-.5337-.5137-.9165-1.1778-.9165-.81641,0-1.667,1.0273-2.28711,2.1015Zm9.5625.3394a11.11631,11.11631,0,0,0-.3887-2.085,4.74445,4.74445,0,0,0-1.82809-.3252c-1.89259-.0068-3.0723,1.1543-3.0723,2.5479,0,1.5317,1.4043,2.2153,2.42781,2.6865,1.07809.5025,1.4863.9536,1.4863,1.6377a1.17308,1.17308,0,0,1-1.16554,1.18057q-.02664.00017-.05325-.00087c-1.1503,0-2.0253-1.1934-2.416-2.4102l-.5293.063a9.45851,9.45851,0,0,0,.3125,2.3843,4.30682,4.30682,0,0,0,2.3008.6348c1.584,0,3.29491-.8926,3.29491-2.6812,0-1.3857-1.00191-2.0522-2.50391-2.6792-.9218-.3823-1.5273-.8335-1.5273-1.5386a1.11386,1.11386,0,0,1,1.06046-1.16479q.02834-.00133.05675-.00121c1.041,0,1.56641.7642,2.00191,1.897Zm3.4668-3.83549a1.13816,1.13816,0,0,0,1.1387-1.1308,1.126,1.126,0,0,0-1.09834-1.153l-.02086-.00031a1.1421,1.1421,0,0,0-.0195,2.2841Zm2.4512,9.9224V23.0747c-1.1758-.126-1.3614-.2373-1.3614-1.5185V15.1035a26.77922,26.77922,0,0,1-3.27541.711v.5004c1.02151.1583,1.34579.2393,1.34579,1.4312v3.8101c0,1.3105-.2032,1.4052-1.3438,1.5185v.5459Zm16.6172-9.9224a1.13938,1.13938,0,0,0,1.1386-1.1308,1.12756,1.12756,0,0,0-1.1015-1.153l-.01959-.00028a1.14209,1.14209,0,0,0-.01752,2.2841Zm2.4511,9.9224V23.0747c-1.1777-.126-1.3633-.2373-1.3633-1.5185V15.1035a26.62477,26.62477,0,0,1-3.27528.711v.5004c1.02139.1583,1.3476.2393,1.3476,1.4312v3.8101c0,1.3105-.20509,1.4052-1.3437,1.5185v.5459Zm1.62309-9.6391v1.4526H143.0034l-.35352.6558v.2075h1.3672V21.4917a2.06646,2.06646,0,0,0,2.248,2.3096,1.0881,1.0881,0,0,0,.5899-.1397,15.36,15.36,0,0,0,1.6738-.9043l-.2305-.4746a3.32108,3.32108,0,0,1-1.2011.3428c-.4239,0-1.0762-.2686-1.0762-1.7612V16.2974h2.05659a1.32386,1.32386,0,0,0,.22659-.8633H146.021v-2.522l-.2637-.0791a9.51112,9.51112,0,0,1-1.74019,1.1485Zm-19.06641,0v1.4526H123.937l-.35159.6558v.2075h1.3653V21.4917a2.06561,2.06561,0,0,0,2.248,2.3096,1.09274,1.09274,0,0,0,.5899-.1397,15.34093,15.34093,0,0,0,1.67181-.9043l-.22852-.4746a3.34457,3.34457,0,0,1-1.2012.3428c-.4277,0-1.07809-.2686-1.07809-1.7612V16.2974h2.0567a1.30363,1.30363,0,0,0,.2285-.8633h-2.2852v-2.522l-.2617-.0791a9.57582,9.57582,0,0,1-1.7402,1.1485ZM93.062,23.6206c.9307-2.7905,1.4805-4.6055,2.1777-6.5176.3213-.8803.4912-1.0131,1.4024-1.1123v-.5488H93.062l.0049.5488a3.95076,3.95076,0,0,1,.6689.1148c.4121.124.4844.3945.3184.9311l-1.59379,5.4307h-.07221l-1.4952-5.3999c-.1455-.5713-.0888-.8037.1163-.9136a2.21147,2.21147,0,0,1,.7832-.1631v-.5488h-4.377v.5488c1.0635.1148.9375.2134,1.33991,1.19l2.12589,6.4399ZM72.6343,16.3013c1.0127.1899,1.374.2588,1.374,1.4267v3.8907c0,1.2421-.2197,1.3105-1.4424,1.456v.5459h4.502v-.5459c-.9317-.1133-1.129-.1875-1.129-1.4111V17.1807a3.06633,3.06633,0,0,1,1.56251-.77c.89459,0,1.67489.4765,1.67489,1.9135v3.2144c0,1.3144-.1124,1.4228-1.0645,1.5361v.5459h4.2607v-.5459c-1.0273-.1318-1.2675-.1875-1.2675-1.4111V18.061c0-1.853-.8575-2.9555-2.3594-2.9555a2.18472,2.18472,0,0,0-1.2188.3481l-1.5879,1.0747V15.0791a27.29036,27.29036,0,0,1-3.3046.7285ZM81.353,32.5269a1.14166,1.14166,0,1,0-1.12494-1.15814q-.00021.01412-.00006.02824A1.139,1.139,0,0,0,81.353,32.5269Zm2.4541,9.9238v-.5469c-1.17769-.125-1.3633-.2373-1.3633-1.5176V33.9351a26.60824,26.60824,0,0,1-3.27339.709v.5019c1.01949.1543,1.34469.2363,1.34469,1.4307v3.8095c0,1.3106-.2031,1.4053-1.34369,1.5176v.5469ZM72.9839,37.1089c.1211-1.377.8418-2.4492,1.7968-2.4492.9131,0,1.4141.9638,1.4102,2.0439,0,.2949-.1143.4053-.4277.4053Zm4.7148.6279a.45737.45737,0,0,0,.5068-.5185,3.00982,3.00982,0,0,0-3.208-3.1875,3.63859,3.63859,0,0,0-2.7128,1.1894,4.97147,4.97147,0,0,0-1.3536,3.4336,3.83438,3.83438,0,0,0,3.63977,4.01958q.13366.00663.26754.00392a4.35447,4.35447,0,0,0,3.28409-1.9395l-.3144-.4395a3.16668,3.16668,0,0,1-2.1582.8848c-1.35549,0-2.72849-.7861-2.72849-3.2793Zm18.7539-.6279c.1221-1.377.84281-2.4492,1.79881-2.4492.91309,0,1.41409.9638,1.41019,2.0439-.0019.2949-.11519.4053-.4277.4053Zm4.71681.6279a.45664.45664,0,0,0,.50689-.5185,3.00864,3.00864,0,0,0-3.2071-3.1875,3.65087,3.65087,0,0,0-2.71579,1.1894,4.98375,4.98375,0,0,0-1.35161,3.4336A3.83457,3.83457,0,0,0,98.042,42.6734q.13391.00663.268.00389a4.3545,4.3545,0,0,0,3.2832-1.9395l-.3125-.4395a3.17807,3.17807,0,0,1-2.1601.8848c-1.3555,0-2.7285-.7861-2.7285-3.2793ZM69.4136,39.1382a4.36705,4.36705,0,0,1-1.0723,1.8057,2.66472,2.66472,0,0,1-1.9307.6943,3.41372,3.41372,0,0,1-1.4765-.2012c-.3643-.1758-.4444-.5351-.4444-1.4804V33.4761c0-1.6172.211-1.7119,1.6719-1.8379v-.627H60.771v.627c1.4902.126,1.6767.2383,1.6767,1.8379V39.979c0,1.6006-.2465,1.7188-1.8579,1.8457v.626h8.7691c.1699-.5391.5527-2.457.6914-3.1611ZM90.437,40.936a2.50228,2.50228,0,0,1-1.4219.4834c-1.0351,0-2.3808-.9902-2.3808-3.2627,0-2.7988,1.49611-3.3935,2.1523-3.3935a1.68159,1.68159,0,0,1,1.6504.8232Zm3.4258.4981-.5547-.0567c-.7402-.0878-.9434-.1699-.9434-1.1923V29.6548a22.955,22.955,0,0,1-3.416.6533v.5264c1.2529.1074,1.4883.1963,1.4883,1.3193V34.146a6.3022,6.3022,0,0,0-1.2168-.1504,4.44617,4.44617,0,0,0-4.7441,4.6572,3.60935,3.60935,0,0,0,3.2624,3.92576q.09805.009.1965.01274a2.38986,2.38986,0,0,0,1.3672-.3164l1.1348-.7109v1.1259c.7031-.206,2.4121-.5703,3.4258-.7285Zm8.64061-6.3018c1.01369.1875,1.332.2578,1.332,1.4239v3.8916c0,1.2431-.17771,1.3115-1.39941,1.456v.5469h4.418v-.5469c-.93359-.1123-1.0889-.1875-1.0889-1.4121V36.0132a3.05094,3.05094,0,0,1,1.5664-.7734c.8907,0,1.67291.4765,1.67291,1.916v3.2129c0,1.3154-.1143,1.4228-1.06551,1.5351v.5469h4.2188v-.5469c-1.02728-.1328-1.22459-.1875-1.22459-1.4121v-3.6016c0-1.8525-.91209-2.955-2.41409-2.955a2.11026,2.11026,0,0,0-1.207.3496l-1.5469,1.0732V33.9097a26.206,26.206,0,0,1-3.26169.7265Z"/><path d="M69.3022,58.2798v-.3301c.5723-.0664.627-.1543.627-.792V55.2651c0-.8691-.3633-1.2207-.9121-1.2099a1.26306,1.26306,0,0,0-.9239.4072v2.6953c0,.6377.0547.7256.5938.792v.3301H66.1557v-.3301c.6719-.0664.7383-.1211.7383-.8359V51.6675a17.77453,17.77453,0,0,0-2.1562-.0879h-.5513v5.2812c0,.9239.1104,1.001,1.02391,1.0665v.3525H61.9209v-.3525c.8799-.0655.97851-.1426.97851-1.0665v-5.2812H62.3828c-.9678,0-1.166.1103-1.3311.3525a2.63476,2.63476,0,0,0-.3964.9903h-.3741c.0547-.7373.1104-1.4961.1319-2.0684h.2314c.1651.2422.3076.2744.6162.2744h4.5552c.8691,0,1.0781-.0547,1.0781-.2422v-.1533a8.74273,8.74273,0,0,0,1.1992-.2754V54.0327a2.2528,2.2528,0,0,1,1.4961-.7256c.95711-.0107,1.53911.5938,1.53911,1.837v1.9697c0,.7148.06639.7588.67189.8359v.3301Z"/><path d="M76.4956,57.2564a2.48968,2.48968,0,0,1-1.9141,1.1552,2.19423,2.19423,0,0,1-2.22822-2.15971q-.00151-.09748.00562-.19479a2.76094,2.76094,0,0,1,.7812-1.958,2.37184,2.37184,0,0,1,1.6621-.792,1.76893,1.76893,0,0,1,1.7383,1.7276c0,.2197-.0664.3515-.2969.3847-.19919.0332-1.5527.1319-2.707.1758.0332,1.2989.75981,1.9033,1.5391,1.9033a1.78839,1.78839,0,0,0,1.2324-.50578Zm-2.9043-2.1563c.5059,0,.9902-.0107,1.49611-.0332.17579,0,.24219-.0322.25389-.209,0-.5713-.29689-1.1221-.7813-1.1221C74.1089,53.7358,73.6909,54.231,73.5913,55.1001Z"/><path d="M86.5249,51.481c-.5938.0332-.836.1865-.8906.6816a13.71381,13.71381,0,0,0-.08789,1.8379v4.3896H85.0835L80.4624,52.8013H80.4409v2.5849a16.48989,16.48989,0,0,0,.0781,1.8047c.0547.5166.2637.6924,1.0547.7364v.3525H78.9116v-.3525c.6172-.044.8809-.209.9356-.7032a16.92142,16.92142,0,0,0,.0878-1.8379V53.0435c0-.7491-.0117-.9024-.2207-1.1553a1.14476,1.14476,0,0,0-.9453-.4072v-.3526h1.8926l4.3457,5.0723h.0332V54.0005c0-.9902-.0547-1.5078-.07809-1.8262-.06641-.4736-.29691-.6494-1.08791-.6933v-.3526h2.6504Z"/><path d="M90.9917,57.2564a2.48969,2.48969,0,0,1-1.916,1.1552,2.19382,2.19382,0,0,1-2.22637-2.16078q-.00144-.09693.00567-.19372a2.76094,2.76094,0,0,1,.7812-1.958,2.37128,2.37128,0,0,1,1.66021-.792,1.76894,1.76894,0,0,1,1.73829,1.7276c0,.2197-.0665.3515-.2969.3847-.1973.0332-1.5508.1319-2.7071.1758.0332,1.2989.7598,1.9033,1.5411,1.9033a1.78856,1.78856,0,0,0,1.23241-.50579Zm-2.90429-2.1563c.50579,0,.98829-.0107,1.49609-.0332.1758,0,.2402-.0322.25191-.209,0-.5713-.29681-1.1221-.78121-1.1221C88.603,53.7358,88.185,54.231,88.08741,55.1001Z"/><path d="M93.9057,58.2798a1.26778,1.26778,0,0,1-.4511.1318c-.791,0-1.24219-.4072-1.24219-1.3642V53.9341H91.4975l-.0546-.1318.3066-.3633h.46291v-.8028l1.05659-.8144.1426.0547V53.439h1.1445a.34463.34463,0,0,1-.05258.48455l-.01382.01055H93.4116v2.75c0,.8691.3965.9902.6367.9902a1.47688,1.47688,0,0,0,.5957-.1426l.10941.3409Z"/><path d="M98.1186,58.2798v-.3301c.5723-.0664.627-.1426.627-.792V55.2651c0-.8691-.3613-1.2099-.9004-1.2099a1.28019,1.28019,0,0,0-.92579.3965v2.706c0,.6494.05669.7256.584.792v.3301H94.9956v-.3301c.6367-.0664.71481-.1103.71481-.8144v-5.17c0-.6826-.03321-.7041-.66011-.7597V50.898a14.51632,14.51632,0,0,0,1.86911-.3858v3.5322a2.35015,2.35015,0,0,1,1.50779-.7373c.9356,0,1.5176.5938,1.5176,1.8487v1.9795c0,.7041.0781.7373.6719.8144v.3301Z"/><path d="M105.3237,57.2564a2.48966,2.48966,0,0,1-1.914,1.1552,2.19424,2.19424,0,0,1-2.22831-2.15965q-.00153-.09748.00561-.19485a2.76134,2.76134,0,0,1,.7812-1.958,2.37207,2.37207,0,0,1,1.66221-.792,1.76885,1.76885,0,0,1,1.73819,1.7276c0,.2197-.0664.3515-.2968.3847-.1993.0332-1.5528.1319-2.7071.1758.0332,1.2989.7598,1.9033,1.5391,1.9033a1.7884,1.7884,0,0,0,1.23241-.50579Zm-2.90429-2.1563c.50589,0,.99029-.0107,1.49609-.0332.1758,0,.2422-.0322.25391-.209,0-.5713-.29691-1.1221-.78121-1.1221C102.937,53.7358,102.519,54.231,102.41941,55.1001Z"/><path d="M107.8432,54.4732c.37309-.6495.8243-1.1661,1.27541-1.1661a.66345.66345,0,0,1,.70421.62l.00089.01772a.76453.76453,0,0,1-.4726.7041.2882.2882,0,0,1-.3204-.0322.754.754,0,0,0-.49409-.2314c-.24219,0-.50591.2089-.7148.7148v2.0352c0,.6933.05461.748.90041.8144v.3301h-2.8379v-.3301c.6269-.0664.7265-.1211.7265-.8144V54.77c0-.6162-.06639-.6601-.6269-.7695v-.2861a10.32369,10.32369,0,0,0,1.83791-.4297v1.1885Z"/><path d="M109.9975,58.2798v-.3301c.67191-.0879.7383-.1426.7383-.8584V51.9976c0-.6924-.0547-.7256-.6933-.792V50.898a12.36589,12.36589,0,0,0,1.9023-.3858v6.5791c0,.7373.07809.792.7598.8584v.3301Z"/><path d="M116.7534,58.4116a.96855.96855,0,0,1-.6172-.2197,1.157,1.157,0,0,1-.27541-.4404,3.68218,3.68218,0,0,1-1.1992.6601,1.40356,1.40356,0,0,1-1.42957-1.37706l-.00014-.00864c0-.5615.27541-.8584.85741-1.0674a8.07526,8.07526,0,0,0,1.7383-.7266v-.2744c0-.7265-.30659-1.1338-.7695-1.1338a.48912.48912,0,0,0-.4063.1983,1.90811,1.90811,0,0,0-.3203.748.38127.38127,0,0,1-.41789.3301.634.634,0,0,1-.60361-.5283c0-.1758.13091-.3184.37309-.4834a5.10407,5.10407,0,0,1,1.7598-.7813,1.47622,1.47622,0,0,1,1.56252,1.7159v1.9033c0,.5068.17569.6494.36319.6494a.87067.87067,0,0,0,.375-.0986l.12109.33Zm-.92581-2.7724c-.2187.1211-.51559.2754-.748.3965a.79928.79928,0,0,0-.5703.7695.75923.75923,0,0,0,.67561.83451l.0275.00239a1.0572,1.0572,0,0,0,.61519-.2539Z"/><path d="M121.29642,58.2798v-.3301c.52728-.0664.59369-.1211.59369-.9023V55.1997c0-.7812-.3418-1.1113-.8476-1.1113a1.56257,1.56257,0,0,0-.95709.418v2.6289c0,.7041.06639.748.584.8144v.3301H118.1167v-.3301c.70309-.0879.7578-.1211.7578-.8467V54.8257c0-.6826-.0547-.7158-.6152-.8252v-.2979a10.06809,10.06809,0,0,0,1.82611-.4287v.836c.22069-.1533.43948-.3184.70509-.4834a1.51632,1.51632,0,0,1,.87891-.3194c.88089,0,1.41989.6377,1.41989,1.7276v2.0898c0,.7149.06641.7481.67.8252v.3301Z"/><path d="M129.81979,57.9937a14.24727,14.24727,0,0,0-1.9902.4287v-.6709l-.67191.4179a1.35375,1.35375,0,0,1-.6602.2422,2.27885,2.27885,0,0,1-2.17822-2.37523l.00052-.01147a2.83609,2.83609,0,0,1,2.9492-2.7178,2.89687,2.89687,0,0,1,.56059.0772V51.9761c0-.6387-.06641-.6826-.7813-.7598V50.898a13.02943,13.02943,0,0,0,1.9903-.3858V56.938c0,.6045.06641.6484.50781.7041l.27339.0322Zm-1.9902-3.6748a1.03762,1.03762,0,0,0-.9239-.5713c-.3535,0-1.2226.3408-1.2226,1.9795,0,1.3427.793,1.9033,1.37691,1.9033a1.39605,1.39605,0,0,0,.76961-.253Z"/><path d="M133.2417,54.814c-.2637-.6709-.627-1.1114-1.1543-1.1114a.6268.6268,0,0,0-.618.63544l.00084.02476c0,.3857.31841.6494.85741.8809.8692.374,1.45309.7587,1.45309,1.5839a1.73653,1.73653,0,0,1-1.87347,1.58782l-.04053-.00382a2.504,2.504,0,0,1-1.3418-.374,5.70709,5.70709,0,0,1-.1758-1.4189l.30659-.0332c.2325.7041.7383,1.4189,1.3985,1.4189a.65014.65014,0,0,0,.66969-.63q.00046-.01512.00021-.03024c0-.374-.21869-.6376-.84569-.9453-.56252-.2646-1.39841-.6718-1.39841-1.5849a1.60044,1.60044,0,0,1,1.68-1.51668q.0566.0029.11287.00978a2.53,2.53,0,0,1,1.02351.1866,7.3687,7.3687,0,0,1,.2636,1.2324Z"/></g></g></svg>