<?xml version="1.0" encoding="UTF-8"?>
<svg version="1.1" xmlns="http://www.w3.org/2000/svg" width="864" height="864">
<path d="M0 0 C285.12 0 570.24 0 864 0 C864 285.12 864 570.24 864 864 C578.88 864 293.76 864 0 864 C0 578.88 0 293.76 0 0 Z " fill="#FF9E00" transform="translate(0,0)"/>
<path d="M0 0 C0.5259375 0.44988281 1.051875 0.89976562 1.59375 1.36328125 C1.26375 3.01328125 0.93375 4.66328125 0.59375 6.36328125 C-0.42348145 6.3475708 -1.44071289 6.33186035 -2.48876953 6.31567383 C-6.33178508 6.26059028 -10.17476728 6.22665199 -14.01806641 6.19848633 C-15.66851709 6.18357551 -17.31892943 6.16323959 -18.96923828 6.13696289 C-54.6346852 5.58409426 -81.93479452 22.7598141 -107.09375 46.859375 C-114.04802277 53.64335044 -120.42140152 60.70101849 -126.40625 68.36328125 C-129.06809269 71.70047875 -131.73690558 75.03208235 -134.40625 78.36328125 C-133.60630615 78.22229004 -132.8063623 78.08129883 -131.98217773 77.93603516 C-123.12874326 76.38007352 -114.27000611 74.85928964 -105.40625 73.36328125 C-104.57351563 73.22035645 -103.74078125 73.07743164 -102.8828125 72.93017578 C-84.97433724 69.90683405 -64.58335136 68.98410449 -48.28125 78.11328125 C-44.90215873 80.75778746 -41.53572182 83.5849188 -39.40625 87.36328125 C-39.74609375 89.58203125 -39.74609375 89.58203125 -40.40625 91.36328125 C-43.46732198 92.30556853 -44.88685627 92.60794743 -47.8359375 91.21875 C-48.64289063 90.66832031 -49.44984375 90.11789062 -50.28125 89.55078125 C-58.73817614 83.82672031 -67.34736184 83.96109883 -77.21875 83.98828125 C-78.27612366 83.98859848 -78.27612366 83.98859848 -79.3548584 83.98892212 C-98.93815555 84.04720245 -117.68153654 87.27264431 -136.5546875 92.41015625 C-140.40625 93.36328125 -140.40625 93.36328125 -144.40625 93.36328125 C-144.7775 94.60078125 -144.7775 94.60078125 -145.15625 95.86328125 C-146.08345581 98.45945752 -147.01744847 100.63761692 -148.28125 103.05078125 C-156.76338995 119.73127209 -160.90787906 140.14824844 -155.78125 158.48828125 C-152.48098823 167.56977081 -147.83783398 174.46843551 -139.40625 179.36328125 C-138.59671875 179.85054687 -137.7871875 180.3378125 -136.953125 180.83984375 C-123.93556251 187.20635655 -105.3310882 186.47613331 -91.59375 182.67578125 C-89.51943388 181.93733497 -87.45603159 181.16732461 -85.40625 180.36328125 C-84.31441406 180.01265625 -83.22257813 179.66203125 -82.09765625 179.30078125 C-74.11169209 176.69015959 -66.82375618 173.22306581 -59.44628906 169.22192383 C-58.71893555 168.8380249 -57.99158203 168.45412598 -57.2421875 168.05859375 C-56.27611572 167.53289795 -56.27611572 167.53289795 -55.29052734 166.99658203 C-52.96624808 166.21539773 -51.69033511 166.57699841 -49.40625 167.36328125 C-49.70593 170.46128467 -49.90318961 171.93233498 -52.3137207 173.99731445 C-53.14476318 174.46484131 -53.97580566 174.93236816 -54.83203125 175.4140625 C-55.7638623 175.94394775 -56.69569336 176.47383301 -57.65576172 177.01977539 C-58.66654785 177.56625732 -59.67733398 178.11273926 -60.71875 178.67578125 C-61.75531738 179.24611084 -62.79188477 179.81644043 -63.85986328 180.40405273 C-86.83320687 192.79198377 -111.59603287 202.26551289 -137.6796875 194.61328125 C-150.5339452 190.30158056 -159.91335469 182.63825528 -166.34375 170.61328125 C-174.14827654 153.55008289 -175.17473557 132.36737572 -168.75 114.62890625 C-164.74270833 104.03619792 -164.74270833 104.03619792 -162.40625 99.36328125 C-174.43686497 103.05089436 -186.37428267 106.98242352 -198.28125 111.05078125 C-199.17677582 111.35664154 -200.07230164 111.66250183 -200.9949646 111.97763062 C-249.80761797 125.43701011 -249.80761797 125.43701011 -289.40625 153.36328125 C-289.40625 154.35328125 -289.40625 155.34328125 -289.40625 156.36328125 C-288.14167969 156.86988281 -288.14167969 156.86988281 -286.8515625 157.38671875 C-285.20800781 158.05574219 -285.20800781 158.05574219 -283.53125 158.73828125 C-281.89542969 159.39957031 -281.89542969 159.39957031 -280.2265625 160.07421875 C-277.40625 161.36328125 -277.40625 161.36328125 -275.40625 163.36328125 C-275.59375 165.86328125 -275.59375 165.86328125 -276.40625 168.36328125 C-281.52803417 171.77780403 -287.43767747 170.9925764 -293.40625 170.36328125 C-298.37024356 168.7388283 -301.53161856 166.32121093 -305.03125 162.48828125 C-306.82492928 158.41173743 -306.72727467 156.61991629 -305.40625 152.36328125 C-301.29697516 144.058038 -292.89586951 139.29129736 -285.40625 134.36328125 C-284.59285156 133.81800781 -283.77945313 133.27273438 -282.94140625 132.7109375 C-254.03116349 114.36893814 -218.73951687 103.91504053 -186.40625 93.36328125 C-185.15921799 92.95571594 -185.15921799 92.95571594 -183.88699341 92.53991699 C-181.3381214 91.71036158 -178.7867912 90.88889172 -176.234375 90.0703125 C-175.46075119 89.81903091 -174.68712738 89.56774933 -173.89006042 89.30885315 C-169.26816048 87.84031882 -164.74846069 86.80448112 -159.96875 85.98828125 C-151.27271089 83.57159131 -147.58376691 76.57769397 -142.83984375 69.44091797 C-140.66234654 66.28517866 -138.22404215 63.38647461 -135.71875 60.48828125 C-135.26129395 59.95589844 -134.80383789 59.42351562 -134.33251953 58.875 C-133.02956272 57.36606622 -131.71807906 55.86450812 -130.40625 54.36328125 C-129.68179688 53.52667969 -128.95734375 52.69007813 -128.2109375 51.828125 C-106.14313988 26.78809633 -79.91458876 5.68913453 -47.40625 -3.63671875 C-46.59542969 -3.88292969 -45.78460938 -4.12914062 -44.94921875 -4.3828125 C-31.73694485 -7.73794335 -11.66037185 -7.93132436 0 0 Z " fill="#FFFCF8" transform="translate(444.40625,505.63671875)"/>
<path d="M0 0 C4.16509761 3.12382321 6.50028122 6.80166076 7.5 11.875 C8.75337895 22.76149146 5.33961489 31.51896296 -1.25 40.125 C-10.61288537 51.03676418 -26.14841755 64.5048101 -40.875 66.6875 C-44.5 66.875 -44.5 66.875 -46.5 65.875 C-46.7421875 63.55859375 -46.7421875 63.55859375 -46.5 60.875 C-44.8828125 59.28515625 -44.8828125 59.28515625 -42.625 57.9375 C-41.80257812 57.4321875 -40.98015625 56.926875 -40.1328125 56.40625 C-39.26398438 55.9009375 -38.39515625 55.395625 -37.5 54.875 C-25.14215121 47.63738139 -9.97389312 38.43090578 -5.5 23.875 C-5.25917126 20.29069055 -5.25917126 20.29069055 -5.375 16.5625 C-5.39304687 15.30824219 -5.41109375 14.05398438 -5.4296875 12.76171875 C-5.45289063 11.80910156 -5.47609375 10.85648438 -5.5 9.875 C-8.87400578 9.45774322 -8.87400578 9.45774322 -12.5 9.875 C-15.27182243 13.11077554 -16.20795199 16.82647946 -17.375 20.875 C-18.96260656 25.72106498 -20.16953516 28.89179089 -24.5 31.875 C-30.82045344 34.52912886 -37.30377846 35.66688375 -44.0625 36.5625 C-44.95646484 36.69205078 -45.85042969 36.82160156 -46.77148438 36.95507812 C-60.32448745 38.82890225 -60.32448745 38.82890225 -65.26171875 36.6640625 C-67.6846794 34.7273854 -69.4167542 32.70050088 -71.3125 30.25 C-74.76099315 26.29398627 -74.76099315 26.29398627 -79.5 24.375 C-83.188417 24.28787204 -85.01762846 25.75694466 -87.75 28.125 C-88.37390625 28.74890625 -88.9978125 29.3728125 -89.640625 30.015625 C-93.90250035 34.27750035 -97.31227712 36.01643068 -103.375 36.0625 C-108.46024898 35.99597785 -111.66035335 35.34671732 -115.6875 32.125 C-117.80279895 29.49911165 -118.61831209 27.10785567 -119.5 23.875 C-123.21666049 24.1473415 -125.05301572 24.46600938 -127.84375 27.01953125 C-128.5553125 27.89996094 -129.266875 28.78039062 -130 29.6875 C-135.03022086 35.61536971 -139.55369017 39.75765849 -147.625 40.4375 C-153.09619265 40.40179891 -155.80771056 37.68703712 -159.55078125 33.95703125 C-160.19402344 33.26996094 -160.83726562 32.58289063 -161.5 31.875 C-162.325 31.05 -163.15 30.225 -164 29.375 C-166.22030039 25.67449935 -166.5 23.22503818 -166.5 18.875 C-164.73535939 16.01506522 -163.50434303 14.37717151 -160.5 12.875 C-157.11938883 12.50754226 -155.18354051 12.4572808 -152.25 14.25 C-149.65049642 18.14925538 -149.16478867 22.29145707 -148.5 26.875 C-144.30063087 27.48581733 -141.82607206 27.74396189 -138.2109375 25.375 C-134.52086154 22.12874761 -131.26327527 18.64991823 -128.125 14.875 C-124.03072397 10.06326906 -119.12551373 5.78732348 -113.5 2.875 C-110.78125 3.0234375 -110.78125 3.0234375 -108.5 3.875 C-106.625 6.0625 -106.625 6.0625 -105.5 8.875 C-105.75 11.75 -105.75 11.75 -106.5 14.875 C-107.72723328 20.18369606 -107.72723328 20.18369606 -105.5 24.875 C-100.92780603 24.86068953 -98.73620678 23.46989735 -95.58984375 20.3828125 C-94.19285461 18.93418111 -92.8090601 17.47273027 -91.4375 16 C-81.49465832 5.49400759 -81.49465832 5.49400759 -76.40234375 4.44140625 C-73.21412093 4.43506783 -71.02018337 4.50151027 -68.39453125 6.38671875 C-65.82492088 9.7616503 -65.13301508 13.02838907 -64.25 17.125 C-64.07726562 17.87007812 -63.90453125 18.61515625 -63.7265625 19.3828125 C-63.30476472 21.21060287 -62.90060441 23.04244792 -62.5 24.875 C-45.33295413 25.93277312 -45.33295413 25.93277312 -29.80859375 19.60546875 C-28.01099633 17.22834739 -27.39177348 14.85440915 -26.5625 12 C-25.15007356 7.57011707 -24.02403505 4.07866823 -20.5 0.875 C-14.07546623 -2.248346 -6.72890035 -2.16286083 0 0 Z " fill="#FFFCF7" transform="translate(738.5,584.125)"/>
<path d="M0 0 C2.5625 1.5625 2.5625 1.5625 4 4 C4.59995301 6.80939536 4.65449452 9.19667835 4 12 C1.45258259 14.86584459 -1.40851689 16.20786102 -4.8125 17.8125 C-23.67151079 27.15387918 -31.31793788 50.97128236 -37.6875 69.625 C-39.71545859 75.92198327 -41.58578412 82.26668263 -43.3894043 88.63134766 C-44.89546975 93.89546975 -44.89546975 93.89546975 -46 95 C-51.36750273 95.46673937 -51.36750273 95.46673937 -53.69921875 93.74609375 C-55.83241043 90.88262023 -55.03508142 88.56542934 -54.59375 85.16015625 C-53.74078996 80.62038866 -52.60505391 76.16133288 -51.37280273 71.71020508 C-50.29157271 67.7017788 -49.80029592 64.14869127 -50 60 C-53.63964719 60.34121692 -55.74402378 61.46401115 -58.625 63.5625 C-63.55223026 66.74796833 -68.28775979 67.22405147 -74 66 C-78.01327665 63.70669906 -80.45820218 60.81269673 -83 57 C-85.42319471 57.16167658 -85.42319471 57.16167658 -88 58 C-89.53329913 59.95049251 -89.53329913 59.95049251 -90.5625 62.375 C-92.22596517 65.90914399 -93.59810106 67.98429539 -97 70 C-101.9011857 70.55335968 -104.00795724 70.5327637 -108.375 68.1875 C-110.9779142 66.01840483 -112.7634874 64.41907562 -113.3359375 60.984375 C-113.45165431 54.36537332 -112.06311228 50.22975829 -107.4921875 45.41015625 C-100.99512224 39.47214079 -93.46747458 35.02626402 -84.5625 34.625 C-83.82128906 34.57601562 -83.08007812 34.52703125 -82.31640625 34.4765625 C-78.66566892 35.30151832 -77.28973472 37.09234018 -75 40 C-73.90688083 42.71390323 -73.27799233 45.45206313 -72.6875 48.3125 C-72.51927734 49.05306641 -72.35105469 49.79363281 -72.17773438 50.55664062 C-71.76883398 52.36748523 -71.38212268 54.18331621 -71 56 C-67.8132106 57.00944342 -66.27790066 57.09996963 -63.08984375 55.953125 C-54.47934227 51.30110685 -47.85433106 45.92181392 -41 39 C-39.79537109 37.82824219 -39.79537109 37.82824219 -38.56640625 36.6328125 C-30.25884243 28.0804851 -25.02977081 17.38910461 -19.96582031 6.70507812 C-18.02131594 3.27221196 -15.06258625 1.61984198 -11.75 -0.3125 C-7.67598252 -1.33100437 -4.05843954 -1.0221816 0 0 Z " fill="#FFFCF8" transform="translate(589,555)"/>
<path d="M0 0 C22.42307692 0 22.42307692 0 27.9375 4.625 C29.62107237 8.38827941 29.66372127 11.95479351 29 16 C27.89322771 18.35249001 26.66673923 19.96866157 25 22 C25.61875 22.268125 26.2375 22.53625 26.875 22.8125 C29 24 29 24 31 27 C31.45705286 32.57604492 31.22168614 36.2230171 28 41 C19.4800519 47.33534602 11.01406089 45 0 45 C0 30.15 0 15.3 0 0 Z " fill="#FFFCF7" transform="translate(135,322)"/>
<path d="M0 0 C2.04660612 1.55657367 2.76178716 2.87164822 3.6640625 5.265625 C3.77426741 10.99628044 1.86354843 14.00284001 -1.8984375 18.015625 C-6.08354915 21.87880498 -10.59312141 25.31169354 -15.12890625 28.75 C-17.7344683 30.75894368 -20.17843406 32.76355713 -22.3359375 35.265625 C-22.67092051 37.93397466 -22.67092051 37.93397466 -22.3359375 40.265625 C-16.19055779 40.55032621 -11.44999452 39.6577157 -5.6484375 37.703125 C3.09088448 34.75927248 3.09088448 34.75927248 7.6640625 36.265625 C7.47366236 39.69282752 6.97508674 40.98051945 4.4140625 43.328125 C-0.66970336 46.37838452 -6.6658681 47.70525707 -12.3359375 49.265625 C-13.32400391 49.56146484 -13.32400391 49.56146484 -14.33203125 49.86328125 C-17.15776079 50.43063046 -19.8935361 50.47567261 -22.7734375 50.515625 C-24.44212891 50.55429687 -24.44212891 50.55429687 -26.14453125 50.59375 C-30.63833322 50.13171895 -33.18792428 48.41363822 -36.3359375 45.265625 C-37.08772165 40.6609471 -36.36213954 37.76375032 -33.9609375 33.890625 C-28.17561932 25.89167568 -20.1761599 19.96020236 -12.26953125 14.1875 C-9.97991699 11.91176219 -9.64694508 10.43026352 -9.3359375 7.265625 C-15.53513865 7.61002506 -19.66197373 9.20515544 -25.0390625 12.3046875 C-27.3359375 13.265625 -27.3359375 13.265625 -29.5078125 13.0390625 C-31.3359375 12.265625 -31.3359375 12.265625 -33.3359375 10.265625 C-33.4609375 7.640625 -33.4609375 7.640625 -33.3359375 5.265625 C-11.85490883 -5.95106977 -11.85490883 -5.95106977 0 0 Z " fill="#FFFBF5" transform="translate(458.3359375,583.734375)"/>
<path d="M0 0 C2.64 0 5.28 0 8 0 C8 14.85 8 29.7 8 45 C5.69 45 3.38 45 1 45 C0.67 44.01 0.34 43.02 0 42 C-0.845625 42.66 -1.69125 43.32 -2.5625 44 C-6.55712785 46.32414711 -8.45452321 46.64935383 -13 46 C-17.80491057 43.55043775 -20.78929488 40.93157296 -23 36 C-23.72189329 29.79761071 -23.95561237 24.13175067 -21.375 18.375 C-17.62200049 14.62200049 -14.87817438 12.2347718 -9.5 11.5625 C-6 12 -6 12 0 15 C0 10.05 0 5.1 0 0 Z " fill="#FFFBF6" transform="translate(429,254)"/>
<path d="M0 0 C4.86464624 2.6718134 6.83385818 4.71165868 8.75 9.9375 C9.70035342 15.54862924 8.8630413 20.24599381 6.09375 25.2109375 C3.1835279 28.95023451 -0.82871249 30.4637375 -5.25 31.9375 C-10.86558189 32.30573488 -14.44386946 32.17641406 -19.25 28.9375 C-23.51225646 24.62533421 -26.38411631 21.383986 -26.5625 15.1875 C-26.50622052 10.3052549 -25.54587855 7.67876754 -22.25 3.9375 C-15.13427456 -2.4666529 -8.87649788 -3.98002265 0 0 Z " fill="#FFFBF5" transform="translate(193.25,268.0625)"/>
<path d="M0 0 C3.66864538 2.68437467 6.50666083 5.76332166 8.5625 9.875 C9.12019904 15.83808973 9.06406448 20.80376868 5.5625 25.875 C0.30069444 30.85986842 -4.64097468 32.47694003 -11.80078125 32.31640625 C-16.55408825 31.52066745 -19.99291208 29.16697959 -23.4375 25.875 C-26.37334048 21.07089739 -27.3976021 16.40649731 -26.4375 10.875 C-24.79312124 6.14741106 -21.80832931 2.48903624 -17.62890625 -0.24609375 C-11.97267257 -2.51463667 -5.67088988 -1.8559276 0 0 Z " fill="#FFFBF5" transform="translate(539.4375,200.125)"/>
<path d="M0 0 C4.31777105 2.38082703 7.11333645 5.35465062 9.01953125 9.9140625 C10.11610486 14.21773839 9.96550153 17.93187912 8.58984375 22.15234375 C6.00897357 26.38327847 3.11237188 29.35798125 -1.28515625 31.65234375 C-7.97755057 32.72312684 -13.58525713 33.12386588 -19.41015625 29.15234375 C-23.75288306 24.73900349 -25.57649753 21.58716537 -25.72265625 15.40234375 C-25.65954498 10.12624162 -25.22197694 7.06190344 -21.41015625 3.15234375 C-15.15252662 -1.80161304 -7.58970001 -2.66931103 0 0 Z " fill="#FFFBF5" transform="translate(579.41015625,199.84765625)"/>
<path d="M0 0 C4.72508232 2.76372739 8.31832911 5.79392054 10.01171875 11.1484375 C10.85732967 16.47669557 10.04735956 20.19707676 7.3125 24.9375 C3.8159777 28.9719488 0.93087135 31.5821496 -4.421875 32.30859375 C-11.455581 32.46348106 -16.43924492 31.88322409 -21.6875 26.9375 C-25.52517387 21.90055305 -25.50465825 16.02986872 -24.6875 9.9375 C-22.50223658 5.48603749 -19.7480479 2.74864855 -15.6875 -0.0625 C-10.34145956 -1.84451348 -5.38465192 -1.55150988 0 0 Z " fill="#FFFCF7" transform="translate(359.6875,335.0625)"/>
<path d="M0 0 C4.40468881 3.57880966 6.59504959 6.56527438 7.37890625 12.125 C7.62903028 18.06342849 7.12013108 21.87194935 3 26.4375 C-2.01697993 31.07820643 -6.11129077 31.75040719 -12.7578125 31.65234375 C-18.52664728 31.09958084 -22.39796701 27.7399283 -26 23.4375 C-28.51152266 18.41445467 -28.30508745 13.78260081 -27 8.4375 C-24.91853417 4.19451196 -22.45410986 1.32128911 -18.1875 -0.8671875 C-12.39004919 -2.70994865 -5.50778768 -2.74202361 0 0 Z " fill="#FFFBF6" transform="translate(657,200.5625)"/>
<path d="M0 0 C3.40679743 0.80087462 5.07420115 2.81625753 7.16015625 5.5078125 C7.94390625 4.6828125 8.72765625 3.8578125 9.53515625 3.0078125 C13.11756947 0.02955923 16.25460284 -0.21499738 20.81640625 0.01171875 C24.43876832 0.77845205 26.04174781 2.56937499 28.16015625 5.5078125 C29.19963375 8.626245 29.27510463 10.78256836 29.2578125 14.05078125 C29.25458984 15.12392578 29.25136719 16.19707031 29.24804688 17.30273438 C29.23547852 18.98206055 29.23547852 18.98206055 29.22265625 20.6953125 C29.21814453 21.82646484 29.21363281 22.95761719 29.20898438 24.12304688 C29.19719123 26.91802177 29.18073275 29.7128907 29.16015625 32.5078125 C26.52015625 32.5078125 23.88015625 32.5078125 21.16015625 32.5078125 C21.1351001 31.85184082 21.11004395 31.19586914 21.08422852 30.52001953 C20.96842365 27.55741067 20.84562739 24.59513219 20.72265625 21.6328125 C20.68333984 20.60027344 20.64402344 19.56773437 20.60351562 18.50390625 C20.56162109 17.51777344 20.51972656 16.53164062 20.4765625 15.515625 C20.43990479 14.60441895 20.40324707 13.69321289 20.36547852 12.75439453 C20.2943856 10.47297769 20.2943856 10.47297769 19.16015625 8.5078125 C14.99295218 8.12160381 14.99295218 8.12160381 11.34765625 9.8203125 C9.33936162 12.67420487 9.01179333 15.35340851 8.84375 18.73828125 C8.80185547 19.54072266 8.75996094 20.34316406 8.71679688 21.16992188 C8.67748047 22.00330078 8.63816406 22.83667969 8.59765625 23.6953125 C8.55447266 24.54029297 8.51128906 25.38527344 8.46679688 26.25585938 C8.36084107 28.33965683 8.26000605 30.42371353 8.16015625 32.5078125 C5.52015625 32.5078125 2.88015625 32.5078125 0.16015625 32.5078125 C0.1351001 31.81631104 0.11004395 31.12480957 0.08422852 30.41235352 C-0.03136536 27.29813384 -0.15425617 24.18424461 -0.27734375 21.0703125 C-0.31666016 19.98169922 -0.35597656 18.89308594 -0.39648438 17.77148438 C-0.43837891 16.73701172 -0.48027344 15.70253906 -0.5234375 14.63671875 C-0.56009521 13.67838135 -0.59675293 12.72004395 -0.63452148 11.73266602 C-0.59818799 9.53642325 -0.59818799 9.53642325 -1.83984375 8.5078125 C-4.21206331 8.00646051 -4.21206331 8.00646051 -6.83984375 8.5078125 C-10.12437575 11.46570596 -11.10673841 13.86856728 -11.44921875 18.15234375 C-11.51519693 19.87437415 -11.56157577 21.59725047 -11.58984375 23.3203125 C-11.61949219 24.20396484 -11.64914062 25.08761719 -11.6796875 25.99804688 C-11.75004765 28.16748468 -11.79724982 30.33765198 -11.83984375 32.5078125 C-14.47984375 32.5078125 -17.11984375 32.5078125 -19.83984375 32.5078125 C-19.83984375 22.2778125 -19.83984375 12.0478125 -19.83984375 1.5078125 C-17.52984375 1.5078125 -15.21984375 1.5078125 -12.83984375 1.5078125 C-12.50984375 2.8278125 -12.17984375 4.1478125 -11.83984375 5.5078125 C-11.20046875 4.6828125 -10.56109375 3.8578125 -9.90234375 3.0078125 C-6.29547975 0.06343372 -4.51915532 -0.22633499 0 0 Z " fill="#FFFCF7" transform="translate(280.83984375,198.4921875)"/>
<path d="M0 0 C8.58 0 17.16 0 26 0 C26 2.31 26 4.62 26 7 C20.06 7 14.12 7 8 7 C8 10.63 8 14.26 8 18 C12.95 18 17.9 18 23 18 C23 20.31 23 22.62 23 25 C18.05 25 13.1 25 8 25 C8 28.96 8 32.92 8 37 C14.27 37 20.54 37 27 37 C27 39.31 27 41.62 27 44 C18.09 44 9.18 44 0 44 C0 29.48 0 14.96 0 0 Z " fill="#FFFCF8" transform="translate(135,187)"/>
<path d="M0 0 C2.64 0 5.28 0 8 0 C8.33 5.28 8.66 10.56 9 16 C10.98 14.68 12.96 13.36 15 12 C18.85702702 11.11420898 22.23999774 11.66956423 25.875 13.25 C28.19373368 15.15954538 28.92541533 16.22553098 30 19 C30.22705078 21.84082031 30.22705078 21.84082031 30.1953125 25.078125 C30.18886719 26.23828125 30.18242187 27.3984375 30.17578125 28.59375 C30.15902344 29.8003125 30.14226562 31.006875 30.125 32.25 C30.11597656 33.47203125 30.10695312 34.6940625 30.09765625 35.953125 C30.07409513 38.96894782 30.04119706 41.98437492 30 45 C27.36 45 24.72 45 22 45 C21.505 32.625 21.505 32.625 21 20 C14.40948395 19.36918327 14.40948395 19.36918327 11.11328125 21.85546875 C8.12938055 26.29546886 8.22083944 30.07079908 8.1875 35.3125 C8.16236328 36.24384766 8.13722656 37.17519531 8.11132812 38.13476562 C8.05264002 40.42360186 8.01622832 42.71053426 8 45 C5.36 45 2.72 45 0 45 C0 30.15 0 15.3 0 0 Z " fill="#FFFCF8" transform="translate(211,322)"/>
<path d="M0 0 C1.05692367 2.66344766 1.18000027 3.56799936 0.0625 6.25 C-0.4634375 7.11625 -0.4634375 7.11625 -1 8 C-1.804375 7.67 -2.60875 7.34 -3.4375 7 C-7.73804795 5.79282865 -11.56966181 5.82278647 -16 6 C-16.66 8.31 -17.32 10.62 -18 13 C-17.30132812 13.27070313 -16.60265625 13.54140625 -15.8828125 13.8203125 C-12.82325433 15.07232682 -9.85098306 16.4354894 -6.875 17.875 C-5.84117187 18.36742187 -4.80734375 18.85984375 -3.7421875 19.3671875 C-0.93347304 21.03961292 0.43107349 22.15697881 2 25 C2.79828193 29.03132375 2.90440654 33.17629956 1.05078125 36.9140625 C-1.49346814 40.17262797 -3.99861408 42.11080313 -8 43 C-14.64897376 43.73621855 -20.56751038 43.24102975 -26 39 C-26.495 37.515 -26.495 37.515 -27 36 C-25.5625 33.3125 -25.5625 33.3125 -24 31 C-19.25 32.875 -19.25 32.875 -17 34 C-15.48154798 34.09472912 -13.95889616 34.1298841 -12.4375 34.125 C-11.63183594 34.12757813 -10.82617188 34.13015625 -9.99609375 34.1328125 C-8.00057979 34.22011391 -8.00057979 34.22011391 -7 33 C-6.58282721 30.58462162 -6.58282721 30.58462162 -7 28 C-10.81709083 24.55552995 -15.60463196 22.73827319 -20.22265625 20.59765625 C-23.05577776 18.96791406 -24.3635137 17.79228851 -26 15 C-27.03689678 11.00054098 -27.25753726 8.7296889 -25.875 4.8125 C-19.43899322 -4.84151017 -9.57317877 -4.70261413 0 0 Z " fill="#FFFBF5" transform="translate(430,189)"/>
<path d="M0 0 C3.1271359 2.65332743 4.7634353 4.85280591 6.0625 8.75 C6.14459792 10.52313851 6.16996294 12.29920775 6.16015625 14.07421875 C6.15693359 15.10224609 6.15371094 16.13027344 6.15039062 17.18945312 C6.14201172 18.26130859 6.13363281 19.33316406 6.125 20.4375 C6.12048828 21.52095703 6.11597656 22.60441406 6.11132812 23.72070312 C6.09953743 26.39719085 6.08308063 29.07356777 6.0625 31.75 C3.4225 31.75 0.7825 31.75 -1.9375 31.75 C-2.2675 30.76 -2.5975 29.77 -2.9375 28.75 C-3.411875 29.245 -3.88625 29.74 -4.375 30.25 C-8.15905914 32.46505901 -11.65301811 32.4602617 -15.9375 31.75 C-18.80779869 29.95606332 -20.42881638 28.76736724 -21.9375 25.75 C-22.31862297 21.71009652 -22.3615682 19.45678033 -20.25 15.9375 C-16.23295235 12.13759006 -12.54934788 11.49429282 -7.125 11.625 C-5.66126953 11.65207031 -5.66126953 11.65207031 -4.16796875 11.6796875 C-3.43191406 11.70289063 -2.69585937 11.72609375 -1.9375 11.75 C-2.5975 10.1 -3.2575 8.45 -3.9375 6.75 C-10.99401252 6.60024761 -10.99401252 6.60024761 -17.9375 7.75 C-18.5975 5.77 -19.2575 3.79 -19.9375 1.75 C-13.48700515 -1.61547558 -6.90381873 -2.93779521 0 0 Z " fill="#FFFBF4" transform="translate(461.9375,335.25)"/>
<path d="M0 0 C3.1271359 2.65332743 4.7634353 4.85280591 6.0625 8.75 C6.14459792 10.52313851 6.16996294 12.29920775 6.16015625 14.07421875 C6.15693359 15.10224609 6.15371094 16.13027344 6.15039062 17.18945312 C6.14201172 18.26130859 6.13363281 19.33316406 6.125 20.4375 C6.12048828 21.52095703 6.11597656 22.60441406 6.11132812 23.72070312 C6.09953743 26.39719085 6.08308063 29.07356777 6.0625 31.75 C3.4225 31.75 0.7825 31.75 -1.9375 31.75 C-2.2675 30.76 -2.5975 29.77 -2.9375 28.75 C-3.411875 29.245 -3.88625 29.74 -4.375 30.25 C-8.15905914 32.46505901 -11.65301811 32.4602617 -15.9375 31.75 C-18.80779869 29.95606332 -20.42881638 28.76736724 -21.9375 25.75 C-22.31862297 21.71009652 -22.3615682 19.45678033 -20.25 15.9375 C-16.23295235 12.13759006 -12.54934788 11.49429282 -7.125 11.625 C-5.66126953 11.65207031 -5.66126953 11.65207031 -4.16796875 11.6796875 C-3.43191406 11.70289063 -2.69585937 11.72609375 -1.9375 11.75 C-2.5975 10.1 -3.2575 8.45 -3.9375 6.75 C-10.99401252 6.60024761 -10.99401252 6.60024761 -17.9375 7.75 C-18.5975 5.77 -19.2575 3.79 -19.9375 1.75 C-13.48700515 -1.61547558 -6.90381873 -2.93779521 0 0 Z " fill="#FFFBF5" transform="translate(269.9375,335.25)"/>
<path d="M0 0 C2.375 1.6875 2.375 1.6875 3.375 4.6875 C1.9375 7.375 1.9375 7.375 0.375 9.6875 C-0.65625 9.1925 -1.6875 8.6975 -2.75 8.1875 C-6.16380708 6.72641827 -8.87958355 6.25198646 -12.625 6.6875 C-14.83357238 8.51536272 -14.83357238 8.51536272 -15.0625 11.125 C-14.918125 11.970625 -14.77375 12.81625 -14.625 13.6875 C-10.38624875 16.56406728 -5.70058368 18.75141249 -1.1484375 21.08984375 C1.47906516 22.75338646 2.83725954 24.00023552 4.375 26.6875 C5.29116634 31.22706293 4.74670356 34.88462032 2.8125 39.0625 C-1.10013169 43.27610335 -4.81016799 44.44948924 -10.4375 45.1875 C-15.7330564 45.0210385 -20.12765657 42.26794295 -24.625 39.6875 C-24.01222388 36.72574877 -23.37127478 35.30691217 -21.625 32.6875 C-16.875 34.5625 -16.875 34.5625 -14.625 35.6875 C-12.91797265 35.75746014 -11.20831997 35.77190154 -9.5 35.75 C-8.58992188 35.74097656 -7.67984375 35.73195313 -6.7421875 35.72265625 C-6.04351562 35.71105469 -5.34484375 35.69945312 -4.625 35.6875 C-4.625 33.0475 -4.625 30.4075 -4.625 27.6875 C-5.429375 27.460625 -6.23375 27.23375 -7.0625 27 C-14.21743063 24.36397293 -20.52410066 21.30185378 -24.625 14.6875 C-25.3138259 10.40147216 -24.94110666 8.31971331 -23 4.4375 C-16.96369609 -2.55190452 -8.3730979 -3.03163889 0 0 Z " fill="#FFFBF5" transform="translate(156.625,255.3125)"/>
<path d="M0 0 C4.05751439 4.05751439 4.49319763 8.21640662 4.5703125 13.7734375 C4.55711858 15.76571917 4.53341495 17.75795487 4.5 19.75 C4.49097656 20.77222656 4.48195312 21.79445312 4.47265625 22.84765625 C4.4492043 25.35701522 4.41638355 27.86588336 4.375 30.375 C1.735 30.375 -0.905 30.375 -3.625 30.375 C-3.955 29.715 -4.285 29.055 -4.625 28.375 C-5.285 28.87 -5.945 29.365 -6.625 29.875 C-10.42791806 31.77645903 -13.44498097 32.16033691 -17.625 31.375 C-20.4350346 29.58136089 -22.13440468 28.35619065 -23.625 25.375 C-23.97025449 22.36635371 -24.20471458 20.27914706 -23.625 17.375 C-19.79246728 13.07508524 -16.34204917 11.47829019 -10.625 10.375 C-8.29284156 10.30096322 -5.95639212 10.27984114 -3.625 10.375 C-4.9339572 7.25302522 -4.9339572 7.25302522 -7.625 5.375 C-11.67642119 5.11639865 -13.16837669 5.07058446 -16.625 7.375 C-17.615 7.375 -18.605 7.375 -19.625 7.375 C-20.285 5.395 -20.945 3.415 -21.625 1.375 C-15.10468504 -2.97187664 -7.08750716 -3.17715838 0 0 Z " fill="#FFFAF4" transform="translate(217.625,200.625)"/>
<path d="M0 0 C-0.875 4.75 -0.875 4.75 -2 7 C-4.38564077 6.42415568 -6.66682784 5.77772405 -9 5 C-13.654797 4.6946182 -13.654797 4.6946182 -18 6 C-18 7.98 -18 9.96 -18 12 C-16.57107422 12.67095703 -16.57107422 12.67095703 -15.11328125 13.35546875 C-13.84609015 13.9655978 -12.57917772 14.57630585 -11.3125 15.1875 C-10.68666016 15.47947266 -10.06082031 15.77144531 -9.41601562 16.07226562 C-5.20152187 18.12434897 -1.99952347 20.29006308 1 24 C2.24715603 28.88792206 1.47734277 33.04531445 -0.75 37.5 C-3.68443769 40.76048632 -5.58883561 41.82267114 -9.953125 42.37109375 C-17.39789981 42.52104775 -22.23130323 41.87986434 -28 37 C-26.55591054 32.30670927 -26.55591054 32.30670927 -24.1875 31 C-22 31 -22 31 -19.6875 32.4375 C-16.26236043 34.42886021 -13.9015082 34.29445345 -10 34 C-9.01 33.505 -9.01 33.505 -8 33 C-8 31.02 -8 29.04 -8 27 C-9.12019531 26.39671875 -10.24039063 25.7934375 -11.39453125 25.171875 C-12.86744616 24.36505537 -14.34008823 23.55773749 -15.8125 22.75 C-16.55048828 22.35425781 -17.28847656 21.95851563 -18.04882812 21.55078125 C-25.17361936 17.61763858 -25.17361936 17.61763858 -27 14 C-27.84166886 9.33669958 -27.66948728 5.25863608 -25.4375 1.0625 C-16.88866515 -6.17112949 -9.19719616 -4.6715917 0 0 Z " fill="#FFFBF5" transform="translate(539,325)"/>
<path d="M0 0 C2.64 0 5.28 0 8 0 C8.33 5.28 8.66 10.56 9 16 C10.65 14.68 12.3 13.36 14 12 C17.4180938 11.22558812 20.56363739 11.32852685 24 12 C26.82424288 14.19022918 28.41508603 15.83017207 30 19 C30.084915 20.8863912 30.107193 22.77578515 30.09765625 24.6640625 C30.09443359 25.78554687 30.09121094 26.90703125 30.08789062 28.0625 C30.07951172 29.238125 30.07113281 30.41375 30.0625 31.625 C30.05798828 32.80835938 30.05347656 33.99171875 30.04882812 35.2109375 C30.03701467 38.14067507 30.02054258 41.07031272 30 44 C27.36 44 24.72 44 22 44 C21.97494385 43.34402832 21.9498877 42.68805664 21.92407227 42.01220703 C21.8082674 39.04959817 21.68547114 36.08731969 21.5625 33.125 C21.52318359 32.09246094 21.48386719 31.05992187 21.44335938 29.99609375 C21.40146484 29.00996094 21.35957031 28.02382812 21.31640625 27.0078125 C21.27974854 26.09660645 21.24309082 25.18540039 21.20532227 24.24658203 C21.13422935 21.96516519 21.13422935 21.96516519 20 20 C16.19485245 19.55754098 14.50233743 19.63949902 11.34375 21.90625 C8.10844965 26.17684647 8.22256445 29.58789712 8.1875 34.8125 C8.16236328 35.69615234 8.13722656 36.57980469 8.11132812 37.49023438 C8.05269442 39.65968134 8.02342614 41.82988727 8 44 C5.36 44 2.72 44 0 44 C0 29.48 0 14.96 0 0 Z " fill="#FFFDFA" transform="translate(476,187)"/>
<path d="M0 0 C2.625 2.1875 2.625 2.1875 4.625 5.1875 C4.85205078 7.91479492 4.85205078 7.91479492 4.8203125 11.16796875 C4.81386719 12.33134766 4.80742187 13.49472656 4.80078125 14.69335938 C4.78402344 15.90830078 4.76726562 17.12324219 4.75 18.375 C4.74097656 19.60154297 4.73195313 20.82808594 4.72265625 22.09179688 C4.69906017 25.12389295 4.66613841 28.15559938 4.625 31.1875 C2.315 31.1875 0.005 31.1875 -2.375 31.1875 C-2.705 30.1975 -3.035 29.2075 -3.375 28.1875 C-4.055625 28.8475 -4.73625 29.5075 -5.4375 30.1875 C-9.14194242 32.70967356 -10.96665176 32.80621554 -15.375 32.1875 C-20.91346154 29.11057692 -20.91346154 29.11057692 -22.375 26.1875 C-23.06946809 19.12707447 -23.06946809 19.12707447 -20.25 15.3125 C-14.71491144 11.22134759 -10.02007539 10.95835947 -3.375 11.1875 C-4.035 9.5375 -4.695 7.8875 -5.375 6.1875 C-9.84927924 6.09801442 -13.98063789 6.33006349 -18.375 7.1875 C-19.035 5.5375 -19.695 3.8875 -20.375 2.1875 C-13.84386529 -1.9851694 -7.13553639 -3.83204732 0 0 Z " fill="#FFFBF5" transform="translate(353.375,267.8125)"/>
<path d="M0 0 C3.18055639 1.59661396 4.31372535 2.94784384 5.625 6.25 C5.85205078 8.99902344 5.85205078 8.99902344 5.8203125 12.109375 C5.81386719 13.22441406 5.80742187 14.33945312 5.80078125 15.48828125 C5.78402344 16.64714844 5.76726562 17.80601562 5.75 19 C5.74097656 20.17433594 5.73195313 21.34867187 5.72265625 22.55859375 C5.69910063 25.45593536 5.66620652 28.35286441 5.625 31.25 C3.315 31.25 1.005 31.25 -1.375 31.25 C-1.705 30.26 -2.035 29.27 -2.375 28.25 C-2.78105469 28.72566406 -3.18710937 29.20132812 -3.60546875 29.69140625 C-6.69797067 32.41526556 -10.37063985 32.49558256 -14.375 32.25 C-19.77259036 29.45481928 -19.77259036 29.45481928 -21.375 26.25 C-21.7881751 23.19250428 -21.85907026 20.30127436 -21.375 17.25 C-18.55134151 14.10363769 -15.43809275 12.3581162 -11.375 11.25 C-8.36656652 11.09780269 -5.38410344 11.13199594 -2.375 11.25 C-2.72286708 9.27463255 -2.72286708 9.27463255 -3.375 7.25 C-6.40532442 5.73483779 -9.02614962 6.07971947 -12.375 6.25 C-15.20878132 7.1474827 -15.20878132 7.1474827 -17.375 8.25 C-18.035 6.27 -18.695 4.29 -19.375 2.25 C-13.33575804 -2.53974363 -6.96974765 -3.23731448 0 0 Z " fill="#FFFBF5" transform="translate(282.375,267.75)"/>
<path d="M0 0 C3.50257336 2.66195575 4.76397793 4.21187366 6.125 8.375 C6.125 11.015 6.125 13.655 6.125 16.375 C-1.135 16.375 -8.395 16.375 -15.875 16.375 C-13.70833333 22.20833333 -13.70833333 22.20833333 -10.875 23.375 C-5.84606679 23.79984112 -1.4433532 23.73285972 3.125 21.375 C4.5856285 24.02238916 5.125 25.26948334 5.125 28.375 C-0.52019705 32.1384647 -6.24361149 32.15830495 -12.875 31.375 C-17.12094975 30.10348564 -19.51434366 27.81888472 -22.3125 24.375 C-24.81182395 19.33288561 -24.72729265 13.83708419 -23.875 8.375 C-22.1660022 4.23704363 -19.74484256 1.98784362 -16.125 -0.5625 C-10.53831048 -2.38891773 -5.35049627 -2.70352771 0 0 Z " fill="#FFFCF7" transform="translate(734.875,335.625)"/>
<path d="M0 0 C3.08397277 1.54849266 4.93579181 3.24681943 6.9140625 6.0546875 C7.9765625 9.3046875 7.9765625 9.3046875 7.9765625 17.3046875 C0.7165625 17.3046875 -6.5434375 17.3046875 -14.0234375 17.3046875 C-11.85677083 23.13802083 -11.85677083 23.13802083 -9.0234375 24.3046875 C-3.99450429 24.72952862 0.4082093 24.66254722 4.9765625 22.3046875 C6.437191 24.95207666 6.9765625 26.19917084 6.9765625 29.3046875 C1.33136545 33.0681522 -4.39204899 33.08799245 -11.0234375 32.3046875 C-15.29788586 31.02463879 -17.67783681 28.73890375 -20.4609375 25.2421875 C-23.08650178 19.95696071 -23.10031928 13.76472777 -21.36328125 8.18359375 C-19.4363532 4.30471262 -16.81822655 1.8477202 -13.01171875 -0.03515625 C-8.60759211 -1.49743012 -4.39167893 -1.50910975 0 0 Z " fill="#FFFCF7" transform="translate(195.0234375,334.6953125)"/>
<path d="M0 0 C3.08397277 1.54849266 4.93579181 3.24681943 6.9140625 6.0546875 C7.9765625 9.3046875 7.9765625 9.3046875 7.9765625 17.3046875 C0.7165625 17.3046875 -6.5434375 17.3046875 -14.0234375 17.3046875 C-11.85677083 23.13802083 -11.85677083 23.13802083 -9.0234375 24.3046875 C-3.99450429 24.72952862 0.4082093 24.66254722 4.9765625 22.3046875 C5.9665625 24.2846875 6.9565625 26.2646875 7.9765625 28.3046875 C1.85658564 32.75557976 -3.55768583 33.28862488 -11.0234375 32.3046875 C-15.2968021 31.01504711 -17.67527499 28.74212244 -20.4609375 25.2421875 C-23.08650178 19.95696071 -23.10031928 13.76472777 -21.36328125 8.18359375 C-19.4363532 4.30471262 -16.81822655 1.8477202 -13.01171875 -0.03515625 C-8.60759211 -1.49743012 -4.39167893 -1.50910975 0 0 Z " fill="#FFFCF8" transform="translate(622.0234375,334.6953125)"/>
<path d="M0 0 C3.7056075 1.68436705 5.89572077 3.53202254 8 7 C8.34057617 9.84082031 8.34057617 9.84082031 8.29296875 13.078125 C8.28330078 14.23828125 8.27363281 15.3984375 8.26367188 16.59375 C8.23853516 17.8003125 8.21339844 19.006875 8.1875 20.25 C8.16719727 22.08304687 8.16719727 22.08304687 8.14648438 23.953125 C8.1111398 26.96919498 8.0617956 29.98437487 8 33 C5.36 33 2.72 33 0 33 C-0.02505615 32.30849854 -0.0501123 31.61699707 -0.07592773 30.90454102 C-0.19152161 27.79032134 -0.31441242 24.67643211 -0.4375 21.5625 C-0.47681641 20.47388672 -0.51613281 19.38527344 -0.55664062 18.26367188 C-0.59853516 17.22919922 -0.64042969 16.19472656 -0.68359375 15.12890625 C-0.72025146 14.17056885 -0.75690918 13.21223145 -0.79467773 12.22485352 C-0.75834424 10.02861075 -0.75834424 10.02861075 -2 9 C-5.37357334 8.49929679 -5.37357334 8.49929679 -9 9 C-12.33659012 11.91877025 -13.2600048 14.35994722 -13.609375 18.64453125 C-13.67535318 20.36656165 -13.72173202 22.08943797 -13.75 23.8125 C-13.77964844 24.69615234 -13.80929687 25.57980469 -13.83984375 26.49023438 C-13.9102039 28.65967218 -13.95740607 30.82983948 -14 33 C-16.64 33 -19.28 33 -22 33 C-22 22.44 -22 11.88 -22 1 C-19.36 1 -16.72 1 -14 1 C-13.67 1.99 -13.34 2.98 -13 4 C-12.154375 3.34 -11.30875 2.68 -10.4375 2 C-6.4734284 -0.30636893 -4.5102277 -0.57402898 0 0 Z " fill="#FFFCF7" transform="translate(390,266)"/>
<path d="M0 0 C2.64 0 5.28 0 8 0 C8.02505615 0.69150146 8.0501123 1.38300293 8.07592773 2.09545898 C8.19152161 5.20967866 8.31441242 8.32356789 8.4375 11.4375 C8.47681641 12.52611328 8.51613281 13.61472656 8.55664062 14.73632812 C8.61948242 16.28803711 8.61948242 16.28803711 8.68359375 17.87109375 C8.72025146 18.82943115 8.75690918 19.78776855 8.79467773 20.77514648 C8.75834424 22.97138925 8.75834424 22.97138925 10 24 C13.66120928 24.40680103 15.3618744 24.5001525 18.3125 22.1875 C20.62122333 19.1947105 21.12313307 16.66047163 21.31640625 12.98828125 C21.35830078 12.23095703 21.40019531 11.47363281 21.44335938 10.69335938 C21.48267578 9.90767578 21.52199219 9.12199219 21.5625 8.3125 C21.60568359 7.51521484 21.64886719 6.71792969 21.69335938 5.89648438 C21.79927368 3.93118553 21.90012551 1.96561504 22 0 C24.64 0 27.28 0 30 0 C30 10.56 30 21.12 30 32 C27.36 32 24.72 32 22 32 C21.67 30.68 21.34 29.36 21 28 C20.566875 28.474375 20.13375 28.94875 19.6875 29.4375 C16.37266452 32.50679211 12.50638247 32.3278207 8.2265625 32.29296875 C4.93194303 31.85946619 3.23482784 30.37450458 1 28 C-0.35700647 25.28598706 -0.1123861 23.15153684 -0.09765625 20.1171875 C-0.09443359 18.95058594 -0.09121094 17.78398437 -0.08789062 16.58203125 C-0.07951172 15.35871094 -0.07113281 14.13539063 -0.0625 12.875 C-0.05798828 11.64394531 -0.05347656 10.41289062 -0.04882812 9.14453125 C-0.0370133 6.09630608 -0.02054028 3.04817686 0 0 Z " fill="#FFFAF4" transform="translate(377,335)"/>
<path d="M0 0 C2.84471738 1.23683364 4.43352078 2.12572139 6.12060547 4.72949219 C7.24301834 7.62744881 7.22575769 9.97271564 7.1953125 13.078125 C7.18886719 14.23828125 7.18242188 15.3984375 7.17578125 16.59375 C7.15902344 17.8003125 7.14226563 19.006875 7.125 20.25 C7.11597656 21.47203125 7.10695313 22.6940625 7.09765625 23.953125 C7.07409513 26.96894782 7.04119706 29.98437492 7 33 C4.36 33 1.72 33 -1 33 C-1.495 20.625 -1.495 20.625 -2 8 C-10.30646151 8.05951358 -10.30646151 8.05951358 -13.03051758 10.76464844 C-14.10511634 13.24236847 -14.42529869 15.06931899 -14.51171875 17.765625 C-14.54716797 18.65507812 -14.58261719 19.54453125 -14.61914062 20.4609375 C-14.65297852 21.84152344 -14.65297852 21.84152344 -14.6875 23.25 C-14.72166016 24.18585938 -14.75582031 25.12171875 -14.79101562 26.0859375 C-14.87332162 28.39050533 -14.9425263 30.69470119 -15 33 C-17.64 33 -20.28 33 -23 33 C-23 22.44 -23 11.88 -23 1 C-20.69 1 -18.38 1 -16 1 C-15.67 2.32 -15.34 3.64 -15 5 C-14.21625 4.360625 -13.4325 3.72125 -12.625 3.0625 C-8.48095607 -0.19353452 -5.18506258 -0.55731959 0 0 Z " fill="#FFFCF9" transform="translate(661,334)"/>
<path d="M0 0 C2.64 0 5.28 0 8 0 C8.33 7.92 8.66 15.84 9 24 C10.98 24.33 12.96 24.66 15 25 C18.14252002 22.48598399 19.72323037 20.8303089 21 17 C21.22797562 14.26710707 21.41668187 11.54957796 21.5625 8.8125 C21.60568359 8.06291016 21.64886719 7.31332031 21.69335938 6.54101562 C21.79922685 4.69421625 21.9000976 2.84713166 22 1 C24.31 1 26.62 1 29 1 C29 11.23 29 21.46 29 32 C26.69 32 24.38 32 22 32 C21.67 31.01 21.34 30.02 21 29 C20.401875 29.474375 19.80375 29.94875 19.1875 30.4375 C15.15358968 33.31886451 10.8242647 33.70530186 6 33 C3.1899654 31.20636089 1.49059532 29.98119065 0 27 C-0.08527628 24.96767366 -0.10716135 22.93252994 -0.09765625 20.8984375 C-0.09443359 19.68671875 -0.09121094 18.475 -0.08789062 17.2265625 C-0.07951172 15.95554688 -0.07113281 14.68453125 -0.0625 13.375 C-0.05798828 12.09625 -0.05347656 10.8175 -0.04882812 9.5 C-0.03701203 6.33328708 -0.02053815 3.16666644 0 0 Z " fill="#FFFCF7" transform="translate(319,199)"/>
<path d="M0 0 C2.97 0 5.94 0 9 0 C10.00935129 2.8928729 11.00768744 5.78878515 12 8.6875 C12.28617187 9.50412109 12.57234375 10.32074219 12.8671875 11.16210938 C15.42266949 18.67644333 15.42266949 18.67644333 15 23 C15.66 23 16.32 23 17 23 C17.061875 21.989375 17.12375 20.97875 17.1875 19.9375 C18.00964852 13.04889198 20.70351681 6.50811473 23 0 C25.97 0 28.94 0 32 0 C30.75683975 3.75431338 29.5116577 7.5079496 28.26464844 11.26098633 C27.63370881 13.16127053 27.00434331 15.06207715 26.375 16.96289062 C25.97539062 18.16494141 25.57578125 19.36699219 25.1640625 20.60546875 C24.79748535 21.71043701 24.4309082 22.81540527 24.05322266 23.95385742 C23.11264859 26.67419648 22.09560118 29.33894495 21 32 C17.7 32 14.4 32 11 32 C9.42931142 27.76567272 7.86284151 23.52981835 6.30029297 19.29248047 C5.76792764 17.85064416 5.23440373 16.40923508 4.69970703 14.96826172 C3.93218234 12.8992202 3.1688116 10.82868749 2.40625 8.7578125 C2.16563843 8.11192169 1.92502686 7.46603088 1.67712402 6.80056763 C0 2.22774341 0 2.22774341 0 0 Z " fill="#FFFAF4" transform="translate(281,335)"/>
<path d="M0 0 C1.90857441 0.94079905 3.75536343 2.00505912 5.5859375 3.08984375 C4.5959375 5.06984375 3.6059375 7.04984375 2.5859375 9.08984375 C1.9259375 8.75984375 1.2659375 8.42984375 0.5859375 8.08984375 C-3.44391882 6.74655831 -6.15827305 6.68453047 -10.4140625 7.08984375 C-13.10026432 8.35922799 -13.10026432 8.35922799 -14.4140625 11.08984375 C-15.16957282 15.3789388 -15.12646906 18.81990162 -12.9765625 22.65234375 C-9.15552215 24.79585419 -5.69800968 24.62343148 -1.4140625 24.08984375 C1.51674424 23.22330961 1.51674424 23.22330961 3.5859375 22.08984375 C5.5859375 25.08984375 5.5859375 25.08984375 5.5859375 27.08984375 C3.936705 30.38830874 2.04310065 30.89771853 -1.4140625 32.08984375 C-7.64073294 32.77348412 -13.13913497 32.82089005 -18.4140625 29.08984375 C-22.29855047 24.98955089 -24.15476858 21.3802734 -24.7890625 15.77734375 C-24.23866732 10.36512447 -22.70871492 6.27875181 -18.71875 2.47265625 C-12.94787099 -1.66275097 -6.68065461 -2.51875813 0 0 Z " fill="#FFFAF4" transform="translate(570.4140625,334.91015625)"/>
<path d="M0 0 C-0.875 4.75 -0.875 4.75 -2 7 C-2.66 6.67 -3.32 6.34 -4 6 C-8.02985632 4.65671456 -10.74421055 4.59468672 -15 5 C-18.30290812 7.11724879 -18.88526042 8.61275391 -20 12.375 C-20.2155072 16.04883414 -20.2155072 16.04883414 -18.6875 19.4375 C-15.67551272 22.30939484 -15.03561518 22.41104966 -11.0625 22.5 C-7.37495891 22.2821246 -4.30189466 21.76101048 -1 20 C1 23 1 23 1 25 C-0.66490891 28.32981781 -2.48978995 28.81009829 -6 30 C-11.59656319 30.63545109 -16.33967233 30.77086642 -21.5 28.375 C-26.17583712 23.93295473 -28.72064392 19.74700148 -29.375 13.3125 C-29.29105945 8.24808705 -27.28305288 4.76634493 -24 1 C-16.97892422 -5.34391618 -7.84176153 -4.09135384 0 0 Z " fill="#FFFBF4" transform="translate(704,337)"/>
<path d="M0 0 C2.2069643 0.96360413 4.35868391 1.98155716 6.49609375 3.08984375 C5.83609375 4.73984375 5.17609375 6.38984375 4.49609375 8.08984375 C1.42733271 8.08984375 -0.97375749 7.85416762 -3.94140625 7.33984375 C-7.28518574 6.97566975 -8.38749268 7.03757643 -11.56640625 8.46484375 C-13.99393809 11.75375785 -14.23582749 13.86869374 -13.9765625 17.890625 C-13.57269321 20.37034424 -13.57269321 20.37034424 -11.56640625 23.21484375 C-7.81881947 25.50928464 -5.90866985 25.33078649 -1.6875 24.6796875 C0.56789378 24.07044875 2.4503456 23.20781496 4.49609375 22.08984375 C5.48609375 24.06984375 6.47609375 26.04984375 7.49609375 28.08984375 C1.57927029 32.25851482 -3.13811052 34.26410104 -10.50390625 33.08984375 C-15.92559743 30.81116195 -20.12510769 27.54125713 -22.50390625 22.08984375 C-23.23451517 16.55700332 -23.25224415 11.80478478 -21.00390625 6.65234375 C-14.93278217 0.42944157 -8.67959189 -3.15498426 0 0 Z " fill="#FFFBF4" transform="translate(230.50390625,266.91015625)"/>
<path d="M0 0 C1.625 0.828125 1.625 0.828125 3.875 2.328125 C3.875 5.84528803 3.05054415 6.69934248 0.875 9.328125 C0.02421875 8.84666016 0.02421875 8.84666016 -0.84375 8.35546875 C-4.55770472 6.68291723 -8.13766217 6.61845203 -12.125 7.328125 C-15.20206081 9.87983397 -15.98829404 11.39071268 -16.5625 15.328125 C-16.07202329 18.69139385 -15.14236344 20.61244344 -13.125 23.328125 C-9.93385219 24.9236989 -6.59759755 24.71396917 -3.125 24.328125 C0.27741824 22.9632382 0.27741824 22.9632382 2.875 21.328125 C4.16524129 23.4532283 4.875 24.88157999 4.875 27.390625 C3.20366494 30.62883667 1.29066151 31.15031069 -2.125 32.328125 C-8.65735665 33.24424819 -14.03523989 32.8920882 -19.46484375 28.9453125 C-23.33856825 25.1718491 -24.87042696 21.11013626 -25.625 15.828125 C-24.80129158 10.06216603 -22.77799538 5.86304928 -18.5 1.890625 C-13.13670637 -1.63785765 -6.15405883 -1.9457686 0 0 Z " fill="#FFFBF5" transform="translate(463.125,199.671875)"/>
<path d="M0 0 C3.625 1.5 3.625 1.5 6 3 C5.34 4.98 4.68 6.96 4 9 C3.505 8.835 3.01 8.67 2.5 8.5 C-1.03444089 7.79311182 -4.39690701 7.93994845 -8 8 C-6.9723024 10.74052692 -6.28231699 11.83341845 -3.72265625 13.34375 C-2.84480469 13.7253125 -1.96695313 14.106875 -1.0625 14.5 C2.6725665 16.12824696 4.94458593 17.40642837 7 21 C6.92806179 25.02853967 6.63067947 27.22690903 4.0625 30.375 C-0.51155832 33.97880352 -5.37351379 33.47480896 -11 33 C-14.6875 31.5 -14.6875 31.5 -17 30 C-17 27 -17 27 -15 24 C-14.2265625 24.2165625 -14.2265625 24.2165625 -13.4375 24.4375 C-7.61870018 26.05158107 -7.61870018 26.05158107 -2 25 C-3.0276976 22.25947308 -3.71768301 21.16658155 -6.27734375 19.65625 C-7.15519531 19.2746875 -8.03304687 18.893125 -8.9375 18.5 C-12.69539111 16.86180299 -14.86782217 15.55820031 -17 12 C-17.5 9.0625 -17.5 9.0625 -17 6 C-11.78695682 -0.17334061 -7.77292976 -0.71311282 0 0 Z " fill="#FFFBF5" transform="translate(764,334)"/>
<path d="M0 0 C2.87109375 1.53125 2.87109375 1.53125 5 3 C4.01 4.98 3.02 6.96 2 9 C1.01 8.67 0.02 8.34 -1 8 C-2.39439664 7.93334624 -3.79169875 7.91461801 -5.1875 7.9375 C-6.445625 7.958125 -7.70375 7.97875 -9 8 C-9 8.99 -9 9.98 -9 11 C-8.15695312 11.39832031 -7.31390625 11.79664063 -6.4453125 12.20703125 C-4.80175781 13.00173828 -4.80175781 13.00173828 -3.125 13.8125 C-2.03445313 14.33457031 -0.94390625 14.85664063 0.1796875 15.39453125 C3 17 3 17 5 20 C5.4375 23.375 5.4375 23.375 5 27 C2.03951487 30.68060313 -0.2357971 32.67322408 -5.015625 33.23828125 C-10.91463206 33.43422729 -14.12344552 32.32020731 -19 29 C-17.25 24.125 -17.25 24.125 -15 23 C-14.443125 23.309375 -13.88625 23.61875 -13.3125 23.9375 C-10.15946578 25.3861914 -7.42532653 25.13174333 -4 25 C-4.12767931 23.06430781 -4.12767931 23.06430781 -5 21 C-7.20357806 19.56798303 -7.20357806 19.56798303 -9.875 18.5 C-13.66027461 16.86670367 -15.87715907 15.59722563 -18 12 C-18.5625 8.5625 -18.5625 8.5625 -18 5 C-13.3376125 -1.0870059 -7.28793836 -1.17705599 0 0 Z " fill="#FFFBF6" transform="translate(375,199)"/>
<path d="M0 0 C0.71285156 0.32097656 1.42570312 0.64195312 2.16015625 0.97265625 C1.41015625 5.72265625 1.41015625 5.72265625 -0.83984375 7.97265625 C-1.49984375 7.64265625 -2.15984375 7.31265625 -2.83984375 6.97265625 C-4.21327206 6.90370905 -5.58986477 6.88797917 -6.96484375 6.91015625 C-8.24359375 6.93078125 -9.52234375 6.95140625 -10.83984375 6.97265625 C-10.83984375 7.96265625 -10.83984375 8.95265625 -10.83984375 9.97265625 C-9.99679688 10.37097656 -9.15375 10.76929688 -8.28515625 11.1796875 C-6.64160156 11.97439453 -6.64160156 11.97439453 -4.96484375 12.78515625 C-3.87429687 13.30722656 -2.78375 13.82929688 -1.66015625 14.3671875 C1.16015625 15.97265625 1.16015625 15.97265625 3.16015625 18.97265625 C3.59765625 22.34765625 3.59765625 22.34765625 3.16015625 25.97265625 C0.61878466 29.1321993 -0.98607034 30.68806511 -4.83984375 31.97265625 C-10.77829945 32.3685533 -14.60216009 31.85872684 -19.83984375 28.97265625 C-20.16984375 27.98265625 -20.49984375 26.99265625 -20.83984375 25.97265625 C-19.51984375 24.65265625 -18.19984375 23.33265625 -16.83984375 21.97265625 C-16.32421875 22.30265625 -15.80859375 22.63265625 -15.27734375 22.97265625 C-12.05957863 24.29276502 -9.28279095 24.1050773 -5.83984375 23.97265625 C-5.83984375 22.98265625 -5.83984375 21.99265625 -5.83984375 20.97265625 C-6.59910156 20.57433594 -7.35835937 20.17601562 -8.140625 19.765625 C-9.13449219 19.23582031 -10.12835938 18.70601562 -11.15234375 18.16015625 C-12.13847656 17.63808594 -13.12460938 17.11601562 -14.140625 16.578125 C-16.49811559 15.17591279 -18.18497991 14.13713047 -19.83984375 11.97265625 C-20.30052442 8.79907827 -20.5325563 6.99006516 -19.83984375 3.97265625 C-14.87513998 -2.46804053 -7.39980025 -2.67695662 0 0 Z " fill="#FFFBF6" transform="translate(249.83984375,200.02734375)"/>
<path d="M0 0 C1.22589844 0.01353516 1.22589844 0.01353516 2.4765625 0.02734375 C3.41628906 0.04474609 3.41628906 0.04474609 4.375 0.0625 C4.375 2.3725 4.375 4.6825 4.375 7.0625 C2.065 7.7225 -0.245 8.3825 -2.625 9.0625 C-2.955 10.3825 -3.285 11.7025 -3.625 13.0625 C-1.315 13.0625 0.995 13.0625 3.375 13.0625 C3.375 15.3725 3.375 17.6825 3.375 20.0625 C1.065 20.0625 -1.245 20.0625 -3.625 20.0625 C-3.625 27.9825 -3.625 35.9025 -3.625 44.0625 C-6.265 44.0625 -8.905 44.0625 -11.625 44.0625 C-11.625 35.8125 -11.625 27.5625 -11.625 19.0625 C-12.945 19.0625 -14.265 19.0625 -15.625 19.0625 C-15.625 17.0825 -15.625 15.1025 -15.625 13.0625 C-14.305 13.0625 -12.985 13.0625 -11.625 13.0625 C-11.728125 12.010625 -11.83125 10.95875 -11.9375 9.875 C-11.625 6.0625 -11.625 6.0625 -9.25 3.1875 C-5.81720814 0.40857326 -4.31673902 -0.0616677 0 0 Z " fill="#FFFAF2" transform="translate(685.625,186.9375)"/>
<path d="M0 0 C2.64 0 5.28 0 8 0 C8.33 12.54 8.66 25.08 9 38 C10.32 38 11.64 38 13 38 C13 40.31 13 42.62 13 45 C11.1746875 45.185625 11.1746875 45.185625 9.3125 45.375 C8.28576172 45.47941406 8.28576172 45.47941406 7.23828125 45.5859375 C4.30906036 44.81912575 2.92545759 43.20206618 1.06770325 40.87875366 C-0.91937052 37.38225581 -0.6114905 33.80786249 -0.48828125 29.8828125 C-0.48120651 29.02565643 -0.47413177 28.16850037 -0.46684265 27.28536987 C-0.43899213 24.56433529 -0.37627456 21.84540593 -0.3125 19.125 C-0.2874049 17.27346735 -0.26459385 15.42190224 -0.24414062 13.5703125 C-0.18919651 9.04607154 -0.10299162 4.52339191 0 0 Z " fill="#FFF9EF" transform="translate(297,254)"/>
<path d="M0 0 C2.64 0 5.28 0 8 0 C8.33 12.21 8.66 24.42 9 37 C9.99 37.33 10.98 37.66 12 38 C12 40.31 12 42.62 12 45 C7.86931416 45.4049692 5.72326802 45.5187627 2.29223633 43.05786133 C-0.84649817 38.87076477 -0.64305305 35.8543905 -0.48828125 30.76171875 C-0.48120651 29.88095169 -0.47413177 29.00018463 -0.46684265 28.09272766 C-0.43893848 25.29010715 -0.37620943 22.48951265 -0.3125 19.6875 C-0.2874119 17.78323206 -0.26459962 15.87893268 -0.24414062 13.97460938 C-0.18912503 9.31563016 -0.10288151 4.65815811 0 0 Z " fill="#FFFAF1" transform="translate(477,322)"/>
<path d="M0 0 C2.64 0 5.28 0 8 0 C8 12.21 8 24.42 8 37 C9.32 37.33 10.64 37.66 12 38 C12 40.31 12 42.62 12 45 C8.16526716 45.35671933 6.44657125 45.29771416 3.1875 43.125 C0.14981917 40.17411005 0.01616703 39.54216924 -0.11352539 35.19287109 C-0.11336673 33.55305137 -0.10769881 31.91322648 -0.09765625 30.2734375 C-0.0962413 29.41062164 -0.09482635 28.54780579 -0.09336853 27.65884399 C-0.08776188 24.8975277 -0.07520827 22.13629188 -0.0625 19.375 C-0.05748586 17.5052095 -0.0529228 15.63541774 -0.04882812 13.765625 C-0.03779029 9.17705223 -0.0205212 4.58853977 0 0 Z " fill="#FFFBF6" transform="translate(596,187)"/>
<path d="M0 0 C0 2.64 0 5.28 0 8 C-1.6396875 8.37125 -1.6396875 8.37125 -3.3125 8.75 C-7.72043323 10.2308285 -7.72043323 10.2308285 -10 14 C-10.50340078 17.24372067 -10.60276213 20.47185481 -10.6875 23.75 C-10.72166016 24.63816406 -10.75582031 25.52632813 -10.79101562 26.44140625 C-10.87327542 28.62716639 -10.93832034 30.81356233 -11 33 C-13.97 33 -16.94 33 -20 33 C-20 22.44 -20 11.88 -20 1 C-17.36 1 -14.72 1 -12 1 C-11.67 2.65 -11.34 4.3 -11 6 C-10.21625 5.195625 -9.4325 4.39125 -8.625 3.5625 C-5.19929198 0.21835645 -4.86313592 0 0 0 Z " fill="#FFF6E9" transform="translate(436,334)"/>
<path d="M0 0 C2.31 0 4.62 0 7 0 C7.33 1.98 7.66 3.96 8 6 C8.515625 5.195625 9.03125 4.39125 9.5625 3.5625 C12.63205757 0.33552922 14.64868459 0.25103743 19 0 C19 2.64 19 5.28 19 8 C17.3603125 8.37125 17.3603125 8.37125 15.6875 8.75 C11.67867842 10.10892257 10.90429584 10.37276983 9 14 C8.50019156 17.07723732 8.39762167 20.13697908 8.3125 23.25 C8.27833984 24.09046875 8.24417969 24.9309375 8.20898438 25.796875 C8.12676432 27.86412204 8.06169843 29.93203874 8 32 C5.36 32 2.72 32 0 32 C0 21.44 0 10.88 0 0 Z " fill="#FFFCF8" transform="translate(171,199)"/>
<path d="M0 0 C3.60067126 0.87838956 4.94522296 2.42198203 6.9375 5.47265625 C7.63381811 8.62891786 7.64620367 11.31778184 6.9375 14.47265625 C4.54795089 17.84613735 2.86933521 19.13560947 -1 20.53515625 C-5.07195507 20.45205513 -6.94771107 19.00794956 -10.0625 16.47265625 C-11.80715448 12.98334729 -11.62700552 9.27978648 -11.0625 5.47265625 C-8.09758033 0.932623 -5.25799038 -0.38837429 0 0 Z " fill="#FFA006" transform="translate(354.0625,340.52734375)"/>
<path d="M0 0 C2.9375 2.125 2.9375 2.125 5 5 C5.55919321 8.91435244 5.35457139 11.20221437 3.75 14.8125 C1.09539128 18.1307609 -0.77291139 18.81724212 -4.9375 19.4375 C-9.0407637 18.85131947 -10.3956523 17.12521724 -13 14 C-14.41000664 11.17998673 -14.24548451 9.12992745 -14 6 C-12.73711341 3.22164951 -11.6477829 1.50897228 -9.25 -0.375 C-5.81167782 -1.33008949 -3.43602312 -0.90421661 0 0 Z " fill="#FFA005" transform="translate(189,274)"/>
<path d="M0 0 C2.99941508 0.672766 4.34176463 1.99230458 6.08984375 4.46875 C7.64008839 7.56923928 7.3797639 10.04769218 7.08984375 13.46875 C5.2942197 16.22204021 4.03729453 17.99502461 1.08984375 19.46875 C-2.22265625 19.84375 -2.22265625 19.84375 -5.91015625 19.46875 C-9.48528777 16.51538048 -11.65379959 14.34869881 -12.28515625 9.71875 C-11.88404257 6.24243143 -10.99258381 4.20109992 -8.60546875 1.609375 C-5.81798628 -0.26607403 -3.28048756 -0.21833528 0 0 Z " fill="#FF9F04" transform="translate(532.91015625,205.53125)"/>
<path d="M0 0 C3.60067126 0.87838956 4.94522296 2.42198203 6.9375 5.47265625 C7.63432316 8.63120712 7.63432316 11.31410538 6.9375 14.47265625 C4.94522296 17.52333047 3.60067126 19.06692294 0 19.9453125 C-3.88381981 20.23218555 -5.74095169 19.68032287 -9.0625 17.53515625 C-11.39448013 13.96431168 -11.80517565 11.82759606 -11.5390625 7.6328125 C-10.19215786 1.52758081 -5.72652188 -0.42298173 0 0 Z " fill="#FF9F05" transform="translate(649.0625,205.52734375)"/>
<path d="M0 0 C3.60067126 0.87838956 4.94522296 2.42198203 6.9375 5.47265625 C7.63432316 8.63120712 7.63432316 11.31410538 6.9375 14.47265625 C4.94522296 17.52333047 3.60067126 19.06692294 0 19.9453125 C-3.88381981 20.23218555 -5.74095169 19.68032287 -9.0625 17.53515625 C-11.39448013 13.96431168 -11.80517565 11.82759606 -11.5390625 7.6328125 C-10.19215786 1.52758081 -5.72652188 -0.42298173 0 0 Z " fill="#FF9F04" transform="translate(573.0625,205.52734375)"/>
<path d="M0 0 C2.64 0 5.28 0 8 0 C8 10.56 8 21.12 8 32 C5.36 32 2.72 32 0 32 C0 21.44 0 10.88 0 0 Z " fill="#FFFCF8" transform="translate(584,335)"/>
<path d="M0 0 C2.64 0 5.28 0 8 0 C8 10.56 8 21.12 8 32 C5.36 32 2.72 32 0 32 C0 21.44 0 10.88 0 0 Z " fill="#FFFBF6" transform="translate(319,335)"/>
<path d="M0 0 C2.64 0 5.28 0 8 0 C8 10.56 8 21.12 8 32 C5.36 32 2.72 32 0 32 C0 21.44 0 10.88 0 0 Z " fill="#FFFEFD" transform="translate(245,267)"/>
<path d="M0 0 C3.75367904 1.18171377 4.43814311 1.7732815 6.375 5.0625 C7.35476687 10.08380518 7.10249457 13.93819022 4.3125 18.25 C1.375 20.0625 1.375 20.0625 -2.25 20.125 C-6.00367904 18.94328623 -6.68814311 18.3517185 -8.625 15.0625 C-9.60476687 10.04119482 -9.35249457 6.18680978 -6.5625 1.875 C-3.625 0.0625 -3.625 0.0625 0 0 Z " fill="#FFA005" transform="translate(422.625,272.9375)"/>
<path d="M0 0 C1.918125 -0.0825 3.83625 -0.165 5.8125 -0.25 C7.43091797 -0.31960938 7.43091797 -0.31960938 9.08203125 -0.390625 C12 0 12 0 13.89453125 1.82421875 C15.46713295 4.91941007 14.97532712 6.72568753 14 10 C12.80078125 11.671875 12.80078125 11.671875 11 13 C7.29631297 13.40199208 3.73655831 13.13187853 0 13 C0 8.71 0 4.42 0 0 Z " fill="#FFA108" transform="translate(143,347)"/>
<path d="M0 0 C1.588125 -0.061875 3.17625 -0.12375 4.8125 -0.1875 C6.15248047 -0.23970703 6.15248047 -0.23970703 7.51953125 -0.29296875 C10 0 10 0 11.83984375 1.28515625 C13 3 13 3 12.75 6.625 C12 10 12 10 11 11 C7.3308423 11.14310287 3.67284559 11.04221662 0 11 C0 7.37 0 3.74 0 0 Z " fill="#FF9F04" transform="translate(143,329)"/>
<path d="M0 0 C1.8871875 0.061875 1.8871875 0.061875 3.8125 0.125 C3.46794802 3.22596781 2.96432706 4.92437138 1.0625 7.4375 C-1.1875 9.125 -1.1875 9.125 -3.8125 9.5 C-6.1875 9.125 -6.1875 9.125 -8.1875 7.125 C-8 4.625 -8 4.625 -7.1875 2.125 C-4.09861478 0.06574319 -3.47814073 -0.1140374 0 0 Z " fill="#FFA20D" transform="translate(456.1875,351.875)"/>
<path d="M0 0 C1.8871875 0.061875 1.8871875 0.061875 3.8125 0.125 C3.46794802 3.22596781 2.96432706 4.92437138 1.0625 7.4375 C-1.1875 9.125 -1.1875 9.125 -3.8125 9.5 C-6.1875 9.125 -6.1875 9.125 -8.1875 7.125 C-8 4.625 -8 4.625 -7.1875 2.125 C-4.09861478 0.06574319 -3.47814073 -0.1140374 0 0 Z " fill="#FFA20D" transform="translate(264.1875,351.875)"/>
<path d="M0 0 C-0.52234147 3.76085859 -1.12362287 6.41126058 -4 9 C-7.625 9.3125 -7.625 9.3125 -11 9 C-12 8 -12 8 -12.0625 5.4375 C-12.041875 4.633125 -12.02125 3.82875 -12 3 C-7.77050005 0.58314288 -4.87664009 -0.34833144 0 0 Z " fill="#FFA30F" transform="translate(351,284)"/>
<path d="M0 0 C-0.34122187 3.07099684 -0.88225975 4.8342915 -2.6875 7.375 C-5 9 -5 9 -8.25 8.75 C-9.61125 8.37875 -9.61125 8.37875 -11 8 C-11.33 6.35 -11.66 4.7 -12 3 C-8.2391768 -0.7608232 -5.0273023 -0.25136512 0 0 Z " fill="#FFA007" transform="translate(214,217)"/>
<path d="M0 0 C-0.3125 3.375 -0.3125 3.375 -1 7 C-4.44107266 9.29404844 -5.96839809 9.26293056 -10 9 C-11 8 -11 8 -11.1875 5.5625 C-11 3 -11 3 -9 1 C-5.97380078 -0.04351697 -3.18208557 -0.08839127 0 0 Z " fill="#FFA20C" transform="translate(280,284)"/>
<path d="M0 0 C3.4375 0.8125 3.4375 0.8125 5.4375 3.8125 C5.4375 4.8025 5.4375 5.7925 5.4375 6.8125 C0.8175 6.8125 -3.8025 6.8125 -8.5625 6.8125 C-5.71713918 -0.30090206 -5.71713918 -0.30090206 0 0 Z " fill="#FFA513" transform="translate(727.5625,340.1875)"/>
<path d="M0 0 C3.4375 0.8125 3.4375 0.8125 5.4375 3.8125 C5.4375 4.8025 5.4375 5.7925 5.4375 6.8125 C0.8175 6.8125 -3.8025 6.8125 -8.5625 6.8125 C-5.71713918 -0.30090206 -5.71713918 -0.30090206 0 0 Z " fill="#FFA514" transform="translate(616.5625,340.1875)"/>
<path d="M0 0 C3.4375 0.8125 3.4375 0.8125 5.4375 3.8125 C5.4375 4.8025 5.4375 5.7925 5.4375 6.8125 C0.8175 6.8125 -3.8025 6.8125 -8.5625 6.8125 C-5.71713918 -0.30090206 -5.71713918 -0.30090206 0 0 Z " fill="#FFA513" transform="translate(189.5625,340.1875)"/>
<path d="M0 0 C0.680625 0.28875 1.36125 0.5775 2.0625 0.875 C1.13112408 2.17108947 0.1921434 3.46171632 -0.75 4.75 C-1.27207031 5.46929688 -1.79414063 6.18859375 -2.33203125 6.9296875 C-3.9375 8.875 -3.9375 8.875 -6.9375 10.875 C-8.2575 10.875 -9.5775 10.875 -10.9375 10.875 C-10.85475377 8.06162821 -10.31905522 6.32340452 -8.48828125 4.171875 C-3.81967155 -0.16253921 -3.81967155 -0.16253921 0 0 Z " fill="#FFA20B" transform="translate(496.9375,601.125)"/>
<path d="M0 0 C2.64 0 5.28 0 8 0 C8 2.31 8 4.62 8 7 C5.36 7 2.72 7 0 7 C0 4.69 0 2.38 0 0 Z " fill="#FFFAF4" transform="translate(584,322)"/>
<path d="M0 0 C2.64 0 5.28 0 8 0 C8 2.31 8 4.62 8 7 C5.36 7 2.72 7 0 7 C0 4.69 0 2.38 0 0 Z " fill="#FFF9F0" transform="translate(319,322)"/>
<path d="M0 0 C2.64 0 5.28 0 8 0 C8 2.31 8 4.62 8 7 C5.36 7 2.72 7 0 7 C0 4.69 0 2.38 0 0 Z " fill="#FFF9F0" transform="translate(245,255)"/>
</svg>
