<svg version="1.1" id="Layer_1" xmlns="http://www.w3.org/2000/svg" xmlns:xlink="http://www.w3.org/1999/xlink" x="0px" y="0px"
	 width="100%" viewBox="0 0 204 192" enable-background="new 0 0 204 192" xml:space="preserve">
<path fill="#FF9E02" opacity="1.000000" stroke="none" 
	d="
M122.000000,193.000000 
	C81.358704,193.000000 41.217407,193.000000 1.038056,193.000000 
	C1.038056,129.065811 1.038056,65.131599 1.038056,1.098692 
	C68.891129,1.098692 136.782440,1.098692 204.836884,1.098692 
	C204.836884,64.999664 204.836884,128.999802 204.836884,193.000000 
	C177.465225,193.000000 149.982605,193.000000 122.000000,193.000000 
M166.763794,74.355217 
	C164.708847,74.887535 162.518951,75.163895 160.691360,76.127449 
	C160.219070,76.376457 160.475662,79.751091 161.102356,80.014809 
	C162.987259,80.808014 165.219849,80.774956 167.973663,81.055847 
	C168.630478,81.047226 169.287292,81.038605 170.656052,81.261246 
	C172.905396,82.043198 175.246262,82.811211 175.531982,79.212067 
	C175.651474,77.706963 175.477051,74.931007 175.031464,74.845650 
	C173.154633,74.486069 171.125031,74.923798 168.532272,75.023369 
	C168.119247,74.999237 167.706238,74.975098 166.763794,74.355217 
M130.121170,79.571999 
	C132.049133,81.768227 134.116547,82.915787 137.076248,80.457466 
	C135.209183,80.005371 133.732727,79.647850 132.256256,79.290337 
	C132.094040,78.811005 131.931808,78.331680 131.769577,77.852348 
	C133.410919,76.931541 135.052261,76.010735 136.913040,74.966820 
	C134.121048,73.004753 131.887512,73.107666 129.640366,76.618080 
	C127.331314,75.403015 125.022255,74.187950 122.713203,72.972885 
	C122.373192,73.128441 122.033180,73.283997 121.693169,73.439560 
	C122.975815,75.275124 124.258469,77.110695 125.666306,79.125420 
	C124.439201,79.412331 123.131859,79.718002 121.597908,80.076653 
	C125.439079,84.113350 127.536499,80.407455 130.121170,79.571999 
M46.158226,42.226116 
	C44.580166,42.226116 43.002110,42.226116 40.839767,42.226116 
	C41.104950,44.854015 41.335670,47.140434 41.586075,49.621887 
	C43.815987,47.097939 45.448067,45.250652 47.501816,43.845669 
	C47.745899,44.251205 48.268745,44.731327 48.183796,45.048828 
	C47.882832,46.173668 47.374237,47.242950 46.944324,48.333282 
	C48.083027,48.761791 49.193810,49.385353 50.369751,49.553684 
	C51.225426,49.676170 52.167171,49.197407 53.018192,48.998913 
	C52.996166,41.338440 52.972965,41.313507 46.158226,42.226116 
M132.466263,48.295319 
	C132.592789,48.516850 132.782349,48.645584 133.589462,49.165504 
	C135.669571,48.506401 137.888092,48.078041 139.708527,46.986019 
	C140.056564,46.777233 138.824265,42.569729 138.339981,42.573601 
	C136.228317,42.590492 134.123611,43.480625 131.302170,44.240158 
	C130.665649,43.765755 130.056107,42.933613 129.387634,42.883224 
	C127.281601,42.724480 124.960388,42.385685 123.135666,43.129822 
	C122.471977,43.400475 122.339333,47.719627 123.068054,48.105057 
	C124.751747,48.995602 127.115822,48.756859 129.192596,48.677837 
	C130.163589,48.640896 131.108292,47.912491 132.127533,47.787888 
	C132.127533,47.787888 132.374054,47.953671 132.466263,48.295319 
M102.801422,45.347153 
	C101.338852,44.138706 99.876274,42.930260 97.981117,41.364395 
	C99.942749,41.022003 101.342567,40.777676 103.247444,40.445194 
	C101.581886,39.419830 101.581886,39.419830 98.436554,46.119740 
	C97.634644,46.708168 96.805000,47.316940 95.801773,48.053097 
	C98.717331,50.979378 100.904953,50.098469 103.720970,47.428844 
	C106.195580,48.884724 108.565964,51.685612 111.608246,48.194202 
	C109.893440,47.293209 108.383156,46.499676 106.872871,45.706139 
	C108.315933,44.811844 109.758995,43.917553 111.498207,42.839729 
	C107.023041,39.931190 105.138527,43.302692 102.801422,45.347153 
M68.412895,73.797813 
	C65.814507,73.797813 63.216118,73.797813 60.810577,73.797813 
	C60.382301,76.282997 59.096634,79.082291 59.928532,80.037621 
	C61.098625,81.381332 63.839947,81.356819 65.111847,81.701378 
	C66.466812,79.016785 67.242874,77.479179 68.083794,76.671486 
	C68.931000,78.450836 69.778198,80.230194 70.625404,82.009544 
	C71.155762,82.005150 71.686119,82.000755 72.216476,81.996361 
	C73.106750,79.434181 73.997025,76.872009 74.887306,74.309837 
	C74.499123,74.121483 74.110947,73.933128 73.722771,73.744774 
	C72.667900,74.731575 71.613029,75.718384 70.662544,76.607536 
	C69.951279,75.580017 69.421227,74.814285 68.412895,73.797813 
M42.305893,75.376678 
	C41.885807,76.242462 41.465717,77.108246 40.549515,78.996498 
	C39.795208,73.882698 39.640793,68.686516 32.859337,71.493843 
	C32.859337,74.695038 32.859337,77.946625 32.859337,82.508499 
	C36.135777,81.329124 38.769905,80.380943 40.414074,79.789116 
	C43.090466,80.433319 45.250401,80.953209 47.410343,81.473099 
	C47.633568,79.302216 47.856792,77.131340 47.812138,74.421684 
	C46.172119,74.595436 44.532101,74.769196 42.305893,75.376678 
M48.470478,144.852905 
	C54.409866,142.712128 60.349255,140.571350 67.041901,138.159073 
	C63.720028,149.090988 65.114624,155.975342 70.657600,159.386734 
	C75.324417,162.258911 82.689636,161.771240 87.560280,157.494507 
	C85.030487,158.122101 83.582581,158.493713 82.128616,158.839798 
	C76.813675,160.104889 70.251801,156.479385 69.074181,151.634445 
	C67.280113,144.253281 70.640617,136.740067 76.687447,135.904953 
	C83.142662,135.013428 89.715019,134.969971 96.193459,134.559021 
	C90.774155,128.067902 82.898903,132.730423 75.289787,131.931427 
	C83.527779,121.412003 92.443741,114.061996 106.347939,115.518867 
	C100.645432,111.756966 94.797188,112.260391 90.196030,115.395813 
	C83.695007,119.825890 78.160194,125.659889 72.107368,130.769379 
	C70.047699,132.508041 67.845222,134.271484 65.407433,135.333923 
	C55.978653,139.443176 46.352615,143.107620 36.999603,147.375122 
	C35.467869,148.074005 34.939747,150.972504 33.947773,152.854385 
	C36.060814,153.687408 38.173855,154.520447 40.286896,155.353485 
	C40.515709,154.793793 40.744518,154.234100 40.973331,153.674408 
	C39.970882,152.787582 38.968433,151.900772 37.276020,150.403580 
	C41.064278,148.482437 44.404911,146.788300 48.470478,144.852905 
M139.875229,137.343094 
	C138.808273,137.104446 137.741302,136.865814 136.674362,136.627167 
	C136.655991,137.678894 136.258423,138.927261 136.684341,139.748566 
	C138.612396,143.466415 141.148026,143.239410 145.337265,139.892410 
	C148.580994,140.379425 151.324997,141.671753 153.052231,140.843536 
	C155.615601,139.614410 157.247009,138.731567 159.474380,141.200836 
	C160.154495,141.954819 161.944534,141.992950 163.191422,141.898590 
	C167.482040,141.573807 171.723404,140.988525 173.099289,135.419846 
	C174.829239,143.155487 167.041016,144.042267 163.638657,149.070541 
	C169.555145,148.359222 172.825623,145.436356 175.521591,141.852844 
	C177.557953,139.146103 178.538788,135.549500 175.480179,133.420319 
	C172.665894,131.461227 170.072372,132.905243 168.570129,136.502853 
	C167.356628,139.408920 161.637924,140.120300 160.787704,137.711899 
	C158.658340,131.680054 156.171600,134.306168 153.386597,136.950577 
	C152.644135,137.655563 151.688324,138.135880 150.631439,138.854691 
	C150.354980,136.879272 150.148804,135.406006 149.775574,132.738953 
	C147.267685,134.865433 145.711700,136.513199 143.841217,137.637970 
	C142.844162,138.237534 141.303452,137.933029 139.875229,137.343094 
M135.618530,133.282745 
	C136.722427,132.311691 137.889862,131.402283 138.910355,130.350327 
	C139.743423,129.491531 140.516357,128.519394 141.038986,127.460793 
	C141.143539,127.249046 139.962234,125.934669 139.434555,125.972633 
	C138.206955,126.060959 136.726471,126.352715 135.884628,127.137329 
	C134.847229,128.104233 134.422836,129.699829 133.612991,130.945374 
	C131.176987,134.691864 128.523682,138.201981 125.043053,139.065186 
	C122.588676,136.991943 120.517761,134.263763 119.540413,134.611267 
	C117.162827,135.456619 115.211266,137.647552 113.317223,139.527344 
	C113.068054,139.774628 114.224724,142.227844 114.617409,142.197525 
	C116.442970,142.056564 118.228813,141.401077 120.107353,140.909164 
	C122.480202,141.143631 125.167549,141.409149 127.952583,141.684326 
	C127.744568,143.729462 127.499779,146.136169 127.254990,148.542892 
	C127.760269,148.670776 128.265549,148.798660 128.770828,148.926544 
	C130.918213,143.917953 133.065598,138.909378 135.618530,133.282745 
M104.563156,58.159840 
	C104.346962,57.026558 104.130768,55.893276 104.008507,55.252396 
	C100.266937,57.128628 96.968903,58.782448 93.670868,60.436268 
	C93.402664,60.023216 93.134460,59.610168 92.866257,59.197117 
	C93.113731,60.761368 93.361206,62.325623 93.542183,63.469540 
	C97.328400,64.405106 100.640480,65.223518 104.565742,66.193436 
	C104.565742,62.893471 104.565742,60.927650 104.563156,58.159840 
M106.706604,139.147690 
	C108.331474,137.495682 111.854691,135.990158 109.291924,133.342026 
	C106.648254,130.610260 103.686035,132.593567 100.663956,135.145615 
	C102.476883,135.763824 103.635750,136.158997 104.685158,136.516846 
	C103.747169,139.562057 98.288696,140.592957 101.702805,144.512466 
	C103.415443,146.478638 108.744949,144.477554 110.645386,141.480240 
	C108.563927,141.792053 106.558434,142.092499 103.562714,142.541275 
	C104.884560,141.014832 105.500626,140.303421 106.706604,139.147690 
M36.388256,49.618301 
	C37.309525,49.348267 38.230797,49.078228 39.152069,48.808193 
	C39.131138,48.513691 39.110210,48.219189 39.089283,47.924686 
	C37.800804,47.544659 36.512321,47.164631 34.475994,46.564030 
	C36.163162,45.527557 37.219616,44.878551 38.716618,43.958900 
	C37.102036,43.183720 36.078434,42.692276 34.341045,41.858131 
	C36.448887,41.076328 37.779465,40.582813 39.110043,40.089294 
	C39.061539,39.782787 39.013031,39.476276 38.964527,39.169769 
	C36.914497,39.169769 34.864468,39.169769 32.572960,39.169769 
	C32.572960,41.969845 32.272907,44.485184 32.710033,46.865124 
	C32.904446,47.923603 34.585247,48.709076 36.388256,49.618301 
M155.068237,49.578465 
	C156.042404,48.062538 157.589127,46.611851 157.772125,45.005772 
	C157.878860,44.069176 155.711029,41.925617 154.729721,42.020092 
	C152.961517,42.190327 150.269272,43.282608 149.822678,44.613682 
	C148.657700,48.085884 150.985733,49.657955 155.068237,49.578465 
M43.153889,57.725971 
	C42.263428,59.422123 40.544563,61.227280 40.748802,62.779381 
	C40.907627,63.986359 43.543686,65.781509 44.931293,65.658043 
	C46.346466,65.532135 48.515228,63.507217 48.703888,62.093510 
	C49.114201,59.018787 47.091446,57.309067 43.153889,57.725971 
M88.016716,76.215240 
	C85.959038,75.543541 83.916428,74.529419 81.833229,74.437767 
	C81.303810,74.414482 79.774757,77.721931 80.261909,78.786591 
	C80.901543,80.184494 83.715904,82.041939 84.470612,81.631950 
	C86.078438,80.758522 86.961319,78.550621 88.016716,76.215240 
M52.163548,57.856407 
	C51.489391,59.686855 50.388947,61.504898 50.335175,63.353394 
	C50.311150,64.179489 52.562103,65.923668 53.475185,65.739220 
	C55.130497,65.404839 57.607018,64.164093 57.878914,62.900940 
	C58.642796,59.352200 57.068649,56.954247 52.163548,57.856407 
M37.093998,65.683884 
	C42.548668,61.568024 36.336018,60.092487 34.783573,57.401646 
	C36.369957,57.156456 37.525402,56.977871 38.680843,56.799286 
	C38.645588,56.216789 38.610332,55.634296 38.575073,55.051804 
	C36.723221,55.240738 34.042530,54.718559 33.163971,55.742550 
	C29.494175,60.019855 35.512901,60.243904 36.756927,62.929836 
	C35.122425,63.156723 33.715271,63.352047 32.308121,63.547375 
	C32.252499,63.930286 32.196877,64.313202 32.141254,64.696114 
	C33.541611,65.090019 34.941967,65.483932 37.093998,65.683884 
M143.793793,80.809875 
	C145.603821,80.831047 148.056396,81.562302 149.041061,80.671310 
	C150.003036,79.800858 150.017776,77.039963 149.387695,75.560715 
	C148.990952,74.629257 146.472473,73.859718 145.204239,74.184158 
	C141.770401,75.062622 141.584457,77.509819 143.793793,80.809875 
M114.502983,45.139038 
	C114.415123,46.464214 114.327255,47.789387 114.239388,49.114563 
	C114.386429,49.108448 114.533470,49.102333 114.680511,49.096218 
	C115.296806,47.352364 115.913109,45.608509 116.529404,43.864655 
	C116.894119,43.941063 117.258835,44.017475 117.623550,44.093887 
	C118.096176,45.930386 118.568794,47.766884 119.231483,50.341942 
	C124.284370,42.716721 117.193962,42.325356 114.389580,39.513573 
	C114.389580,41.192951 114.389580,42.805874 114.502983,45.139038 
M85.890892,64.161842 
	C85.934967,57.570442 85.014778,56.664436 80.701096,58.168884 
	C80.373062,59.519295 80.381165,60.686390 79.842781,61.485119 
	C77.965263,64.270508 79.212509,65.537491 81.936661,65.822411 
	C83.129044,65.947128 84.405899,65.264198 85.890892,64.161842 
M73.368874,42.252522 
	C70.704285,42.252522 68.039696,42.252522 65.650444,42.252522 
	C66.340965,44.630627 67.019997,46.969193 68.041138,50.485939 
	C69.045845,47.556015 69.676117,45.718021 70.306389,43.880032 
	C70.641060,43.926464 70.975731,43.972897 71.310402,44.019329 
	C71.781540,45.805229 72.252686,47.591129 72.723831,49.377029 
	C73.253044,49.310707 73.782257,49.244389 74.311470,49.178066 
	C74.155106,47.054348 73.998734,44.930634 73.368874,42.252522 
M65.160759,57.545540 
	C64.307533,59.751629 63.454308,61.957718 62.601078,64.163803 
	C64.519470,64.818604 66.437866,65.473412 69.118408,66.388359 
	C68.459213,62.401527 71.071602,58.558651 65.160759,57.545540 
M106.349594,75.894562 
	C106.634148,76.047485 106.923927,76.192207 107.195839,76.365028 
	C107.225670,76.383987 107.166451,76.569870 107.125732,76.668961 
	C106.551353,78.066849 105.973045,79.463127 105.395676,80.859787 
	C106.819000,80.922073 108.242401,81.024940 109.665619,81.022514 
	C110.106514,81.021759 110.546936,80.734879 111.762100,80.304993 
	C110.969887,78.142082 110.206696,76.058411 109.443504,73.974739 
	C108.244003,74.500580 107.044510,75.026421 106.349594,75.894562 
M143.887024,41.933945 
	C143.507416,40.859818 143.127808,39.785686 142.748215,38.711559 
	C140.219376,46.161861 140.800034,48.473072 144.392380,49.035076 
	C144.224716,46.929966 144.057068,44.824860 143.887024,41.933945 
M71.065239,55.708961 
	C70.567123,64.684418 70.567123,64.684418 73.982849,65.207848 
	C73.803192,62.668171 73.773453,60.091808 73.361740,57.578007 
	C73.214394,56.678314 72.144051,55.929787 71.065239,55.708961 
M54.207561,74.262955 
	C53.460228,73.186501 52.712891,72.110046 51.338242,70.130013 
	C51.338242,74.573280 51.338242,77.990906 51.338242,81.625938 
	C53.146832,79.092201 54.677326,76.948067 56.159985,74.870941 
	C56.063263,74.842178 55.439999,74.656860 54.207561,74.262955 
M95.064308,81.310783 
	C97.550224,79.867561 97.737526,78.510048 96.118866,74.401367 
	C95.081749,76.044876 93.981735,77.788048 92.881721,79.531219 
	C92.004654,77.933502 91.127579,76.335793 90.271324,74.776016 
	C89.416412,81.699539 89.763374,82.250351 95.064308,81.310783 
M114.589149,81.469643 
	C115.166046,81.381821 116.250885,81.249870 116.247635,81.212456 
	C115.950478,77.792114 115.569992,74.379013 115.195068,70.965424 
	C114.487724,71.005257 113.780380,71.045090 113.073044,71.084923 
	C113.367081,74.396179 113.661118,77.707428 114.589149,81.469643 
M57.533955,46.398357 
	C57.794437,46.745708 58.054916,47.093060 58.315395,47.440411 
	C58.497475,47.236710 58.679558,47.033005 58.861641,46.829300 
	C58.566643,46.574379 58.271648,46.319454 57.533955,46.398357 
z"/>
<path fill="#FFF3E5" opacity="1.000000" stroke="none" 
	d="
M48.108009,144.973541 
	C44.404911,146.788300 41.064278,148.482437 37.276020,150.403580 
	C38.968433,151.900772 39.970882,152.787582 40.973331,153.674408 
	C40.744518,154.234100 40.515709,154.793793 40.286896,155.353485 
	C38.173855,154.520447 36.060814,153.687408 33.947769,152.854385 
	C34.939747,150.972504 35.467869,148.074005 36.999603,147.375122 
	C46.352615,143.107620 55.978653,139.443176 65.407433,135.333923 
	C67.845222,134.271484 70.047699,132.508041 72.107368,130.769379 
	C78.160194,125.659889 83.695007,119.825890 90.196030,115.395813 
	C94.797188,112.260391 100.645432,111.756966 106.347939,115.518867 
	C92.443741,114.061996 83.527779,121.412003 75.289787,131.931427 
	C82.898903,132.730423 90.774155,128.067902 96.193459,134.559021 
	C89.715019,134.969971 83.142662,135.013428 76.687447,135.904953 
	C70.640617,136.740067 67.280113,144.253281 69.074181,151.634445 
	C70.251801,156.479385 76.813675,160.104889 82.128616,158.839798 
	C83.582581,158.493713 85.030487,158.122101 87.560280,157.494507 
	C82.689636,161.771240 75.324417,162.258911 70.657600,159.386734 
	C65.114624,155.975342 63.720028,149.090988 67.041901,138.159073 
	C60.349255,140.571350 54.409866,142.712128 48.108009,144.973541 
z"/>
<path fill="#FFF1E1" opacity="1.000000" stroke="none" 
	d="
M139.941681,137.689835 
	C141.303452,137.933029 142.844162,138.237534 143.841217,137.637970 
	C145.711700,136.513199 147.267685,134.865433 149.775574,132.738953 
	C150.148804,135.406006 150.354980,136.879272 150.631439,138.854691 
	C151.688324,138.135880 152.644135,137.655563 153.386597,136.950577 
	C156.171600,134.306168 158.658340,131.680054 160.787704,137.711899 
	C161.637924,140.120300 167.356628,139.408920 168.570129,136.502853 
	C170.072372,132.905243 172.665894,131.461227 175.480179,133.420319 
	C178.538788,135.549500 177.557953,139.146103 175.521591,141.852844 
	C172.825623,145.436356 169.555145,148.359222 163.638657,149.070541 
	C167.041016,144.042267 174.829239,143.155487 173.099289,135.419846 
	C171.723404,140.988525 167.482040,141.573807 163.191422,141.898590 
	C161.944534,141.992950 160.154495,141.954819 159.474380,141.200836 
	C157.247009,138.731567 155.615601,139.614410 153.052231,140.843536 
	C151.324997,141.671753 148.580994,140.379425 145.337265,139.892410 
	C141.148026,143.239410 138.612396,143.466415 136.684341,139.748566 
	C136.258423,138.927261 136.655991,137.678894 136.674347,136.627167 
	C137.741302,136.865814 138.808273,137.104446 139.941681,137.689835 
z"/>
<path fill="#FFF0E0" opacity="1.000000" stroke="none" 
	d="
M135.415756,133.591766 
	C133.065598,138.909378 130.918213,143.917953 128.770828,148.926544 
	C128.265549,148.798660 127.760269,148.670776 127.254990,148.542892 
	C127.499779,146.136169 127.744568,143.729462 127.952583,141.684326 
	C125.167549,141.409149 122.480202,141.143631 120.107353,140.909164 
	C118.228813,141.401077 116.442970,142.056564 114.617409,142.197525 
	C114.224724,142.227844 113.068054,139.774628 113.317223,139.527344 
	C115.211266,137.647552 117.162827,135.456619 119.540413,134.611267 
	C120.517761,134.263763 122.588676,136.991943 125.043053,139.065186 
	C128.523682,138.201981 131.176987,134.691864 133.612991,130.945374 
	C134.422836,129.699829 134.847229,128.104233 135.884628,127.137329 
	C136.726471,126.352715 138.206955,126.060959 139.434555,125.972633 
	C139.962234,125.934669 141.143539,127.249046 141.038986,127.460793 
	C140.516357,128.519394 139.743423,129.491531 138.910355,130.350327 
	C137.889862,131.402283 136.722427,132.311691 135.415756,133.591766 
z"/>
<path fill="#FFECD7" opacity="1.000000" stroke="none" 
	d="
M48.080017,74.960457 
	C47.856792,77.131340 47.633568,79.302216 47.410339,81.473099 
	C45.250401,80.953209 43.090466,80.433319 40.414074,79.789116 
	C38.769905,80.380943 36.135777,81.329124 32.859337,82.508499 
	C32.859337,77.946625 32.859337,74.695038 32.859337,71.493843 
	C39.640793,68.686516 39.795208,73.882698 40.549515,78.996498 
	C41.465717,77.108246 41.885807,76.242462 42.912888,75.298920 
	C45.039928,75.134254 46.559971,75.047356 48.080017,74.960457 
z"/>
<path fill="#FFE8D0" opacity="1.000000" stroke="none" 
	d="
M104.564453,58.560837 
	C104.565742,60.927650 104.565742,62.893471 104.565742,66.193436 
	C100.640480,65.223518 97.328400,64.405106 93.542183,63.469540 
	C93.361206,62.325623 93.113731,60.761368 92.866257,59.197117 
	C93.134460,59.610168 93.402664,60.023216 93.670868,60.436268 
	C96.968903,58.782448 100.266937,57.128628 104.008507,55.252396 
	C104.130768,55.893276 104.346962,57.026558 104.564453,58.560837 
z"/>
<path fill="#FFEBD4" opacity="1.000000" stroke="none" 
	d="
M106.411652,139.369843 
	C105.500626,140.303421 104.884560,141.014832 103.562714,142.541275 
	C106.558434,142.092499 108.563927,141.792053 110.645386,141.480240 
	C108.744949,144.477554 103.415443,146.478638 101.702805,144.512466 
	C98.288696,140.592957 103.747169,139.562057 104.685158,136.516846 
	C103.635750,136.158997 102.476883,135.763824 100.663956,135.145615 
	C103.686035,132.593567 106.648254,130.610260 109.291924,133.342026 
	C111.854691,135.990158 108.331474,137.495682 106.411652,139.369843 
z"/>
<path fill="#FFE8CF" opacity="1.000000" stroke="none" 
	d="
M35.989822,49.618382 
	C34.585247,48.709076 32.904446,47.923603 32.710033,46.865124 
	C32.272907,44.485184 32.572960,41.969845 32.572960,39.169769 
	C34.864468,39.169769 36.914497,39.169769 38.964527,39.169769 
	C39.013031,39.476276 39.061539,39.782787 39.110043,40.089294 
	C37.779465,40.582813 36.448887,41.076328 34.341045,41.858131 
	C36.078434,42.692276 37.102036,43.183720 38.716618,43.958900 
	C37.219616,44.878551 36.163162,45.527557 34.475994,46.564030 
	C36.512321,47.164631 37.800804,47.544659 39.089283,47.924686 
	C39.110210,48.219189 39.131138,48.513691 39.152069,48.808193 
	C38.230797,49.078228 37.309525,49.348267 35.989822,49.618382 
z"/>
<path fill="#FFE6CB" opacity="1.000000" stroke="none" 
	d="
M132.064911,47.497482 
	C131.108292,47.912491 130.163589,48.640896 129.192596,48.677837 
	C127.115822,48.756859 124.751747,48.995602 123.068054,48.105057 
	C122.339333,47.719627 122.471977,43.400475 123.135666,43.129822 
	C124.960388,42.385685 127.281601,42.724480 129.387634,42.883224 
	C130.056107,42.933613 130.665649,43.765755 131.665512,44.491386 
	C132.040878,45.660908 132.052887,46.579193 132.064911,47.497482 
z"/>
<path fill="#FFEBD4" opacity="1.000000" stroke="none" 
	d="
M154.708801,49.690510 
	C150.985733,49.657955 148.657700,48.085884 149.822678,44.613682 
	C150.269272,43.282608 152.961517,42.190327 154.729721,42.020092 
	C155.711029,41.925617 157.878860,44.069176 157.772125,45.005772 
	C157.589127,46.611851 156.042404,48.062538 154.708801,49.690510 
z"/>
<path fill="#FFE5C8" opacity="1.000000" stroke="none" 
	d="
M43.493687,57.597145 
	C47.091446,57.309067 49.114201,59.018787 48.703888,62.093510 
	C48.515228,63.507217 46.346466,65.532135 44.931293,65.658043 
	C43.543686,65.781509 40.907627,63.986359 40.748802,62.779381 
	C40.544563,61.227280 42.263428,59.422123 43.493687,57.597145 
z"/>
<path fill="#FFE9D1" opacity="1.000000" stroke="none" 
	d="
M68.018936,75.941574 
	C67.242874,77.479179 66.466812,79.016785 65.111847,81.701378 
	C63.839947,81.356819 61.098625,81.381332 59.928532,80.037621 
	C59.096634,79.082291 60.382301,76.282997 60.810577,73.797813 
	C63.216118,73.797813 65.814507,73.797813 68.480133,74.125458 
	C68.371223,74.949257 68.195084,75.445419 68.018936,75.941574 
z"/>
<path fill="#FFE8D0" opacity="1.000000" stroke="none" 
	d="
M88.079002,76.552414 
	C86.961319,78.550621 86.078438,80.758522 84.470612,81.631950 
	C83.715904,82.041939 80.901543,80.184494 80.261909,78.786591 
	C79.774757,77.721931 81.303810,74.414482 81.833229,74.437767 
	C83.916428,74.529419 85.959038,75.543541 88.079002,76.552414 
z"/>
<path fill="#FFDFBB" opacity="1.000000" stroke="none" 
	d="
M52.506821,57.717003 
	C57.068649,56.954247 58.642796,59.352200 57.878914,62.900940 
	C57.607018,64.164093 55.130497,65.404839 53.475185,65.739220 
	C52.562103,65.923668 50.311150,64.179489 50.335175,63.353394 
	C50.388947,61.504898 51.489391,59.686855 52.506821,57.717003 
z"/>
<path fill="#FFEFDD" opacity="1.000000" stroke="none" 
	d="
M102.934471,47.561192 
	C100.904953,50.098469 98.717331,50.979378 95.801773,48.053097 
	C96.805000,47.316940 97.634644,46.708168 98.436554,46.119740 
	C101.581886,39.419830 101.581886,39.419830 103.247444,40.445194 
	C101.342567,40.777676 99.942749,41.022003 97.981117,41.364395 
	C99.876274,42.930260 101.338852,44.138706 102.863281,45.926411 
	C102.928246,46.857510 102.931358,47.209351 102.934471,47.561192 
M100.084755,46.192951 
	C99.398773,45.854973 98.719978,45.498993 98.012024,45.215984 
	C97.959999,45.195187 97.697372,45.701202 97.532661,45.962296 
	C98.215553,46.247841 98.898445,46.533386 100.084755,46.192951 
z"/>
<path fill="#FFEAD3" opacity="1.000000" stroke="none" 
	d="
M132.096222,47.642685 
	C132.052887,46.579193 132.040878,45.660908 132.022614,44.398140 
	C134.123611,43.480625 136.228317,42.590492 138.339981,42.573601 
	C138.824265,42.569729 140.056564,46.777233 139.708527,46.986019 
	C137.888092,48.078041 135.669571,48.506401 133.220551,48.786285 
	C132.714935,48.232235 132.555740,48.081104 132.374054,47.953671 
	C132.374054,47.953671 132.127533,47.787888 132.096222,47.642685 
z"/>
<path fill="#FFE6CB" opacity="1.000000" stroke="none" 
	d="
M36.718163,65.780861 
	C34.941967,65.483932 33.541611,65.090019 32.141254,64.696114 
	C32.196877,64.313202 32.252499,63.930286 32.308121,63.547375 
	C33.715271,63.352047 35.122425,63.156723 36.756927,62.929836 
	C35.512901,60.243904 29.494175,60.019855 33.163971,55.742550 
	C34.042530,54.718559 36.723221,55.240738 38.575073,55.051804 
	C38.610332,55.634296 38.645588,56.216789 38.680843,56.799286 
	C37.525402,56.977871 36.369957,57.156456 34.783573,57.401646 
	C36.336018,60.092487 42.548668,61.568024 36.718163,65.780861 
z"/>
<path fill="#FFE7CE" opacity="1.000000" stroke="none" 
	d="
M143.526566,80.554489 
	C141.584457,77.509819 141.770401,75.062622 145.204239,74.184158 
	C146.472473,73.859718 148.990952,74.629257 149.387695,75.560715 
	C150.017776,77.039963 150.003036,79.800858 149.041061,80.671310 
	C148.056396,81.562302 145.603821,80.831047 143.526566,80.554489 
z"/>
<path fill="#FFE2C3" opacity="1.000000" stroke="none" 
	d="
M114.446281,44.778915 
	C114.389580,42.805874 114.389580,41.192951 114.389580,39.513573 
	C117.193962,42.325356 124.284370,42.716721 119.231483,50.341942 
	C118.568794,47.766884 118.096176,45.930386 117.623550,44.093887 
	C117.258835,44.017475 116.894119,43.941063 116.529404,43.864655 
	C115.913109,45.608509 115.296806,47.352364 114.680511,49.096218 
	C114.533470,49.102333 114.386429,49.108448 114.239388,49.114563 
	C114.327255,47.789387 114.415123,46.464214 114.446281,44.778915 
z"/>
<path fill="#FFE3C5" opacity="1.000000" stroke="none" 
	d="
M85.767647,64.554932 
	C84.405899,65.264198 83.129044,65.947128 81.936661,65.822411 
	C79.212509,65.537491 77.965263,64.270508 79.842781,61.485119 
	C80.381165,60.686390 80.373062,59.519295 80.701096,58.168884 
	C85.014778,56.664436 85.934967,57.570442 85.767647,64.554932 
z"/>
<path fill="#FFF4E8" opacity="1.000000" stroke="none" 
	d="
M73.605621,42.529716 
	C73.998734,44.930634 74.155106,47.054348 74.311470,49.178066 
	C73.782257,49.244389 73.253044,49.310707 72.723831,49.377029 
	C72.252686,47.591129 71.781540,45.805229 71.310402,44.019329 
	C70.975731,43.972897 70.641060,43.926464 70.306389,43.880032 
	C69.676117,45.718021 69.045845,47.556015 68.041138,50.485939 
	C67.019997,46.969193 66.340965,44.630627 65.650444,42.252522 
	C68.039696,42.252522 70.704285,42.252522 73.605621,42.529716 
z"/>
<path fill="#FFE9D2" opacity="1.000000" stroke="none" 
	d="
M169.151337,75.069778 
	C171.125031,74.923798 173.154633,74.486069 175.031464,74.845650 
	C175.477051,74.931007 175.651474,77.706963 175.531982,79.212067 
	C175.246262,82.811211 172.905396,82.043198 170.114807,80.803215 
	C169.432831,78.586716 169.292084,76.828247 169.151337,75.069778 
z"/>
<path fill="#FFF0DF" opacity="1.000000" stroke="none" 
	d="
M65.512352,57.500793 
	C71.071602,58.558651 68.459213,62.401527 69.118408,66.388359 
	C66.437866,65.473412 64.519470,64.818604 62.601082,64.163803 
	C63.454308,61.957718 64.307533,59.751629 65.512352,57.500793 
z"/>
<path fill="#FFEEDB" opacity="1.000000" stroke="none" 
	d="
M47.043312,42.342381 
	C52.972965,41.313507 52.996166,41.338440 53.018192,48.998913 
	C52.167171,49.197407 51.225426,49.676170 50.369751,49.553684 
	C49.193810,49.385353 48.083027,48.761791 46.944324,48.333282 
	C47.374237,47.242950 47.882832,46.173668 48.183796,45.048828 
	C48.268745,44.731327 47.745899,44.251205 47.309219,43.447502 
	C47.118229,42.810982 47.093792,42.575333 47.043312,42.342381 
z"/>
<path fill="#FFE3C5" opacity="1.000000" stroke="none" 
	d="
M103.327721,47.495018 
	C102.931358,47.209351 102.928246,46.857510 102.966476,46.244568 
	C105.138527,43.302692 107.023041,39.931190 111.498207,42.839729 
	C109.758995,43.917553 108.315933,44.811844 106.872871,45.706139 
	C108.383156,46.499676 109.893440,47.293209 111.608246,48.194202 
	C108.565964,51.685612 106.195580,48.884724 103.327721,47.495018 
z"/>
<path fill="#FFE4C7" opacity="1.000000" stroke="none" 
	d="
M130.046951,78.855583 
	C127.536499,80.407455 125.439079,84.113350 121.597908,80.076653 
	C123.131859,79.718002 124.439201,79.412331 125.666306,79.125420 
	C124.258469,77.110695 122.975815,75.275124 121.693169,73.439560 
	C122.033180,73.283997 122.373192,73.128441 122.713203,72.972885 
	C125.022255,74.187950 127.331314,75.403015 129.850128,76.675095 
	C130.055573,77.439934 130.051270,78.147758 130.046951,78.855583 
z"/>
<path fill="#FFF6ED" opacity="1.000000" stroke="none" 
	d="
M106.097305,75.723412 
	C107.044510,75.026421 108.244003,74.500580 109.443504,73.974739 
	C110.206696,76.058411 110.969887,78.142082 111.762100,80.304993 
	C110.546936,80.734879 110.106514,81.021759 109.665619,81.022514 
	C108.242401,81.024940 106.819000,80.922073 105.395676,80.859787 
	C105.973045,79.463127 106.551353,78.066849 107.125732,76.668961 
	C107.166451,76.569870 107.225670,76.383987 107.195839,76.365028 
	C106.923927,76.192207 106.634148,76.047485 106.097305,75.723412 
z"/>
<path fill="#FFECD7" opacity="1.000000" stroke="none" 
	d="
M68.051361,76.306534 
	C68.195084,75.445419 68.371223,74.949257 68.719269,74.250832 
	C69.421227,74.814285 69.951279,75.580017 70.662544,76.607536 
	C71.613029,75.718384 72.667900,74.731575 73.722771,73.744774 
	C74.110947,73.933128 74.499123,74.121483 74.887306,74.309837 
	C73.997025,76.872009 73.106750,79.434181 72.216476,81.996361 
	C71.686119,82.000755 71.155762,82.005150 70.625404,82.009544 
	C69.778198,80.230194 68.931000,78.450836 68.051361,76.306534 
z"/>
<path fill="#FFEBD4" opacity="1.000000" stroke="none" 
	d="
M130.084061,79.213791 
	C130.051270,78.147758 130.055573,77.439934 130.034607,76.378883 
	C131.887512,73.107666 134.121048,73.004753 136.913040,74.966820 
	C135.052261,76.010735 133.410919,76.931541 131.769577,77.852348 
	C131.931808,78.331680 132.094040,78.811005 132.256256,79.290337 
	C133.732727,79.647850 135.209183,80.005371 137.076248,80.457466 
	C134.116547,82.915787 132.049133,81.768227 130.084061,79.213791 
z"/>
<path fill="#FFE5C8" opacity="1.000000" stroke="none" 
	d="
M167.316818,81.064209 
	C165.219849,80.774956 162.987259,80.808014 161.102356,80.014809 
	C160.475662,79.751091 160.219070,76.376457 160.691360,76.127449 
	C162.518951,75.163895 164.708847,74.887535 166.801880,74.982986 
	C165.505051,76.379150 164.170151,77.147545 162.835236,77.915939 
	C164.074890,78.440445 165.363708,78.877945 166.528000,79.535828 
	C166.945511,79.771729 167.062622,80.539291 167.316818,81.064209 
z"/>
<path fill="#FFDCB8" opacity="1.000000" stroke="none" 
	d="
M143.888214,42.326851 
	C144.057068,44.824860 144.224716,46.929966 144.390594,49.035141 
	C140.800034,48.473072 140.219376,46.161861 142.748215,38.711559 
	C143.127808,39.785686 143.507416,40.859818 143.888214,42.326851 
z"/>
<path fill="#FFE6CB" opacity="1.000000" stroke="none" 
	d="
M71.280113,55.410614 
	C72.144051,55.929787 73.214394,56.678314 73.361740,57.578007 
	C73.773453,60.091808 73.803192,62.668171 73.982849,65.207848 
	C70.567123,64.684418 70.567123,64.684418 71.280113,55.410614 
z"/>
<path fill="#FFEFDD" opacity="1.000000" stroke="none" 
	d="
M54.512146,74.367249 
	C55.439999,74.656860 56.063263,74.842178 56.159985,74.870941 
	C54.677326,76.948067 53.146832,79.092201 51.338242,81.625938 
	C51.338242,77.990906 51.338242,74.573280 51.338242,70.130013 
	C52.712891,72.110046 53.460228,73.186501 54.512146,74.367249 
z"/>
<path fill="#FFF6EB" opacity="1.000000" stroke="none" 
	d="
M94.682091,81.208237 
	C89.763374,82.250351 89.416412,81.699539 90.271324,74.776016 
	C91.127579,76.335793 92.004654,77.933502 92.881729,79.531219 
	C93.981735,77.788048 95.081749,76.044876 96.118866,74.401367 
	C97.737526,78.510048 97.550224,79.867561 94.682091,81.208237 
z"/>
<path fill="#FFDCB6" opacity="1.000000" stroke="none" 
	d="
M114.272156,81.244164 
	C113.661118,77.707428 113.367081,74.396179 113.073044,71.084923 
	C113.780380,71.045090 114.487724,71.005257 115.195068,70.965424 
	C115.569992,74.379013 115.950478,77.792114 116.247635,81.212456 
	C116.250885,81.249870 115.166046,81.381821 114.272156,81.244164 
z"/>
<path fill="#FFE4C7" opacity="1.000000" stroke="none" 
	d="
M46.600769,42.284248 
	C47.093792,42.575333 47.118229,42.810982 47.098381,43.226349 
	C45.448067,45.250652 43.815987,47.097939 41.586075,49.621887 
	C41.335670,47.140434 41.104950,44.854015 40.839767,42.226116 
	C43.002110,42.226116 44.580166,42.226116 46.600769,42.284248 
z"/>
<path fill="#FFA222" opacity="1.000000" stroke="none" 
	d="
M167.645233,81.060028 
	C167.062622,80.539291 166.945511,79.771729 166.528000,79.535828 
	C165.363708,78.877945 164.074890,78.440445 162.835236,77.915939 
	C164.170151,77.147545 165.505051,76.379150 167.066589,75.280861 
	C167.706238,74.975098 168.119247,74.999237 168.841797,75.046570 
	C169.292084,76.828247 169.432831,78.586716 169.758850,80.687576 
	C169.287292,81.038605 168.630478,81.047226 167.645233,81.060028 
z"/>
<path fill="#FFEAD3" opacity="1.000000" stroke="none" 
	d="
M47.946075,74.691071 
	C46.559971,75.047356 45.039928,75.134254 43.205978,75.082054 
	C44.532101,74.769196 46.172119,74.595436 47.946075,74.691071 
z"/>
<path fill="#FFCF9F" opacity="1.000000" stroke="none" 
	d="
M57.755302,46.231445 
	C58.271648,46.319454 58.566643,46.574379 58.861641,46.829300 
	C58.679558,47.033005 58.497475,47.236710 58.315395,47.440411 
	C58.054916,47.093060 57.794437,46.745708 57.755302,46.231445 
z"/>
<path fill="#FFE6CB" opacity="1.000000" stroke="none" 
	d="
M132.420166,48.124496 
	C132.555740,48.081104 132.714935,48.232235 132.943283,48.544289 
	C132.782349,48.645584 132.592789,48.516850 132.420166,48.124496 
z"/>
<path fill="#FF9E02" opacity="1.000000" stroke="none" 
	d="
M99.833046,46.505943 
	C98.898445,46.533386 98.215553,46.247841 97.532661,45.962296 
	C97.697372,45.701202 97.959999,45.195187 98.012024,45.215984 
	C98.719978,45.498993 99.398773,45.854973 99.833046,46.505943 
z"/>
</svg>