<svg id="svg" version="1.1" xmlns="http://www.w3.org/2000/svg" xmlns:xlink="http://www.w3.org/1999/xlink" width="400" height="400" viewBox="0, 0, 400,400"><g id="svgg"><path id="path0" d="M224.005 47.989 C 223.723 48.668,223.466 51.451,223.404 54.489 C 223.345 57.410,223.274 59.923,223.248 60.073 C 223.141 60.682,221.183 60.885,214.260 61.004 C 207.814 61.115,206.822 61.222,205.415 61.964 C 204.544 62.424,203.580 62.800,203.273 62.800 C 202.742 62.800,201.053 63.997,199.462 65.502 C 198.801 66.127,197.392 68.168,195.470 71.286 C 195.101 71.883,194.800 72.806,194.800 73.337 C 194.800 75.183,194.372 75.248,182.423 75.213 C 167.835 75.170,166.210 75.328,165.576 76.858 C 164.686 79.007,166.352 84.597,168.632 87.111 C 171.157 89.894,171.701 90.400,172.171 90.400 C 172.458 90.400,173.173 90.778,173.760 91.240 C 175.766 92.818,178.438 93.192,189.400 93.428 C 198.862 93.632,199.959 93.728,201.560 94.491 C 206.051 96.631,209.164 101.086,207.981 103.681 L 207.563 104.600 194.167 104.600 C 179.125 104.600,180.017 104.406,180.006 107.673 C 179.987 113.605,187.235 122.400,192.144 122.400 C 194.025 122.400,194.401 123.441,194.394 128.631 C 194.387 134.346,194.090 135.114,191.600 135.853 C 186.904 137.248,184.389 136.041,177.860 129.261 C 176.727 128.084,175.260 126.605,174.600 125.973 C 173.940 125.342,168.777 120.275,163.128 114.713 C 150.836 102.612,147.461 99.600,146.194 99.600 C 145.921 99.600,145.492 99.352,145.240 99.048 C 144.988 98.745,144.268 98.394,143.639 98.268 C 143.011 98.142,142.250 97.798,141.948 97.504 C 141.379 96.948,132.301 95.575,129.300 95.591 C 126.574 95.605,120.347 96.777,118.504 97.622 C 117.572 98.050,116.351 98.400,115.792 98.400 C 115.233 98.400,114.678 98.654,114.559 98.963 C 114.440 99.273,113.770 99.755,113.071 100.033 C 112.372 100.311,111.498 100.823,111.129 101.169 C 110.761 101.516,109.822 102.250,109.044 102.800 C 105.916 105.012,106.252 106.547,110.860 111.100 C 112.697 112.915,114.761 114.985,115.447 115.700 C 116.133 116.415,117.303 117.575,118.047 118.278 C 118.791 118.981,119.605 119.791,119.855 120.078 C 120.105 120.365,120.957 121.140,121.746 121.800 C 122.536 122.460,123.187 123.225,123.191 123.500 C 123.196 123.775,123.378 124.000,123.596 124.000 C 124.111 124.000,137.600 137.493,137.600 138.008 C 137.600 138.224,137.796 138.400,138.036 138.400 C 138.275 138.400,139.234 139.165,140.166 140.100 C 141.098 141.035,142.882 142.748,144.131 143.907 C 145.379 145.066,146.400 146.087,146.400 146.176 C 146.400 146.492,148.867 148.800,149.204 148.800 C 149.392 148.800,149.657 149.151,149.794 149.580 C 149.930 150.008,150.392 150.470,150.820 150.606 C 151.249 150.743,151.600 151.032,151.600 151.250 C 151.600 151.468,152.980 152.941,154.668 154.523 C 159.468 159.026,164.400 164.053,164.400 164.444 C 164.400 164.640,164.658 164.800,164.973 164.800 C 165.288 164.800,165.657 165.151,165.794 165.580 C 165.930 166.008,166.392 166.470,166.820 166.606 C 167.249 166.743,167.600 167.117,167.600 167.440 C 167.600 167.762,167.889 168.136,168.243 168.272 C 168.596 168.407,170.432 170.045,172.323 171.910 L 175.761 175.302 174.849 176.041 C 173.978 176.746,172.433 176.779,140.955 176.774 C 122.816 176.771,107.800 176.876,107.587 177.008 C 106.976 177.386,107.111 185.620,107.749 186.842 C 108.048 187.415,108.512 188.801,108.781 189.922 C 109.050 191.043,109.513 192.162,109.809 192.408 C 110.106 192.654,110.460 193.364,110.597 193.986 C 110.734 194.608,111.195 195.434,111.623 195.821 C 112.050 196.207,112.400 196.767,112.400 197.065 C 112.400 197.362,112.850 197.997,113.400 198.475 C 113.950 198.953,114.400 199.582,114.400 199.872 C 114.400 200.162,114.619 200.400,114.886 200.400 C 115.153 200.400,115.738 200.755,116.186 201.189 C 117.832 202.786,119.917 204.400,120.333 204.400 C 120.568 204.400,120.904 204.645,121.080 204.943 C 121.256 205.242,122.061 205.702,122.868 205.964 C 123.675 206.226,124.552 206.702,124.817 207.020 C 125.082 207.339,125.771 207.601,126.349 207.603 C 126.927 207.604,128.896 207.964,130.725 208.403 C 133.839 209.149,135.456 209.200,156.149 209.200 C 173.206 209.200,178.399 209.314,178.913 209.700 C 179.513 210.150,179.599 212.077,179.779 229.037 C 180.007 250.445,180.192 249.189,176.767 249.503 C 175.575 249.612,174.420 249.841,174.200 250.011 C 173.980 250.182,172.990 250.527,172.000 250.777 C 169.822 251.328,166.375 252.974,164.200 254.502 C 163.320 255.120,162.150 255.934,161.600 256.311 C 161.050 256.688,160.240 257.447,159.801 257.998 C 159.362 258.549,158.636 259.360,158.188 259.800 C 157.740 260.240,157.071 261.050,156.700 261.600 C 156.329 262.150,155.499 263.344,154.855 264.253 C 154.211 265.161,153.556 266.331,153.400 266.853 C 153.244 267.374,152.861 268.205,152.550 268.699 C 151.328 270.636,149.968 280.176,150.226 285.000 C 150.484 289.839,150.864 300.893,150.804 301.800 C 150.714 303.141,150.733 303.370,150.998 304.226 C 151.482 305.784,149.246 307.387,145.854 307.915 C 144.237 308.166,142.394 308.633,141.757 308.952 C 141.121 309.271,140.150 309.727,139.600 309.964 C 138.615 310.389,137.438 311.063,134.920 312.643 C 132.716 314.027,128.891 317.361,128.455 318.279 C 128.225 318.762,127.419 319.842,126.664 320.679 C 125.909 321.515,125.005 322.830,124.654 323.600 C 124.303 324.370,123.853 325.270,123.653 325.600 C 121.907 328.488,120.453 335.476,121.116 337.800 L 121.457 339.000 143.829 339.111 C 156.133 339.171,166.568 339.132,167.019 339.023 C 167.469 338.915,173.837 332.880,181.169 325.613 C 188.501 318.346,194.633 312.400,194.796 312.400 C 194.958 312.400,195.611 311.651,196.246 310.736 L 197.400 309.072 197.627 300.836 C 197.858 292.434,198.465 288.490,199.680 287.479 C 199.997 287.216,200.551 286.523,200.911 285.940 C 202.535 283.312,210.780 280.342,213.120 281.542 C 213.494 281.734,214.880 282.008,216.200 282.152 C 218.561 282.410,224.400 284.632,224.400 285.272 C 224.400 285.453,224.641 285.600,224.936 285.600 C 226.235 285.600,232.934 291.727,233.462 293.398 C 233.601 293.839,234.049 294.435,234.457 294.723 C 234.866 295.010,235.200 295.536,235.200 295.891 C 235.200 296.246,235.469 296.834,235.797 297.196 C 236.588 298.070,238.044 302.193,238.272 304.200 C 238.546 306.624,237.906 307.169,233.984 307.850 C 232.125 308.172,230.243 308.670,229.802 308.955 C 229.361 309.240,228.487 309.600,227.860 309.754 C 226.776 310.022,226.334 310.271,223.316 312.326 C 222.610 312.807,221.876 313.200,221.686 313.200 C 220.924 313.200,213.600 321.335,213.600 322.180 C 213.600 322.462,213.265 323.121,212.855 323.646 C 212.445 324.171,211.974 325.050,211.808 325.600 C 211.641 326.150,211.280 326.870,211.004 327.200 C 210.134 328.241,208.745 336.641,209.257 337.764 C 209.912 339.202,209.683 339.189,233.395 339.195 L 255.389 339.200 263.395 331.221 C 267.798 326.832,273.207 321.477,275.415 319.321 C 277.623 317.164,280.818 313.900,282.515 312.067 L 285.600 308.734 285.600 285.651 C 285.600 263.359,285.573 262.515,284.800 261.000 C 284.360 260.137,284.000 259.034,284.000 258.549 C 284.000 257.652,283.148 256.471,281.000 254.391 C 278.542 252.010,277.487 251.225,276.161 250.787 C 275.413 250.540,274.800 250.172,274.800 249.969 C 274.800 249.766,274.280 249.600,273.644 249.600 C 273.009 249.600,272.104 249.285,271.634 248.900 L 270.780 248.200 270.793 199.825 C 270.805 154.608,270.851 151.365,271.503 150.148 C 272.121 148.994,273.847 146.325,276.036 143.140 C 276.437 142.557,276.890 141.567,277.044 140.940 C 277.197 140.313,277.655 139.173,278.061 138.406 C 278.468 137.639,278.800 136.542,278.800 135.969 C 278.800 135.395,279.175 133.862,279.633 132.563 C 280.584 129.867,280.489 125.339,279.408 121.775 C 279.078 120.689,278.807 119.473,278.804 119.074 C 278.802 118.675,278.350 117.365,277.800 116.163 C 277.250 114.960,276.800 113.706,276.800 113.376 C 276.800 113.045,276.537 112.674,276.215 112.550 C 275.894 112.427,275.517 111.970,275.379 111.534 C 275.241 111.099,274.370 109.810,273.443 108.671 C 271.041 105.718,271.063 105.822,271.004 96.800 C 270.949 88.359,270.198 82.175,269.066 80.828 C 268.775 80.482,268.320 79.435,268.053 78.500 C 267.786 77.565,267.424 76.800,267.248 76.800 C 267.072 76.800,266.706 76.313,266.435 75.717 C 266.164 75.122,265.595 74.392,265.171 74.095 C 264.747 73.798,264.400 73.199,264.400 72.765 C 264.400 72.330,264.122 71.868,263.781 71.737 C 263.441 71.607,262.494 70.847,261.677 70.050 C 260.861 69.252,259.474 68.078,258.596 67.439 C 257.718 66.801,256.588 65.856,256.084 65.339 C 255.580 64.823,254.749 64.400,254.238 64.400 C 253.726 64.400,252.879 64.063,252.354 63.651 C 251.829 63.239,250.590 62.772,249.600 62.613 C 248.610 62.453,247.401 62.070,246.914 61.762 C 246.426 61.452,245.025 61.200,243.794 61.200 C 241.223 61.200,239.906 60.626,238.154 58.741 C 237.469 58.003,235.894 56.452,234.654 55.293 C 233.414 54.134,232.400 53.113,232.400 53.024 C 232.400 52.754,229.958 50.401,229.669 50.392 C 229.521 50.388,228.599 49.578,227.620 48.592 C 225.539 46.496,224.682 46.353,224.005 47.989 " stroke="none" fill="#faf8f8" fill-rule="evenodd"></path><path id="path1" d="M0.000 200.000 L 0.000 400.000 200.000 400.000 L 400.000 400.000 400.000 200.000 L 400.000 0.000 200.000 0.000 L 0.000 0.000 0.000 200.000 M226.267 45.600 C 226.546 45.600,227.886 46.671,229.245 47.981 C 230.604 49.290,231.915 50.325,232.158 50.281 C 232.401 50.236,232.561 50.408,232.513 50.662 C 232.465 50.916,232.690 51.343,233.013 51.611 C 233.336 51.879,233.600 51.964,233.600 51.800 C 233.600 51.636,233.868 51.724,234.196 51.996 C 234.523 52.268,234.708 52.626,234.606 52.790 C 234.504 52.955,235.046 53.659,235.810 54.355 C 236.575 55.050,237.200 55.795,237.200 56.010 C 237.200 56.224,237.425 56.404,237.700 56.409 C 237.975 56.414,238.647 56.761,239.193 57.181 C 239.809 57.654,240.350 57.808,240.617 57.586 C 240.859 57.385,241.562 57.374,242.224 57.562 L 243.400 57.896 242.281 58.196 C 240.100 58.781,241.961 59.848,245.708 60.161 C 247.515 60.312,249.355 60.662,249.797 60.940 C 250.642 61.472,253.778 62.528,254.800 62.625 C 255.130 62.656,255.636 62.708,255.924 62.741 C 256.212 62.773,256.341 62.972,256.211 63.182 C 256.081 63.393,256.446 63.874,257.021 64.251 C 257.844 64.790,258.136 64.828,258.383 64.427 C 258.627 64.032,258.893 64.021,259.560 64.379 C 260.034 64.633,260.315 65.013,260.185 65.225 C 260.054 65.437,260.769 66.432,261.773 67.437 C 262.778 68.441,263.600 69.069,263.600 68.832 C 263.600 67.542,266.471 70.695,266.639 72.169 C 266.691 72.626,266.748 73.115,266.767 73.256 C 266.785 73.396,267.115 73.486,267.500 73.456 C 268.007 73.415,268.166 73.647,268.075 74.297 C 267.947 75.222,268.988 77.096,269.508 76.876 C 269.668 76.808,269.968 77.528,270.173 78.476 C 270.379 79.424,270.829 80.419,271.173 80.687 C 271.593 81.013,271.635 81.179,271.300 81.187 C 270.555 81.206,270.711 82.464,271.600 83.600 C 272.308 84.505,272.390 85.339,272.463 92.400 C 272.517 97.541,272.622 99.177,272.772 97.200 C 273.060 93.405,273.588 95.501,273.596 100.469 C 273.599 103.180,273.720 103.682,274.630 104.762 C 275.212 105.454,275.614 106.380,275.555 106.893 C 275.407 108.178,275.974 109.663,276.491 109.344 C 276.758 109.179,276.807 109.264,276.619 109.569 C 276.439 109.861,276.658 110.381,277.157 110.846 C 277.621 111.278,278.000 111.905,278.000 112.239 C 278.000 112.574,278.180 112.736,278.400 112.600 C 278.620 112.464,278.800 112.723,278.800 113.176 C 278.800 113.717,279.059 114.000,279.555 114.000 C 280.455 114.000,281.008 116.167,280.476 117.606 C 280.262 118.184,280.327 119.055,280.651 119.962 C 281.391 122.032,281.374 132.894,280.627 135.375 C 280.313 136.422,280.163 137.560,280.295 137.904 C 280.454 138.318,280.377 138.433,280.068 138.242 C 279.752 138.046,279.600 138.330,279.600 139.117 C 279.600 139.757,279.404 140.892,279.165 141.640 C 278.925 142.388,278.646 143.265,278.543 143.589 C 278.379 144.107,278.312 144.107,277.985 143.589 C 277.716 143.164,277.611 143.144,277.606 143.517 C 277.603 143.801,276.874 145.016,275.987 146.217 C 275.081 147.444,274.599 148.406,274.887 148.413 C 275.197 148.420,275.101 148.652,274.644 148.997 C 273.651 149.749,273.720 146.304,273.659 198.059 C 273.610 240.223,273.491 246.231,272.758 243.600 C 272.557 242.876,272.469 243.185,272.440 244.724 C 272.418 245.906,272.561 246.748,272.764 246.623 C 272.963 246.499,273.582 246.938,274.138 247.599 C 274.694 248.260,275.509 248.800,275.951 248.800 C 276.392 248.800,276.869 248.989,277.012 249.219 C 277.180 249.492,277.435 249.503,277.737 249.252 C 278.043 248.998,278.451 249.048,278.930 249.398 C 279.535 249.841,279.556 249.953,279.052 250.065 C 278.655 250.154,279.022 250.606,280.124 251.384 C 281.046 252.035,281.553 252.260,281.251 251.884 C 280.767 251.281,280.803 251.200,281.551 251.200 C 282.018 251.200,282.400 251.450,282.400 251.757 C 282.400 252.063,282.850 252.426,283.400 252.564 C 283.950 252.702,284.400 253.052,284.400 253.341 C 284.400 254.192,283.918 254.429,283.271 253.897 C 282.747 253.464,282.730 253.515,283.144 254.291 C 283.650 255.242,284.950 256.116,285.315 255.752 C 285.700 255.366,286.358 257.022,286.030 257.552 C 285.857 257.832,285.951 258.722,286.240 259.530 C 286.529 260.339,286.773 261.315,286.782 261.700 C 286.792 262.085,286.980 262.400,287.200 262.400 C 287.461 262.400,287.600 268.675,287.600 280.424 C 287.600 292.337,287.464 298.363,287.200 298.200 C 286.949 298.045,286.800 298.937,286.800 300.600 C 286.800 302.263,286.949 303.155,287.200 303.000 C 287.447 302.847,287.600 303.537,287.600 304.800 C 287.600 306.063,287.447 306.753,287.200 306.600 C 286.821 306.366,286.579 308.594,286.684 311.348 C 286.720 312.268,286.497 312.584,285.564 312.936 C 284.924 313.178,284.400 313.544,284.400 313.750 C 284.400 314.375,282.393 316.800,281.876 316.800 C 281.610 316.800,281.163 317.167,280.884 317.615 C 280.604 318.063,280.070 318.378,279.697 318.315 C 279.290 318.246,279.015 318.464,279.009 318.860 C 278.997 319.700,276.971 322.000,276.244 322.000 C 275.941 322.000,275.599 322.360,275.484 322.800 C 275.364 323.260,274.938 323.600,274.484 323.600 C 274.017 323.600,273.603 323.944,273.474 324.440 C 273.353 324.902,273.062 325.162,272.828 325.017 C 272.593 324.872,272.001 325.034,271.512 325.377 C 271.022 325.720,270.842 326.000,271.111 326.000 C 271.380 326.000,271.600 326.180,271.600 326.400 C 271.600 326.620,271.324 326.800,270.987 326.800 C 270.650 326.800,270.225 327.204,270.042 327.698 C 269.859 328.192,269.371 328.597,268.955 328.598 C 268.467 328.599,268.200 328.883,268.200 329.400 C 268.200 329.933,267.889 330.244,267.269 330.332 C 266.683 330.415,266.415 330.663,266.546 331.003 C 266.768 331.582,265.882 332.549,265.489 332.156 C 265.359 332.025,264.840 332.207,264.337 332.559 C 263.737 332.979,263.625 333.202,264.011 333.206 C 264.335 333.209,264.150 333.439,263.601 333.717 C 263.046 333.998,262.601 334.573,262.601 335.010 C 262.600 335.444,262.375 335.821,262.100 335.849 C 261.825 335.877,261.445 335.923,261.255 335.950 C 260.711 336.029,258.794 338.066,258.980 338.367 C 259.072 338.516,258.982 338.900,258.780 339.219 C 258.522 339.627,258.410 339.649,258.406 339.294 C 258.402 338.971,257.860 339.144,256.900 339.776 L 255.400 340.763 232.974 340.830 C 208.751 340.903,208.255 340.862,207.708 338.770 C 207.599 338.352,207.362 338.100,207.183 338.210 C 207.004 338.321,206.740 338.041,206.596 337.589 C 206.276 336.580,206.740 333.600,207.217 333.600 C 207.408 333.600,207.686 332.925,207.835 332.100 C 207.983 331.275,208.291 330.242,208.517 329.806 C 208.744 329.369,208.890 328.029,208.841 326.829 C 208.776 325.232,208.990 324.186,209.639 322.924 C 210.541 321.171,211.200 320.703,211.200 321.816 C 211.200 323.606,213.698 319.701,213.760 317.814 C 213.793 316.825,213.958 316.616,214.653 316.687 C 215.642 316.788,219.552 312.857,219.279 312.038 C 219.180 311.739,219.414 311.567,219.856 311.613 C 221.385 311.775,221.794 311.634,221.280 311.120 C 221.016 310.856,220.800 310.514,220.800 310.359 C 220.800 309.998,223.202 309.154,223.574 309.384 C 224.010 309.654,226.888 308.682,228.002 307.889 C 228.776 307.337,228.879 307.102,228.460 306.841 C 227.777 306.414,230.388 305.867,231.348 306.236 C 231.709 306.374,232.783 306.257,233.735 305.976 L 235.466 305.465 235.109 303.502 C 234.845 302.049,234.887 301.378,235.268 300.918 C 235.703 300.393,235.590 300.136,234.534 299.249 C 233.650 298.506,233.219 297.733,233.058 296.600 C 232.933 295.720,232.811 294.910,232.787 294.800 C 232.763 294.690,232.610 294.940,232.447 295.355 C 232.188 296.015,231.990 295.893,230.883 294.387 C 230.110 293.336,229.749 292.495,229.957 292.232 C 230.165 291.968,229.921 291.410,229.330 290.800 C 228.664 290.112,228.444 290.018,228.624 290.500 C 228.801 290.975,228.690 291.200,228.276 291.200 C 227.057 291.200,226.400 290.694,226.400 289.757 C 226.400 288.621,226.707 288.547,227.478 289.500 C 228.001 290.146,228.014 290.139,227.648 289.400 C 227.187 288.469,224.000 286.562,224.000 287.217 C 224.000 287.460,223.685 287.598,223.300 287.524 C 222.915 287.450,222.600 287.122,222.600 286.795 C 222.600 286.457,222.168 286.152,221.600 286.088 C 219.662 285.871,218.770 285.573,218.990 285.216 C 219.373 284.596,218.346 284.266,215.930 284.233 C 214.649 284.215,213.616 284.040,213.635 283.845 C 213.739 282.740,210.691 282.711,209.806 283.808 C 209.583 284.085,208.696 284.435,207.835 284.586 C 206.671 284.790,205.704 285.422,204.067 287.045 C 202.624 288.476,201.766 289.069,201.577 288.763 C 201.224 288.192,200.552 288.569,199.962 289.671 C 199.642 290.268,199.642 290.421,199.960 290.225 C 200.464 289.913,200.485 290.074,200.400 293.596 C 200.366 295.023,200.144 296.311,199.906 296.458 C 199.631 296.628,199.455 299.018,199.419 303.062 C 199.385 306.864,199.185 309.713,198.919 310.183 C 198.567 310.804,198.612 311.072,199.137 311.476 C 199.886 312.051,199.183 312.840,198.000 312.752 C 196.829 312.666,196.569 312.836,193.702 315.577 C 191.723 317.469,190.881 318.545,191.045 318.973 C 191.179 319.321,191.078 319.600,190.819 319.600 C 190.563 319.600,190.484 319.388,190.644 319.130 C 191.316 318.041,185.749 323.027,184.746 324.411 C 184.143 325.244,183.180 326.258,182.608 326.663 C 182.036 327.068,178.740 330.209,175.284 333.642 C 166.707 342.161,170.404 341.255,144.134 341.280 L 121.943 341.301 120.536 339.951 L 119.129 338.600 119.343 334.000 C 119.461 331.470,119.567 329.344,119.579 329.276 C 119.590 329.208,119.763 329.254,119.962 329.377 C 120.479 329.696,121.536 326.353,121.210 325.427 C 120.773 324.184,121.235 322.767,122.196 322.401 C 122.841 322.156,123.160 321.612,123.349 320.431 C 123.492 319.534,123.757 318.800,123.937 318.800 C 124.117 318.800,124.486 318.395,124.757 317.900 C 125.443 316.646,127.220 315.385,127.549 315.918 C 127.885 316.462,131.891 312.673,131.673 312.018 C 131.579 311.736,131.821 311.577,132.256 311.637 C 133.288 311.779,135.973 310.422,137.291 309.091 C 137.896 308.481,138.947 307.871,139.628 307.734 C 140.383 307.583,140.679 307.373,140.390 307.194 C 139.534 306.665,140.822 306.255,143.475 306.212 C 145.580 306.178,148.343 305.211,146.380 305.196 C 146.052 305.193,146.344 304.762,147.053 304.203 C 148.268 303.245,148.294 303.159,147.911 301.364 C 147.585 299.833,147.628 299.401,148.158 298.870 C 148.747 298.281,148.807 298.293,148.885 299.014 C 148.932 299.446,149.093 293.590,149.242 286.000 C 149.468 274.539,150.017 266.223,150.377 268.800 C 150.486 269.583,151.530 266.871,151.570 265.700 C 151.586 265.205,151.805 264.800,152.056 264.800 C 152.751 264.800,153.572 263.519,153.593 262.400 C 153.608 261.606,153.692 261.523,154.000 262.000 C 154.302 262.468,154.389 262.480,154.394 262.054 C 154.397 261.753,155.035 260.642,155.811 259.586 C 156.586 258.529,157.171 257.446,157.111 257.180 C 157.050 256.914,157.373 256.662,157.830 256.620 C 158.286 256.578,159.096 256.225,159.630 255.835 C 160.574 255.145,160.576 255.133,159.700 255.390 C 158.523 255.735,158.563 255.538,159.981 254.020 C 160.703 253.248,161.708 252.667,162.565 252.528 C 163.336 252.403,163.929 252.109,163.883 251.874 C 163.838 251.639,164.160 251.386,164.600 251.310 C 166.370 251.006,169.836 249.863,170.400 249.397 C 170.970 248.927,171.548 248.655,175.465 247.009 C 176.381 246.625,177.301 246.415,177.510 246.545 C 177.735 246.683,177.954 245.353,178.046 243.290 C 178.281 238.029,177.841 212.783,177.517 212.899 C 177.362 212.954,176.986 212.660,176.682 212.244 C 176.185 211.564,175.403 211.469,168.964 211.301 C 156.174 210.968,141.076 210.992,137.788 211.350 C 134.917 211.663,134.378 211.610,132.710 210.850 C 131.684 210.383,130.226 210.000,129.471 210.000 C 128.716 210.000,127.872 209.728,127.596 209.395 C 127.227 208.951,126.955 208.905,126.573 209.222 C 125.754 209.902,123.378 209.535,123.506 208.748 C 123.623 208.033,122.549 207.614,120.576 207.605 C 119.058 207.599,118.274 206.999,117.436 205.200 C 117.077 204.430,116.067 203.294,115.193 202.675 C 114.318 202.056,113.498 201.133,113.370 200.624 C 113.219 200.021,112.696 199.572,111.869 199.336 C 110.952 199.074,110.562 198.700,110.464 197.987 C 110.388 197.444,110.073 196.715,109.763 196.368 C 109.452 196.020,109.318 195.616,109.463 195.470 C 109.609 195.324,109.458 194.889,109.128 194.502 C 108.798 194.116,108.123 192.777,107.628 191.526 C 107.000 189.940,106.558 189.318,106.164 189.469 C 105.805 189.607,105.596 189.416,105.589 188.943 C 105.584 188.534,105.477 185.657,105.352 182.549 C 105.105 176.407,105.359 175.680,107.789 175.560 C 108.474 175.526,108.445 175.470,107.600 175.200 L 106.600 174.880 107.600 174.809 C 108.150 174.771,120.840 174.761,135.800 174.787 C 168.517 174.845,172.552 174.658,171.242 173.142 C 170.984 172.844,170.528 172.246,170.228 171.813 C 169.874 171.301,169.214 171.022,168.342 171.013 C 167.144 171.001,167.002 170.882,167.016 169.900 C 167.027 169.151,166.827 168.800,166.391 168.800 C 165.579 168.800,163.433 166.593,163.749 166.083 C 164.094 165.524,162.067 163.489,161.414 163.739 C 160.804 163.974,159.812 163.027,160.130 162.513 C 160.240 162.336,160.075 161.844,159.765 161.419 C 159.454 160.995,159.200 160.872,159.200 161.147 C 159.200 161.422,159.017 161.534,158.793 161.396 C 158.570 161.258,158.478 160.998,158.589 160.818 C 158.700 160.638,158.523 160.268,158.196 159.996 C 157.722 159.604,157.600 159.604,157.600 160.000 C 157.600 160.944,156.508 159.642,156.260 158.401 C 156.085 157.526,155.652 157.065,154.583 156.619 C 153.791 156.288,153.244 155.852,153.368 155.651 C 153.492 155.450,152.830 154.916,151.897 154.463 C 150.964 154.010,150.419 153.631,150.687 153.620 C 150.956 153.609,151.073 153.336,150.950 153.013 C 150.826 152.690,150.606 152.465,150.462 152.513 C 150.318 152.561,150.159 152.461,150.108 152.292 C 149.942 151.732,149.005 150.881,148.734 151.044 C 148.588 151.133,148.099 150.608,147.648 149.877 C 147.197 149.147,146.388 148.315,145.851 148.027 C 145.314 147.740,144.556 146.914,144.168 146.192 C 143.702 145.326,143.257 144.957,142.865 145.107 C 142.478 145.256,142.370 145.172,142.558 144.868 C 142.717 144.611,142.669 144.400,142.451 144.400 C 142.232 144.400,141.943 144.052,141.808 143.626 C 141.673 143.200,141.300 142.795,140.978 142.726 C 140.170 142.552,127.600 130.000,127.600 129.366 C 127.600 129.085,127.281 128.753,126.891 128.629 C 126.502 128.505,123.332 125.603,119.848 122.178 C 116.365 118.754,113.415 116.052,113.294 116.173 C 113.023 116.443,112.000 115.635,112.000 115.151 C 112.000 114.958,112.315 114.786,112.700 114.768 C 113.244 114.744,113.266 114.692,112.800 114.537 C 112.470 114.427,111.930 114.237,111.600 114.114 C 111.270 113.992,110.550 113.871,110.000 113.846 C 109.210 113.810,109.008 113.597,109.039 112.833 C 109.075 111.943,108.409 110.895,106.758 109.243 C 105.423 107.907,104.712 106.406,104.955 105.436 C 105.089 104.903,105.033 104.406,104.830 104.333 C 104.627 104.260,104.729 103.570,105.057 102.800 C 105.597 101.534,105.703 101.466,106.165 102.092 C 106.640 102.735,106.742 102.714,107.608 101.792 C 108.478 100.866,108.488 100.798,107.770 100.776 C 107.034 100.754,107.032 100.732,107.726 100.276 C 108.125 100.014,109.023 99.295,109.723 98.678 C 110.690 97.824,111.329 97.582,112.397 97.667 C 113.572 97.761,113.779 97.659,113.671 97.040 C 113.562 96.417,113.745 96.331,114.840 96.491 C 116.300 96.705,119.505 95.636,118.768 95.180 C 117.551 94.428,121.468 94.071,129.200 94.228 C 133.710 94.320,138.210 94.395,139.200 94.395 C 141.721 94.394,142.913 94.728,142.668 95.366 C 142.549 95.676,142.910 96.103,143.532 96.386 C 144.119 96.655,145.140 97.160,145.800 97.509 C 146.460 97.858,147.920 98.615,149.044 99.191 C 150.168 99.767,151.554 100.741,152.124 101.355 C 152.743 102.023,153.353 102.353,153.641 102.174 C 153.936 101.992,154.020 102.045,153.855 102.311 C 153.533 102.831,154.296 103.365,155.392 103.385 C 155.865 103.394,156.243 103.723,156.327 104.200 C 156.404 104.640,156.757 105.225,157.110 105.500 C 157.466 105.776,157.546 106.000,157.289 106.000 C 156.592 106.000,157.142 107.070,158.191 107.758 C 159.055 108.323,159.102 108.312,158.911 107.582 C 158.671 106.662,159.081 106.577,159.966 107.361 C 163.106 110.140,163.673 110.830,163.246 111.344 C 162.726 111.971,164.009 113.411,164.632 112.901 C 164.835 112.735,164.880 112.750,164.733 112.933 C 164.395 113.357,165.677 114.740,166.162 114.475 C 166.361 114.366,166.408 114.464,166.266 114.693 C 165.949 115.207,167.009 116.134,167.998 116.207 C 169.483 116.317,170.816 117.562,170.725 118.754 C 170.659 119.623,170.997 120.196,172.192 121.241 C 173.046 121.989,173.938 122.834,174.173 123.119 C 175.323 124.517,176.209 125.191,176.776 125.100 C 177.159 125.039,177.401 125.296,177.402 125.767 C 177.403 126.189,177.673 126.621,178.002 126.726 C 178.331 126.831,178.750 127.171,178.932 127.481 C 179.115 127.791,179.711 128.214,180.256 128.421 C 180.802 128.629,181.149 128.958,181.028 129.154 C 180.774 129.565,181.762 130.504,182.097 130.170 C 182.219 130.047,182.439 130.139,182.584 130.373 C 182.729 130.608,182.625 130.800,182.354 130.800 C 182.061 130.800,182.174 131.103,182.630 131.542 C 183.054 131.951,183.580 132.218,183.800 132.138 C 184.021 132.057,184.449 132.551,184.752 133.236 C 185.157 134.152,185.391 134.339,185.635 133.943 C 185.868 133.566,186.926 133.405,189.186 133.403 C 192.930 133.400,192.832 133.512,192.916 129.089 C 192.982 125.606,192.251 124.400,190.074 124.400 C 189.128 124.400,188.669 124.191,188.536 123.700 C 188.432 123.315,187.718 122.550,186.950 122.000 C 186.181 121.450,185.293 120.762,184.976 120.471 C 184.629 120.153,184.400 120.113,184.400 120.371 C 184.400 120.607,184.220 120.800,184.000 120.800 C 183.780 120.800,183.600 120.436,183.600 119.990 C 183.600 119.489,183.209 119.032,182.576 118.791 C 182.013 118.577,181.647 118.248,181.763 118.060 C 181.879 117.872,181.716 117.376,181.400 116.959 C 181.084 116.542,180.820 115.944,180.813 115.631 C 180.806 115.319,180.554 114.779,180.254 114.431 C 179.552 113.619,178.000 108.432,178.000 106.897 C 178.000 105.226,179.576 103.057,181.015 102.749 C 182.130 102.510,182.141 102.489,181.200 102.407 L 180.200 102.320 181.195 102.043 C 181.742 101.891,182.732 101.854,183.395 101.961 L 184.600 102.156 183.400 102.431 C 182.740 102.582,186.160 102.712,191.000 102.721 C 195.840 102.730,199.574 102.646,199.298 102.534 C 198.573 102.242,199.102 101.600,200.066 101.600 C 200.630 101.600,200.814 101.787,200.655 102.200 C 200.470 102.684,200.813 102.800,202.436 102.800 C 203.542 102.800,204.352 102.646,204.235 102.457 C 204.119 102.268,204.185 101.548,204.384 100.857 C 204.713 99.708,204.665 99.600,203.827 99.600 C 202.876 99.600,200.282 97.777,199.150 96.313 C 198.524 95.503,198.273 95.481,192.103 95.711 C 186.700 95.912,185.567 95.852,184.819 95.328 C 184.167 94.871,183.815 94.825,183.486 95.154 C 182.982 95.658,177.739 95.772,177.533 95.284 C 177.357 94.866,173.672 92.987,172.400 92.667 C 171.850 92.528,170.725 91.770,169.900 90.982 L 168.400 89.550 168.388 90.675 C 168.377 91.640,168.317 91.699,167.964 91.093 C 167.737 90.704,167.603 90.074,167.666 89.693 C 167.827 88.717,167.282 87.994,166.587 88.260 C 166.264 88.384,166.000 88.276,166.000 88.019 C 166.000 87.763,166.199 87.676,166.443 87.826 C 166.747 88.015,166.793 87.803,166.590 87.150 C 166.428 86.628,166.049 86.056,165.748 85.880 C 165.446 85.704,165.197 85.254,165.194 84.880 C 165.189 84.346,165.114 84.316,164.844 84.743 C 164.579 85.160,164.430 85.173,164.199 84.798 C 164.033 84.530,164.131 84.166,164.416 83.990 C 164.835 83.731,164.811 83.336,164.291 81.935 C 163.674 80.274,163.472 78.709,163.559 76.281 C 163.591 75.419,163.899 75.031,164.900 74.596 L 166.200 74.031 165.000 73.963 C 164.340 73.926,165.225 73.733,166.966 73.534 C 169.086 73.292,170.270 73.310,170.546 73.586 C 171.219 74.259,184.028 74.105,184.941 73.413 C 185.447 73.030,185.971 72.961,186.587 73.195 C 188.185 73.802,190.905 73.225,191.938 72.059 C 192.589 71.323,192.937 71.159,193.077 71.520 C 193.333 72.176,194.380 70.248,195.619 66.842 C 196.269 65.056,196.623 64.495,196.794 64.983 C 197.039 65.680,198.974 64.232,199.014 63.321 C 199.096 61.456,200.598 60.409,203.114 60.461 C 204.276 60.486,205.341 60.392,205.480 60.253 C 205.620 60.114,205.298 59.994,204.767 59.987 C 203.817 59.975,203.814 59.964,204.600 59.361 C 205.380 58.763,205.862 58.771,209.133 59.431 C 209.948 59.596,210.833 59.504,211.412 59.193 C 212.098 58.826,212.669 58.798,213.480 59.089 C 215.748 59.905,219.310 59.521,219.871 58.400 C 220.918 56.307,221.349 55.896,221.665 56.694 C 221.818 57.082,221.956 55.183,221.972 52.474 C 221.987 49.764,222.185 47.203,222.410 46.781 C 222.957 45.760,224.888 44.751,225.380 45.230 C 225.589 45.434,225.988 45.600,226.267 45.600 M221.483 50.095 C 221.387 50.593,221.305 50.280,221.301 49.400 C 221.296 48.520,221.375 48.113,221.475 48.495 C 221.575 48.878,221.579 49.598,221.483 50.095 M133.400 93.200 C 134.151 93.391,132.879 93.502,130.000 93.496 C 126.900 93.490,125.922 93.393,127.000 93.200 C 129.114 92.821,131.912 92.821,133.400 93.200 M282.366 129.000 C 282.378 129.880,282.213 130.870,282.000 131.200 C 281.732 131.615,281.619 130.876,281.634 128.800 C 281.657 125.663,282.322 125.845,282.366 129.000 M117.720 175.498 C 119.655 175.572,122.715 175.571,124.520 175.497 C 126.324 175.423,124.740 175.363,121.000 175.364 C 117.260 175.364,115.784 175.425,117.720 175.498 M148.794 278.700 C 148.790 280.333,148.675 280.826,148.400 280.400 C 147.888 279.608,147.888 276.400,148.400 276.400 C 148.621 276.400,148.797 277.429,148.794 278.700 M199.701 293.000 C 199.705 293.880,199.787 294.193,199.883 293.695 C 199.979 293.198,199.975 292.478,199.875 292.095 C 199.775 291.713,199.696 292.120,199.701 293.000 M195.372 315.555 C 195.493 315.750,195.339 316.118,195.031 316.374 C 194.408 316.892,193.769 316.297,194.200 315.600 C 194.506 315.105,195.080 315.083,195.372 315.555 M190.000 320.733 C 190.000 321.254,189.524 321.601,189.138 321.361 C 188.724 321.106,189.081 320.400,189.624 320.400 C 189.831 320.400,190.000 320.550,190.000 320.733 " stroke="none" fill="#d30c33" fill-rule="evenodd"></path><path id="path2" d="M223.910 45.438 C 222.235 46.325,222.000 47.173,222.000 52.324 C 222.000 54.951,221.894 57.631,221.764 58.280 L 221.528 59.460 215.069 59.529 C 208.339 59.600,204.066 60.162,203.737 61.020 C 203.631 61.296,202.918 61.639,202.151 61.783 C 201.385 61.927,200.658 62.304,200.536 62.622 C 200.414 62.940,200.116 63.200,199.874 63.200 C 198.308 63.200,193.200 70.842,193.200 73.183 C 193.200 74.114,194.144 74.068,176.330 74.001 C 163.413 73.952,163.358 73.972,163.570 78.600 C 163.646 80.262,165.210 85.313,165.799 85.802 C 166.066 86.022,166.401 86.574,166.545 87.026 C 166.931 88.244,171.231 92.394,172.394 92.673 C 172.947 92.806,174.209 93.339,175.197 93.857 C 176.954 94.779,177.231 94.800,187.797 94.809 C 197.903 94.817,198.665 94.868,199.600 95.600 C 200.150 96.030,200.894 96.386,201.253 96.391 C 201.613 96.396,202.557 97.120,203.352 98.000 C 204.147 98.880,204.945 99.600,205.125 99.600 C 205.754 99.600,206.849 102.407,206.300 102.612 C 206.025 102.714,199.957 102.843,192.816 102.899 L 179.832 103.000 178.916 104.359 C 177.603 106.307,178.397 112.284,180.254 114.431 C 180.554 114.779,180.800 115.360,180.800 115.724 C 180.800 117.216,187.265 122.720,189.645 123.255 C 193.870 124.204,194.622 133.872,190.531 134.639 C 187.120 135.279,185.969 134.776,182.100 130.955 C 180.120 129.000,177.623 126.551,176.550 125.514 C 175.478 124.476,174.398 123.396,174.152 123.114 C 173.906 122.831,172.736 121.685,171.552 120.566 C 170.368 119.448,168.307 117.378,166.970 115.966 C 165.634 114.555,163.114 112.099,161.370 110.509 C 157.538 107.015,157.707 107.180,154.880 104.184 C 152.528 101.691,150.316 99.899,148.210 98.778 C 142.562 95.773,142.172 95.600,141.046 95.600 C 140.480 95.600,139.248 95.285,138.308 94.900 C 135.804 93.874,123.965 93.872,122.200 94.898 C 121.540 95.281,120.460 95.600,119.800 95.606 C 119.140 95.613,117.815 95.974,116.856 96.409 C 115.897 96.844,114.864 97.200,114.560 97.200 C 114.256 97.200,113.782 97.560,113.507 98.000 C 113.232 98.440,112.699 98.800,112.323 98.800 C 111.233 98.800,109.600 99.678,109.600 100.264 C 109.600 100.559,109.365 100.800,109.078 100.800 C 108.431 100.800,106.000 103.263,106.000 103.919 C 106.000 104.184,105.823 104.400,105.608 104.400 C 103.524 104.400,105.532 108.548,109.165 111.750 C 109.695 112.217,110.493 113.005,110.937 113.500 C 111.381 113.995,112.072 114.400,112.472 114.400 C 112.875 114.400,113.200 114.688,113.200 115.045 C 113.200 115.662,124.680 127.192,125.300 127.197 C 125.465 127.199,125.600 127.450,125.600 127.757 C 125.600 128.063,126.050 128.426,126.600 128.564 C 127.231 128.723,127.600 129.098,127.600 129.581 C 127.600 130.002,127.915 130.473,128.300 130.628 C 128.685 130.783,131.430 133.475,134.400 136.610 C 137.370 139.745,140.199 142.438,140.686 142.595 C 141.173 142.751,141.677 143.212,141.806 143.619 C 141.935 144.026,142.383 144.467,142.800 144.600 C 143.217 144.733,143.670 145.192,143.806 145.620 C 143.943 146.049,144.312 146.400,144.627 146.400 C 144.942 146.400,145.200 146.593,145.200 146.830 C 145.200 147.349,151.506 153.600,152.030 153.600 C 152.234 153.600,152.400 153.794,152.400 154.031 C 152.400 154.595,154.612 156.800,155.178 156.800 C 155.419 156.800,155.822 157.250,156.073 157.800 C 156.323 158.350,156.660 158.800,156.820 158.800 C 157.213 158.800,170.442 172.018,171.200 173.168 C 171.530 173.668,172.205 174.236,172.700 174.429 C 175.447 175.501,172.699 175.600,140.289 175.600 C 110.787 175.600,106.876 175.671,106.089 176.223 C 103.929 177.736,106.076 190.838,109.073 194.431 C 109.363 194.779,109.600 195.339,109.600 195.677 C 109.600 196.015,110.019 196.720,110.532 197.245 C 111.044 197.770,111.579 198.515,111.719 198.900 C 111.860 199.285,112.231 199.600,112.544 199.600 C 112.857 199.600,113.220 200.027,113.351 200.548 C 113.482 201.070,114.177 201.947,114.895 202.497 C 115.613 203.048,116.908 204.149,117.773 204.945 C 118.639 205.740,119.931 206.501,120.646 206.635 C 121.360 206.769,122.036 207.116,122.147 207.406 C 122.258 207.696,123.396 208.147,124.675 208.408 C 125.954 208.669,127.334 209.179,127.742 209.542 C 128.408 210.133,130.997 210.220,153.142 210.400 L 177.800 210.600 177.844 211.800 C 178.054 217.509,178.040 247.611,177.827 247.956 C 177.667 248.216,176.340 248.400,174.630 248.400 C 172.345 248.400,171.493 248.569,170.722 249.175 C 170.180 249.602,169.211 250.077,168.568 250.232 C 167.232 250.554,164.118 252.240,163.141 253.172 C 162.778 253.517,161.363 254.601,159.995 255.579 C 157.909 257.072,154.400 260.976,154.400 261.804 C 154.400 261.935,153.950 262.705,153.400 263.514 C 152.850 264.323,152.400 265.285,152.400 265.650 C 152.400 266.015,152.148 266.411,151.839 266.530 C 151.531 266.648,151.075 267.690,150.828 268.845 C 150.580 270.000,150.161 271.206,149.897 271.524 C 149.341 272.194,149.230 275.132,149.096 292.793 L 149.000 305.387 147.600 305.677 C 142.121 306.812,136.400 309.038,136.400 310.034 C 136.400 310.235,136.161 310.400,135.869 310.400 C 134.556 310.400,127.600 315.894,127.600 316.931 C 127.600 317.130,126.908 317.947,126.063 318.746 C 125.218 319.546,124.223 320.830,123.852 321.600 C 123.481 322.370,123.024 323.270,122.836 323.600 C 121.729 325.545,120.688 328.275,120.500 329.727 C 120.381 330.647,120.039 331.755,119.742 332.189 C 118.547 333.930,119.032 338.480,120.571 339.972 L 121.943 341.301 144.134 341.280 C 170.396 341.255,166.676 342.165,175.357 333.641 C 180.793 328.304,182.607 326.489,186.101 322.885 C 188.119 320.802,196.643 312.800,196.842 312.800 C 198.326 312.800,199.401 309.333,199.435 304.434 C 199.540 289.638,199.508 290.055,200.600 288.964 C 201.150 288.414,201.600 287.798,201.600 287.596 C 201.600 287.394,201.960 287.035,202.400 286.800 C 202.840 286.565,203.200 286.122,203.200 285.818 C 203.200 285.513,203.748 285.143,204.418 284.996 C 205.087 284.849,205.962 284.378,206.362 283.949 C 207.341 282.898,215.017 282.726,216.535 283.721 C 217.056 284.062,218.184 284.465,219.042 284.616 C 219.899 284.766,221.047 285.171,221.594 285.516 C 222.141 285.860,223.555 286.650,224.736 287.272 C 227.070 288.500,231.902 293.132,232.691 294.900 C 232.962 295.505,233.351 296.000,233.556 296.000 C 233.762 296.000,234.050 296.710,234.196 297.577 C 234.343 298.444,234.709 299.358,235.009 299.608 C 235.941 300.381,236.649 304.332,235.968 304.956 C 235.386 305.488,230.411 307.200,229.446 307.200 C 229.150 307.200,228.479 307.537,227.954 307.948 C 227.429 308.359,226.434 308.819,225.741 308.971 C 225.049 309.122,224.166 309.595,223.779 310.023 C 223.393 310.450,222.759 310.800,222.371 310.800 C 221.984 310.800,221.607 310.958,221.533 311.152 C 221.460 311.345,220.845 311.840,220.168 312.252 C 218.698 313.144,214.198 318.103,213.318 319.800 C 212.976 320.460,212.445 321.270,212.138 321.600 C 210.822 323.015,209.665 325.232,209.396 326.855 C 209.236 327.815,208.823 329.140,208.478 329.800 C 208.031 330.655,207.843 332.199,207.825 335.173 L 207.800 339.345 209.120 340.121 C 210.689 341.043,254.467 341.221,256.165 340.312 C 257.049 339.839,260.066 337.077,262.140 334.843 C 262.833 334.096,264.840 332.073,266.600 330.346 C 268.360 328.620,269.980 327.018,270.200 326.787 C 270.420 326.555,271.123 325.879,271.763 325.283 C 272.403 324.687,276.003 321.140,279.763 317.400 L 286.600 310.600 286.709 286.076 C 286.814 262.383,286.657 258.400,285.616 258.400 C 285.422 258.400,285.143 257.852,284.996 257.183 C 284.849 256.513,284.340 255.545,283.864 255.032 C 283.389 254.519,282.610 253.663,282.134 253.129 C 280.336 251.113,276.489 248.839,274.409 248.563 L 272.400 248.297 272.400 199.546 L 272.400 150.795 273.400 149.925 C 273.950 149.447,274.400 148.896,274.400 148.701 C 274.400 148.506,274.850 147.757,275.400 147.036 C 275.950 146.314,276.400 145.516,276.400 145.262 C 276.400 145.008,276.578 144.800,276.795 144.800 C 277.012 144.800,277.452 144.170,277.774 143.400 C 278.096 142.630,278.540 142.000,278.761 142.000 C 278.983 142.000,279.270 141.325,279.400 140.500 C 279.531 139.675,279.989 137.740,280.420 136.200 C 281.532 132.221,281.541 122.627,280.435 119.302 C 280.014 118.036,279.559 116.343,279.424 115.540 C 279.289 114.737,278.914 113.860,278.589 113.591 C 278.265 113.322,278.000 112.790,278.000 112.409 C 278.000 112.028,277.564 111.246,277.031 110.671 C 276.498 110.096,275.951 109.277,275.816 108.850 C 275.680 108.423,275.306 107.973,274.985 107.850 C 274.663 107.726,274.400 107.423,274.400 107.177 C 274.400 106.930,273.995 106.401,273.500 106.000 C 272.615 105.284,272.598 105.102,272.480 94.970 C 272.374 85.810,272.281 84.554,271.639 83.634 C 271.242 83.065,270.809 81.903,270.676 81.050 C 270.543 80.198,270.178 79.208,269.864 78.850 C 269.551 78.493,269.166 77.780,269.009 77.266 C 268.631 76.025,266.364 72.400,265.967 72.400 C 265.795 72.400,265.543 72.049,265.406 71.620 C 265.270 71.192,264.808 70.730,264.380 70.594 C 263.951 70.457,263.600 70.102,263.600 69.805 C 263.600 69.196,260.145 65.600,259.560 65.600 C 259.353 65.600,258.471 65.150,257.600 64.600 C 256.729 64.050,255.764 63.600,255.457 63.600 C 255.149 63.600,254.675 63.331,254.402 63.002 C 254.128 62.673,253.161 62.188,252.253 61.925 C 251.344 61.661,250.240 61.221,249.800 60.946 C 249.360 60.671,247.565 60.317,245.812 60.160 C 242.849 59.894,242.468 59.751,240.412 58.137 C 239.195 57.182,237.975 56.400,237.700 56.400 C 237.425 56.400,237.200 56.224,237.200 56.010 C 237.200 55.795,236.546 55.030,235.746 54.310 C 234.947 53.589,232.605 51.335,230.543 49.300 C 228.481 47.265,226.561 45.600,226.277 45.600 C 225.993 45.600,225.589 45.434,225.380 45.230 C 225.146 45.003,224.580 45.082,223.910 45.438 M230.479 50.062 C 239.995 59.338,241.350 60.365,244.101 60.386 C 246.009 60.400,251.896 62.209,253.658 63.322 C 254.176 63.649,255.050 64.050,255.600 64.212 C 256.150 64.375,257.176 64.979,257.879 65.554 C 258.582 66.129,259.842 67.129,260.679 67.775 C 262.413 69.114,265.973 73.214,266.952 75.000 C 267.314 75.660,267.773 76.470,267.972 76.800 C 269.098 78.664,270.376 81.671,270.622 83.034 C 270.777 83.896,271.106 84.853,271.352 85.162 C 271.651 85.536,271.813 88.802,271.839 94.962 C 271.879 104.206,272.067 106.153,272.974 106.705 C 278.051 109.795,282.862 127.886,280.263 134.113 C 279.967 134.821,279.597 136.088,279.439 136.930 C 279.281 137.771,278.529 139.751,277.768 141.330 C 276.274 144.425,276.005 144.893,274.192 147.541 C 271.327 151.724,271.586 146.446,271.618 200.066 C 271.649 252.176,271.512 248.800,273.592 248.800 C 276.100 248.800,284.071 255.189,284.607 257.630 C 284.738 258.231,285.196 259.408,285.623 260.246 C 286.366 261.703,286.400 262.794,286.400 285.430 L 286.400 309.090 285.191 310.612 C 283.834 312.319,259.456 336.654,257.062 338.691 L 255.524 340.000 233.062 339.960 C 206.302 339.913,208.634 340.271,208.481 336.188 C 208.311 331.628,209.459 327.789,212.845 321.583 C 216.370 315.125,224.974 308.953,233.200 306.982 C 238.008 305.831,238.023 305.811,236.839 302.152 C 234.339 294.428,228.279 287.371,222.000 284.873 C 221.450 284.654,220.010 284.062,218.800 283.559 C 216.919 282.775,215.874 282.639,211.592 282.621 L 206.585 282.600 204.388 284.058 C 203.063 284.937,201.557 286.436,200.595 287.832 L 199.000 290.148 198.800 299.785 C 198.616 308.658,198.536 309.501,197.800 310.412 C 197.360 310.956,193.040 315.301,188.200 320.067 C 183.360 324.834,177.240 330.863,174.600 333.467 C 171.960 336.070,169.270 338.605,168.622 339.100 L 167.445 340.000 144.351 340.000 L 121.258 340.000 120.429 338.946 C 119.453 337.705,119.373 335.943,120.189 333.632 C 120.512 332.715,120.896 331.027,121.042 329.882 C 121.187 328.737,121.460 327.604,121.648 327.365 C 121.836 327.126,122.712 325.526,123.595 323.810 C 124.478 322.094,125.875 319.916,126.700 318.971 C 127.525 318.026,128.586 316.740,129.058 316.113 C 129.851 315.062,135.626 310.800,136.259 310.800 C 136.412 310.800,136.821 310.549,137.169 310.243 C 138.025 309.488,142.384 307.841,145.800 306.982 C 149.974 305.932,149.642 307.373,149.610 290.446 C 149.587 278.287,149.691 275.214,150.179 273.679 C 150.508 272.646,151.035 270.990,151.351 270.000 C 153.692 262.656,157.018 258.320,163.751 253.834 C 165.923 252.386,168.443 251.001,169.351 250.755 C 170.258 250.510,171.843 249.969,172.874 249.554 C 173.905 249.139,175.435 248.797,176.274 248.794 C 179.191 248.782,179.014 250.109,178.872 229.314 C 178.802 219.021,178.604 210.457,178.433 210.281 C 178.263 210.106,167.520 209.924,154.561 209.877 L 131.000 209.792 127.592 208.700 C 114.791 204.598,106.947 194.597,106.156 181.371 L 105.884 176.824 106.980 176.408 C 107.708 176.131,119.082 175.996,140.909 176.005 C 161.148 176.013,173.888 175.872,174.122 175.638 C 174.362 175.398,168.431 169.250,158.000 158.929 C 148.924 149.948,136.237 137.380,129.806 131.000 C 123.375 124.620,117.503 118.843,116.757 118.162 C 116.011 117.481,114.760 116.221,113.977 115.362 C 113.195 114.503,111.214 112.529,109.576 110.976 C 105.153 106.783,104.884 105.105,108.188 102.314 C 110.684 100.206,111.587 99.600,112.232 99.600 C 112.626 99.600,113.320 99.253,113.774 98.829 C 115.064 97.626,118.668 96.463,126.532 94.712 C 129.551 94.039,140.536 95.610,142.516 96.996 C 142.990 97.328,143.711 97.600,144.118 97.600 C 144.881 97.600,148.292 99.391,149.000 100.163 C 149.220 100.404,150.109 101.130,150.976 101.778 C 152.734 103.093,170.735 120.667,176.800 126.990 C 184.289 134.798,186.765 136.225,190.984 135.162 C 194.787 134.205,194.931 122.800,191.140 122.800 C 185.113 122.800,176.248 109.215,179.461 104.904 C 180.575 103.410,181.511 103.320,195.469 103.372 C 209.555 103.425,209.321 103.538,205.277 98.644 C 203.823 96.884,203.176 96.398,200.400 94.980 C 199.697 94.621,196.126 94.401,188.361 94.239 C 173.926 93.939,171.415 92.971,166.622 85.862 C 165.043 83.521,163.769 78.761,164.198 76.808 C 164.672 74.653,165.018 74.602,179.621 74.573 C 193.859 74.543,194.000 74.527,194.000 72.910 C 194.000 71.745,197.246 66.240,198.664 65.000 C 200.477 63.415,201.818 62.507,202.800 62.200 C 203.350 62.029,204.427 61.553,205.194 61.144 C 206.410 60.495,207.542 60.400,214.045 60.400 C 223.051 60.400,222.305 61.033,222.470 53.262 C 222.662 44.210,223.948 43.696,230.479 50.062 " stroke="none" fill="#c46073" fill-rule="evenodd"></path><path id="path3" d="M223.400 46.538 C 222.672 47.080,222.588 47.683,222.470 53.262 C 222.305 61.033,223.051 60.400,214.045 60.400 C 207.542 60.400,206.410 60.495,205.194 61.144 C 204.427 61.553,203.350 62.029,202.800 62.200 C 201.818 62.507,200.477 63.415,198.664 65.000 C 197.246 66.240,194.000 71.745,194.000 72.910 C 194.000 74.527,193.859 74.543,179.621 74.573 C 162.490 74.608,162.205 74.783,165.335 83.400 C 166.280 86.001,169.541 90.088,171.512 91.140 C 177.144 94.149,176.268 93.988,188.361 94.239 C 196.126 94.401,199.697 94.621,200.400 94.980 C 203.176 96.398,203.823 96.884,205.277 98.644 C 209.321 103.538,209.555 103.425,195.469 103.372 C 181.511 103.320,180.575 103.410,179.461 104.904 C 176.248 109.215,185.113 122.800,191.140 122.800 C 193.068 122.800,193.600 124.049,193.600 128.574 C 193.600 133.974,193.366 134.562,190.984 135.162 C 186.765 136.225,184.289 134.798,176.800 126.990 C 170.735 120.667,152.734 103.093,150.976 101.778 C 150.109 101.130,149.220 100.404,149.000 100.163 C 148.292 99.391,144.881 97.600,144.118 97.600 C 143.711 97.600,142.990 97.328,142.516 96.996 C 140.536 95.610,129.551 94.039,126.532 94.712 C 118.668 96.463,115.064 97.626,113.774 98.829 C 113.320 99.253,112.626 99.600,112.232 99.600 C 111.587 99.600,110.684 100.206,108.188 102.314 C 104.884 105.105,105.153 106.783,109.576 110.976 C 111.214 112.529,113.195 114.503,113.977 115.362 C 114.760 116.221,116.011 117.481,116.757 118.162 C 117.503 118.843,123.375 124.620,129.806 131.000 C 136.237 137.380,148.924 149.948,158.000 158.929 C 168.431 169.250,174.362 175.398,174.122 175.638 C 173.888 175.872,161.148 176.013,140.909 176.005 C 119.082 175.996,107.708 176.131,106.980 176.408 L 105.884 176.824 106.156 181.371 C 106.947 194.597,114.791 204.598,127.592 208.700 L 131.000 209.792 154.561 209.877 C 167.520 209.924,178.263 210.106,178.433 210.281 C 178.604 210.457,178.802 219.021,178.872 229.314 C 179.014 250.109,179.191 248.782,176.274 248.794 C 175.435 248.797,173.905 249.139,172.874 249.554 C 171.843 249.969,170.258 250.510,169.351 250.755 C 165.124 251.899,158.407 257.259,155.259 262.000 C 153.022 265.369,152.461 266.516,151.351 270.000 C 151.035 270.990,150.508 272.646,150.179 273.679 C 149.691 275.214,149.587 278.287,149.610 290.446 C 149.642 307.373,149.974 305.932,145.800 306.982 C 142.384 307.841,138.025 309.488,137.169 310.243 C 136.821 310.549,136.412 310.800,136.259 310.800 C 135.626 310.800,129.851 315.062,129.058 316.113 C 128.586 316.740,127.525 318.026,126.700 318.971 C 125.875 319.916,124.478 322.094,123.595 323.810 C 122.712 325.526,121.836 327.126,121.648 327.365 C 121.460 327.604,121.187 328.737,121.042 329.882 C 120.896 331.027,120.512 332.715,120.189 333.632 C 119.373 335.943,119.453 337.705,120.429 338.946 L 121.258 340.000 144.351 340.000 L 167.445 340.000 168.622 339.100 C 169.270 338.605,171.960 336.070,174.600 333.467 C 177.240 330.863,183.360 324.834,188.200 320.067 C 193.040 315.301,197.360 310.956,197.800 310.412 C 198.536 309.501,198.616 308.658,198.800 299.785 L 199.000 290.148 200.595 287.832 C 201.557 286.436,203.063 284.937,204.388 284.058 L 206.585 282.600 211.592 282.621 C 215.874 282.639,216.919 282.775,218.800 283.559 C 220.010 284.062,221.450 284.654,222.000 284.873 C 228.279 287.371,234.339 294.428,236.839 302.152 C 238.023 305.811,238.008 305.831,233.200 306.982 C 225.968 308.715,218.775 313.402,214.400 319.234 C 209.373 325.935,206.360 338.746,209.600 339.643 C 210.150 339.796,220.708 339.938,233.062 339.960 L 255.524 340.000 257.062 338.691 C 259.456 336.654,283.834 312.319,285.191 310.612 L 286.400 309.090 286.400 285.430 C 286.400 262.794,286.366 261.703,285.623 260.246 C 285.196 259.408,284.738 258.231,284.607 257.630 C 284.071 255.189,276.100 248.800,273.592 248.800 C 271.512 248.800,271.649 252.176,271.618 200.066 C 271.586 146.446,271.327 151.724,274.192 147.541 C 276.005 144.893,276.274 144.425,277.768 141.330 C 278.529 139.751,279.281 137.771,279.439 136.930 C 279.597 136.088,279.967 134.821,280.263 134.113 C 282.862 127.886,278.051 109.795,272.974 106.705 C 272.067 106.153,271.879 104.206,271.839 94.962 C 271.813 88.802,271.651 85.536,271.352 85.162 C 271.106 84.853,270.777 83.896,270.622 83.034 C 270.376 81.671,269.098 78.664,267.972 76.800 C 267.773 76.470,267.314 75.660,266.952 75.000 C 265.973 73.214,262.413 69.114,260.679 67.775 C 259.842 67.129,258.582 66.129,257.879 65.554 C 257.176 64.979,256.150 64.375,255.600 64.212 C 255.050 64.050,254.176 63.649,253.658 63.322 C 251.896 62.209,246.009 60.400,244.101 60.386 C 241.350 60.365,239.995 59.338,230.479 50.062 C 226.407 46.094,224.963 45.375,223.400 46.538 M227.620 48.592 C 228.599 49.578,229.521 50.388,229.669 50.392 C 229.958 50.401,232.400 52.754,232.400 53.024 C 232.400 53.113,233.414 54.134,234.654 55.293 C 235.894 56.452,237.469 58.003,238.154 58.741 C 239.906 60.626,241.223 61.200,243.794 61.200 C 245.025 61.200,246.426 61.452,246.914 61.762 C 247.401 62.070,248.610 62.453,249.600 62.613 C 250.590 62.772,251.829 63.239,252.354 63.651 C 252.879 64.063,253.726 64.400,254.238 64.400 C 254.749 64.400,255.580 64.823,256.084 65.339 C 256.588 65.856,257.718 66.801,258.596 67.439 C 259.474 68.078,260.861 69.252,261.677 70.050 C 262.494 70.847,263.441 71.607,263.781 71.737 C 264.122 71.868,264.400 72.330,264.400 72.765 C 264.400 73.199,264.747 73.798,265.171 74.095 C 265.595 74.392,266.164 75.122,266.435 75.717 C 266.706 76.313,267.072 76.800,267.248 76.800 C 267.424 76.800,267.786 77.565,268.053 78.500 C 268.320 79.435,268.775 80.482,269.066 80.828 C 270.198 82.175,270.949 88.359,271.004 96.800 C 271.063 105.822,271.041 105.718,273.443 108.671 C 274.370 109.810,275.241 111.099,275.379 111.534 C 275.517 111.970,275.894 112.427,276.215 112.550 C 276.537 112.674,276.800 113.045,276.800 113.376 C 276.800 113.706,277.250 114.960,277.800 116.163 C 278.350 117.365,278.802 118.675,278.804 119.074 C 278.807 119.473,279.078 120.689,279.408 121.775 C 280.489 125.339,280.584 129.867,279.633 132.563 C 279.175 133.862,278.800 135.395,278.800 135.969 C 278.800 136.542,278.468 137.639,278.061 138.406 C 277.655 139.173,277.197 140.313,277.044 140.940 C 276.890 141.567,276.437 142.557,276.036 143.140 C 273.847 146.325,272.121 148.994,271.503 150.148 C 270.851 151.365,270.805 154.608,270.793 199.825 L 270.780 248.200 271.634 248.900 C 272.104 249.285,273.009 249.600,273.644 249.600 C 274.280 249.600,274.800 249.766,274.800 249.969 C 274.800 250.172,275.413 250.540,276.161 250.787 C 277.487 251.225,278.542 252.010,281.000 254.391 C 283.148 256.471,284.000 257.652,284.000 258.549 C 284.000 259.034,284.360 260.137,284.800 261.000 C 285.573 262.515,285.600 263.359,285.600 285.651 L 285.600 308.734 282.515 312.067 C 280.818 313.900,277.623 317.164,275.415 319.321 C 273.207 321.477,267.798 326.832,263.395 331.221 L 255.389 339.200 233.395 339.195 C 209.683 339.189,209.912 339.202,209.257 337.764 C 208.745 336.641,210.134 328.241,211.004 327.200 C 211.280 326.870,211.641 326.150,211.808 325.600 C 211.974 325.050,212.445 324.171,212.855 323.646 C 213.265 323.121,213.600 322.462,213.600 322.180 C 213.600 321.335,220.924 313.200,221.686 313.200 C 221.876 313.200,222.610 312.807,223.316 312.326 C 226.334 310.271,226.776 310.022,227.860 309.754 C 228.487 309.600,229.361 309.240,229.802 308.955 C 230.243 308.670,232.125 308.172,233.984 307.850 C 237.906 307.169,238.546 306.624,238.272 304.200 C 238.044 302.193,236.588 298.070,235.797 297.196 C 235.469 296.834,235.200 296.246,235.200 295.891 C 235.200 295.536,234.866 295.010,234.457 294.723 C 234.049 294.435,233.601 293.839,233.462 293.398 C 232.934 291.727,226.235 285.600,224.936 285.600 C 224.641 285.600,224.400 285.453,224.400 285.272 C 224.400 284.632,218.561 282.410,216.200 282.152 C 214.880 282.008,213.494 281.734,213.120 281.542 C 210.780 280.342,202.535 283.312,200.911 285.940 C 200.551 286.523,199.997 287.216,199.680 287.479 C 198.465 288.490,197.858 292.434,197.627 300.836 L 197.400 309.072 196.246 310.736 C 195.611 311.651,194.958 312.400,194.796 312.400 C 194.633 312.400,188.501 318.346,181.169 325.613 C 173.837 332.880,167.469 338.915,167.019 339.023 C 166.568 339.132,156.133 339.171,143.829 339.111 L 121.457 339.000 121.116 337.800 C 120.453 335.476,121.907 328.488,123.653 325.600 C 123.853 325.270,124.303 324.370,124.654 323.600 C 125.005 322.830,125.909 321.515,126.664 320.679 C 127.419 319.842,128.225 318.762,128.455 318.279 C 128.891 317.361,132.716 314.027,134.920 312.643 C 137.438 311.063,138.615 310.389,139.600 309.964 C 140.150 309.727,141.121 309.271,141.757 308.952 C 142.394 308.633,144.237 308.166,145.854 307.915 C 149.246 307.387,151.482 305.784,150.998 304.226 C 150.733 303.370,150.714 303.141,150.804 301.800 C 150.864 300.893,150.484 289.839,150.226 285.000 C 149.968 280.176,151.328 270.636,152.550 268.699 C 152.861 268.205,153.244 267.374,153.400 266.853 C 153.556 266.331,154.211 265.161,154.855 264.253 C 155.499 263.344,156.329 262.150,156.700 261.600 C 157.071 261.050,157.740 260.240,158.188 259.800 C 158.636 259.360,159.362 258.549,159.801 257.998 C 160.240 257.447,161.050 256.688,161.600 256.311 C 162.150 255.934,163.320 255.120,164.200 254.502 C 166.375 252.974,169.822 251.328,172.000 250.777 C 172.990 250.527,173.980 250.182,174.200 250.011 C 174.420 249.841,175.575 249.612,176.767 249.503 C 180.192 249.189,180.007 250.445,179.779 229.037 C 179.599 212.077,179.513 210.150,178.913 209.700 C 178.399 209.314,173.206 209.200,156.149 209.200 C 135.456 209.200,133.839 209.149,130.725 208.403 C 128.896 207.964,126.927 207.604,126.349 207.603 C 125.771 207.601,125.082 207.339,124.817 207.020 C 124.552 206.702,123.675 206.226,122.868 205.964 C 122.061 205.702,121.256 205.242,121.080 204.943 C 120.904 204.645,120.568 204.400,120.333 204.400 C 119.917 204.400,117.832 202.786,116.186 201.189 C 115.738 200.755,115.153 200.400,114.886 200.400 C 114.619 200.400,114.400 200.162,114.400 199.872 C 114.400 199.582,113.950 198.953,113.400 198.475 C 112.850 197.997,112.400 197.362,112.400 197.065 C 112.400 196.767,112.050 196.207,111.623 195.821 C 111.195 195.434,110.734 194.608,110.597 193.986 C 110.460 193.364,110.106 192.654,109.809 192.408 C 109.513 192.162,109.050 191.043,108.781 189.922 C 108.512 188.801,108.048 187.415,107.749 186.842 C 107.111 185.620,106.976 177.386,107.587 177.008 C 107.800 176.876,122.816 176.771,140.955 176.774 C 172.433 176.779,173.978 176.746,174.849 176.041 L 175.761 175.302 172.323 171.910 C 170.432 170.045,168.596 168.407,168.243 168.272 C 167.889 168.136,167.600 167.762,167.600 167.440 C 167.600 167.117,167.249 166.743,166.820 166.606 C 166.392 166.470,165.930 166.008,165.794 165.580 C 165.657 165.151,165.288 164.800,164.973 164.800 C 164.658 164.800,164.400 164.640,164.400 164.444 C 164.400 164.053,159.468 159.026,154.668 154.523 C 152.980 152.941,151.600 151.468,151.600 151.250 C 151.600 151.032,151.249 150.743,150.820 150.606 C 150.392 150.470,149.930 150.008,149.794 149.580 C 149.657 149.151,149.392 148.800,149.204 148.800 C 148.867 148.800,146.400 146.492,146.400 146.176 C 146.400 146.087,145.379 145.066,144.131 143.907 C 142.882 142.748,141.098 141.035,140.166 140.100 C 139.234 139.165,138.275 138.400,138.036 138.400 C 137.796 138.400,137.600 138.224,137.600 138.008 C 137.600 137.493,124.111 124.000,123.596 124.000 C 123.378 124.000,123.196 123.775,123.191 123.500 C 123.187 123.225,122.536 122.460,121.746 121.800 C 120.957 121.140,120.105 120.365,119.855 120.078 C 119.605 119.791,118.791 118.981,118.047 118.278 C 117.303 117.575,116.133 116.415,115.447 115.700 C 114.761 114.985,112.697 112.915,110.860 111.100 C 106.252 106.547,105.916 105.012,109.044 102.800 C 109.822 102.250,110.761 101.516,111.129 101.169 C 111.498 100.823,112.372 100.311,113.071 100.033 C 113.770 99.755,114.440 99.273,114.559 98.963 C 114.678 98.654,115.233 98.400,115.792 98.400 C 116.351 98.400,117.572 98.050,118.504 97.622 C 120.347 96.777,126.574 95.605,129.300 95.591 C 132.301 95.575,141.379 96.948,141.948 97.504 C 142.250 97.798,143.011 98.142,143.639 98.268 C 144.268 98.394,144.988 98.745,145.240 99.048 C 145.492 99.352,145.921 99.600,146.194 99.600 C 147.461 99.600,150.836 102.612,163.128 114.713 C 168.777 120.275,173.940 125.342,174.600 125.973 C 175.260 126.605,176.727 128.084,177.860 129.261 C 184.389 136.041,186.904 137.248,191.600 135.853 C 194.090 135.114,194.387 134.346,194.394 128.631 C 194.401 123.441,194.025 122.400,192.144 122.400 C 187.235 122.400,179.987 113.605,180.006 107.673 C 180.017 104.406,179.125 104.600,194.167 104.600 L 207.563 104.600 207.981 103.681 C 209.164 101.086,206.051 96.631,201.560 94.491 C 199.959 93.728,198.862 93.632,189.400 93.428 C 178.438 93.192,175.766 92.818,173.760 91.240 C 173.173 90.778,172.458 90.400,172.171 90.400 C 171.701 90.400,171.157 89.894,168.632 87.111 C 166.352 84.597,164.686 79.007,165.576 76.858 C 166.210 75.328,167.835 75.170,182.423 75.213 C 194.372 75.248,194.800 75.183,194.800 73.337 C 194.800 72.806,195.101 71.883,195.470 71.286 C 197.392 68.168,198.801 66.127,199.462 65.502 C 201.053 63.997,202.742 62.800,203.273 62.800 C 203.580 62.800,204.544 62.424,205.415 61.964 C 206.822 61.222,207.814 61.115,214.260 61.004 C 221.183 60.885,223.141 60.682,223.248 60.073 C 223.274 59.923,223.345 57.410,223.404 54.489 C 223.567 46.469,224.382 45.331,227.620 48.592 " stroke="none" fill="#d48094" fill-rule="evenodd"></path><path id="path4" d="M221.301 49.400 C 221.305 50.280,221.387 50.593,221.483 50.095 C 221.579 49.598,221.575 48.878,221.475 48.495 C 221.375 48.113,221.296 48.520,221.301 49.400 M233.600 52.200 C 233.600 52.530,233.892 52.800,234.249 52.800 C 234.780 52.800,234.808 52.691,234.400 52.200 C 234.126 51.870,233.834 51.600,233.751 51.600 C 233.668 51.600,233.600 51.870,233.600 52.200 M220.894 56.632 C 220.215 57.366,219.593 59.059,219.892 59.359 C 220.961 60.428,222.303 58.460,221.659 56.767 C 221.441 56.195,221.319 56.173,220.894 56.632 M240.679 57.454 C 239.794 58.339,241.568 58.796,242.800 58.000 C 243.319 57.665,243.310 57.611,242.733 57.606 C 242.366 57.603,241.816 57.504,241.512 57.388 C 241.207 57.271,240.833 57.301,240.679 57.454 M204.576 59.387 C 203.853 59.934,203.914 59.975,205.467 59.987 C 207.591 60.003,208.691 59.630,207.934 59.150 C 207.101 58.623,205.431 58.741,204.576 59.387 M211.400 59.200 C 211.252 59.440,211.761 59.598,212.676 59.594 C 213.807 59.589,214.045 59.488,213.600 59.200 C 212.818 58.694,211.712 58.694,211.400 59.200 M200.591 60.706 C 199.450 61.525,198.750 63.200,199.548 63.200 C 199.970 63.200,200.414 62.940,200.536 62.622 C 200.658 62.304,201.397 61.924,202.179 61.778 C 204.014 61.433,204.105 60.398,202.300 60.406 C 201.585 60.409,200.816 60.544,200.591 60.706 M254.598 62.803 C 254.285 63.310,255.404 63.768,256.024 63.385 C 256.361 63.177,256.339 63.007,255.943 62.756 C 255.228 62.303,254.900 62.314,254.598 62.803 M258.400 64.613 C 258.400 65.343,259.367 65.791,260.041 65.374 C 260.388 65.160,260.317 64.928,259.784 64.539 C 258.822 63.835,258.400 63.857,258.400 64.613 M196.105 65.500 C 195.820 66.299,195.792 66.800,196.033 66.800 C 196.550 66.800,196.905 65.828,196.718 64.923 C 196.609 64.392,196.446 64.546,196.105 65.500 M263.600 69.336 C 263.600 69.946,263.948 70.430,264.600 70.727 C 265.150 70.978,265.600 71.457,265.600 71.791 C 265.600 72.126,265.870 72.400,266.200 72.400 C 267.083 72.400,266.946 71.935,265.514 70.073 C 264.052 68.170,263.600 67.996,263.600 69.336 M191.873 72.145 C 191.184 73.197,188.153 73.790,186.562 73.185 C 185.992 72.969,185.437 73.031,184.982 73.364 C 183.984 74.093,184.876 74.233,189.500 74.072 L 193.200 73.943 193.200 72.572 C 193.200 70.968,192.741 70.821,191.873 72.145 M166.000 73.600 C 163.956 73.850,164.051 73.874,167.324 73.935 C 169.586 73.977,170.759 73.857,170.600 73.600 C 170.336 73.173,169.487 73.173,166.000 73.600 M267.200 73.776 C 267.200 74.093,267.361 74.452,267.558 74.574 C 267.970 74.829,268.466 73.800,268.106 73.439 C 267.677 73.010,267.200 73.187,267.200 73.776 M269.092 76.665 C 268.831 77.106,269.423 78.644,269.988 78.993 C 270.295 79.182,270.349 78.917,270.164 78.134 C 269.857 76.831,269.380 76.178,269.092 76.665 M167.606 89.900 C 167.609 90.285,167.787 90.870,168.000 91.200 C 168.294 91.655,168.389 91.486,168.394 90.500 C 168.397 89.785,168.220 89.200,168.000 89.200 C 167.780 89.200,167.603 89.515,167.606 89.900 M127.000 93.200 C 125.922 93.393,126.900 93.490,130.000 93.496 C 132.879 93.502,134.151 93.391,133.400 93.200 C 131.912 92.821,129.114 92.821,127.000 93.200 M119.455 94.480 C 118.260 94.915,118.631 95.581,120.074 95.594 C 121.452 95.606,123.021 94.785,122.386 94.383 C 121.657 93.922,120.923 93.946,119.455 94.480 M138.866 94.751 C 138.467 95.003,138.569 95.152,139.266 95.339 C 140.653 95.710,142.800 95.652,142.800 95.243 C 142.800 94.450,139.911 94.088,138.866 94.751 M272.660 99.023 C 272.357 103.903,272.603 105.603,273.708 106.268 C 274.012 106.450,274.380 106.926,274.527 107.325 C 274.674 107.724,274.976 107.939,275.197 107.802 C 275.905 107.364,275.631 105.952,274.600 104.727 C 273.712 103.672,273.595 103.149,273.553 100.069 C 273.473 94.216,272.992 93.652,272.660 99.023 M177.600 95.200 C 177.600 95.428,178.792 95.600,180.376 95.600 C 181.903 95.600,183.264 95.420,183.400 95.200 C 183.556 94.947,182.537 94.800,180.624 94.800 C 178.875 94.800,177.600 94.969,177.600 95.200 M184.942 95.387 C 185.539 95.839,186.916 95.904,191.973 95.716 L 198.262 95.482 200.217 97.355 C 202.081 99.141,203.742 99.991,204.291 99.442 C 204.656 99.077,201.964 96.402,201.222 96.391 C 200.880 96.386,200.150 96.030,199.600 95.600 C 198.691 94.889,197.941 94.818,191.400 94.822 C 185.130 94.825,184.296 94.898,184.942 95.387 M113.600 96.800 C 113.600 97.020,114.050 97.200,114.600 97.200 C 115.150 97.200,115.600 97.020,115.600 96.800 C 115.600 96.580,115.150 96.400,114.600 96.400 C 114.050 96.400,113.600 96.580,113.600 96.800 M109.698 98.700 C 109.012 99.305,108.125 100.014,107.726 100.276 C 107.085 100.697,107.152 100.756,108.300 100.776 C 109.317 100.795,109.600 100.635,109.600 100.043 C 109.600 99.181,110.345 98.800,112.033 98.800 C 112.804 98.800,113.200 98.596,113.200 98.200 C 113.200 97.183,111.072 97.487,109.698 98.700 M204.592 100.100 C 203.851 102.130,204.584 103.275,206.223 102.647 C 206.715 102.458,206.701 102.219,206.126 101.013 C 205.427 99.548,204.907 99.239,204.592 100.100 M105.457 101.908 C 104.560 103.359,104.439 104.400,105.167 104.400 C 105.640 104.400,106.010 104.013,106.179 103.342 C 106.448 102.271,105.902 101.187,105.457 101.908 M181.195 102.009 L 180.200 102.252 181.200 102.441 C 181.750 102.544,182.740 102.523,183.400 102.393 L 184.600 102.156 183.395 101.961 C 182.732 101.854,181.742 101.876,181.195 102.009 M199.026 101.958 C 198.760 102.388,199.919 102.897,200.436 102.578 C 200.636 102.454,200.800 102.183,200.800 101.976 C 200.800 101.497,199.320 101.482,199.026 101.958 M154.800 103.625 C 154.800 104.220,156.672 106.000,157.297 106.000 C 157.548 106.000,157.464 105.775,157.110 105.500 C 156.757 105.225,156.405 104.642,156.329 104.205 C 156.180 103.347,154.800 102.824,154.800 103.625 M158.800 107.311 C 158.800 107.592,159.115 108.118,159.500 108.479 C 159.885 108.840,160.725 109.690,161.367 110.368 C 162.612 111.684,163.004 111.841,163.406 111.190 C 163.624 110.837,162.579 109.674,159.966 107.361 C 159.179 106.664,158.800 106.648,158.800 107.311 M108.955 112.572 C 108.642 113.388,109.100 114.000,110.024 114.000 C 111.038 114.000,111.019 113.129,109.991 112.487 C 109.321 112.069,109.143 112.083,108.955 112.572 M279.417 115.500 C 279.906 118.401,280.063 118.722,280.464 117.638 C 280.936 116.363,280.464 114.000,279.737 114.000 C 279.296 114.000,279.222 114.346,279.417 115.500 M112.000 115.151 C 112.000 115.344,112.270 115.726,112.600 116.000 C 113.101 116.416,113.200 116.358,113.200 115.649 C 113.200 115.161,112.945 114.800,112.600 114.800 C 112.270 114.800,112.000 114.958,112.000 115.151 M167.600 116.400 C 167.600 116.620,167.826 116.800,168.102 116.800 C 168.379 116.800,168.844 117.340,169.136 118.000 C 169.738 119.360,170.800 119.611,170.800 118.394 C 170.800 117.914,170.274 117.268,169.500 116.796 C 168.042 115.907,167.600 115.815,167.600 116.400 M183.600 120.200 C 183.600 120.530,183.780 120.800,184.000 120.800 C 184.220 120.800,184.400 120.530,184.400 120.200 C 184.400 119.870,184.220 119.600,184.000 119.600 C 183.780 119.600,183.600 119.870,183.600 120.200 M188.477 123.639 C 188.579 123.948,189.278 124.255,190.031 124.322 C 190.784 124.390,191.623 124.737,191.896 125.093 C 192.169 125.450,192.515 125.618,192.667 125.467 C 193.156 124.977,191.217 123.552,189.734 123.312 C 188.607 123.129,188.333 123.200,188.477 123.639 M176.672 125.084 C 176.551 125.279,176.598 125.674,176.776 125.962 C 177.022 126.360,177.171 126.371,177.395 126.008 C 177.557 125.745,177.510 125.350,177.290 125.130 C 177.067 124.907,176.794 124.886,176.672 125.084 M281.634 128.800 C 281.619 130.876,281.732 131.615,282.000 131.200 C 282.472 130.470,282.472 127.698,282.000 126.600 C 281.766 126.055,281.649 126.757,281.634 128.800 M180.060 128.780 C 180.232 129.296,180.781 129.388,180.830 128.910 C 180.846 128.751,180.644 128.548,180.380 128.460 C 180.116 128.372,179.972 128.516,180.060 128.780 M186.500 133.482 C 184.447 133.878,185.880 134.803,188.533 134.795 C 190.780 134.787,192.000 134.421,192.000 133.753 C 192.000 133.205,188.768 133.046,186.500 133.482 M278.300 142.231 C 278.135 142.397,278.000 142.899,278.000 143.347 C 278.000 143.935,278.121 144.039,278.438 143.722 C 278.678 143.482,278.813 142.980,278.738 142.607 C 278.662 142.233,278.465 142.064,278.300 142.231 M272.652 150.608 C 272.330 151.449,272.329 241.545,272.652 243.160 C 273.431 247.056,273.593 239.474,273.605 198.400 C 273.612 173.650,273.727 152.635,273.862 151.700 C 274.111 149.963,273.211 149.151,272.652 150.608 M150.800 154.000 C 151.583 154.506,152.400 154.506,152.400 154.000 C 152.400 153.780,151.905 153.603,151.300 153.606 C 150.443 153.611,150.332 153.698,150.800 154.000 M156.400 159.151 C 156.400 159.344,156.670 159.726,157.000 160.000 C 157.501 160.416,157.600 160.358,157.600 159.649 C 157.600 159.161,157.345 158.800,157.000 158.800 C 156.670 158.800,156.400 158.958,156.400 159.151 M160.000 162.751 C 160.000 162.944,160.254 163.313,160.564 163.570 C 161.191 164.091,161.832 163.500,161.400 162.800 C 161.095 162.307,160.000 162.269,160.000 162.751 M163.600 166.278 C 163.600 166.800,165.748 168.800,166.308 168.800 C 167.192 168.800,166.633 167.814,165.669 167.672 C 165.121 167.592,164.800 167.259,164.800 166.772 C 164.800 166.347,164.530 166.000,164.200 166.000 C 163.870 166.000,163.600 166.125,163.600 166.278 M166.800 170.013 C 166.800 170.963,167.859 171.501,168.490 170.870 C 168.805 170.555,168.784 170.262,168.414 169.817 C 167.690 168.944,166.800 169.052,166.800 170.013 M168.200 174.433 C 166.660 174.608,152.620 174.749,137.000 174.746 C 104.480 174.739,106.583 174.716,106.943 175.076 C 107.443 175.577,173.600 175.726,173.600 175.227 C 173.600 174.806,171.867 173.934,171.274 174.057 C 171.123 174.088,169.740 174.257,168.200 174.433 M105.553 186.800 C 105.334 188.102,105.598 189.600,106.047 189.600 C 106.460 189.600,106.448 188.226,106.021 186.800 L 105.722 185.800 105.553 186.800 M110.462 198.221 C 110.538 198.613,110.842 199.014,111.138 199.113 C 111.482 199.228,111.627 199.035,111.538 198.579 C 111.462 198.187,111.158 197.786,110.862 197.687 C 110.518 197.572,110.373 197.765,110.462 198.221 M117.600 205.600 C 117.600 206.504,119.245 207.600,120.600 207.600 C 122.391 207.600,122.417 206.967,120.640 206.634 C 119.892 206.494,119.060 206.114,118.791 205.789 C 118.230 205.113,117.600 205.013,117.600 205.600 M123.478 208.656 C 122.970 209.163,123.674 209.600,125.000 209.600 C 125.744 209.600,126.451 209.440,126.572 209.245 C 126.939 208.651,124.036 208.098,123.478 208.656 M132.739 210.900 C 133.065 211.226,134.172 211.361,135.919 211.288 C 150.146 210.695,175.964 211.262,176.637 212.182 C 177.100 212.817,177.169 212.805,177.587 212.025 C 178.447 210.417,178.211 210.400,154.896 210.400 C 136.772 210.400,132.340 210.500,132.739 210.900 M175.400 246.996 C 174.740 247.295,173.840 247.686,173.400 247.863 C 172.830 248.093,173.277 248.223,174.958 248.315 C 177.429 248.450,178.269 248.077,177.866 247.027 C 177.578 246.276,177.002 246.269,175.400 246.996 M272.667 246.667 C 271.890 247.443,272.444 248.400,273.670 248.400 L 274.939 248.400 274.000 247.400 C 272.935 246.266,273.020 246.313,272.667 246.667 M277.778 249.235 C 277.414 249.825,277.790 250.087,278.781 249.932 C 279.622 249.802,279.622 249.794,278.834 249.308 C 278.292 248.974,277.954 248.950,277.778 249.235 M163.817 251.572 C 163.410 252.231,164.181 252.346,165.205 251.779 L 166.200 251.228 165.124 251.214 C 164.532 251.206,163.944 251.368,163.817 251.572 M281.250 251.900 C 282.234 253.155,283.743 254.359,284.075 254.154 C 284.754 253.734,284.359 252.805,283.400 252.564 C 282.850 252.426,282.400 252.063,282.400 251.757 C 282.400 251.450,282.018 251.200,281.551 251.200 C 280.800 251.200,280.765 251.281,281.250 251.900 M161.600 252.698 C 160.894 252.973,158.706 255.240,158.930 255.463 C 159.308 255.841,163.084 253.667,163.381 252.900 C 163.582 252.382,162.672 252.279,161.600 252.698 M285.014 256.026 C 284.561 257.193,285.386 258.746,285.925 257.740 C 286.265 257.105,286.239 256.733,285.813 256.155 C 285.331 255.500,285.225 255.483,285.014 256.026 M286.800 280.176 C 286.800 291.596,286.943 298.041,287.200 298.200 C 287.464 298.363,287.600 292.337,287.600 280.424 C 287.600 268.675,287.461 262.400,287.200 262.400 C 286.939 262.400,286.800 268.592,286.800 280.176 M151.600 265.600 C 151.600 266.040,151.780 266.400,152.000 266.400 C 152.220 266.400,152.400 266.040,152.400 265.600 C 152.400 265.160,152.220 264.800,152.000 264.800 C 151.780 264.800,151.600 265.160,151.600 265.600 M150.006 269.700 C 150.003 270.525,150.069 271.200,150.153 271.200 C 150.500 271.200,150.654 269.213,150.346 268.726 C 150.133 268.391,150.010 268.744,150.006 269.700 M148.006 278.100 C 148.009 279.035,148.187 280.070,148.400 280.400 C 148.675 280.826,148.790 280.333,148.794 278.700 C 148.797 277.429,148.621 276.400,148.400 276.400 C 148.180 276.400,148.003 277.165,148.006 278.100 M206.546 283.796 C 206.420 284.124,205.616 284.603,204.759 284.860 C 203.901 285.116,203.200 285.546,203.200 285.815 C 203.200 286.083,202.822 286.553,202.360 286.860 C 201.807 287.227,201.568 287.739,201.660 288.360 C 201.790 289.237,201.955 289.149,204.027 287.089 C 205.741 285.386,206.655 284.797,207.996 284.532 C 210.331 284.070,210.609 283.200,208.421 283.200 C 207.331 283.200,206.698 283.402,206.546 283.796 M213.478 283.456 C 212.713 284.220,214.697 284.722,216.201 284.144 C 216.732 283.940,216.759 283.820,216.334 283.550 C 215.704 283.151,213.844 283.090,213.478 283.456 M219.026 285.158 C 218.746 285.611,219.745 286.004,221.133 285.987 C 222.158 285.975,222.169 285.951,221.424 285.387 C 220.553 284.729,219.361 284.615,219.026 285.158 M222.650 286.683 C 222.524 286.809,222.517 287.066,222.634 287.256 C 222.915 287.710,224.000 287.700,224.000 287.243 C 224.000 286.801,222.962 286.371,222.650 286.683 M226.400 289.792 C 226.400 290.522,226.670 290.852,227.419 291.040 C 228.912 291.415,229.073 290.945,227.842 289.804 C 226.500 288.560,226.400 288.560,226.400 289.792 M199.973 290.000 C 199.743 291.186,199.781 296.400,200.019 296.400 C 200.430 296.400,200.689 290.857,200.306 290.259 C 200.144 290.006,199.995 289.890,199.973 290.000 M229.837 292.340 C 229.722 292.527,230.206 293.469,230.914 294.434 C 232.166 296.142,232.203 296.161,232.322 295.139 C 232.489 293.705,230.428 291.383,229.837 292.340 M233.161 297.270 C 233.304 297.969,233.668 298.623,233.971 298.724 C 234.378 298.859,234.455 298.658,234.266 297.954 C 234.126 297.429,234.008 296.775,234.005 296.500 C 234.002 296.225,233.753 296.000,233.451 296.000 C 233.045 296.000,232.969 296.334,233.161 297.270 M148.045 298.945 C 147.656 299.415,147.624 300.017,147.917 301.392 C 148.292 303.150,148.262 303.250,147.074 304.180 L 145.841 305.145 146.903 305.411 C 148.666 305.854,148.886 305.552,148.979 302.564 C 149.086 299.114,148.806 298.029,148.045 298.945 M235.047 301.124 C 234.913 301.340,234.918 302.352,235.058 303.373 C 235.379 305.716,236.231 305.573,236.118 303.195 C 236.034 301.439,235.496 300.397,235.047 301.124 M287.067 303.067 C 286.648 303.485,286.755 306.325,287.200 306.600 C 287.447 306.752,287.600 306.071,287.600 304.824 C 287.600 302.772,287.544 302.589,287.067 303.067 M141.400 306.285 C 140.080 306.603,139.734 307.200,140.870 307.200 C 142.564 307.200,144.402 306.727,144.170 306.351 C 143.943 305.985,142.766 305.957,141.400 306.285 M228.800 306.358 C 227.901 306.609,227.876 306.666,228.554 306.926 C 229.589 307.324,232.262 306.812,231.540 306.354 C 230.921 305.962,230.219 305.963,228.800 306.358 M221.880 309.672 C 220.545 310.158,220.664 311.059,222.037 310.861 C 223.204 310.693,224.071 310.039,223.772 309.555 C 223.510 309.130,223.334 309.141,221.880 309.672 M197.749 311.788 C 197.613 312.143,197.600 312.533,197.720 312.654 C 198.105 313.039,199.650 312.351,199.489 311.866 C 199.244 311.129,198.023 311.074,197.749 311.788 M282.700 314.394 C 280.995 316.132,279.600 317.745,279.600 317.977 C 279.600 318.676,280.359 318.455,280.893 317.600 C 281.168 317.160,281.610 316.800,281.876 316.800 C 282.393 316.800,284.400 314.375,284.400 313.750 C 284.400 313.544,284.958 313.165,285.640 312.907 C 286.777 312.478,287.077 311.602,286.175 311.342 C 285.969 311.282,284.405 312.656,282.700 314.394 M131.600 312.000 C 131.600 312.220,131.870 312.400,132.200 312.400 C 132.530 312.400,132.800 312.220,132.800 312.000 C 132.800 311.780,132.530 311.600,132.200 311.600 C 131.870 311.600,131.600 311.780,131.600 312.000 M219.200 312.000 C 219.200 312.220,219.470 312.400,219.800 312.400 C 220.130 312.400,220.400 312.220,220.400 312.000 C 220.400 311.780,220.130 311.600,219.800 311.600 C 219.470 311.600,219.200 311.780,219.200 312.000 M194.200 315.600 C 193.769 316.297,194.408 316.892,195.031 316.374 C 195.339 316.118,195.493 315.750,195.372 315.555 C 195.080 315.083,194.506 315.105,194.200 315.600 M125.996 316.551 C 124.178 318.289,123.538 319.270,123.311 320.674 C 123.157 321.619,122.800 322.172,122.195 322.402 C 121.305 322.740,120.841 323.982,121.114 325.300 C 121.333 326.358,121.952 326.139,122.246 324.900 C 122.390 324.295,122.732 323.530,123.006 323.200 C 123.281 322.870,123.634 322.150,123.790 321.600 C 123.947 321.050,124.868 319.855,125.838 318.943 C 126.840 318.001,127.600 316.923,127.600 316.443 C 127.600 315.354,127.223 315.379,125.996 316.551 M213.867 316.667 C 213.476 317.057,213.541 318.400,213.951 318.400 C 214.144 318.400,214.520 318.138,214.785 317.818 C 215.496 316.961,214.642 315.892,213.867 316.667 M276.100 320.959 C 274.945 322.117,274.000 323.185,274.000 323.332 C 274.000 323.984,275.296 323.519,275.484 322.800 C 275.599 322.360,275.933 322.000,276.226 322.000 C 276.774 322.000,279.195 319.638,279.198 319.100 C 279.203 318.325,278.015 319.038,276.100 320.959 M189.017 320.772 C 188.744 321.214,189.375 321.692,189.744 321.322 C 190.125 320.942,190.054 320.400,189.624 320.400 C 189.417 320.400,189.144 320.568,189.017 320.772 M209.674 322.838 C 209.058 323.993,208.820 325.084,208.867 326.538 C 208.928 328.392,208.951 328.441,209.096 327.024 C 209.188 326.130,209.678 324.948,210.229 324.293 C 211.152 323.195,211.569 321.200,210.874 321.200 C 210.695 321.200,210.155 321.937,209.674 322.838 M272.617 324.372 C 272.344 324.814,272.975 325.292,273.344 324.922 C 273.725 324.542,273.654 324.000,273.224 324.000 C 273.017 324.000,272.744 324.168,272.617 324.372 M269.192 327.605 C 268.734 327.888,268.712 328.072,269.090 328.450 C 269.468 328.828,269.631 328.785,269.836 328.250 C 270.171 327.379,269.937 327.145,269.192 327.605 M119.483 330.302 C 119.248 331.528,119.469 332.128,120.028 331.783 C 120.501 331.490,120.515 329.718,120.046 329.428 C 119.851 329.308,119.597 329.701,119.483 330.302 M267.300 329.487 C 266.613 329.734,266.669 330.400,267.376 330.400 C 268.039 330.400,268.563 329.740,268.107 329.482 C 267.938 329.386,267.575 329.389,267.300 329.487 M265.400 331.200 C 264.969 331.897,265.608 332.492,266.231 331.974 C 266.539 331.718,266.693 331.350,266.572 331.155 C 266.280 330.683,265.706 330.705,265.400 331.200 M206.603 335.183 C 206.309 336.924,206.647 338.542,207.229 338.182 C 207.709 337.885,207.715 333.600,207.235 333.600 C 207.034 333.600,206.750 334.312,206.603 335.183 M261.817 335.172 C 261.544 335.614,262.175 336.092,262.544 335.722 C 262.925 335.342,262.854 334.800,262.424 334.800 C 262.217 334.800,261.944 334.968,261.817 335.172 " stroke="none" fill="#9c0b27" fill-rule="evenodd"></path></g></svg>