<svg version="1.1" id="Layer_1" xmlns="http://www.w3.org/2000/svg" xmlns:xlink="http://www.w3.org/1999/xlink" x="0px" y="0px"
	 width="100%" viewBox="0 0 512 512" enable-background="new 0 0 512 512" xml:space="preserve">
<path fill="#E60F05" opacity="1.000000" stroke="none" 
	d="
M239.000000,513.000000 
	C159.352646,513.000000 80.205292,513.000000 1.028970,513.000000 
	C1.028970,342.394287 1.028970,171.788574 1.028970,1.091425 
	C171.564041,1.091425 342.128143,1.091425 512.846130,1.091425 
	C512.846130,171.666565 512.846130,342.333252 512.846130,513.000000 
	C421.788544,513.000000 330.644257,513.000000 239.000000,513.000000 
M282.896271,136.722122 
	C272.751282,136.147675 262.612915,135.284988 252.460052,135.051132 
	C217.580841,134.247757 182.819870,136.126785 148.301437,141.184265 
	C135.495483,143.060532 122.767815,145.818192 110.224937,149.033936 
	C100.070023,151.637466 95.110191,158.173355 95.074631,167.613998 
	C94.969200,195.611572 95.012169,223.610626 95.194954,251.607819 
	C95.249496,259.962158 96.631447,261.001892 104.950768,261.001984 
	C183.114655,261.003113 261.278656,261.066254 339.442383,260.964691 
	C363.487488,260.933441 383.998474,269.032440 400.850830,286.256500 
	C401.776215,287.202271 402.748718,288.557892 403.875397,288.765045 
	C407.226044,289.381195 410.788940,290.137207 413.998077,289.491882 
	C415.050934,289.280151 415.744232,284.957733 415.795563,282.498291 
	C415.997223,272.836212 415.966095,263.166412 415.861267,253.501221 
	C415.441437,214.787735 398.898926,184.717514 367.074249,162.914108 
	C341.989471,145.728241 313.632080,138.926819 282.896271,136.722122 
M197.970184,345.240997 
	C199.973236,346.202759 201.970779,347.988556 203.980148,348.001984 
	C231.640396,348.186523 259.302277,348.127106 286.963745,348.127380 
	C296.148224,348.127472 296.144287,348.126923 296.991791,339.220093 
	C297.086304,338.226929 297.197784,337.228821 297.400024,336.253418 
	C302.010040,314.021057 321.736633,298.632080 343.533997,300.249298 
	C366.354950,301.942505 383.674286,319.581085 384.867340,342.643951 
	C385.077301,346.702454 386.467621,348.293671 390.549805,348.182556 
	C397.876312,347.983154 405.212372,348.157074 412.544067,348.116699 
	C419.221252,348.079926 421.790497,345.487549 421.863708,338.685486 
	C421.924713,333.020538 421.877533,327.354401 421.877472,321.688812 
	C421.877380,312.189362 420.687866,310.583923 411.370453,311.118073 
	C402.307861,311.637604 395.321289,308.505066 389.164276,302.066681 
	C375.912415,288.209137 359.428162,281.890289 340.343201,281.860992 
	C261.691376,281.740265 183.039688,281.561310 104.387909,281.419617 
	C97.420715,281.407074 95.022179,283.778351 95.005791,290.619263 
	C94.977837,302.283661 95.044006,313.948547 94.948212,325.612274 
	C94.933868,327.358368 94.298927,329.109833 93.873825,330.839844 
	C93.064545,334.133240 91.521545,337.409271 91.503754,340.699127 
	C91.470367,346.870392 93.970329,348.200806 103.317078,348.127350 
	C109.358856,348.079865 109.591331,347.831573 109.994232,340.995728 
	C111.448120,316.327850 135.146896,297.025208 159.411530,300.745392 
	C181.709030,304.163940 196.423691,320.850586 197.970184,345.240997 
M368.814331,360.104126 
	C372.029022,351.180298 371.640228,342.372681 367.042725,334.112885 
	C360.910522,323.095856 347.398438,317.566040 334.888000,320.464722 
	C322.589691,323.314178 312.918427,334.508331 311.999603,346.957153 
	C310.945404,361.239227 320.275848,374.297363 334.170319,377.985596 
	C348.159332,381.698914 361.710480,374.909912 368.814331,360.104126 
M177.049896,367.493439 
	C182.668976,360.249329 184.602539,352.157104 183.020355,343.097076 
	C180.243820,327.197906 163.940582,316.693604 147.683777,320.471436 
	C131.568146,324.216461 121.320122,340.967896 125.630371,356.279633 
	C131.851578,378.379974 159.937546,387.140900 177.049896,367.493439 
z"/>
<path fill="#FFFDFD" opacity="1.000000" stroke="none" 
	d="
M283.355774,136.762939 
	C313.632080,138.926819 341.989471,145.728241 367.074249,162.914108 
	C398.898926,184.717514 415.441437,214.787735 415.861267,253.501221 
	C415.966095,263.166412 415.997223,272.836212 415.795563,282.498291 
	C415.744232,284.957733 415.050934,289.280151 413.998077,289.491882 
	C410.788940,290.137207 407.226044,289.381195 403.875397,288.765045 
	C402.748718,288.557892 401.776215,287.202271 400.850830,286.256500 
	C383.998474,269.032440 363.487488,260.933441 339.442383,260.964691 
	C261.278656,261.066254 183.114655,261.003113 104.950768,261.001984 
	C96.631447,261.001892 95.249496,259.962158 95.194954,251.607819 
	C95.012169,223.610626 94.969200,195.611572 95.074631,167.613998 
	C95.110191,158.173355 100.070023,151.637466 110.224937,149.033936 
	C122.767815,145.818192 135.495483,143.060532 148.301437,141.184265 
	C182.819870,136.126785 217.580841,134.247757 252.460052,135.051132 
	C262.612915,135.284988 272.751282,136.147675 283.355774,136.762939 
M296.125031,212.499954 
	C296.125061,219.327301 296.122070,226.154633 296.125885,232.981979 
	C296.130127,240.594910 296.517517,240.997849 303.908752,240.998734 
	C329.885986,241.001846 355.863220,241.000031 381.840454,240.999908 
	C392.433563,240.999863 393.016113,240.202377 388.807343,230.330994 
	C382.142242,214.698532 373.275909,200.632187 360.134186,189.471085 
	C342.585907,174.567535 321.756409,172.389175 300.017609,173.379883 
	C296.631256,173.534225 296.091766,175.713562 296.105164,178.528946 
	C296.157410,189.519058 296.125610,200.509567 296.125031,212.499954 
M115.870697,200.499969 
	C115.870857,211.981934 115.981628,223.465530 115.811623,234.944977 
	C115.751526,239.002670 117.290504,240.707291 121.324814,240.695953 
	C142.291672,240.637024 163.258881,240.641846 184.225769,240.694534 
	C188.177673,240.704453 189.941345,239.090210 189.920563,235.013992 
	C189.825516,216.377121 189.819977,197.739136 189.925919,179.102386 
	C189.948547,175.121445 188.495697,173.288208 184.408890,173.300797 
	C163.442062,173.365372 142.474701,173.380829 121.508087,173.287231 
	C117.383987,173.268829 115.823875,175.154343 115.856255,179.032303 
	C115.913208,185.854416 115.871246,192.677383 115.870697,200.499969 
M226.502075,173.001785 
	C221.843597,173.002029 217.180542,173.131027 212.528000,172.964828 
	C208.223526,172.811035 206.604309,174.726395 206.627731,178.945938 
	C206.729324,197.246353 206.758789,215.548370 206.609207,233.848129 
	C206.572403,238.352371 208.166016,239.988708 212.737335,239.948364 
	C232.700485,239.772156 252.666122,239.889679 272.630798,239.861649 
	C278.384918,239.853577 279.306763,238.939514 279.317352,233.186417 
	C279.350464,215.218246 279.221466,197.248871 279.400940,179.282440 
	C279.448975,174.471497 277.629120,172.868881 272.919922,172.929474 
	C257.782562,173.124268 242.641068,173.001846 226.502075,173.001785 
z"/>
<path fill="#FFFEFE" opacity="1.000000" stroke="none" 
	d="
M197.924988,344.804932 
	C196.423691,320.850586 181.709030,304.163940 159.411530,300.745392 
	C135.146896,297.025208 111.448120,316.327850 109.994232,340.995728 
	C109.591331,347.831573 109.358856,348.079865 103.317078,348.127350 
	C93.970329,348.200806 91.470367,346.870392 91.503754,340.699127 
	C91.521545,337.409271 93.064545,334.133240 93.873825,330.839844 
	C94.298927,329.109833 94.933868,327.358368 94.948212,325.612274 
	C95.044006,313.948547 94.977837,302.283661 95.005791,290.619263 
	C95.022179,283.778351 97.420715,281.407074 104.387909,281.419617 
	C183.039688,281.561310 261.691376,281.740265 340.343201,281.860992 
	C359.428162,281.890289 375.912415,288.209137 389.164276,302.066681 
	C395.321289,308.505066 402.307861,311.637604 411.370453,311.118073 
	C420.687866,310.583923 421.877380,312.189362 421.877472,321.688812 
	C421.877533,327.354401 421.924713,333.020538 421.863708,338.685486 
	C421.790497,345.487549 419.221252,348.079926 412.544067,348.116699 
	C405.212372,348.157074 397.876312,347.983154 390.549805,348.182556 
	C386.467621,348.293671 385.077301,346.702454 384.867340,342.643951 
	C383.674286,319.581085 366.354950,301.942505 343.533997,300.249298 
	C321.736633,298.632080 302.010040,314.021057 297.400024,336.253418 
	C297.197784,337.228821 297.086304,338.226929 296.991791,339.220093 
	C296.144287,348.126923 296.148224,348.127472 286.963745,348.127380 
	C259.302277,348.127106 231.640396,348.186523 203.980148,348.001984 
	C201.970779,347.988556 199.973236,346.202759 197.924988,344.804932 
z"/>
<path fill="#FFFBFB" opacity="1.000000" stroke="none" 
	d="
M368.644531,360.451782 
	C361.710480,374.909912 348.159332,381.698914 334.170319,377.985596 
	C320.275848,374.297363 310.945404,361.239227 311.999603,346.957153 
	C312.918427,334.508331 322.589691,323.314178 334.888000,320.464722 
	C347.398438,317.566040 360.910522,323.095856 367.042725,334.112885 
	C371.640228,342.372681 372.029022,351.180298 368.644531,360.451782 
M353.968750,357.327209 
	C357.518829,350.880646 357.310791,345.587860 353.314423,340.680634 
	C349.493439,335.988770 343.587311,333.992828 338.183350,335.567200 
	C332.239166,337.298950 328.239166,342.007050 327.574219,348.054413 
	C326.934875,353.868805 330.191010,359.592529 335.663788,362.274475 
	C341.825714,365.294128 347.666412,363.872772 353.968750,357.327209 
z"/>
<path fill="#FFFCFC" opacity="1.000000" stroke="none" 
	d="
M176.817230,367.765503 
	C159.937546,387.140900 131.851578,378.379974 125.630371,356.279633 
	C121.320122,340.967896 131.568146,324.216461 147.683777,320.471436 
	C163.940582,316.693604 180.243820,327.197906 183.020355,343.097076 
	C184.602539,352.157104 182.668976,360.249329 176.817230,367.765503 
M142.475800,341.184723 
	C139.000137,346.644409 138.799408,352.197052 142.524353,357.530365 
	C145.836868,362.273163 150.578186,364.459747 156.379211,363.580139 
	C163.064056,362.566467 168.073837,357.420898 168.891266,351.086731 
	C169.641113,345.276398 166.143921,339.238495 160.447708,336.508759 
	C154.287064,333.556427 148.569077,334.898132 142.475800,341.184723 
z"/>
<path fill="#E61107" opacity="1.000000" stroke="none" 
	d="
M296.125031,211.999939 
	C296.125610,200.509567 296.157410,189.519058 296.105164,178.528946 
	C296.091766,175.713562 296.631256,173.534225 300.017609,173.379883 
	C321.756409,172.389175 342.585907,174.567535 360.134186,189.471085 
	C373.275909,200.632187 382.142242,214.698532 388.807343,230.330994 
	C393.016113,240.202377 392.433563,240.999863 381.840454,240.999908 
	C355.863220,241.000031 329.885986,241.001846 303.908752,240.998734 
	C296.517517,240.997849 296.130127,240.594910 296.125885,232.981979 
	C296.122070,226.154633 296.125061,219.327301 296.125031,211.999939 
z"/>
<path fill="#E61208" opacity="1.000000" stroke="none" 
	d="
M115.870697,199.999969 
	C115.871246,192.677383 115.913208,185.854416 115.856255,179.032303 
	C115.823875,175.154343 117.383987,173.268829 121.508087,173.287231 
	C142.474701,173.380829 163.442062,173.365372 184.408890,173.300797 
	C188.495697,173.288208 189.948547,175.121445 189.925919,179.102386 
	C189.819977,197.739136 189.825516,216.377121 189.920563,235.013992 
	C189.941345,239.090210 188.177673,240.704453 184.225769,240.694534 
	C163.258881,240.641846 142.291672,240.637024 121.324814,240.695953 
	C117.290504,240.707291 115.751526,239.002670 115.811623,234.944977 
	C115.981628,223.465530 115.870857,211.981934 115.870697,199.999969 
z"/>
<path fill="#E61006" opacity="1.000000" stroke="none" 
	d="
M227.001617,173.001785 
	C242.641068,173.001846 257.782562,173.124268 272.919922,172.929474 
	C277.629120,172.868881 279.448975,174.471497 279.400940,179.282440 
	C279.221466,197.248871 279.350464,215.218246 279.317352,233.186417 
	C279.306763,238.939514 278.384918,239.853577 272.630798,239.861649 
	C252.666122,239.889679 232.700485,239.772156 212.737335,239.948364 
	C208.166016,239.988708 206.572403,238.352371 206.609207,233.848129 
	C206.758789,215.548370 206.729324,197.246353 206.627731,178.945938 
	C206.604309,174.726395 208.223526,172.811035 212.528000,172.964828 
	C217.180542,173.131027 221.843597,173.002029 227.001617,173.001785 
z"/>
<path fill="#E6140A" opacity="1.000000" stroke="none" 
	d="
M353.752838,357.626099 
	C347.666412,363.872772 341.825714,365.294128 335.663788,362.274475 
	C330.191010,359.592529 326.934875,353.868805 327.574219,348.054413 
	C328.239166,342.007050 332.239166,337.298950 338.183350,335.567200 
	C343.587311,333.992828 349.493439,335.988770 353.314423,340.680634 
	C357.310791,345.587860 357.518829,350.880646 353.752838,357.626099 
z"/>
<path fill="#E6140A" opacity="1.000000" stroke="none" 
	d="
M142.721741,340.897552 
	C148.569077,334.898132 154.287064,333.556427 160.447708,336.508759 
	C166.143921,339.238495 169.641113,345.276398 168.891266,351.086731 
	C168.073837,357.420898 163.064056,362.566467 156.379211,363.580139 
	C150.578186,364.459747 145.836868,362.273163 142.524353,357.530365 
	C138.799408,352.197052 139.000137,346.644409 142.721741,340.897552 
z"/>
</svg>