<svg id="visual" viewBox="0 0 1440 150" width="1440" height="150" xmlns="http://www.w3.org/2000/svg" xmlns:xlink="http://www.w3.org/1999/xlink" version="1.1"><path d="M0 87L34.3 88.8C68.7 90.7 137.3 94.3 205.8 97C274.3 99.7 342.7 101.3 411.2 103.2C479.7 105 548.3 107 617 106.2C685.7 105.3 754.3 101.7 823 99.3C891.7 97 960.3 96 1028.8 98C1097.3 100 1165.7 105 1234.2 106.7C1302.7 108.3 1371.3 106.7 1405.7 105.8L1440 105L1440 151L1405.7 151C1371.3 151 1302.7 151 1234.2 151C1165.7 151 1097.3 151 1028.8 151C960.3 151 891.7 151 823 151C754.3 151 685.7 151 617 151C548.3 151 479.7 151 411.2 151C342.7 151 274.3 151 205.8 151C137.3 151 68.7 151 34.3 151L0 151Z" fill="#a0bfb9"></path><path d="M0 106L34.3 105.3C68.7 104.7 137.3 103.3 205.8 102C274.3 100.7 342.7 99.3 411.2 101C479.7 102.7 548.3 107.3 617 108.8C685.7 110.3 754.3 108.7 823 106.8C891.7 105 960.3 103 1028.8 101.5C1097.3 100 1165.7 99 1234.2 98.7C1302.7 98.3 1371.3 98.7 1405.7 98.8L1440 99L1440 151L1405.7 151C1371.3 151 1302.7 151 1234.2 151C1165.7 151 1097.3 151 1028.8 151C960.3 151 891.7 151 823 151C754.3 151 685.7 151 617 151C548.3 151 479.7 151 411.2 151C342.7 151 274.3 151 205.8 151C137.3 151 68.7 151 34.3 151L0 151Z" fill="#85a9a3"></path><path d="M0 111L34.3 112.3C68.7 113.7 137.3 116.3 205.8 117.3C274.3 118.3 342.7 117.7 411.2 118.7C479.7 119.7 548.3 122.3 617 124C685.7 125.7 754.3 126.3 823 125.2C891.7 124 960.3 121 1028.8 120.3C1097.3 119.7 1165.7 121.3 1234.2 122C1302.7 122.7 1371.3 122.3 1405.7 122.2L1440 122L1440 151L1405.7 151C1371.3 151 1302.7 151 1234.2 151C1165.7 151 1097.3 151 1028.8 151C960.3 151 891.7 151 823 151C754.3 151 685.7 151 617 151C548.3 151 479.7 151 411.2 151C342.7 151 274.3 151 205.8 151C137.3 151 68.7 151 34.3 151L0 151Z" fill="#6a948e"></path><path d="M0 134L34.3 132.2C68.7 130.3 137.3 126.7 205.8 125.2C274.3 123.7 342.7 124.3 411.2 126C479.7 127.7 548.3 130.3 617 129.7C685.7 129 754.3 125 823 124.7C891.7 124.3 960.3 127.7 1028.8 128.7C1097.3 129.7 1165.7 128.3 1234.2 128.7C1302.7 129 1371.3 131 1405.7 132L1440 133L1440 151L1405.7 151C1371.3 151 1302.7 151 1234.2 151C1165.7 151 1097.3 151 1028.8 151C960.3 151 891.7 151 823 151C754.3 151 685.7 151 617 151C548.3 151 479.7 151 411.2 151C342.7 151 274.3 151 205.8 151C137.3 151 68.7 151 34.3 151L0 151Z" fill="#4f7f7a"></path><path d="M0 140L34.3 138.5C68.7 137 137.3 134 205.8 134.2C274.3 134.3 342.7 137.7 411.2 138.7C479.7 139.7 548.3 138.3 617 137.8C685.7 137.3 754.3 137.7 823 138.3C891.7 139 960.3 140 1028.8 140.7C1097.3 141.3 1165.7 141.7 1234.2 141.3C1302.7 141 1371.3 140 1405.7 139.5L1440 139L1440 151L1405.7 151C1371.3 151 1302.7 151 1234.2 151C1165.7 151 1097.3 151 1028.8 151C960.3 151 891.7 151 823 151C754.3 151 685.7 151 617 151C548.3 151 479.7 151 411.2 151C342.7 151 274.3 151 205.8 151C137.3 151 68.7 151 34.3 151L0 151Z" fill="#336b67"></path></svg>