<svg id="visual" viewBox="0 0 1440 150" width="1440" height="150" xmlns="http://www.w3.org/2000/svg" xmlns:xlink="http://www.w3.org/1999/xlink" version="1.1"><path d="M0 61L34.3 59.2C68.7 57.3 137.3 53.7 205.8 51C274.3 48.3 342.7 46.7 411.2 44.8C479.7 43 548.3 41 617 41.8C685.7 42.7 754.3 46.3 823 48.7C891.7 51 960.3 52 1028.8 50C1097.3 48 1165.7 43 1234.2 41.3C1302.7 39.7 1371.3 41.3 1405.7 42.2L1440 43L1440 0L1405.7 0C1371.3 0 1302.7 0 1234.2 0C1165.7 0 1097.3 0 1028.8 0C960.3 0 891.7 0 823 0C754.3 0 685.7 0 617 0C548.3 0 479.7 0 411.2 0C342.7 0 274.3 0 205.8 0C137.3 0 68.7 0 34.3 0L0 0Z" fill="#a0bfb9"></path><path d="M0 42L34.3 42.7C68.7 43.3 137.3 44.7 205.8 46C274.3 47.3 342.7 48.7 411.2 47C479.7 45.3 548.3 40.7 617 39.2C685.7 37.7 754.3 39.3 823 41.2C891.7 43 960.3 45 1028.8 46.5C1097.3 48 1165.7 49 1234.2 49.3C1302.7 49.7 1371.3 49.3 1405.7 49.2L1440 49L1440 0L1405.7 0C1371.3 0 1302.7 0 1234.2 0C1165.7 0 1097.3 0 1028.8 0C960.3 0 891.7 0 823 0C754.3 0 685.7 0 617 0C548.3 0 479.7 0 411.2 0C342.7 0 274.3 0 205.8 0C137.3 0 68.7 0 34.3 0L0 0Z" fill="#85a9a3"></path><path d="M0 37L34.3 35.7C68.7 34.3 137.3 31.7 205.8 30.7C274.3 29.7 342.7 30.3 411.2 29.3C479.7 28.3 548.3 25.7 617 24C685.7 22.3 754.3 21.7 823 22.8C891.7 24 960.3 27 1028.8 27.7C1097.3 28.3 1165.7 26.7 1234.2 26C1302.7 25.3 1371.3 25.7 1405.7 25.8L1440 26L1440 0L1405.7 0C1371.3 0 1302.7 0 1234.2 0C1165.7 0 1097.3 0 1028.8 0C960.3 0 891.7 0 823 0C754.3 0 685.7 0 617 0C548.3 0 479.7 0 411.2 0C342.7 0 274.3 0 205.8 0C137.3 0 68.7 0 34.3 0L0 0Z" fill="#6a948e"></path><path d="M0 14L34.3 15.8C68.7 17.7 137.3 21.3 205.8 22.8C274.3 24.3 342.7 23.7 411.2 22C479.7 20.3 548.3 17.7 617 18.3C685.7 19 754.3 23 823 23.3C891.7 23.7 960.3 20.3 1028.8 19.3C1097.3 18.3 1165.7 19.7 1234.2 19.3C1302.7 19 1371.3 17 1405.7 16L1440 15L1440 0L1405.7 0C1371.3 0 1302.7 0 1234.2 0C1165.7 0 1097.3 0 1028.8 0C960.3 0 891.7 0 823 0C754.3 0 685.7 0 617 0C548.3 0 479.7 0 411.2 0C342.7 0 274.3 0 205.8 0C137.3 0 68.7 0 34.3 0L0 0Z" fill="#4f7f7a"></path><path d="M0 8L34.3 9.5C68.7 11 137.3 14 205.8 13.8C274.3 13.7 342.7 10.3 411.2 9.3C479.7 8.3 548.3 9.7 617 10.2C685.7 10.7 754.3 10.3 823 9.7C891.7 9 960.3 8 1028.8 7.3C1097.3 6.7 1165.7 6.3 1234.2 6.7C1302.7 7 1371.3 8 1405.7 8.5L1440 9L1440 0L1405.7 0C1371.3 0 1302.7 0 1234.2 0C1165.7 0 1097.3 0 1028.8 0C960.3 0 891.7 0 823 0C754.3 0 685.7 0 617 0C548.3 0 479.7 0 411.2 0C342.7 0 274.3 0 205.8 0C137.3 0 68.7 0 34.3 0L0 0Z" fill="#336b67"></path></svg>