<svg id="visual"
     viewBox="0 0 1440 150"
     width="1440"
     height="150"
     xmlns="http://www.w3.org/2000/svg"
     version="1.1">

  <defs>
    <!-- A white→transparent gradient for the shine effect -->
    <linearGradient id="shineGradient" x1="0%" y1="0%" x2="0%" y2="100%">
      <stop offset="0%"   stop-color="#ffffff" stop-opacity="0.4"/>
      <stop offset="100%" stop-opacity="0"/>
    </linearGradient>
  </defs>

  <!-- Layered wave shapes -->
  <path
    d="M0 77
       L17.2 75.7
       C34.3 74.3 68.7 71.7 103 76.5
       C137.3 81.3 171.7 93.7 206 91.3
       C240.3 89   274.7 72   308.8 61.8
       C343   51.7 377   48.3 411.2 51.7
       C445.3 55   479.7 65   514   77
       C548.3 89   582.7 103  617   97.3
       C651.3 91.7 685.7 66.3  720   51.5
       C754.3 36.7 788.7 32.3  823   36.7
       C857.3 41   891.7 54   926   73.3
       C960.3 92.7 994.7 118.3 1028.8 116.8
       C1063 115.3 1097 86.7  1131.2 71
       C1165.3 55.3 1199.7 52.7 1234  59.7
       C1268.3 66.7 1302.7 83.3 1337  80
       C1371.3 76.7 1405.7 53.3 1422.8 41.7
       L1440 30
       L1440 0
       L1422.8 0
       C1405.7 0 1371.3 0 1337 0
       C1302.7 0 1268.3 0 1234 0
       C1199.7 0 1165.3 0 1131.2 0
       C1097   0 1063   0 1028.8 0
       C994.7  0 960.3  0 926   0
       C891.7  0 857.3  0 823   0
       C788.7  0 754.3  0 720   0
       C685.7  0 651.3  0 617   0
       C582.7  0 548.3  0 514   0
       C479.7  0 445.3  0 411.2 0
       C377    0 343    0 308.8 0
       C274.7  0 240.3  0 206   0
       C171.7  0 137.3  0 103   0
       C68.7   0 34.3   0 17.2  0
       L0 0
       Z"
    fill="#a0bfb9"
  />

  <path
    d="M0 106
       L17.2 107.2
       C34.3 108.3 68.7 110.7 103 111.5
       C137.3 112.3 171.7 111.7 206 101.2
       C240.3 90.7 274.7 70.3 308.8 59.8
       C343   49.3 377   48.7 411.2 44.8
       C445.3 41   479.7 34   514   34.5
       C548.3 35   582.7 43   617   51.7
       C651.3 60.3 685.7 69.7 720   73.3
       C754.3 77   788.7 75   823   68
       C857.3 61   891.7 49   926   43.2
       C960.3 37.3 994.7 37.7 1028.8 43.8
       C1063 50   1097 62   1131.2 75.8
       C1165.3 89.7 1199.7 105.3 1234 108.3
       C1268.3 111.3 1302.7 101.7 1337 85.7
       C1371.3 69.7 1405.7 47.3 1422.8 36.2
       L1440 25
       L1440 0
       L1422.8 0
       C1405.7 0 1371.3 0 1337 0
       … (same trailing zeros) …
       L0 0
       Z"
    fill="#90b3ac"
  />

  <path
    d="M0 26
       L17.2 32.2
       C34.3 38.3 68.7 50.7 103 63.2
       C137.3 75.7 171.7 88.3 206 93.2
       C240.3 98   274.7 95   308.8 81.2
       C343   67.3 377   42.7 411.2 37.2
       C445.3 31.7 479.7 45.3 514   53.3
       C548.3 61.3 582.7 63.7 617   63.7
       C651.3 63.7 685.7 61.3 720   55
       C754.3 48.7 788.7 38.3 823   37
       C857.3 35.7 891.7 43.3 926   44.5
       C960.3 45.7 994.7 40.3 1028.8 48.3
       C1063 56.3 1097 77.7 1131.2 82
       C1165.3 86.3 1199.7 73.7 1234 75.8
       C1268.3 78   1302.7 95   1337 94.3
       C1371.3 93.7 1405.7 75.3 1422.8 66.2
       L1440 57
       L1440 0
       L1422.8 0
       … 
       L0 0
       Z"
    fill="#81a6a0"
  />

  <path
    d="M0 89
       L17.2 78.7
       C34.3 68.3 68.7 47.7 103 37.3
       C137.3 27   171.7 27   206 30.7
       C240.3 34.3 274.7 41.7 308.8 44.8
       C343   48   377   47   411.2 46
       C445.3 45   479.7 44   514   47.5
       C548.3 51   582.7 59   617   59.8
       C651.3 60.7 685.7 54.3 720   52.2
       C754.3 50   788.7 52   823   51.2
       C857.3 50.3 891.7 46.7 926   48.7
       C960.3 50.7 994.7 58.3 1028.8 54.2
       C1063 50   1097 34   1131.2 35.3
       C1165.3 36.7 1199.7 55.3 1234 67.5
       C1268.3 79.7 1302.7 85.3 1337 84.2
       C1371.3 83   1405.7 75   1422.8 71
       L1440 67
       L1440 0
       L1422.8 0
       …
       L0 0
       Z"
    fill="#729a94"
  />

  <path
    d="M0 72
       L17.2 73.5
       C34.3 75  68.7 78  103 73.5
       C137.3 69  171.7 57  206 46.8
       C240.3 36.7 274.7 28.3 308.8 28
       C343   27.7 377   35.3 411.2 33.7
       C445.3 32   479.7 21   514   24.3
       C548.3 27.7 582.7 45.3 617   46
       C651.3 46.7 685.7 30.3 720   25.7
       C754.3 21   788.7 28   823   38.7
       C857.3 49.3 891.7 63.7 926   63.8
       C960.3 64   994.7 50   1028.8 40.2
       C1063 30.3 1097 24.7 1131.2 26.5
       C1165.3 28.3 1199.7 37.7 1234 47.5
       C1268.3 57.3 1302.7 67.7 1337 70
       C1371.3 72.3 1405.7 66.7 1422.8 63.8
       L1440 61
       L1440 0
       L1422.8 0
       …
       L0 0
       Z"
    fill="#628e88"
  />

  <path
    d="M0 6
       L17.2 15.3
       C34.3 24.7 68.7 43.3 103 51
       C137.3 58.7 171.7 55.3 206 48.5
       C240.3 41.7 274.7 31.3 308.8 25.2
       C343   19   377   17   411.2 20.8
       C445.3 24.7 479.7 34.3 514   35.8
       C548.3 37.3 582.7 30.7 617   28.3
       C651.3 26   685.7 28   720   29.8
       C754.3 31.7 788.7 33.3 823   31.8
       C857.3 30.3 891.7 25.7 926   30.3
       C960.3 35   994.7 49   1028.8 50.5
       C1063 52   1097 41   1131.2 41.2
       C1165.3 41.3 1199.7 52.7 1234 57.2
       C1268.3 61.7 1302.7 59.3 1337 59.3
       C1371.3 59.3 1405.7 61.7 1422.8 62.8
       L1440 64
       L1440 0
       L1422.8 0
       …
       L0 0
       Z"
    fill="#53827d"
  />

  <path
    d="M0 31
       L17.2 30.3
       C34.3 29.7 68.7 28.3 103 25.5
       C137.3 22.7 171.7 18.3 206 17.3
       C240.3 16.3 274.7 18.7 308.8 22.5
       C343   26.3 377   31.7 411.2 30
       C445.3 28.3 479.7 19.7 514   14.3
       C548.3 9   582.7 7   617   6.5
       C651.3 6   685.7 7   720   10.8
       C754.3 14.7 788.7 21.3 823   25.5
       C857.3 29.7 891.7 31.3 926   30.5
       C960.3 29.7 994.7 26.3 1028.8 25.7
       C1063 25   1097 27   1131.2 28.3
       C1165.3 29.7 1199.7 30.3 1234 27.2
       C1268.3 24   1302.7 17   1337 18.8
       C1371.3 20.7 1405.7 31.3 1422.8 36.7
       L1440 42
       L1440 0
       L1422.8 0
       …
       L0 0
       Z"
    fill="#437772"
  />

  <path
    d="M0 11
       L17.2 14
       C34.3 17 68.7 23 103 21.2
       C137.3 19.3 171.7 9.7 206 7.3
       C240.3 5   274.7 10  308.8 11.8
       C343   13.7 377   12.3 411.2 13
       C445.3 13.7 479.7 16.3 514   15.8
       C548.3 15.3 582.7 11.7 617   11.3
       C651.3 11   685.7 14   720   17.3
       C754.3 20.7 788.7 24.3 823   22.5
       C857.3 20.7 891.7 13.3 926   11.5
       C960.3 9.7  994.7 13.3 1028.8 14.2
       C1063 15   1097 13   1131.2 12.8
       C1165.3 12.7 1199.7 14.3 1234 14.7
       C1268.3 15   1302.7 14   1337 11.3
       C1371.3 8.7  1405.7 4.3  1422.8 2.2
       L1440 0
       L0 0
       Z"
    fill="#336b67"
  />

  <!-- Shine overlay -->
  <rect x="0" y="0"
        width="1440" height="150"
        fill="url(#shineGradient)"/>
</svg>
