<?xml version="1.0" encoding="utf-8" ?>
<svg xmlns="http://www.w3.org/2000/svg" xmlns:xlink="http://www.w3.org/1999/xlink" width="1024" height="1024">
	<path fill="#382E2A" d="M0 0L1024 0L1024 1024L0 1024L0 0Z"/>
	<path fill="#FAF9F8" d="M748.348 342.721C751.296 342.548 754.262 342.588 757.213 342.651C790.487 343.217 822.158 357.043 845.196 381.058C834.37 392.192 823.629 403.408 812.975 414.707C800.858 401.714 786.872 392.877 769.237 389.51C749.278 385.699 728.171 389.182 711.317 400.803C694.138 412.648 682.922 432.363 679.281 452.695C675.169 475.658 678.855 500.477 692.355 519.815C703.293 535.744 720.187 546.596 739.223 549.92C761.723 553.867 785.72 549.207 804.492 536.133L804.488 494.495L752.568 494.525L752.593 452.91L765.25 452.913L848.846 452.941C848.288 487.172 849.194 521.434 848.619 555.666C848.388 555.953 848.162 556.245 847.919 556.522C827.778 579.525 795.46 591.976 765.522 593.864C730.237 596.09 695.456 587.59 668.628 563.623C644.822 542.354 631.239 511.197 629.553 479.533C627.655 443.89 637.867 408.784 662.055 382.009C684.587 357.067 715.114 344.381 748.348 342.721Z"/>
	<path fill="#FAF9F8" d="M418.588 346.481L465.615 346.496C465.119 382.212 465.546 417.988 465.542 453.71C497.445 419.689 525.504 382.433 555.177 346.496C574.064 346.48 593.036 346.083 611.911 346.648C608.927 351.386 604.793 355.648 601.161 359.916L582.093 382.264C562.398 405.332 542.942 428.648 522.942 451.451C544.18 482.152 566.299 512.329 588.026 542.689C599.524 558.788 611.432 574.731 622.463 591.149C603.421 591.895 584.182 591.353 565.121 591.373L486.803 480.765C480.303 487.191 472.943 492.419 465.498 497.663L465.567 591.368L418.546 591.318L418.588 346.481Z"/>
	<path fill="#FAF9F8" d="M230.625 219.696C231.084 219.694 231.544 219.689 232.004 219.708C239.139 220.018 245.8 222.987 250.5 228.427C254.796 233.413 256.918 239.911 256.393 246.471C255.901 253.284 252.678 259.608 247.455 264.01C241.185 269.251 234.174 270.108 226.384 269.514C222.768 280.317 218.387 290.774 213.906 301.239C216.299 302.761 218.629 304.331 220.712 306.266C227.02 312.129 230.702 320.021 230.92 328.651C231.184 339.137 226.781 346.588 219.717 353.908C227.779 367.997 236.596 381.064 247.018 393.496C244.861 401.507 243.587 408.944 243.96 417.274C244.727 434.419 252.633 450.739 264.15 463.272C268.014 467.476 272.429 471.177 276.658 475.006C271.897 479.075 266.015 482.459 260.806 485.976C251.792 478.407 243.739 469.682 237.701 459.541C226.63 440.945 221.674 417.693 227.047 396.446L229.061 389.37C224.007 378.831 216.904 368.887 210.615 359.037C201.557 361.725 193.001 362.348 184.236 358.218C175.554 354.127 170.662 347.014 167.571 338.187C158.32 340.154 148.93 341.622 139.614 343.257C139.268 344.7 138.889 346.136 138.478 347.562C136.708 353.538 132.125 358.958 126.629 361.85C121.042 364.79 114.093 365.343 108.086 363.376C101.875 361.314 96.7415 356.861 93.8243 351.003C90.8771 345.28 90.3676 338.609 92.4115 332.506C94.5315 326.348 99.0502 321.309 104.941 318.533C110.776 315.752 117.49 315.454 123.549 317.707C130.777 320.361 135.041 325.503 138.241 332.225C147.693 330.936 157.166 329.814 166.657 328.86C166.736 327.756 166.839 326.653 166.965 325.553C167.957 317.105 172.091 309.221 178.844 303.975C186.195 298.263 194.865 296.719 203.934 297.893C208.457 287.249 213.054 276.632 217.007 265.76C216.789 265.591 216.568 265.425 216.352 265.253C210.658 260.729 206.758 254.484 206.089 247.122C205.456 240.308 207.637 233.531 212.126 228.365C217.065 222.682 223.312 220.307 230.625 219.696Z"/>
	<path fill="#FAF9F8" d="M341.078 346.174C345.721 346.069 350.228 347.137 354.173 349.637C363.334 355.442 365.708 367.792 367.713 377.794C370.612 392.265 368.802 408.838 364.18 422.756C351.935 459.632 322.089 481.013 292.561 503.24C279.182 513.312 265.413 524.567 255.921 538.494C250.217 546.863 245.593 557.227 244.492 567.38C243.737 574.344 247.827 586.178 243.739 591.842C242.25 593.905 240.206 594.753 237.759 595.161C234.117 595.767 232.046 594.908 229.117 592.796C225.765 588.936 224.067 584.406 223.189 579.432C221.236 568.369 223.113 556.387 226.733 545.855C245.381 491.605 302.58 480.476 332.156 437.799C342.764 422.492 348.442 405.25 345.139 386.657C339.157 387.132 333.634 386.148 328.816 382.349C324.608 379.049 321.889 374.206 321.261 368.895C320.623 363.509 322.198 358.094 325.627 353.892C329.622 349.021 334.991 346.907 341.078 346.174Z"/>
	<path fill="#EECE84" d="M211.024 639.16C222.436 638.955 236.353 637.265 245.441 645.693C250.174 650.083 252.608 656.237 252.907 662.616C253.277 670.487 250.611 677.164 245.339 682.922C235.174 691.495 223.427 690.046 211.002 690C210.908 673.053 210.915 656.106 211.024 639.16Z"/>
	<path fill="#382E2A" d="M219.157 646.674C225.711 646.583 233.295 646.273 238.608 650.757C242.062 653.671 243.836 657.997 244.216 662.431C244.722 668.33 243.127 673.236 239.283 677.678C233.292 682.8 226.565 682.373 219.207 682.382L219.157 646.674Z"/>
	<path fill="#FAF9F8" d="M315.292 498.876C325.305 505.324 334.178 513.89 341.397 523.339C353.964 539.787 362.416 562.419 359.191 583.37C358.736 586.324 357.595 589.371 355.058 591.147C352.184 593.157 348.976 593.014 345.709 592.323C345.035 591.932 344.341 591.532 343.733 591.043C339.774 587.856 341.354 578.277 341.219 573.719C341.118 570.394 340.807 567.078 340.29 563.792C336.72 539.821 318.754 523.381 300.386 509.746C304.728 505.551 310.315 502.274 315.292 498.876Z"/>
	<path fill="#EECE84" d="M164.526 639.131C170.503 639.031 176.671 638.682 182.627 639.084C187.292 639.4 192.363 640.691 195.444 644.475C197.657 647.194 198.634 651.253 198.065 654.7C197.394 658.762 194.653 661.18 191.455 663.421C191.623 663.506 191.792 663.59 191.959 663.678L192.791 664.121C195.601 665.597 197.807 667.188 199.292 670.087C201.29 673.985 200.453 678.145 199.071 682.08C198.319 683.282 197.511 684.366 196.504 685.372C189.627 692.248 173.682 690.036 164.487 689.947L164.526 639.131Z"/>
	<path fill="#382E2A" d="M173.019 667.155C178.464 667.115 185.001 666.506 189.743 669.637C191.152 670.567 192.178 671.765 192.416 673.502C192.763 676.034 191.319 678.855 189.784 680.758C185.088 683.339 178.203 682.45 172.968 682.389C172.945 677.311 172.962 672.233 173.019 667.155Z"/>
	<path fill="#382E2A" d="M172.966 646.514C177.634 646.486 183.481 645.938 187.586 648.518C188.984 649.398 189.786 650.501 190.004 652.177C190.277 654.265 189.042 656.537 187.869 658.156C183.721 661.068 177.805 660.325 172.974 660.244L172.966 646.514Z"/>
	<path fill="#EECE84" d="M510.452 639.111L518.62 639.131C524.562 648.743 529.995 658.66 536.011 668.224C541.878 658.734 547.21 648.775 552.846 639.131L561.002 639.233L560.992 689.959L552.931 689.99C552.831 680.914 553.013 671.817 553.064 662.739C553.058 659.683 553.167 656.628 553.39 653.58C548.952 660.657 541.262 676.582 535.89 681.612L535.256 681.537C530.226 675.891 521.519 659.822 518.145 652.59C519.051 664.898 518.884 677.589 518.748 689.929L510.426 689.996L510.452 639.111Z"/>
	<path fill="#EECE84" d="M442.556 639.228C449 639.094 455.886 638.529 462.27 639.34C466.781 639.914 471.254 641.586 474.007 645.39C476.44 648.75 477.183 653.602 476.434 657.63C475.435 662.994 471.767 666.371 467.561 669.423C471.367 676.482 476.706 682.823 480.221 689.905L470.023 689.98C466.074 684.287 463.051 677.698 459.832 671.563L450.941 671.574L450.878 689.911L442.484 689.995L442.556 639.228Z"/>
	<path fill="#382E2A" d="M450.863 646.92C455.124 646.83 459.361 646.437 463.403 648.061C465.421 648.871 467.515 650.333 468.242 652.484C469.274 655.538 467.723 658.791 466.154 661.333C461.881 664.789 456.103 664.1 450.931 664.123L450.863 646.92Z"/>
	<path fill="#EECE84" d="M855.502 639.191L863.592 639.1L889.027 674.236L889.064 639.254L897.446 639.207L897.436 669.721C897.454 676.16 897.739 682.715 897.26 689.137C896.169 690.238 895.302 690.034 893.793 690.193C892.656 690.168 891.6 690.047 890.479 689.865C886.963 686.256 884.155 681.213 881.289 677.03L863.473 650.986C863.822 663.954 863.676 676.955 863.628 689.927L855.455 689.989L855.502 639.191Z"/>
	<path fill="#EECE84" d="M405.959 639.082L414.56 639.15C421.413 655.848 427.823 672.889 433.944 689.869L424.954 689.994L420.778 678.28L414.254 678.263L399.471 678.296L395.111 689.971L386.901 689.969C388.777 683.452 391.521 677.025 393.936 670.683L405.959 639.082Z"/>
	<path fill="#382E2A" d="M410.147 649.841C411.975 651.61 416.62 666.928 417.904 670.47L409.375 670.419L402.314 670.424C404.853 663.536 407.464 656.674 410.147 649.841Z"/>
	<path fill="#EECE84" d="M818.669 639.15L827.145 639.195C834.134 655.847 840.181 673.036 846.532 689.951L837.516 689.985L833.181 678.166L827.709 678.15L812.089 678.216C810.638 682.109 809.283 686.037 808.023 689.997L799.535 689.983C802.682 680.393 806.378 670.962 809.953 661.524C812.778 654.065 815.429 646.438 818.669 639.15Z"/>
	<path fill="#382E2A" d="M822.712 649.865C824.501 651.55 829.195 667.035 830.4 670.457L822.677 670.407L814.961 670.432L822.712 649.865Z"/>
	<path fill="#EECE84" d="M127.814 639.139L136.538 639.17C142.975 656.031 149.708 672.861 155.596 689.921L146.584 689.98C145.35 686.037 143.944 682.161 142.544 678.275L136.164 678.215L121.28 678.198C119.792 682.071 118.522 686.038 117.186 689.966L108.847 689.975C114.413 672.838 121.323 655.956 127.814 639.139Z"/>
	<path fill="#382E2A" d="M131.989 649.751C134.365 652.362 138.299 666.334 139.728 670.448L131.375 670.433L124.169 670.422L131.989 649.751Z"/>
	<path fill="#EECE84" d="M715.86 638.197C723.079 637.52 730.542 639.592 736.203 644.111C734.552 646.181 732.639 648.078 730.83 650.013C729.74 649.333 728.639 648.669 727.485 648.102C722.526 645.663 716.324 644.775 711.064 646.776C706.605 648.472 703.285 652.129 701.542 656.517C699.428 661.835 699.539 668.302 701.94 673.508C703.819 677.58 707.092 680.733 711.335 682.246C717.225 684.346 723.741 683.022 729.206 680.377C729.435 676.626 729.255 672.776 729.24 669.014L718.159 669.001L718.163 661.696C723.978 660.476 731.678 661.442 737.656 661.489C737.494 669.369 737.594 677.268 737.584 685.15C733.438 687.758 729.031 689.565 724.2 690.443C716.492 691.842 708.322 690.952 701.845 686.236C696.138 682.081 692.641 675.739 691.683 668.79C690.663 661.389 692.235 653.592 696.947 647.664C701.761 641.607 708.365 638.947 715.86 638.197Z"/>
	<path fill="#EECE84" d="M749.613 639.242C752.398 639.225 755.19 639.294 757.975 639.326L757.98 660.482L781.762 660.463L781.85 639.351L790.458 639.343C790.438 645.847 791.288 688.138 789.862 689.983L781.842 690.008L781.78 668.126L758.011 668.091L758.026 689.976L749.976 689.99C749.494 673.163 749.133 656.073 749.613 639.242Z"/>
	<path fill="#FAF9F8" d="M256.813 406.057C270.381 405.589 284.09 405.977 297.671 405.972C306.822 405.969 316.54 405.321 325.639 406.137C327.821 406.332 330.01 406.823 331.397 408.676C332.418 410.04 332.553 411.785 332.223 413.411C331.696 416.002 330.38 417.301 328.202 418.652C316.981 419.698 305.011 418.792 293.7 418.824C283.61 418.851 267.555 419.843 258.169 418.582C256.304 418.331 254.435 417.741 253.371 416.049C252.47 414.615 252.434 412.895 252.768 411.284C253.333 408.567 254.532 407.493 256.813 406.057Z"/>
	<path fill="#FAF9F8" d="M257.88 564.107C269.452 563.752 281.12 564.043 292.702 564.037C301.448 564.032 319.732 562.756 327.356 565.011C328.889 565.464 330.574 566.061 331.287 567.609C331.981 569.117 332.161 570.57 331.575 572.148C330.665 574.596 329.02 575.777 326.74 576.854C318.635 577.344 260.48 577.734 256.5 576.449C255.175 576.021 254.189 575.011 253.561 573.799C252.684 572.11 252.219 570.012 252.941 568.189C253.844 565.915 255.737 564.97 257.88 564.107Z"/>
	<path fill="#EECE84" d="M369.894 639.134C373.175 639.134 376.456 639.173 379.736 639.252C373.756 647.967 365.764 655.822 358.911 663.89C363.771 669.255 368.865 674.436 373.855 679.683C376.938 682.983 379.886 686.34 382.742 689.839C379.21 689.995 375.65 689.946 372.115 689.979C365.369 682.031 358.049 674.477 351.002 666.79L351.129 689.973L342.662 690.006L342.677 639.239L351.074 639.15C351.156 646.406 351.135 653.663 351.011 660.918C357.358 653.703 363.653 646.441 369.894 639.134Z"/>
	<path fill="#EECE84" d="M595.294 639.147C605.18 638.846 615.126 639.056 625.019 639.045L625.021 646.546L603.551 646.5L603.553 660.369L622.206 660.351L622.126 667.641C616.198 667.593 610.007 667.203 604.118 667.785C603.283 668.859 603.549 670.345 603.57 671.64L603.576 682.256C610.69 682.18 617.804 682.156 624.919 682.182L624.898 689.896L595.271 689.971L595.294 639.147Z"/>
	<path fill="#EECE84" d="M263.408 639.134C273.218 639.053 283.029 639.042 292.839 639.103L292.815 646.577L271.473 646.565L271.486 660.412L290.414 660.411L290.197 667.685C285.794 667.705 274.904 666.148 271.611 668.522L271.502 670.375L271.48 682.234C278.515 682.149 285.55 682.166 292.585 682.286L292.525 689.942L263.307 689.971L263.408 639.134Z"/>
	<path fill="#FAF9F8" d="M273.097 530.233C280.022 530.201 309.594 529.005 314.178 530.843C315.823 531.489 317.095 532.833 317.651 534.511C318.212 536.227 317.907 538.212 316.962 539.737C315.807 541.601 314.254 542.286 312.209 542.824C305.919 543.061 275.619 543.872 271.514 542.051C269.769 541.277 267.956 539.761 267.398 537.861C266.961 536.372 267.075 534.968 267.908 533.636C269.166 531.626 270.861 530.759 273.097 530.233Z"/>
	<path fill="#EECE84" d="M306.145 639.245L313.425 639.189L313.445 682.428L333.882 682.348C333.901 683.223 333.914 684.097 333.921 684.972C333.935 686.75 334.242 688.691 332.972 689.985L305.001 690.006C305.003 683.077 304.241 642.974 305.203 639.649L306.145 639.245Z"/>
	<path fill="#FAF9F8" d="M271.328 442.039C280.77 441.916 290.212 441.856 299.655 441.858C303.554 441.848 313.599 440.772 316.354 443.801C317.63 445.203 318.078 447.341 317.799 449.176C317.456 451.434 316.208 452.539 314.437 453.82C310.159 454.274 305.627 453.995 301.32 454.012L277.539 454.118C274.801 454.114 270.867 454.36 268.964 451.977C267.726 450.427 267.713 447.69 268.103 445.824C268.504 443.906 269.836 443.086 271.328 442.039Z"/>
	<path fill="#EECE84" d="M636.942 639.121L645.234 639.059L645.281 682.479L665.515 682.382L665.51 689.961L636.932 689.982L636.942 639.121Z"/>
	<path fill="#EECE84" d="M489.049 639.245L497.234 639.278L497.219 689.968L488.729 690.001C488.804 679 488.816 668 488.768 656.999C488.764 651.161 488.339 645.032 489.049 639.245Z"/>
	<path fill="#EECE84" d="M910.56 639.23C913.353 639.238 916.145 639.263 918.937 639.304L918.913 689.995L910.498 690.007L910.56 639.23Z"/>
</svg>
