<svg xmlns="http://www.w3.org/2000/svg" width="1024" height="1024" style="shape-rendering:geometricPrecision;text-rendering:geometricPrecision;image-rendering:optimizeQuality;fill-rule:evenodd;clip-rule:evenodd"><path style="opacity:1" fill="#fefdfb" d="M-.5-.5h1024v1024H-.5V-.5z"/><path style="opacity:1" fill="#443f3d" d="M284.5 410.5a50.464 50.464 0 0 1-10-.5 12.403 12.403 0 0 0 4-2.5c-1.796-.641-3.296-1.641-4.5-3-1.193 1.478-1.693 2.812-1.5 4a14.972 14.972 0 0 1-3.5-3c-2.82-6.872-1.653-12.872 3.5-18 1.531-2.18 3.698-3.18 6.5-3 11.323 1.955 15.656 8.622 13 20-1.512 3.357-4.012 5.357-7.5 6z"/><path style="opacity:1" fill="#322d2b" d="M272.5 387.5c-5.153 5.128-6.32 11.128-3.5 18a14.972 14.972 0 0 0 3.5 3c-.193-1.188.307-2.522 1.5-4 1.204 1.359 2.704 2.359 4.5 3a12.403 12.403 0 0 1-4 2.5c3.317.498 6.65.665 10 .5-2.691 2.166-5.691 2.499-9 1a74.048 74.048 0 0 0-7.5 7 146.358 146.358 0 0 1 3.5 9.5 13.021 13.021 0 0 1-2 5.5 273.887 273.887 0 0 0-.5-9 26.091 26.091 0 0 0-3.5-5 38.929 38.929 0 0 1 5-5.5c-1.064-1.511-2.397-1.677-4-.5a25.14 25.14 0 0 1 4-4.5c-5.412-5.552-6.246-11.719-2.5-18.5 1.129-1.641 2.629-2.641 4.5-3z"/><path style="opacity:1" fill="#918c8a" d="m80.5 409.5 2 72c-.342.838-1.008 1.172-2 1v-73z"/><path style="opacity:1" fill="#151210" d="M413.5 441.5c-1.789-1.734-3.122-4.401-4-8-3.622-1.159-7.289-1.325-11-.5-1.312 4.351-2.979 7.851-5 10.5a78.28 78.28 0 0 1 4-11.5 28.717 28.717 0 0 1 13 .5 71.408 71.408 0 0 1 3 9z"/><path style="opacity:1" fill="#0d0a09" d="M891.5 431.5a62.792 62.792 0 0 1 15.5 1 284.99 284.99 0 0 1 13.5 29 549.422 549.422 0 0 1-14.5-28c-4.401-.967-8.901-1.3-13.5-1v67h9a600.937 600.937 0 0 1 1-49v50h-11v-69z"/><path style="opacity:1" fill="#34302d" d="M830.5 431.5c14.08 3.475 20.247 12.475 18.5 27-.629 4.107-2.463 7.44-5.5 10 4.531-7.765 5.031-15.765 1.5-24l-1 1c.148-1.325-.018-2.492-.5-3.5-.667-.667-1.333-.667-2 0 1.196.654 1.196 1.154 0 1.5-.472-3.704-1.472-5.704-3-6-1.808-.009-3.475.491-5 1.5-1.333.667-1.333 1.333 0 2l-2 1c7.212 5.121 8.712 11.621 4.5 19.5-2.623 1.515-3.623 3.515-3 6a7.248 7.248 0 0 0-2.5-2c-5.463 1.306-10.796 1.306-16 0a61.522 61.522 0 0 0 17-1.5c4.711-4.14 6.211-9.306 4.5-15.5-2.096-3.635-5.263-5.635-9.5-6-3.812-.824-7.812-1.324-12-1.5 4.722-.777 9.389-.61 14 .5 1.312-2.236.979-4.236-1-6a26.724 26.724 0 0 1 7-1.5c-9.994-.5-19.994-.666-30-.5v66a1123.002 1123.002 0 0 1-1-67c9.182.327 18.182-.007 27-1z"/><path style="opacity:1" fill="#46403e" d="M920.5 461.5c1.726 2.442 3.226 5.109 4.5 8a913.526 913.526 0 0 1 18.5-36 53.805 53.805 0 0 1 14-1v67h-9a552.805 552.805 0 0 0-1-47 2.428 2.428 0 0 0-.5-2c-.278.916-.778 1.582-1.5 2a909.611 909.611 0 0 0-18.5 36 3.943 3.943 0 0 1-2 1 6453.93 6453.93 0 0 0-20.5-37l-2-2a600.937 600.937 0 0 0-1 49h-9v-67c4.599-.3 9.099.033 13.5 1a549.422 549.422 0 0 0 14.5 28z"/><path style="opacity:1" fill="#171412" d="M774.5 449.5c-2.668-4.676-5.002-10.176-7-16.5-3.711-.825-7.378-.659-11 .5-.878 3.599-2.211 6.266-4 8a48.716 48.716 0 0 1 3-9 49.87 49.87 0 0 1 14-1 137.743 137.743 0 0 0 5 18z"/><path style="opacity:1" fill="#292724" d="M947.5 452.5a552.805 552.805 0 0 1 1 47h9v-67a53.805 53.805 0 0 0-14 1c4.896-1.946 10.229-2.613 16-2v70h-12v-49z"/><path style="opacity:1" fill="#fcfbfa" d="M542.5 450.5c4.119 10.061 3.952 20.061-.5 30-7.074 8.577-16.241 11.91-27.5 10v-48c10.897-2.177 20.23.49 28 8z"/><path style="opacity:1" fill="#403b38" d="M266.5 413.5c1.603-1.177 2.936-1.011 4 .5a38.929 38.929 0 0 0-5 5.5 26.091 26.091 0 0 1 3.5 5c.229 3.235.396 6.235.5 9 .591 3.114 2.258 5.614 5 7.5 3.26-.482 6.593-.482 10 0 3.552 2.56 6.719 5.393 9.5 8.5a113.352 113.352 0 0 1 13.5-2c1.617-14.115 9.284-19.281 23-15.5 8.781 6.71 10.281 14.877 4.5 24.5-9.498 7.445-17.998 6.445-25.5-3l-3.5-1c-4.82.831-9.653 1.498-14.5 2-1.992 6.791-6.659 9.957-14 9.5l-5 5c6.115 4.959 7.615 11.126 4.5 18.5-7.667 6.875-15 6.541-22-1-3.296-11.235.87-17.735 12.5-19.5l4.5-4.5c-1.616-3.354-2.782-7.02-3.5-11a11.284 11.284 0 0 1 2-6 47.05 47.05 0 0 1-5-6.5l-10-1a114.41 114.41 0 0 0-8.5-7.5 52.85 52.85 0 0 1-12.5 1c-4.351 11.847-12.351 15.014-24 9.5-5.615-4.968-7.448-11.135-5.5-18.5 8.177-11.978 17.51-12.978 28-3 1.411 2.15 2.245 4.484 2.5 7 4.76-.013 9.426-.68 14-2 1.092-2.594 2.759-4.761 5-6.5 4.368-.767 8.368-2.267 12-4.5z"/><path style="opacity:1" fill="#0a0605" d="M685.5 431.5c.166 9.339 0 18.673-.5 28-.5-8.994-.666-17.994-.5-27h-9v67h9c-.327-10.181.006-20.181 1-30v31h-11v-69h11z"/><path style="opacity:1" fill="#3e3937" d="M687.5 470.5v-1c2.393.853 3.726 2.519 4 5 2.881-.198 4.881-1.698 6-4.5l-3-5a604.676 604.676 0 0 0 3-3.5c-1.402-1.342-1.069-2.176 1-2.5-1.072-1.284-2.405-1.617-4-1a9.454 9.454 0 0 1-1.5-2.5l-5 4c-.399-.228-.565-.562-.5-1 6.977-8.648 13.977-17.314 21-26a38.064 38.064 0 0 1 15-.5 1209.93 1209.93 0 0 0-26 32.5 726.761 726.761 0 0 0 28 36 33.225 33.225 0 0 1-14 .5 1024.056 1024.056 0 0 1-24-30.5z"/><path style="opacity:1" fill="#423d3a" d="M470.5 431.5c16.38 3.093 21.547 12.426 15.5 28a18.778 18.778 0 0 1-5.5 4.5c11.937 7.652 14.104 17.485 6.5 29.5-1.129 1.641-2.629 2.641-4.5 3a39.98 39.98 0 0 1-8 2.5c-9.661.5-19.328.666-29 .5v-67c8.517.326 16.85-.007 25-1z"/><path style="opacity:1" fill="#f9f8f7" d="M455.5 441.5a57.025 57.025 0 0 1 17 1.5c5.872 6.225 5.205 11.558-2 16a45.902 45.902 0 0 1-15 1.5v-19z"/><path style="opacity:1" fill="#1d1a18" d="M777.5 457.5a505.146 505.146 0 0 1 11 34 618.173 618.173 0 0 1-12-32.5c.07-.765.403-1.265 1-1.5z"/><path style="opacity:1" fill="#3b3634" d="M546.5 438.5c7.737 7.006 11.737 15.839 12 26.5.115 12.005-4.218 22.005-13 30a10.134 10.134 0 0 1-4 1.5c1.179-2.007.679-2.34-1.5-1-2.282-1.866-3.115-4.032-2.5-6.5-2.517-.257-4.85.41-7 2l2 1c-1.544 1.187-3.211 1.52-5 1l2-1c-5.184-.174-10.184-.674-15-1.5 11.259 1.91 20.426-1.423 27.5-10 4.452-9.939 4.619-19.939.5-30 1.91 1.475 3.076 3.475 3.5 6a78.39 78.39 0 0 1 2 13c.498-3.317.665-6.65.5-10 2.561.053 4.561-.947 6-3-2.316-2.927-3.816-2.593-4.5 1a16.242 16.242 0 0 1 0-8 11.38 11.38 0 0 0 2.5-2 28.54 28.54 0 0 0-7-8.5c.228-.399.562-.565 1-.5z"/><path style="opacity:1" fill="#46413f" d="M581.5 441.5v19c7.482.992 15.148 1.325 23 1v8c-7.674-.166-15.341 0-23 .5-1.327 6.932-1.327 13.765 0 20.5 9.819.994 19.819 1.327 30 1v8h-40v-67h39v8c-9.848-.327-19.514.006-29 1z"/><path style="opacity:1" fill="#1d1a18" d="M581.5 460.5h24v11h-24v19c-1.327-6.735-1.327-13.568 0-20.5 7.659-.5 15.326-.666 23-.5v-8c-7.852.325-15.518-.008-23-1z"/><path style="opacity:1" fill="#45403d" d="M826.5 442.5h-12v23c5.204 1.306 10.537 1.306 16 0a7.248 7.248 0 0 1 2.5 2c-.623-2.485.377-4.485 3-6 4.212-7.879 2.712-14.379-4.5-19.5l2-1c-1.333-.667-1.333-1.333 0-2 1.525-1.009 3.192-1.509 5-1.5 1.528.296 2.528 2.296 3 6 1.196-.346 1.196-.846 0-1.5.667-.667 1.333-.667 2 0 .482 1.008.648 2.175.5 3.5l1-1c3.531 8.235 3.031 16.235-1.5 24-1.827 2.974-4.493 5.141-8 6.5a656.39 656.39 0 0 1 17 25.5c-4.667 1.333-9.333 1.333-14 0a401.586 401.586 0 0 0-14-23 25.879 25.879 0 0 0-10-1v23a260.63 260.63 0 0 1-1.5-23c-.5 7.659-.666 15.326-.5 23h-8v-66c10.006-.166 20.006 0 30 .5-2.4.186-4.734.686-7 1.5 1.979 1.764 2.312 3.764 1 6-4.611-1.11-9.278-1.277-14-.5 4.188.176 8.188.676 12 1.5z"/><path style="opacity:1" fill="#fdfcfb" d="M826.5 442.5c4.237.365 7.404 2.365 9.5 6 1.711 6.194.211 11.36-4.5 15.5a61.522 61.522 0 0 1-17 1.5v-23h12z"/><path style="opacity:1" fill="#474240" d="M413.5 441.5c1.371 2.436 2.371 5.103 3 8-.597.235-.93.735-1 1.5 6.011 16.167 11.011 31.667 15 46.5-1.951.273-3.451-.393-4.5-2l-1 1a29.144 29.144 0 0 1-2.5-5 317.314 317.314 0 0 0-.5 5c-1.232-3.561-2.732-6.894-4.5-10h-27a332.95 332.95 0 0 1 26-1.5l-26-1a20.2 20.2 0 0 0 6-1.5c.665-1.601.999-3.101 1-4.5l-3-1a177.566 177.566 0 0 0 19-1.5c.597-.235.93-.735 1-1.5-3.032-9.99-6.366-19.156-10-27.5a5898.689 5898.689 0 0 0-7 16 86.539 86.539 0 0 0-4 10 47.127 47.127 0 0 1-4 5.5l2 1c-1.921.36-3.588 1.194-5 2.5-.171-1.824-1.171-3.658-3-5.5a743.374 743.374 0 0 1 10-29c-.07-.765-.403-1.265-1-1.5-.172-.992.162-1.658 1-2 2.021-2.649 3.688-6.149 5-10.5 3.711-.825 7.378-.659 11 .5.878 3.599 2.211 6.266 4 8z"/><path style="opacity:1" fill="#1d1a17" d="M413.5 475.5c.172-.992-.162-1.658-1-2l-8-27c3.634 8.344 6.968 17.51 10 27.5-.07.765-.403 1.265-1 1.5z"/><path style="opacity:1" fill="#f8f7f6" d="m404.5 446.5 8 27c-5.81.99-11.81 1.323-18 1a60.48 60.48 0 0 0 3-12 5898.689 5898.689 0 0 1 7-16z"/><path style="opacity:1" fill="#2f2b28" d="M470.5 431.5c-8.15.993-16.483 1.326-25 1v67c9.672.166 19.339 0 29-.5a39.98 39.98 0 0 0 8-2.5c-2.465 2.337-5.465 3.837-9 4.5-9.994.5-19.994.666-30 .5v-70h27z"/><path style="opacity:1" fill="#fcfbfa" d="M455.5 470.5c6.425-.37 12.758.13 19 1.5 5.333 5.667 5.333 11.333 0 17a69.558 69.558 0 0 1-19 1.5v-20z"/><path style="opacity:1" fill="#2f2b29" d="M392.5 445.5c.597.235.93.735 1 1.5a743.374 743.374 0 0 0-10 29c1.829 1.842 2.829 3.676 3 5.5 1.412-1.306 3.079-2.14 5-2.5l-2-1a47.127 47.127 0 0 0 4-5.5 86.539 86.539 0 0 1 4-10 60.48 60.48 0 0 1-3 12c6.145.99 12.478 1.323 19 1a177.566 177.566 0 0 1-19 1.5l3 1c-.001 1.399-.335 2.899-1 4.5a20.2 20.2 0 0 1-6 1.5l26 1c-8.843.17-17.51.67-26 1.5-1.658 4.638-3.325 9.305-5 14-4 1.333-8 1.333-12 0a2664.541 2664.541 0 0 1 19-55z"/><path style="opacity:1" fill="#67635f" d="M570.5 431.5v69h42a462.903 462.903 0 0 1-43 1c-.331-23.506.002-46.839 1-70z"/><path style="opacity:1" fill="#1f1d1b" d="M945.5 452.5a466.37 466.37 0 0 1-17.5 37c-1.814 1.26-3.647 1.26-5.5 0a945.555 945.555 0 0 1-18-37 6453.93 6453.93 0 0 1 20.5 37 3.943 3.943 0 0 0 2-1 909.611 909.611 0 0 1 18.5-36z"/><path style="opacity:1" fill="#7a7573" d="M412.5 473.5c.838.342 1.172 1.008 1 2-6.522.323-12.855-.01-19-1 6.19.323 12.19-.01 18-1z"/><path style="opacity:1" fill="#44403d" d="M774.5 449.5c1.371 2.436 2.371 5.103 3 8-.597.235-.93.735-1 1.5a618.173 618.173 0 0 0 12 32.5c.667 0 1 .333 1 1-.931 2.146-.597 4.312 1 6.5-3.317.498-6.65.665-10 .5-.735-4.305-2.068-8.305-4-12a204.323 204.323 0 0 0-28-1c8.824-.83 17.824-1.33 27-1.5-9.522.105-18.855-.728-28-2.5.178 3.355-.655 6.688-2.5 10-.684-1.284-.517-2.451.5-3.5-1.225-.563-2.225-.23-3 1 2.166 2.989 2.499 6.155 1 9.5a50.464 50.464 0 0 1-10-.5 731.22 731.22 0 0 1 10.5-28.5l3 1c1.087-2.432 1.587-2.098 1.5 1 1.699.027 3.033.694 4 2 6.342.166 12.675 0 19-.5a669.699 669.699 0 0 0-9.5-27.5c-.374 1.991-1.207 3.658-2.5 5a673.62 673.62 0 0 0-7.5 20c-1.008-1.759-2.508-2.926-4.5-3.5-1.074-.739-1.741-1.739-2-3a355.495 355.495 0 0 0 7-20c-.07-.765-.403-1.265-1-1.5-.172-.992.162-1.658 1-2 1.789-1.734 3.122-4.401 4-8 3.622-1.159 7.289-1.325 11-.5 1.998 6.324 4.332 11.824 7 16.5z"/><path style="opacity:1" fill="#f8f8f7" d="M752.5 474.5a152.536 152.536 0 0 0 7-23c1.293-1.342 2.126-3.009 2.5-5a669.699 669.699 0 0 1 9.5 27.5c-6.325.5-12.658.666-19 .5z"/><path style="opacity:1" fill="#130e0c" d="M570.5 431.5h41v10h-30c9.486-.994 19.152-1.327 29-1v-8h-39v67h40v-8c-10.181.327-20.181-.006-30-1h31v10h-42v-69z"/><path style="opacity:1" fill="#bdbab7" d="M891.5 431.5v69h11v-47a576.628 576.628 0 0 1 1 48h-13c-.331-23.506.002-46.839 1-70z"/><path style="opacity:1" fill="#211d1a" d="M830.5 431.5c-8.818.993-17.818 1.327-27 1-.331 22.506.003 44.84 1 67h8c-.166-7.674 0-15.341.5-23a260.63 260.63 0 0 0 1.5 23c-3.529 1.923-7.529 2.589-12 2v-70h28z"/><path style="opacity:1" fill="#47423f" d="M382.5 481.5c1.949.684 3.615 1.851 5 3.5-1.048 1.756-1.048 3.59 0 5.5a111.02 111.02 0 0 1-2.5 8c-3.125 1.287-6.291 1.287-9.5 0a198.782 198.782 0 0 1 7-17z"/><path style="opacity:1" fill="#494341" d="m685.5 431.5 2 27c-.065.438.101.772.5 1l5-4c.374.916.874 1.75 1.5 2.5 1.595-.617 2.928-.284 4 1-2.069.324-2.402 1.158-1 2.5a604.676 604.676 0 0 1-3 3.5l3 5c-1.119 2.802-3.119 4.302-6 4.5-.274-2.481-1.607-4.147-4-5h-2c-.994 9.819-1.327 19.819-1 30h-9v-67h9c-.166 9.006 0 18.006.5 27 .5-9.327.666-18.661.5-28z"/><path style="opacity:1" fill="#6d6967" d="M685.5 469.5h2v1c-.994 10.153-1.328 20.486-1 31-4.202.317-8.202-.017-12-1h11v-31z"/><path style="opacity:1" fill="#292623" d="M751.5 443.5c.597.235.93.735 1 1.5a355.495 355.495 0 0 1-7 20c.259 1.261.926 2.261 2 3 1.992.574 3.492 1.741 4.5 3.5a673.62 673.62 0 0 1 7.5-20 152.536 152.536 0 0 1-7 23c-.967-1.306-2.301-1.973-4-2 .087-3.098-.413-3.432-1.5-1l-3-1a731.22 731.22 0 0 0-10.5 28.5c3.317.498 6.65.665 10 .5 1.499-3.345 1.166-6.511-1-9.5.775-1.23 1.775-1.563 3-1-1.017 1.049-1.184 2.216-.5 3.5 1.845-3.312 2.678-6.645 2.5-10 9.145 1.772 18.478 2.605 28 2.5-9.176.17-18.176.67-27 1.5a167.71 167.71 0 0 0-4 14c-4.202.317-8.202-.017-12-1a1381.426 1381.426 0 0 1 19-56z"/><path style="opacity:1" fill="#979491" d="M863.5 431.5v69h11v-69a1225.063 1225.063 0 0 1 1 70h-13c-.331-23.506.002-46.839 1-70z"/><path style="opacity:1" fill="#0a0705" d="M863.5 431.5h11v69h-11v-69z"/><path style="opacity:1" fill="#484240" d="M864.5 432.5h9v67h-9v-67z"/><path style="opacity:1" fill="#443f3c" d="M85.5 614.5c-.839 1.141-1.506 2.474-2 4a289.882 289.882 0 0 1-34 1v-209h30c-.33 24.172.002 48.172 1 72 .992.172 1.658-.162 2-1a5869.081 5869.081 0 0 1 59-71.5 400.05 400.05 0 0 1 40 0 3608.49 3608.49 0 0 0-65 78c17.598 17.467 22.432 37.967 14.5 61.5a84.814 84.814 0 0 1-12.5 19.5c13.786 10.072 23.286 23.239 28.5 39.5a37.118 37.118 0 0 1 1.5 12h-17a73.314 73.314 0 0 1-1-12h-43c-.095 2.286-.762 4.286-2 6z"/><path style="opacity:1" fill="#46413e" d="M528.5 431.5c6.858.392 12.858 2.726 18 7-.438-.065-.772.101-1 .5a28.54 28.54 0 0 1 7 8.5 11.38 11.38 0 0 1-2.5 2 16.242 16.242 0 0 0 0 8c.684-3.593 2.184-3.927 4.5-1-1.439 2.053-3.439 3.053-6 3a50.464 50.464 0 0 1-.5 10 78.39 78.39 0 0 0-2-13c-.424-2.525-1.59-4.525-3.5-6-7.77-7.51-17.103-10.177-28-8v48c4.816.826 9.816 1.326 15 1.5l-2 1c1.789.52 3.456.187 5-1l-2-1c2.15-1.59 4.483-2.257 7-2-.615 2.468.218 4.634 2.5 6.5 2.179-1.34 2.679-1.007 1.5 1a60.826 60.826 0 0 1-10 2.5c-8.994.5-17.994.666-27 .5v-67c8.184.326 16.184-.008 24-1z"/><path style="opacity:1" fill="#35312e" d="M416.5 449.5a1183.376 1183.376 0 0 1 17 52h-12l-4-15c1.768 3.106 3.268 6.439 4.5 10 .179-1.924.346-3.591.5-5a29.144 29.144 0 0 0 2.5 5l1-1c1.049 1.607 2.549 2.273 4.5 2-3.989-14.833-8.989-30.333-15-46.5.07-.765.403-1.265 1-1.5z"/><path style="opacity:1" fill="#2d2926" d="M528.5 431.5c-7.816.992-15.816 1.326-24 1v67c9.006.166 18.006 0 27-.5a60.826 60.826 0 0 0 10-2.5c-3.548 2.399-7.548 3.899-12 4.5-8.994.5-17.994.666-27 .5v-70h26z"/><path style="opacity:1" fill="#4d4845" d="M635.5 431.5a841.82 841.82 0 0 1 1 58c9.182-.327 18.182.007 27 1-9.006-.166-18.006 0-27 .5 8.66.5 17.327.666 26 .5v8h-37v-67h9c-.167 19.003 0 38.003.5 57 .5-19.33.667-38.664.5-58z"/><path style="opacity:1" fill="#0e0a08" d="M635.5 431.5c.167 19.336 0 38.67-.5 58-.5-18.997-.667-37.997-.5-57h-9v67h37v-8c-8.673.166-17.34 0-26-.5 8.994-.5 17.994-.666 27-.5v10h-39v-69h11z"/><path style="opacity:1" fill="#181513" d="M776.5 487.5c1.932 3.695 3.265 7.695 4 12 3.35.165 6.683-.002 10-.5-1.597-2.188-1.931-4.354-1-6.5a29.417 29.417 0 0 1 2 7c-3.462.982-7.129 1.315-11 1-2.11-4.002-3.443-8.335-4-13z"/><path style="opacity:1" fill="#7d7875" d="M732.5 499.5c3.798.983 7.798 1.317 12 1-4.183 1.311-8.516 1.311-13 0 .124-.607.457-.94 1-1z"/><path style="opacity:1" fill="#787371" d="M791.5 499.5c.543.06.876.393 1 1-4.149 1.309-8.149 1.309-12 0 3.871.315 7.538-.018 11-1z"/><path style="opacity:1" fill="#fbfbfa" d="M103.5 505.5c2.489-.202 4.823.298 7 1.5l6 6a121.19 121.19 0 0 1-22 0c2.701-2.995 5.702-5.495 9-7.5z"/><path style="opacity:1" fill="#120e0b" d="M322.5 518.5c-.022-2.032-.355-4.198-1-6.5a484.008 484.008 0 0 0-44 0l-2.5 2.5c-.399-.228-.565-.562-.5-1 .453-.958 1.119-1.792 2-2.5a528.986 528.986 0 0 1 46 0c1.279 2.498 1.279 4.998 0 7.5z"/><path style="opacity:1" fill="#f9f8f7" d="M88.5 520.5c10.339-.166 20.672 0 31 .5 2.015 6.993 1.015 13.493-3 19.5a307.164 307.164 0 0 1-35 1c-.165-3.35.002-6.683.5-10a108.904 108.904 0 0 0 6.5-11z"/><path style="opacity:1" fill="#1e1917" d="M142.5 509.5c1.276 2.062 2.11 4.396 2.5 7 .336 4.189.836 8.356 1.5 12.5-.338 4.604-1.005 7.771-2 9.5a130.89 130.89 0 0 0-2-29z"/><path style="opacity:1" fill="#13100f" d="M319.5 520.5c-.761.891-1.761 1.558-3 2-1.528 10.126-1.195 20.126 1 30-1.466-.847-2.3-2.18-2.5-4a122.079 122.079 0 0 1 .5-27 6.846 6.846 0 0 1 4-1z"/><path style="opacity:1" fill="#c9a251" d="M422.5 536.5v9h-30c-.323 6.522.01 12.855 1 19h23v10c-7.852-.325-15.518.008-23 1-.99 5.81-1.323 11.81-1 18 10.514-.328 20.847.006 31 1-10.339-.166-20.672 0-31 .5 9.994.5 19.994.666 30 .5v7h-40v-66h40z"/><path style="opacity:1" fill="#cca658" d="M447.5 535.5a841.82 841.82 0 0 1 1 58c8.484.993 17.151 1.326 26 1v8h-36v-66h8c-.167 19.003 0 38.003.5 57 .5-19.33.667-38.664.5-58z"/><path style="opacity:1" fill="#caa454" d="M591.5 536.5v27c10.514.328 20.847-.006 31-1 .993-8.484 1.326-17.151 1-26h9v66h-9c.327-9.848-.006-19.514-1-29h-31v29a415.136 415.136 0 0 1-1.5-29c-.5 9.661-.666 19.328-.5 29h-8v-66h8c-.166 9.006 0 18.006.5 27 .17-9.176.67-18.176 1.5-27z"/><path style="opacity:1" fill="#caa352" d="M725.5 537.5a600.382 600.382 0 0 1 28.5 41c.838 1.499 1.671 1.832 2.5 1a462.903 462.903 0 0 0 1-43h9v66c-3.213-.31-6.213.023-9 1a792.268 792.268 0 0 1-30.5-45c-.69-1.238-1.19-1.238-1.5 0a484.723 484.723 0 0 0-1 44h-9v-66c3.439-.247 6.772.086 10 1z"/><path style="opacity:1" fill="#c9a14e" d="M540.5 577.5c4.147-.825 8.481-1.325 13-1.5a84.902 84.902 0 0 0-13-.5v-8h23v30c-13.69 9.529-28.023 10.362-43 2.5-14.335-11.826-18.502-26.66-12.5-44.5 8.421-16.792 21.921-23.292 40.5-19.5 5.72 1.36 10.72 4.026 15 8-1.865 2.858-4.032 5.358-6.5 7.5-13.669-9.336-25.669-7.669-36 5-6.326 13.172-4.16 24.672 6.5 34.5 8.639 4.717 17.139 4.55 25.5-.5.499-4.321.666-8.654.5-13h-13z"/><path style="opacity:1" fill="#f5f4f3" d="M85.5 548.5a183.08 183.08 0 0 1 27 1c-2.57 5.238-6.236 9.572-11 13-6.338-3.681-11.671-8.348-16-14z"/><path style="opacity:1" fill="#c19334" d="M447.5 535.5c.167 19.336 0 38.67-.5 58-.5-18.997-.667-37.997-.5-57h-8v66h36v-8c-8.849.326-17.516-.007-26-1h27v11h-39v-69h11z"/><path style="opacity:1" fill="#b88115" d="M622.5 573.5c.994 9.486 1.327 19.152 1 29h9v-66h-9c.326 8.849-.007 17.516-1 26v-27h11v69h-11v-31z"/><path style="opacity:1" fill="#eddfc4" d="M422.5 545.5c-9.486.994-19.152 1.327-29 1v18c-.99-6.145-1.323-12.478-1-19h30z"/><path style="opacity:1" fill="#c3963a" d="M591.5 536.5a359.343 359.343 0 0 0-1.5 27c-.5-8.994-.666-17.994-.5-27h-8v66h8c-.166-9.672 0-19.339.5-29 .17 9.842.67 19.509 1.5 29-3.529 1.923-7.529 2.589-12 2v-69c4.202-.317 8.202.017 12 1z"/><path style="opacity:1" fill="#27221f" d="M80.5 409.5v73a1296.664 1296.664 0 0 1-1-72h-30v209a289.882 289.882 0 0 0 34-1c.494-1.526 1.161-2.859 2-4a9.107 9.107 0 0 1-1 5 343.225 343.225 0 0 1-37 1v-211h33z"/><path style="opacity:1" fill="#f8f8f7" d="M82.5 564.5c3.303 2.658 6.636 5.325 10 8a84.56 84.56 0 0 0-10 12 50.501 50.501 0 0 1 0-20z"/><path style="opacity:1" fill="#0c0806" d="M244.5 603.5a900.97 900.97 0 0 1-1-60h-50v24c7.674-.166 15.341 0 23 .5a260.63 260.63 0 0 0-23 1.5c-.993-8.818-1.327-17.818-1-27h52v61z"/><path style="opacity:1" fill="#ba871c" d="M757.5 603.5c2.787-.977 5.787-1.31 9-1v-66h-9a462.903 462.903 0 0 1-1 43v-44h11v69c-3.542.313-6.875-.021-10-1z"/><path style="opacity:1" fill="#c8a04d" d="M667.5 535.5h14a2039.044 2039.044 0 0 0 23 68 24.551 24.551 0 0 1-12 .5 228.546 228.546 0 0 1-5-14 122.079 122.079 0 0 0-27 .5 323.518 323.518 0 0 1-5 13.5 60.931 60.931 0 0 1-11 .5 4183.237 4183.237 0 0 1 23-69z"/><path style="opacity:1" fill="#fdfbf8" d="M673.5 549.5c3.884 8.974 7.217 18.307 10 28a45.636 45.636 0 0 1-19 0 223.122 223.122 0 0 0 9-28z"/><path style="opacity:1" fill="#b78212" d="M563.5 597.5v-30h-23v8a84.902 84.902 0 0 1 13 .5c-4.519.175-8.853.675-13 1.5-.982-3.462-1.315-7.129-1-11h25c.328 10.514-.006 20.847-1 31z"/><path style="opacity:1" fill="#dabd85" d="M416.5 564.5c.982 3.462 1.315 7.129 1 11h-24c7.482-.992 15.148-1.325 23-1v-10z"/><path style="opacity:1" fill="#94918d" d="M82.5 564.5a50.501 50.501 0 0 0 0 20c-.06.543-.393.876-1 1a61.002 61.002 0 0 1 0-22c.607.124.94.457 1 1z"/><path style="opacity:1" fill="#211e1c" d="M279.5 548.5c1.073.751 1.24 1.751.5 3a1773.762 1773.762 0 0 0-24 51c-2.474 7.88.026 13.38 7.5 16.5-.228.399-.562.565-1 .5-7.26-2.847-10.093-8.18-8.5-16 8.514-18.36 17.014-36.693 25.5-55z"/><path style="opacity:1" fill="#fbfaf9" d="M107.5 580.5c8.01 4.169 14.677 10.002 20 17.5a289.106 289.106 0 0 1-34 0 115.18 115.18 0 0 0 14-17.5z"/><path style="opacity:1" fill="#1e1b18" d="M324.5 566.5a201.367 201.367 0 0 1 12 24c-4.813-6.956-8.813-14.956-12-24z"/><path style="opacity:1" fill="#b68112" d="M784.5 535.5h11v69h-11v-69z"/><path style="opacity:1" fill="#caa555" d="M785.5 536.5h9v66h-9v-66z"/><path style="opacity:1" fill="#443f3d" d="M193.5 569.5a260.63 260.63 0 0 1 23-1.5c-7.659-.5-15.326-.666-23-.5v-24h50a900.97 900.97 0 0 0 1 60c-11.779 11.775-26.113 18.275-43 19.5-21.857 1.321-39.691-6.512-53.5-23.5-6.887-9.607-12.053-20.107-15.5-31.5 5.881-9.159 9.881-18.992 12-29.5.995-1.729 1.662-4.896 2-9.5a159.667 159.667 0 0 1-1.5-12.5c-.39-2.604-1.224-4.938-2.5-7-1.588-2.027-2.088-4.361-1.5-7 21.319-27.769 48.819-36.269 82.5-25.5a160.999 160.999 0 0 1 15 8 21.365 21.365 0 0 1 5 6 844.073 844.073 0 0 0-12.5 24.5c-15.043-14.209-31.876-16.709-50.5-7.5-12.747 10.532-18.747 24.199-18 41-.851 14.787 3.815 27.454 14 38 12.053 7.528 24.72 8.528 38 3 1.938-6.548 2.605-13.382 2-20.5h-23z"/><path style="opacity:1" fill="#ba8720" d="M725.5 537.5c-3.228-.914-6.561-1.247-10-1v66h9a484.723 484.723 0 0 1 1-44v46h-11v-69c4.149-.58 7.816.086 11 2z"/><path style="opacity:1" fill="#bf8e2c" d="M422.5 536.5h-40v66h40v-7c-10.006.166-20.006 0-30-.5 10.328-.5 20.661-.666 31-.5v10h-42v-69c13.844-.329 27.51.004 41 1z"/><path style="opacity:1" fill="#443f3c" d="M322.5 518.5c-.473 1.406-1.473 2.073-3 2a6.846 6.846 0 0 0-4 1 122.079 122.079 0 0 0-.5 27c.2 1.82 1.034 3.153 2.5 4a68.744 68.744 0 0 1 7 14c3.187 9.044 7.187 17.044 12 24 4.781 6.526 6.615 13.859 5.5 22-.612 2.615-2.112 4.281-4.5 5a42.47 42.47 0 0 0-5 1.5c-22.837.168-45.504.668-68 1.5-.992.172-1.658-.162-2-1 .438.065.772-.101 1-.5-7.474-3.12-9.974-8.62-7.5-16.5a1773.762 1773.762 0 0 1 24-51c.74-1.249.573-2.249-.5-3a78.07 78.07 0 0 0 0-24c-5.119-2.365-6.786-6.032-5-11-.065.438.101.772.5 1l2.5-2.5a484.008 484.008 0 0 1 44 0c.645 2.302.978 4.468 1 6.5z"/><path style="opacity:1" fill="#110f0b" d="M287.5 577.5c10.006-.166 20.006 0 30 .5l-29 1c-1.318 2.824-2.985 5.324-5 7.5a54.343 54.343 0 0 1 4-9z"/><path style="opacity:1" fill="#fafaf8" d="M287.5 577.5a54.343 54.343 0 0 0-4 9c-3.621 5.069-6.621 10.569-9 16.5-1.667.667-3.333.667-5 0a4.933 4.933 0 0 1-1-2.5c6.83-15.662 13.664-31.328 20.5-47 .5-9.661.666-19.328.5-29h16a210.89 210.89 0 0 0 1.5 30 308.289 308.289 0 0 1 9.5 22c-9.848-.327-19.514.006-29 1z"/><path style="opacity:1" fill="#080705" d="M337.5 617.5c-.847 1.466-2.18 2.3-4 2.5-22.998.5-45.998.667-69 .5a2297.055 2297.055 0 0 1 68-1.5 42.47 42.47 0 0 1 5-1.5z"/></svg>