<svg id="visual" viewBox="0 0 960 540" width="960" height="540" xmlns="http://www.w3.org/2000/svg" xmlns:xlink="http://www.w3.org/1999/xlink" version="1.1"><g><g transform="translate(598 95)"><path d="M77.2 -22.9C89 11.4 80.1 54.6 53.1 74.6C26.1 94.5 -18.9 91.2 -46.3 69.8C-73.7 48.5 -83.5 9.1 -72.9 -23.6C-62.3 -56.2 -31.1 -82 0.8 -82.3C32.7 -82.5 65.3 -57.2 77.2 -22.9Z" stroke="#a0bfb9" fill="none" stroke-width="20"></path></g><g transform="translate(257 162)"><path d="M79.7 -29.5C88.6 1.4 70.9 37.3 43 57.1C15.1 76.8 -23 80.4 -46 63.6C-69 46.8 -76.9 9.6 -66.7 -23.1C-56.6 -55.8 -28.3 -84.1 3.6 -85.2C35.4 -86.4 70.9 -60.5 79.7 -29.5Z" stroke="#a0bfb9" fill="none" stroke-width="20"></path></g><g transform="translate(586 415)"><path d="M55.1 -18.5C61.8 2.6 50.9 28.8 31.3 43C11.8 57.1 -16.4 59.2 -34.4 46.4C-52.4 33.5 -60.3 5.7 -52.8 -16.5C-45.4 -38.7 -22.7 -55.3 0.8 -55.5C24.2 -55.8 48.4 -39.7 55.1 -18.5Z" stroke="#a0bfb9" fill="none" stroke-width="20"></path></g><g transform="translate(803 303)"><path d="M60.8 -20.2C69.2 6 59.7 37.5 37.8 53.9C15.8 70.3 -18.5 71.5 -41.9 55.1C-65.4 38.7 -77.9 4.6 -69.1 -22.1C-60.3 -48.9 -30.1 -68.4 -2 -67.8C26.2 -67.2 52.5 -46.4 60.8 -20.2Z" stroke="#a0bfb9" fill="none" stroke-width="20"></path></g><g transform="translate(904 526)"><path d="M70.7 -23.2C80.4 6.9 69.3 43.5 43.1 63.7C16.8 83.8 -24.7 87.5 -51.8 68.5C-78.9 49.5 -91.5 7.8 -80.5 -24.1C-69.4 -56 -34.7 -78.1 -2.1 -77.5C30.5 -76.8 61 -53.3 70.7 -23.2Z" stroke="#a0bfb9" fill="none" stroke-width="20"></path></g><g transform="translate(5 167)"><path d="M53.1 -19.2C60.3 4.7 51.6 31.9 33.1 45.2C14.7 58.5 -13.6 58 -34.6 43.7C-55.7 29.3 -69.6 1.1 -62.6 -22.6C-55.6 -46.2 -27.8 -65.3 -2.4 -64.5C23 -63.7 46 -43.1 53.1 -19.2Z" stroke="#a0bfb9" fill="none" stroke-width="20"></path></g><g transform="translate(291 443)"><path d="M74.3 -21.4C84.2 6.6 72 44.5 46.8 62.3C21.5 80.2 -16.9 78.1 -39.4 60.3C-61.9 42.5 -68.6 9 -59.4 -17.9C-50.2 -44.7 -25.1 -64.9 3.5 -66.1C32.1 -67.2 64.3 -49.3 74.3 -21.4Z" stroke="#a0bfb9" fill="none" stroke-width="20"></path></g><g transform="translate(929 41)"><path d="M58.7 -18.3C66.8 5.9 57.7 36.5 36.2 52.8C14.7 69.2 -19.4 71.3 -41.8 55.5C-64.2 39.7 -75.1 5.9 -66.2 -19.4C-57.3 -44.6 -28.6 -61.3 -1.7 -60.8C25.3 -60.2 50.6 -42.4 58.7 -18.3Z" stroke="#a0bfb9" fill="none" stroke-width="20"></path></g><g transform="translate(9 537)"><path d="M68.9 -22.3C79.3 9.7 70.9 47.8 46.6 65.9C22.3 84 -17.9 82 -43.7 62.7C-69.6 43.3 -81 6.7 -71.3 -24.3C-61.6 -55.2 -30.8 -80.4 -0.8 -80.1C29.2 -79.9 58.5 -54.2 68.9 -22.3Z" stroke="#a0bfb9" fill="none" stroke-width="20"></path></g></g></svg>