<svg width="1920" height="1080" viewBox="0 0 1920 1080" xmlns="http://www.w3.org/2000/svg"><rect width="1920" height="1080" fill="#df9d68"/><path d="M 0,1080 C 0,1080 0,180 0,180 C 128.58717948717953,182.04102564102564 257.17435897435905,184.08205128205128 360,170 C 462.82564102564095,155.91794871794872 539.8897435897435,125.71282051282049 624,137 C 708.1102564102565,148.28717948717951 799.2666666666668,201.0666666666667 908,221 C 1016.7333333333332,240.9333333333333 1143.0435897435898,228.0205128205128 1271,200 C 1398.9564102564102,171.9794871794872 1528.5589743589742,128.85128205128206 1637,123 C 1745.4410256410258,117.14871794871794 1832.7205128205128,148.57435897435897 1920,180 C 1920,180 1920,1080 1920,1080 Z" fill="#102351" opacity="0.09999999999999999"/><path d="M 0,1080 C 0,1080 0,360 0,360 C 120.4358974358974,341.0692307692308 240.8717948717948,322.1384615384615 355,308 C 469.1282051282052,293.8615384615385 576.9487179487181,284.5153846153846 660,294 C 743.0512820512819,303.4846153846154 801.3333333333331,331.8 903,336 C 1004.6666666666669,340.2 1149.7179487179487,320.2846153846154 1269,307 C 1388.2820512820513,293.7153846153846 1481.7948717948718,287.0615384615385 1586,297 C 1690.2051282051282,306.9384615384615 1805.102564102564,333.46923076923076 1920,360 C 1920,360 1920,1080 1920,1080 Z" fill="#102351" opacity="0.19999999999999998"/><path d="M 0,1080 C 0,1080 0,540 0,540 C 137.93846153846152,523.2897435897436 275.87692307692305,506.5794871794872 370,496 C 464.12307692307695,485.4205128205128 514.4307692307692,480.9717948717948 612,502 C 709.5692307692308,523.0282051282052 854.4000000000001,569.5333333333333 961,580 C 1067.6,590.4666666666667 1135.9692307692308,564.8948717948718 1236,569 C 1336.0307692307692,573.1051282051282 1467.7230769230769,606.8871794871794 1587,607 C 1706.2769230769231,607.1128205128206 1813.1384615384616,573.5564102564103 1920,540 C 1920,540 1920,1080 1920,1080 Z" fill="#102351" opacity="0.3"/><path d="M 0,1080 C 0,1080 0,720 0,720 C 77.1307692307692,725.0846153846154 154.2615384615384,730.1692307692308 265,736 C 375.7384615384616,741.8307692307692 520.0846153846154,748.4076923076923 629,726 C 737.9153846153846,703.5923076923077 811.4000000000001,652.1999999999999 917,655 C 1022.5999999999999,657.8000000000001 1160.3153846153848,714.7923076923078 1270,737 C 1379.6846153846152,759.2076923076922 1461.3384615384614,746.6307692307691 1565,738 C 1668.6615384615386,729.3692307692309 1794.3307692307694,724.6846153846154 1920,720 C 1920,720 1920,1080 1920,1080 Z" fill="#102351" opacity="0.39999999999999997"/><path d="M 0,1080 C 0,1080 0,900 0,900 C 106.83076923076922,877.1743589743589 213.66153846153844,854.348717948718 333,870 C 452.33846153846156,885.651282051282 584.1846153846154,939.7794871794872 692,951 C 799.8153846153846,962.2205128205128 883.5999999999999,930.5333333333333 972,900 C 1060.4,869.4666666666667 1153.4153846153847,840.0871794871795 1255,842 C 1356.5846153846153,843.9128205128205 1466.7384615384615,877.1179487179488 1579,892 C 1691.2615384615385,906.8820512820512 1805.6307692307691,903.4410256410256 1920,900 C 1920,900 1920,1080 1920,1080 Z" fill="#102351" opacity="0.49999999999999994"/></svg>